%TF.GenerationSoftware,KiCad,Pcbnew,8.0.4*%
%TF.CreationDate,2024-11-20T20:43:31-05:00*%
%TF.ProjectId,voltage_regulator_5V_ap2210,766f6c74-6167-4655-9f72-6567756c6174,rev?*%
%TF.SameCoordinates,Original*%
%TF.FileFunction,Legend,Bot*%
%TF.FilePolarity,Positive*%
%FSLAX46Y46*%
G04 Gerber Fmt 4.6, Leading zero omitted, Abs format (unit mm)*
G04 Created by KiCad (PCBNEW 8.0.4) date 2024-11-20 20:43:31*
%MOMM*%
%LPD*%
G01*
G04 APERTURE LIST*
%ADD10C,0.100000*%
%ADD11R,2.600000X2.600000*%
%ADD12C,2.600000*%
%ADD13C,4.704000*%
G04 APERTURE END LIST*
D10*
X117573665Y-54827068D02*
X117573665Y-55065163D01*
X117573665Y-55065163D02*
X117073665Y-55065163D01*
X117573665Y-54660401D02*
X117073665Y-54660401D01*
X117073665Y-54660401D02*
X117073665Y-54541353D01*
X117073665Y-54541353D02*
X117097475Y-54469925D01*
X117097475Y-54469925D02*
X117145094Y-54422306D01*
X117145094Y-54422306D02*
X117192713Y-54398496D01*
X117192713Y-54398496D02*
X117287951Y-54374687D01*
X117287951Y-54374687D02*
X117359379Y-54374687D01*
X117359379Y-54374687D02*
X117454617Y-54398496D01*
X117454617Y-54398496D02*
X117502236Y-54422306D01*
X117502236Y-54422306D02*
X117549856Y-54469925D01*
X117549856Y-54469925D02*
X117573665Y-54541353D01*
X117573665Y-54541353D02*
X117573665Y-54660401D01*
X117073665Y-54065163D02*
X117073665Y-53969925D01*
X117073665Y-53969925D02*
X117097475Y-53922306D01*
X117097475Y-53922306D02*
X117145094Y-53874687D01*
X117145094Y-53874687D02*
X117240332Y-53850877D01*
X117240332Y-53850877D02*
X117406998Y-53850877D01*
X117406998Y-53850877D02*
X117502236Y-53874687D01*
X117502236Y-53874687D02*
X117549856Y-53922306D01*
X117549856Y-53922306D02*
X117573665Y-53969925D01*
X117573665Y-53969925D02*
X117573665Y-54065163D01*
X117573665Y-54065163D02*
X117549856Y-54112782D01*
X117549856Y-54112782D02*
X117502236Y-54160401D01*
X117502236Y-54160401D02*
X117406998Y-54184210D01*
X117406998Y-54184210D02*
X117240332Y-54184210D01*
X117240332Y-54184210D02*
X117145094Y-54160401D01*
X117145094Y-54160401D02*
X117097475Y-54112782D01*
X117097475Y-54112782D02*
X117073665Y-54065163D01*
X117383189Y-53255639D02*
X117383189Y-52874687D01*
X117073665Y-52017544D02*
X117073665Y-52255639D01*
X117073665Y-52255639D02*
X117311760Y-52279448D01*
X117311760Y-52279448D02*
X117287951Y-52255639D01*
X117287951Y-52255639D02*
X117264141Y-52208020D01*
X117264141Y-52208020D02*
X117264141Y-52088972D01*
X117264141Y-52088972D02*
X117287951Y-52041353D01*
X117287951Y-52041353D02*
X117311760Y-52017544D01*
X117311760Y-52017544D02*
X117359379Y-51993734D01*
X117359379Y-51993734D02*
X117478427Y-51993734D01*
X117478427Y-51993734D02*
X117526046Y-52017544D01*
X117526046Y-52017544D02*
X117549856Y-52041353D01*
X117549856Y-52041353D02*
X117573665Y-52088972D01*
X117573665Y-52088972D02*
X117573665Y-52208020D01*
X117573665Y-52208020D02*
X117549856Y-52255639D01*
X117549856Y-52255639D02*
X117526046Y-52279448D01*
X117073665Y-51850877D02*
X117573665Y-51684211D01*
X117573665Y-51684211D02*
X117073665Y-51517544D01*
X118378637Y-55065163D02*
X117878637Y-55065163D01*
X117878637Y-55065163D02*
X118235780Y-54898496D01*
X118235780Y-54898496D02*
X117878637Y-54731830D01*
X117878637Y-54731830D02*
X118378637Y-54731830D01*
X118378637Y-54422305D02*
X118354828Y-54469924D01*
X118354828Y-54469924D02*
X118331018Y-54493734D01*
X118331018Y-54493734D02*
X118283399Y-54517543D01*
X118283399Y-54517543D02*
X118140542Y-54517543D01*
X118140542Y-54517543D02*
X118092923Y-54493734D01*
X118092923Y-54493734D02*
X118069113Y-54469924D01*
X118069113Y-54469924D02*
X118045304Y-54422305D01*
X118045304Y-54422305D02*
X118045304Y-54350877D01*
X118045304Y-54350877D02*
X118069113Y-54303258D01*
X118069113Y-54303258D02*
X118092923Y-54279448D01*
X118092923Y-54279448D02*
X118140542Y-54255639D01*
X118140542Y-54255639D02*
X118283399Y-54255639D01*
X118283399Y-54255639D02*
X118331018Y-54279448D01*
X118331018Y-54279448D02*
X118354828Y-54303258D01*
X118354828Y-54303258D02*
X118378637Y-54350877D01*
X118378637Y-54350877D02*
X118378637Y-54422305D01*
X118378637Y-54041353D02*
X118045304Y-54041353D01*
X117878637Y-54041353D02*
X117902447Y-54065162D01*
X117902447Y-54065162D02*
X117926256Y-54041353D01*
X117926256Y-54041353D02*
X117902447Y-54017543D01*
X117902447Y-54017543D02*
X117878637Y-54041353D01*
X117878637Y-54041353D02*
X117926256Y-54041353D01*
X118045304Y-53803258D02*
X118378637Y-53803258D01*
X118092923Y-53803258D02*
X118069113Y-53779448D01*
X118069113Y-53779448D02*
X118045304Y-53731829D01*
X118045304Y-53731829D02*
X118045304Y-53660401D01*
X118045304Y-53660401D02*
X118069113Y-53612782D01*
X118069113Y-53612782D02*
X118116732Y-53588972D01*
X118116732Y-53588972D02*
X118378637Y-53588972D01*
X118235780Y-52993734D02*
X118235780Y-52755639D01*
X118378637Y-53041353D02*
X117878637Y-52874687D01*
X117878637Y-52874687D02*
X118378637Y-52708020D01*
X118378637Y-52541354D02*
X117878637Y-52541354D01*
X118378637Y-52327068D02*
X118116732Y-52327068D01*
X118116732Y-52327068D02*
X118069113Y-52350878D01*
X118069113Y-52350878D02*
X118045304Y-52398497D01*
X118045304Y-52398497D02*
X118045304Y-52469925D01*
X118045304Y-52469925D02*
X118069113Y-52517544D01*
X118069113Y-52517544D02*
X118092923Y-52541354D01*
X118378637Y-52088973D02*
X118045304Y-52088973D01*
X118092923Y-52088973D02*
X118069113Y-52065163D01*
X118069113Y-52065163D02*
X118045304Y-52017544D01*
X118045304Y-52017544D02*
X118045304Y-51946116D01*
X118045304Y-51946116D02*
X118069113Y-51898497D01*
X118069113Y-51898497D02*
X118116732Y-51874687D01*
X118116732Y-51874687D02*
X118378637Y-51874687D01*
X118116732Y-51874687D02*
X118069113Y-51850878D01*
X118069113Y-51850878D02*
X118045304Y-51803259D01*
X118045304Y-51803259D02*
X118045304Y-51731830D01*
X118045304Y-51731830D02*
X118069113Y-51684211D01*
X118069113Y-51684211D02*
X118116732Y-51660401D01*
X118116732Y-51660401D02*
X118378637Y-51660401D01*
X118354828Y-51231830D02*
X118378637Y-51279449D01*
X118378637Y-51279449D02*
X118378637Y-51374687D01*
X118378637Y-51374687D02*
X118354828Y-51422306D01*
X118354828Y-51422306D02*
X118307208Y-51446115D01*
X118307208Y-51446115D02*
X118116732Y-51446115D01*
X118116732Y-51446115D02*
X118069113Y-51422306D01*
X118069113Y-51422306D02*
X118045304Y-51374687D01*
X118045304Y-51374687D02*
X118045304Y-51279449D01*
X118045304Y-51279449D02*
X118069113Y-51231830D01*
X118069113Y-51231830D02*
X118116732Y-51208020D01*
X118116732Y-51208020D02*
X118164351Y-51208020D01*
X118164351Y-51208020D02*
X118211970Y-51446115D01*
X118378637Y-50779449D02*
X117878637Y-50779449D01*
X118354828Y-50779449D02*
X118378637Y-50827068D01*
X118378637Y-50827068D02*
X118378637Y-50922306D01*
X118378637Y-50922306D02*
X118354828Y-50969925D01*
X118354828Y-50969925D02*
X118331018Y-50993735D01*
X118331018Y-50993735D02*
X118283399Y-51017544D01*
X118283399Y-51017544D02*
X118140542Y-51017544D01*
X118140542Y-51017544D02*
X118092923Y-50993735D01*
X118092923Y-50993735D02*
X118069113Y-50969925D01*
X118069113Y-50969925D02*
X118045304Y-50922306D01*
X118045304Y-50922306D02*
X118045304Y-50827068D01*
X118045304Y-50827068D02*
X118069113Y-50779449D01*
X119183609Y-55065163D02*
X118683609Y-55065163D01*
X118683609Y-55065163D02*
X119183609Y-54779449D01*
X119183609Y-54779449D02*
X118683609Y-54779449D01*
X119183609Y-54469924D02*
X119159800Y-54517543D01*
X119159800Y-54517543D02*
X119135990Y-54541353D01*
X119135990Y-54541353D02*
X119088371Y-54565162D01*
X119088371Y-54565162D02*
X118945514Y-54565162D01*
X118945514Y-54565162D02*
X118897895Y-54541353D01*
X118897895Y-54541353D02*
X118874085Y-54517543D01*
X118874085Y-54517543D02*
X118850276Y-54469924D01*
X118850276Y-54469924D02*
X118850276Y-54398496D01*
X118850276Y-54398496D02*
X118874085Y-54350877D01*
X118874085Y-54350877D02*
X118897895Y-54327067D01*
X118897895Y-54327067D02*
X118945514Y-54303258D01*
X118945514Y-54303258D02*
X119088371Y-54303258D01*
X119088371Y-54303258D02*
X119135990Y-54327067D01*
X119135990Y-54327067D02*
X119159800Y-54350877D01*
X119159800Y-54350877D02*
X119183609Y-54398496D01*
X119183609Y-54398496D02*
X119183609Y-54469924D01*
X118850276Y-54136591D02*
X119183609Y-54017543D01*
X119183609Y-54017543D02*
X118850276Y-53898496D01*
X119159800Y-53517544D02*
X119183609Y-53565163D01*
X119183609Y-53565163D02*
X119183609Y-53660401D01*
X119183609Y-53660401D02*
X119159800Y-53708020D01*
X119159800Y-53708020D02*
X119112180Y-53731829D01*
X119112180Y-53731829D02*
X118921704Y-53731829D01*
X118921704Y-53731829D02*
X118874085Y-53708020D01*
X118874085Y-53708020D02*
X118850276Y-53660401D01*
X118850276Y-53660401D02*
X118850276Y-53565163D01*
X118850276Y-53565163D02*
X118874085Y-53517544D01*
X118874085Y-53517544D02*
X118921704Y-53493734D01*
X118921704Y-53493734D02*
X118969323Y-53493734D01*
X118969323Y-53493734D02*
X119016942Y-53731829D01*
X119183609Y-53279449D02*
X118850276Y-53279449D01*
X118897895Y-53279449D02*
X118874085Y-53255639D01*
X118874085Y-53255639D02*
X118850276Y-53208020D01*
X118850276Y-53208020D02*
X118850276Y-53136592D01*
X118850276Y-53136592D02*
X118874085Y-53088973D01*
X118874085Y-53088973D02*
X118921704Y-53065163D01*
X118921704Y-53065163D02*
X119183609Y-53065163D01*
X118921704Y-53065163D02*
X118874085Y-53041354D01*
X118874085Y-53041354D02*
X118850276Y-52993735D01*
X118850276Y-52993735D02*
X118850276Y-52922306D01*
X118850276Y-52922306D02*
X118874085Y-52874687D01*
X118874085Y-52874687D02*
X118921704Y-52850877D01*
X118921704Y-52850877D02*
X119183609Y-52850877D01*
X119183609Y-52612782D02*
X118683609Y-52612782D01*
X118874085Y-52612782D02*
X118850276Y-52565163D01*
X118850276Y-52565163D02*
X118850276Y-52469925D01*
X118850276Y-52469925D02*
X118874085Y-52422306D01*
X118874085Y-52422306D02*
X118897895Y-52398496D01*
X118897895Y-52398496D02*
X118945514Y-52374687D01*
X118945514Y-52374687D02*
X119088371Y-52374687D01*
X119088371Y-52374687D02*
X119135990Y-52398496D01*
X119135990Y-52398496D02*
X119159800Y-52422306D01*
X119159800Y-52422306D02*
X119183609Y-52469925D01*
X119183609Y-52469925D02*
X119183609Y-52565163D01*
X119183609Y-52565163D02*
X119159800Y-52612782D01*
X119159800Y-51969925D02*
X119183609Y-52017544D01*
X119183609Y-52017544D02*
X119183609Y-52112782D01*
X119183609Y-52112782D02*
X119159800Y-52160401D01*
X119159800Y-52160401D02*
X119112180Y-52184210D01*
X119112180Y-52184210D02*
X118921704Y-52184210D01*
X118921704Y-52184210D02*
X118874085Y-52160401D01*
X118874085Y-52160401D02*
X118850276Y-52112782D01*
X118850276Y-52112782D02*
X118850276Y-52017544D01*
X118850276Y-52017544D02*
X118874085Y-51969925D01*
X118874085Y-51969925D02*
X118921704Y-51946115D01*
X118921704Y-51946115D02*
X118969323Y-51946115D01*
X118969323Y-51946115D02*
X119016942Y-52184210D01*
X119183609Y-51731830D02*
X118850276Y-51731830D01*
X118945514Y-51731830D02*
X118897895Y-51708020D01*
X118897895Y-51708020D02*
X118874085Y-51684211D01*
X118874085Y-51684211D02*
X118850276Y-51636592D01*
X118850276Y-51636592D02*
X118850276Y-51588973D01*
X118731228Y-51065163D02*
X118707419Y-51041354D01*
X118707419Y-51041354D02*
X118683609Y-50993735D01*
X118683609Y-50993735D02*
X118683609Y-50874687D01*
X118683609Y-50874687D02*
X118707419Y-50827068D01*
X118707419Y-50827068D02*
X118731228Y-50803259D01*
X118731228Y-50803259D02*
X118778847Y-50779449D01*
X118778847Y-50779449D02*
X118826466Y-50779449D01*
X118826466Y-50779449D02*
X118897895Y-50803259D01*
X118897895Y-50803259D02*
X119183609Y-51088973D01*
X119183609Y-51088973D02*
X119183609Y-50779449D01*
X118683609Y-50469926D02*
X118683609Y-50422307D01*
X118683609Y-50422307D02*
X118707419Y-50374688D01*
X118707419Y-50374688D02*
X118731228Y-50350878D01*
X118731228Y-50350878D02*
X118778847Y-50327069D01*
X118778847Y-50327069D02*
X118874085Y-50303259D01*
X118874085Y-50303259D02*
X118993133Y-50303259D01*
X118993133Y-50303259D02*
X119088371Y-50327069D01*
X119088371Y-50327069D02*
X119135990Y-50350878D01*
X119135990Y-50350878D02*
X119159800Y-50374688D01*
X119159800Y-50374688D02*
X119183609Y-50422307D01*
X119183609Y-50422307D02*
X119183609Y-50469926D01*
X119183609Y-50469926D02*
X119159800Y-50517545D01*
X119159800Y-50517545D02*
X119135990Y-50541354D01*
X119135990Y-50541354D02*
X119088371Y-50565164D01*
X119088371Y-50565164D02*
X118993133Y-50588973D01*
X118993133Y-50588973D02*
X118874085Y-50588973D01*
X118874085Y-50588973D02*
X118778847Y-50565164D01*
X118778847Y-50565164D02*
X118731228Y-50541354D01*
X118731228Y-50541354D02*
X118707419Y-50517545D01*
X118707419Y-50517545D02*
X118683609Y-50469926D01*
X119159800Y-50065164D02*
X119183609Y-50065164D01*
X119183609Y-50065164D02*
X119231228Y-50088974D01*
X119231228Y-50088974D02*
X119255038Y-50112783D01*
X118731228Y-49493736D02*
X118707419Y-49469927D01*
X118707419Y-49469927D02*
X118683609Y-49422308D01*
X118683609Y-49422308D02*
X118683609Y-49303260D01*
X118683609Y-49303260D02*
X118707419Y-49255641D01*
X118707419Y-49255641D02*
X118731228Y-49231832D01*
X118731228Y-49231832D02*
X118778847Y-49208022D01*
X118778847Y-49208022D02*
X118826466Y-49208022D01*
X118826466Y-49208022D02*
X118897895Y-49231832D01*
X118897895Y-49231832D02*
X119183609Y-49517546D01*
X119183609Y-49517546D02*
X119183609Y-49208022D01*
X118683609Y-48898499D02*
X118683609Y-48850880D01*
X118683609Y-48850880D02*
X118707419Y-48803261D01*
X118707419Y-48803261D02*
X118731228Y-48779451D01*
X118731228Y-48779451D02*
X118778847Y-48755642D01*
X118778847Y-48755642D02*
X118874085Y-48731832D01*
X118874085Y-48731832D02*
X118993133Y-48731832D01*
X118993133Y-48731832D02*
X119088371Y-48755642D01*
X119088371Y-48755642D02*
X119135990Y-48779451D01*
X119135990Y-48779451D02*
X119159800Y-48803261D01*
X119159800Y-48803261D02*
X119183609Y-48850880D01*
X119183609Y-48850880D02*
X119183609Y-48898499D01*
X119183609Y-48898499D02*
X119159800Y-48946118D01*
X119159800Y-48946118D02*
X119135990Y-48969927D01*
X119135990Y-48969927D02*
X119088371Y-48993737D01*
X119088371Y-48993737D02*
X118993133Y-49017546D01*
X118993133Y-49017546D02*
X118874085Y-49017546D01*
X118874085Y-49017546D02*
X118778847Y-48993737D01*
X118778847Y-48993737D02*
X118731228Y-48969927D01*
X118731228Y-48969927D02*
X118707419Y-48946118D01*
X118707419Y-48946118D02*
X118683609Y-48898499D01*
X118731228Y-48541356D02*
X118707419Y-48517547D01*
X118707419Y-48517547D02*
X118683609Y-48469928D01*
X118683609Y-48469928D02*
X118683609Y-48350880D01*
X118683609Y-48350880D02*
X118707419Y-48303261D01*
X118707419Y-48303261D02*
X118731228Y-48279452D01*
X118731228Y-48279452D02*
X118778847Y-48255642D01*
X118778847Y-48255642D02*
X118826466Y-48255642D01*
X118826466Y-48255642D02*
X118897895Y-48279452D01*
X118897895Y-48279452D02*
X119183609Y-48565166D01*
X119183609Y-48565166D02*
X119183609Y-48255642D01*
X118850276Y-47827071D02*
X119183609Y-47827071D01*
X118659800Y-47946119D02*
X119016942Y-48065166D01*
X119016942Y-48065166D02*
X119016942Y-47755643D01*
%LPC*%
D11*
%TO.C,J3*%
X104000000Y-46250000D03*
D12*
X99000000Y-46250000D03*
%TD*%
D13*
%TO.C,J2*%
X112250000Y-60000000D03*
X112250000Y-66000000D03*
X116950000Y-63000000D03*
%TD*%
D11*
%TO.C,J1*%
X97250000Y-68250000D03*
D12*
X102250000Y-68250000D03*
%TD*%
%LPD*%
M02*
