%TF.GenerationSoftware,KiCad,Pcbnew,8.0.4*%
%TF.CreationDate,2024-11-26T22:54:28-05:00*%
%TF.ProjectId,buck_converter_lm2596_5V,6275636b-5f63-46f6-9e76-65727465725f,rev?*%
%TF.SameCoordinates,Original*%
%TF.FileFunction,Drillmap*%
%TF.FilePolarity,Positive*%
%FSLAX45Y45*%
G04 Gerber Fmt 4.5, Leading zero omitted, Abs format (unit mm)*
G04 Created by KiCad (PCBNEW 8.0.4) date 2024-11-26 22:54:28*
%MOMM*%
%LPD*%
G01*
G04 APERTURE LIST*
%ADD10C,0.050000*%
%ADD11C,0.200000*%
G04 APERTURE END LIST*
D10*
X13716000Y-5461000D02*
X18415000Y-5461000D01*
X18415000Y-10845800D01*
X13716000Y-10845800D01*
X13716000Y-5461000D01*
D11*
X13974277Y-11159784D02*
X13974277Y-10959784D01*
X13974277Y-10959784D02*
X14021896Y-10959784D01*
X14021896Y-10959784D02*
X14050467Y-10969308D01*
X14050467Y-10969308D02*
X14069515Y-10988355D01*
X14069515Y-10988355D02*
X14079039Y-11007403D01*
X14079039Y-11007403D02*
X14088562Y-11045498D01*
X14088562Y-11045498D02*
X14088562Y-11074070D01*
X14088562Y-11074070D02*
X14079039Y-11112165D01*
X14079039Y-11112165D02*
X14069515Y-11131212D01*
X14069515Y-11131212D02*
X14050467Y-11150260D01*
X14050467Y-11150260D02*
X14021896Y-11159784D01*
X14021896Y-11159784D02*
X13974277Y-11159784D01*
X14174277Y-11159784D02*
X14174277Y-11026450D01*
X14174277Y-11064546D02*
X14183801Y-11045498D01*
X14183801Y-11045498D02*
X14193324Y-11035974D01*
X14193324Y-11035974D02*
X14212372Y-11026450D01*
X14212372Y-11026450D02*
X14231420Y-11026450D01*
X14298086Y-11159784D02*
X14298086Y-11026450D01*
X14298086Y-10959784D02*
X14288562Y-10969308D01*
X14288562Y-10969308D02*
X14298086Y-10978831D01*
X14298086Y-10978831D02*
X14307610Y-10969308D01*
X14307610Y-10969308D02*
X14298086Y-10959784D01*
X14298086Y-10959784D02*
X14298086Y-10978831D01*
X14421896Y-11159784D02*
X14402848Y-11150260D01*
X14402848Y-11150260D02*
X14393324Y-11131212D01*
X14393324Y-11131212D02*
X14393324Y-10959784D01*
X14526658Y-11159784D02*
X14507610Y-11150260D01*
X14507610Y-11150260D02*
X14498086Y-11131212D01*
X14498086Y-11131212D02*
X14498086Y-10959784D01*
X14755229Y-11159784D02*
X14755229Y-10959784D01*
X14755229Y-10959784D02*
X14821896Y-11102641D01*
X14821896Y-11102641D02*
X14888562Y-10959784D01*
X14888562Y-10959784D02*
X14888562Y-11159784D01*
X15069515Y-11159784D02*
X15069515Y-11055022D01*
X15069515Y-11055022D02*
X15059991Y-11035974D01*
X15059991Y-11035974D02*
X15040943Y-11026450D01*
X15040943Y-11026450D02*
X15002848Y-11026450D01*
X15002848Y-11026450D02*
X14983801Y-11035974D01*
X15069515Y-11150260D02*
X15050467Y-11159784D01*
X15050467Y-11159784D02*
X15002848Y-11159784D01*
X15002848Y-11159784D02*
X14983801Y-11150260D01*
X14983801Y-11150260D02*
X14974277Y-11131212D01*
X14974277Y-11131212D02*
X14974277Y-11112165D01*
X14974277Y-11112165D02*
X14983801Y-11093117D01*
X14983801Y-11093117D02*
X15002848Y-11083593D01*
X15002848Y-11083593D02*
X15050467Y-11083593D01*
X15050467Y-11083593D02*
X15069515Y-11074070D01*
X15164753Y-11026450D02*
X15164753Y-11226450D01*
X15164753Y-11035974D02*
X15183801Y-11026450D01*
X15183801Y-11026450D02*
X15221896Y-11026450D01*
X15221896Y-11026450D02*
X15240943Y-11035974D01*
X15240943Y-11035974D02*
X15250467Y-11045498D01*
X15250467Y-11045498D02*
X15259991Y-11064546D01*
X15259991Y-11064546D02*
X15259991Y-11121689D01*
X15259991Y-11121689D02*
X15250467Y-11140736D01*
X15250467Y-11140736D02*
X15240943Y-11150260D01*
X15240943Y-11150260D02*
X15221896Y-11159784D01*
X15221896Y-11159784D02*
X15183801Y-11159784D01*
X15183801Y-11159784D02*
X15164753Y-11150260D01*
X15345705Y-11140736D02*
X15355229Y-11150260D01*
X15355229Y-11150260D02*
X15345705Y-11159784D01*
X15345705Y-11159784D02*
X15336182Y-11150260D01*
X15336182Y-11150260D02*
X15345705Y-11140736D01*
X15345705Y-11140736D02*
X15345705Y-11159784D01*
X15345705Y-11035974D02*
X15355229Y-11045498D01*
X15355229Y-11045498D02*
X15345705Y-11055022D01*
X15345705Y-11055022D02*
X15336182Y-11045498D01*
X15336182Y-11045498D02*
X15345705Y-11035974D01*
X15345705Y-11035974D02*
X15345705Y-11055022D01*
M02*
