G04 #@! TF.GenerationSoftware,KiCad,Pcbnew,8.0.4*
G04 #@! TF.CreationDate,2024-11-26T22:54:14-05:00*
G04 #@! TF.ProjectId,buck_converter_lm2596_5V,6275636b-5f63-46f6-9e76-65727465725f,rev?*
G04 #@! TF.SameCoordinates,Original*
G04 #@! TF.FileFunction,Copper,L1,Top*
G04 #@! TF.FilePolarity,Positive*
%FSLAX46Y46*%
G04 Gerber Fmt 4.6, Leading zero omitted, Abs format (unit mm)*
G04 Created by KiCad (PCBNEW 8.0.4) date 2024-11-26 22:54:14*
%MOMM*%
%LPD*%
G01*
G04 APERTURE LIST*
G04 #@! TA.AperFunction,ComponentPad*
%ADD10R,1.600000X1.600000*%
G04 #@! TD*
G04 #@! TA.AperFunction,ComponentPad*
%ADD11C,1.600000*%
G04 #@! TD*
G04 #@! TA.AperFunction,ComponentPad*
%ADD12R,2.019300X2.019300*%
G04 #@! TD*
G04 #@! TA.AperFunction,ComponentPad*
%ADD13C,2.019300*%
G04 #@! TD*
G04 #@! TA.AperFunction,ComponentPad*
%ADD14R,2.600000X2.600000*%
G04 #@! TD*
G04 #@! TA.AperFunction,ComponentPad*
%ADD15C,2.600000*%
G04 #@! TD*
G04 #@! TA.AperFunction,ComponentPad*
%ADD16O,1.600000X1.600000*%
G04 #@! TD*
G04 #@! TA.AperFunction,ComponentPad*
%ADD17O,1.800000X3.600000*%
G04 #@! TD*
G04 #@! TA.AperFunction,ComponentPad*
%ADD18R,3.200000X3.200000*%
G04 #@! TD*
G04 #@! TA.AperFunction,ComponentPad*
%ADD19O,3.200000X3.200000*%
G04 #@! TD*
G04 #@! TA.AperFunction,Conductor*
%ADD20C,1.750000*%
G04 #@! TD*
G04 APERTURE END LIST*
D10*
X175197349Y-86400000D03*
D11*
X180197349Y-86400000D03*
D10*
X147000000Y-64802651D03*
D11*
X147000000Y-59802651D03*
D12*
X157429200Y-68656200D03*
D13*
X159131000Y-64643000D03*
X160832800Y-68656200D03*
X162534600Y-64643000D03*
X164236400Y-68656200D03*
D11*
X176403000Y-72183000D03*
X176403000Y-67183000D03*
D14*
X144606000Y-101981000D03*
D15*
X149606000Y-101981000D03*
D11*
X171196000Y-77089000D03*
D16*
X171196000Y-66929000D03*
D14*
X172673000Y-101981000D03*
D15*
X177673000Y-101981000D03*
D17*
X151765000Y-81200000D03*
X144145000Y-81200000D03*
D18*
X158369000Y-74295000D03*
D19*
X158369000Y-89535000D03*
D11*
X180721000Y-67183000D03*
D16*
X180721000Y-77343000D03*
D20*
X171196000Y-77089000D02*
X175196200Y-81089200D01*
X175196200Y-81089200D02*
X175196200Y-86400000D01*
X176102000Y-72183000D02*
X171196000Y-77089000D01*
X176403000Y-72183000D02*
X176102000Y-72183000D01*
X151765000Y-81280000D02*
X151765000Y-80899000D01*
X171196000Y-66929000D02*
X176149000Y-66929000D01*
X168910000Y-64643000D02*
X162534600Y-64643000D01*
X176149000Y-66929000D02*
X176403000Y-67183000D01*
X176403000Y-67183000D02*
X180721000Y-67183000D01*
X171196000Y-66929000D02*
X168910000Y-64643000D01*
G04 #@! TA.AperFunction,Conductor*
G36*
X158733888Y-62968556D02*
G01*
X158780498Y-63020606D01*
X158791568Y-63089593D01*
X158763584Y-63153614D01*
X158705430Y-63192342D01*
X158697507Y-63194525D01*
X158663053Y-63202796D01*
X158443513Y-63293732D01*
X158252399Y-63410847D01*
X158865830Y-64024278D01*
X158812168Y-64046506D01*
X158701924Y-64120169D01*
X158608169Y-64213924D01*
X158534506Y-64324168D01*
X158512278Y-64377830D01*
X157898847Y-63764399D01*
X157781732Y-63955513D01*
X157690796Y-64175054D01*
X157635326Y-64406104D01*
X157616682Y-64643000D01*
X157635326Y-64879895D01*
X157690796Y-65110945D01*
X157781732Y-65330486D01*
X157898847Y-65521599D01*
X158512278Y-64908168D01*
X158534506Y-64961832D01*
X158608169Y-65072076D01*
X158701924Y-65165831D01*
X158812168Y-65239494D01*
X158865830Y-65261721D01*
X158252399Y-65875151D01*
X158443513Y-65992267D01*
X158663054Y-66083203D01*
X158894104Y-66138673D01*
X159068288Y-66152382D01*
X159133577Y-66177266D01*
X159134679Y-66178761D01*
X159168506Y-66157023D01*
X159193712Y-66152382D01*
X159367895Y-66138673D01*
X159598945Y-66083203D01*
X159818486Y-65992267D01*
X160009599Y-65875152D01*
X160009599Y-65875151D01*
X159396169Y-65261721D01*
X159449832Y-65239494D01*
X159560076Y-65165831D01*
X159653831Y-65072076D01*
X159727494Y-64961832D01*
X159749721Y-64908169D01*
X160363151Y-65521599D01*
X160363152Y-65521599D01*
X160480267Y-65330486D01*
X160573066Y-65106449D01*
X160575260Y-65107358D01*
X160609083Y-65057731D01*
X160673400Y-65030435D01*
X160742264Y-65042244D01*
X160793812Y-65089410D01*
X160811718Y-65154772D01*
X160801156Y-66277167D01*
X160780841Y-66344018D01*
X160727609Y-66389274D01*
X160677161Y-66400000D01*
X159203441Y-66400000D01*
X159136402Y-66380315D01*
X159129857Y-66372762D01*
X159084051Y-66397351D01*
X159058559Y-66400000D01*
X155800000Y-66400000D01*
X155800000Y-70600000D01*
X161876000Y-70600000D01*
X161943039Y-70619685D01*
X161988794Y-70672489D01*
X162000000Y-70724000D01*
X162000000Y-77477559D01*
X161980315Y-77544598D01*
X161927511Y-77590353D01*
X161877569Y-77601549D01*
X146200000Y-77799999D01*
X146200000Y-83876000D01*
X146180315Y-83943039D01*
X146127511Y-83988794D01*
X146076000Y-84000000D01*
X142522047Y-84000000D01*
X142455008Y-83980315D01*
X142409253Y-83927511D01*
X142398063Y-83877968D01*
X142339521Y-80189818D01*
X142745000Y-80189818D01*
X142745000Y-80950000D01*
X143596518Y-80950000D01*
X143585889Y-80968409D01*
X143545000Y-81121009D01*
X143545000Y-81278991D01*
X143585889Y-81431591D01*
X143596518Y-81450000D01*
X142745000Y-81450000D01*
X142745000Y-82210181D01*
X142779473Y-82427835D01*
X142847567Y-82637410D01*
X142947613Y-82833760D01*
X143077142Y-83012041D01*
X143232958Y-83167857D01*
X143411239Y-83297386D01*
X143607589Y-83397432D01*
X143817163Y-83465526D01*
X143894999Y-83477854D01*
X143895000Y-83477854D01*
X143895000Y-81748482D01*
X143913409Y-81759111D01*
X144066009Y-81800000D01*
X144223991Y-81800000D01*
X144376591Y-81759111D01*
X144395000Y-81748482D01*
X144395000Y-83477854D01*
X144472834Y-83465526D01*
X144472837Y-83465526D01*
X144682410Y-83397432D01*
X144878760Y-83297386D01*
X145057041Y-83167857D01*
X145212857Y-83012041D01*
X145342386Y-82833760D01*
X145442432Y-82637410D01*
X145510526Y-82427835D01*
X145545000Y-82210181D01*
X145545000Y-81450000D01*
X144693482Y-81450000D01*
X144704111Y-81431591D01*
X144745000Y-81278991D01*
X144745000Y-81121009D01*
X144704111Y-80968409D01*
X144693482Y-80950000D01*
X145545000Y-80950000D01*
X145545000Y-80189818D01*
X145510526Y-79972164D01*
X145442432Y-79762589D01*
X145342386Y-79566239D01*
X145212857Y-79387958D01*
X145057041Y-79232142D01*
X144878760Y-79102613D01*
X144682410Y-79002567D01*
X144472836Y-78934473D01*
X144395000Y-78922144D01*
X144395000Y-80651517D01*
X144376591Y-80640889D01*
X144223991Y-80600000D01*
X144066009Y-80600000D01*
X143913409Y-80640889D01*
X143895000Y-80651517D01*
X143895000Y-78922144D01*
X143817164Y-78934473D01*
X143817161Y-78934473D01*
X143607589Y-79002567D01*
X143411239Y-79102613D01*
X143232958Y-79232142D01*
X143077142Y-79387958D01*
X142947613Y-79566239D01*
X142847567Y-79762589D01*
X142779473Y-79972164D01*
X142745000Y-80189818D01*
X142339521Y-80189818D01*
X142336066Y-79972164D01*
X142219796Y-72647155D01*
X156269000Y-72647155D01*
X156269000Y-74045000D01*
X157606639Y-74045000D01*
X157599743Y-74061649D01*
X157569000Y-74216207D01*
X157569000Y-74373793D01*
X157599743Y-74528351D01*
X157606639Y-74545000D01*
X156269000Y-74545000D01*
X156269000Y-75942844D01*
X156275401Y-76002372D01*
X156275403Y-76002379D01*
X156325645Y-76137086D01*
X156325649Y-76137093D01*
X156411809Y-76252187D01*
X156411812Y-76252190D01*
X156526906Y-76338350D01*
X156526913Y-76338354D01*
X156661620Y-76388596D01*
X156661627Y-76388598D01*
X156721155Y-76394999D01*
X156721172Y-76395000D01*
X158119000Y-76395000D01*
X158119000Y-75057360D01*
X158135649Y-75064257D01*
X158290207Y-75095000D01*
X158447793Y-75095000D01*
X158602351Y-75064257D01*
X158619000Y-75057360D01*
X158619000Y-76395000D01*
X160016828Y-76395000D01*
X160016844Y-76394999D01*
X160076372Y-76388598D01*
X160076379Y-76388596D01*
X160211086Y-76338354D01*
X160211093Y-76338350D01*
X160326187Y-76252190D01*
X160326190Y-76252187D01*
X160412350Y-76137093D01*
X160412354Y-76137086D01*
X160462596Y-76002379D01*
X160462598Y-76002372D01*
X160468999Y-75942844D01*
X160469000Y-75942827D01*
X160469000Y-74545000D01*
X159131361Y-74545000D01*
X159138257Y-74528351D01*
X159169000Y-74373793D01*
X159169000Y-74216207D01*
X159138257Y-74061649D01*
X159131361Y-74045000D01*
X160469000Y-74045000D01*
X160469000Y-72647172D01*
X160468999Y-72647155D01*
X160462598Y-72587627D01*
X160462596Y-72587620D01*
X160412354Y-72452913D01*
X160412350Y-72452906D01*
X160326190Y-72337812D01*
X160326187Y-72337809D01*
X160211093Y-72251649D01*
X160211086Y-72251645D01*
X160076379Y-72201403D01*
X160076372Y-72201401D01*
X160016844Y-72195000D01*
X158619000Y-72195000D01*
X158619000Y-73532639D01*
X158602351Y-73525743D01*
X158447793Y-73495000D01*
X158290207Y-73495000D01*
X158135649Y-73525743D01*
X158119000Y-73532639D01*
X158119000Y-72195000D01*
X156721155Y-72195000D01*
X156661627Y-72201401D01*
X156661620Y-72201403D01*
X156526913Y-72251645D01*
X156526906Y-72251649D01*
X156411812Y-72337809D01*
X156411809Y-72337812D01*
X156325649Y-72452906D01*
X156325645Y-72452913D01*
X156275403Y-72587620D01*
X156275401Y-72587627D01*
X156269000Y-72647155D01*
X142219796Y-72647155D01*
X142201109Y-71469899D01*
X142219727Y-71402558D01*
X142259230Y-71362870D01*
X155570719Y-63018354D01*
X155634556Y-62999436D01*
X158666537Y-62949968D01*
X158733888Y-62968556D01*
G37*
G04 #@! TD.AperFunction*
G04 #@! TA.AperFunction,Conductor*
G36*
X160772936Y-62935288D02*
G01*
X160819546Y-62987338D01*
X160831602Y-63041850D01*
X160820995Y-64169028D01*
X160800680Y-64235879D01*
X160747448Y-64281135D01*
X160678199Y-64290427D01*
X160614919Y-64260806D01*
X160577699Y-64201675D01*
X160576426Y-64196808D01*
X160571203Y-64175054D01*
X160480267Y-63955513D01*
X160363151Y-63764399D01*
X159749721Y-64377830D01*
X159727494Y-64324168D01*
X159653831Y-64213924D01*
X159560076Y-64120169D01*
X159449832Y-64046506D01*
X159396169Y-64024278D01*
X160009599Y-63410847D01*
X159818486Y-63293732D01*
X159598946Y-63202796D01*
X159505637Y-63180395D01*
X159445046Y-63145604D01*
X159412882Y-63083578D01*
X159419358Y-63014009D01*
X159462418Y-62958985D01*
X159528390Y-62935976D01*
X159532511Y-62935839D01*
X160705585Y-62916700D01*
X160772936Y-62935288D01*
G37*
G04 #@! TD.AperFunction*
G04 #@! TA.AperFunction,Conductor*
G36*
X151175692Y-78819685D02*
G01*
X151221447Y-78872489D01*
X151231391Y-78941647D01*
X151202366Y-79005203D01*
X151164948Y-79034485D01*
X151031239Y-79102613D01*
X150852958Y-79232142D01*
X150697142Y-79387958D01*
X150567613Y-79566239D01*
X150467567Y-79762589D01*
X150399473Y-79972164D01*
X150365000Y-80189818D01*
X150365000Y-80950000D01*
X151216518Y-80950000D01*
X151205889Y-80968409D01*
X151165000Y-81121009D01*
X151165000Y-81278991D01*
X151205889Y-81431591D01*
X151216518Y-81450000D01*
X150365000Y-81450000D01*
X150365000Y-82210181D01*
X150399473Y-82427835D01*
X150467567Y-82637410D01*
X150567613Y-82833760D01*
X150697142Y-83012041D01*
X150852958Y-83167857D01*
X151031239Y-83297386D01*
X151227589Y-83397432D01*
X151437163Y-83465526D01*
X151514999Y-83477854D01*
X151515000Y-83477854D01*
X151515000Y-81748482D01*
X151533409Y-81759111D01*
X151686009Y-81800000D01*
X151843991Y-81800000D01*
X151996591Y-81759111D01*
X152015000Y-81748482D01*
X152015000Y-83477854D01*
X152092834Y-83465526D01*
X152092837Y-83465526D01*
X152302410Y-83397432D01*
X152498760Y-83297386D01*
X152677041Y-83167857D01*
X152832857Y-83012041D01*
X152962386Y-82833760D01*
X153062432Y-82637410D01*
X153130526Y-82427835D01*
X153165000Y-82210181D01*
X153165000Y-81450000D01*
X152313482Y-81450000D01*
X152324111Y-81431591D01*
X152365000Y-81278991D01*
X152365000Y-81121009D01*
X152324111Y-80968409D01*
X152313482Y-80950000D01*
X153165000Y-80950000D01*
X153165000Y-80189818D01*
X153130526Y-79972164D01*
X153062432Y-79762589D01*
X152962386Y-79566239D01*
X152832857Y-79387958D01*
X152677041Y-79232142D01*
X152498760Y-79102613D01*
X152365052Y-79034485D01*
X152314256Y-78986510D01*
X152297461Y-78918689D01*
X152319999Y-78852554D01*
X152374714Y-78809103D01*
X152421347Y-78800000D01*
X154876000Y-78800000D01*
X154943039Y-78819685D01*
X154988794Y-78872489D01*
X155000000Y-78924000D01*
X155000000Y-82000000D01*
X177476000Y-82000000D01*
X177543039Y-82019685D01*
X177588794Y-82072489D01*
X177600000Y-82124000D01*
X177600000Y-90381249D01*
X177594455Y-90417914D01*
X175000000Y-98799997D01*
X175000000Y-104876000D01*
X174980315Y-104943039D01*
X174927511Y-104988794D01*
X174876000Y-105000000D01*
X169324000Y-105000000D01*
X169256961Y-104980315D01*
X169211206Y-104927511D01*
X169200000Y-104876000D01*
X169200000Y-100633155D01*
X170873000Y-100633155D01*
X170873000Y-101731000D01*
X172072999Y-101731000D01*
X172047979Y-101791402D01*
X172023000Y-101916981D01*
X172023000Y-102045019D01*
X172047979Y-102170598D01*
X172072999Y-102231000D01*
X170873000Y-102231000D01*
X170873000Y-103328844D01*
X170879401Y-103388372D01*
X170879403Y-103388379D01*
X170929645Y-103523086D01*
X170929649Y-103523093D01*
X171015809Y-103638187D01*
X171015812Y-103638190D01*
X171130906Y-103724350D01*
X171130913Y-103724354D01*
X171265620Y-103774596D01*
X171265627Y-103774598D01*
X171325155Y-103780999D01*
X171325172Y-103781000D01*
X172423000Y-103781000D01*
X172423000Y-102581001D01*
X172483402Y-102606021D01*
X172608981Y-102631000D01*
X172737019Y-102631000D01*
X172862598Y-102606021D01*
X172923000Y-102581001D01*
X172923000Y-103781000D01*
X174020828Y-103781000D01*
X174020844Y-103780999D01*
X174080372Y-103774598D01*
X174080379Y-103774596D01*
X174215086Y-103724354D01*
X174215093Y-103724350D01*
X174330187Y-103638190D01*
X174330190Y-103638187D01*
X174416350Y-103523093D01*
X174416354Y-103523086D01*
X174466596Y-103388379D01*
X174466598Y-103388372D01*
X174472999Y-103328844D01*
X174473000Y-103328827D01*
X174473000Y-102231000D01*
X173273001Y-102231000D01*
X173298021Y-102170598D01*
X173323000Y-102045019D01*
X173323000Y-101916981D01*
X173298021Y-101791402D01*
X173273001Y-101731000D01*
X174473000Y-101731000D01*
X174473000Y-100633172D01*
X174472999Y-100633155D01*
X174466598Y-100573627D01*
X174466596Y-100573620D01*
X174416354Y-100438913D01*
X174416350Y-100438906D01*
X174330190Y-100323812D01*
X174330187Y-100323809D01*
X174215093Y-100237649D01*
X174215086Y-100237645D01*
X174080379Y-100187403D01*
X174080372Y-100187401D01*
X174020844Y-100181000D01*
X172923000Y-100181000D01*
X172923000Y-101380998D01*
X172862598Y-101355979D01*
X172737019Y-101331000D01*
X172608981Y-101331000D01*
X172483402Y-101355979D01*
X172423000Y-101380998D01*
X172423000Y-100181000D01*
X171325155Y-100181000D01*
X171265627Y-100187401D01*
X171265620Y-100187403D01*
X171130913Y-100237645D01*
X171130906Y-100237649D01*
X171015812Y-100323809D01*
X171015809Y-100323812D01*
X170929649Y-100438906D01*
X170929645Y-100438913D01*
X170879403Y-100573620D01*
X170879401Y-100573627D01*
X170873000Y-100633155D01*
X169200000Y-100633155D01*
X169200000Y-86400000D01*
X149724000Y-86400000D01*
X149656961Y-86380315D01*
X149611206Y-86327511D01*
X149600000Y-86276000D01*
X149600000Y-85552155D01*
X173897349Y-85552155D01*
X173897349Y-86150000D01*
X174881663Y-86150000D01*
X174877269Y-86154394D01*
X174824608Y-86245606D01*
X174797349Y-86347339D01*
X174797349Y-86452661D01*
X174824608Y-86554394D01*
X174877269Y-86645606D01*
X174881663Y-86650000D01*
X173897349Y-86650000D01*
X173897349Y-87247844D01*
X173903750Y-87307372D01*
X173903752Y-87307379D01*
X173953994Y-87442086D01*
X173953998Y-87442093D01*
X174040158Y-87557187D01*
X174040161Y-87557190D01*
X174155255Y-87643350D01*
X174155262Y-87643354D01*
X174289969Y-87693596D01*
X174289976Y-87693598D01*
X174349504Y-87699999D01*
X174349521Y-87700000D01*
X174947349Y-87700000D01*
X174947349Y-86715686D01*
X174951743Y-86720080D01*
X175042955Y-86772741D01*
X175144688Y-86800000D01*
X175250010Y-86800000D01*
X175351743Y-86772741D01*
X175442955Y-86720080D01*
X175447349Y-86715686D01*
X175447349Y-87700000D01*
X176045177Y-87700000D01*
X176045193Y-87699999D01*
X176104721Y-87693598D01*
X176104728Y-87693596D01*
X176239435Y-87643354D01*
X176239442Y-87643350D01*
X176354536Y-87557190D01*
X176354539Y-87557187D01*
X176440699Y-87442093D01*
X176440703Y-87442086D01*
X176490945Y-87307379D01*
X176490947Y-87307372D01*
X176497348Y-87247844D01*
X176497349Y-87247827D01*
X176497349Y-86650000D01*
X175513035Y-86650000D01*
X175517429Y-86645606D01*
X175570090Y-86554394D01*
X175597349Y-86452661D01*
X175597349Y-86347339D01*
X175570090Y-86245606D01*
X175517429Y-86154394D01*
X175513035Y-86150000D01*
X176497349Y-86150000D01*
X176497349Y-85552172D01*
X176497348Y-85552155D01*
X176490947Y-85492627D01*
X176490945Y-85492620D01*
X176440703Y-85357913D01*
X176440699Y-85357906D01*
X176354539Y-85242812D01*
X176354536Y-85242809D01*
X176239442Y-85156649D01*
X176239435Y-85156645D01*
X176104728Y-85106403D01*
X176104721Y-85106401D01*
X176045193Y-85100000D01*
X175447349Y-85100000D01*
X175447349Y-86084314D01*
X175442955Y-86079920D01*
X175351743Y-86027259D01*
X175250010Y-86000000D01*
X175144688Y-86000000D01*
X175042955Y-86027259D01*
X174951743Y-86079920D01*
X174947349Y-86084314D01*
X174947349Y-85100000D01*
X174349504Y-85100000D01*
X174289976Y-85106401D01*
X174289969Y-85106403D01*
X174155262Y-85156645D01*
X174155255Y-85156649D01*
X174040161Y-85242809D01*
X174040158Y-85242812D01*
X173953998Y-85357906D01*
X173953994Y-85357913D01*
X173903752Y-85492620D01*
X173903750Y-85492627D01*
X173897349Y-85552155D01*
X149600000Y-85552155D01*
X149600000Y-78924000D01*
X149619685Y-78856961D01*
X149672489Y-78811206D01*
X149724000Y-78800000D01*
X151108653Y-78800000D01*
X151175692Y-78819685D01*
G37*
G04 #@! TD.AperFunction*
M02*
