%TF.GenerationSoftware,KiCad,Pcbnew,8.0.5*%
%TF.CreationDate,2024-10-22T15:17:33-04:00*%
%TF.ProjectId,buck_converter_lm2596_5V,6275636b-5f63-46f6-9e76-65727465725f,rev?*%
%TF.SameCoordinates,Original*%
%TF.FileFunction,Legend,Top*%
%TF.FilePolarity,Positive*%
%FSLAX46Y46*%
G04 Gerber Fmt 4.6, Leading zero omitted, Abs format (unit mm)*
G04 Created by KiCad (PCBNEW 8.0.5) date 2024-10-22 15:17:33*
%MOMM*%
%LPD*%
G01*
G04 APERTURE LIST*
%ADD10C,0.150000*%
%ADD11C,0.100000*%
%ADD12C,0.152400*%
%ADD13C,0.120000*%
%ADD14C,0.127000*%
%ADD15C,0.406400*%
G04 APERTURE END LIST*
D10*
X140839819Y-101771220D02*
X139839819Y-101771220D01*
X140173152Y-101295030D02*
X140839819Y-101295030D01*
X140268390Y-101295030D02*
X140220771Y-101247411D01*
X140220771Y-101247411D02*
X140173152Y-101152173D01*
X140173152Y-101152173D02*
X140173152Y-101009316D01*
X140173152Y-101009316D02*
X140220771Y-100914078D01*
X140220771Y-100914078D02*
X140316009Y-100866459D01*
X140316009Y-100866459D02*
X140839819Y-100866459D01*
X140173152Y-100390268D02*
X141173152Y-100390268D01*
X140220771Y-100390268D02*
X140173152Y-100295030D01*
X140173152Y-100295030D02*
X140173152Y-100104554D01*
X140173152Y-100104554D02*
X140220771Y-100009316D01*
X140220771Y-100009316D02*
X140268390Y-99961697D01*
X140268390Y-99961697D02*
X140363628Y-99914078D01*
X140363628Y-99914078D02*
X140649342Y-99914078D01*
X140649342Y-99914078D02*
X140744580Y-99961697D01*
X140744580Y-99961697D02*
X140792200Y-100009316D01*
X140792200Y-100009316D02*
X140839819Y-100104554D01*
X140839819Y-100104554D02*
X140839819Y-100295030D01*
X140839819Y-100295030D02*
X140792200Y-100390268D01*
X140173152Y-99056935D02*
X140839819Y-99056935D01*
X140173152Y-99485506D02*
X140696961Y-99485506D01*
X140696961Y-99485506D02*
X140792200Y-99437887D01*
X140792200Y-99437887D02*
X140839819Y-99342649D01*
X140839819Y-99342649D02*
X140839819Y-99199792D01*
X140839819Y-99199792D02*
X140792200Y-99104554D01*
X140792200Y-99104554D02*
X140744580Y-99056935D01*
X140173152Y-98723601D02*
X140173152Y-98342649D01*
X139839819Y-98580744D02*
X140696961Y-98580744D01*
X140696961Y-98580744D02*
X140792200Y-98533125D01*
X140792200Y-98533125D02*
X140839819Y-98437887D01*
X140839819Y-98437887D02*
X140839819Y-98342649D01*
X140458866Y-98009315D02*
X140458866Y-97247411D01*
X153920819Y-102279220D02*
X152920819Y-102279220D01*
X153254152Y-101803030D02*
X153920819Y-101803030D01*
X153349390Y-101803030D02*
X153301771Y-101755411D01*
X153301771Y-101755411D02*
X153254152Y-101660173D01*
X153254152Y-101660173D02*
X153254152Y-101517316D01*
X153254152Y-101517316D02*
X153301771Y-101422078D01*
X153301771Y-101422078D02*
X153397009Y-101374459D01*
X153397009Y-101374459D02*
X153920819Y-101374459D01*
X153254152Y-100898268D02*
X154254152Y-100898268D01*
X153301771Y-100898268D02*
X153254152Y-100803030D01*
X153254152Y-100803030D02*
X153254152Y-100612554D01*
X153254152Y-100612554D02*
X153301771Y-100517316D01*
X153301771Y-100517316D02*
X153349390Y-100469697D01*
X153349390Y-100469697D02*
X153444628Y-100422078D01*
X153444628Y-100422078D02*
X153730342Y-100422078D01*
X153730342Y-100422078D02*
X153825580Y-100469697D01*
X153825580Y-100469697D02*
X153873200Y-100517316D01*
X153873200Y-100517316D02*
X153920819Y-100612554D01*
X153920819Y-100612554D02*
X153920819Y-100803030D01*
X153920819Y-100803030D02*
X153873200Y-100898268D01*
X153254152Y-99564935D02*
X153920819Y-99564935D01*
X153254152Y-99993506D02*
X153777961Y-99993506D01*
X153777961Y-99993506D02*
X153873200Y-99945887D01*
X153873200Y-99945887D02*
X153920819Y-99850649D01*
X153920819Y-99850649D02*
X153920819Y-99707792D01*
X153920819Y-99707792D02*
X153873200Y-99612554D01*
X153873200Y-99612554D02*
X153825580Y-99564935D01*
X153254152Y-99231601D02*
X153254152Y-98850649D01*
X152920819Y-99088744D02*
X153777961Y-99088744D01*
X153777961Y-99088744D02*
X153873200Y-99041125D01*
X153873200Y-99041125D02*
X153920819Y-98945887D01*
X153920819Y-98945887D02*
X153920819Y-98850649D01*
X153539866Y-98517315D02*
X153539866Y-97755411D01*
X153920819Y-98136363D02*
X153158914Y-98136363D01*
D11*
X154561217Y-102808721D02*
X154704074Y-102856340D01*
X154704074Y-102856340D02*
X154751693Y-102903959D01*
X154751693Y-102903959D02*
X154799312Y-102999197D01*
X154799312Y-102999197D02*
X154799312Y-103142054D01*
X154799312Y-103142054D02*
X154751693Y-103237292D01*
X154751693Y-103237292D02*
X154704074Y-103284912D01*
X154704074Y-103284912D02*
X154608836Y-103332531D01*
X154608836Y-103332531D02*
X154227884Y-103332531D01*
X154227884Y-103332531D02*
X154227884Y-102332531D01*
X154227884Y-102332531D02*
X154561217Y-102332531D01*
X154561217Y-102332531D02*
X154656455Y-102380150D01*
X154656455Y-102380150D02*
X154704074Y-102427769D01*
X154704074Y-102427769D02*
X154751693Y-102523007D01*
X154751693Y-102523007D02*
X154751693Y-102618245D01*
X154751693Y-102618245D02*
X154704074Y-102713483D01*
X154704074Y-102713483D02*
X154656455Y-102761102D01*
X154656455Y-102761102D02*
X154561217Y-102808721D01*
X154561217Y-102808721D02*
X154227884Y-102808721D01*
X155656455Y-102665864D02*
X155656455Y-103332531D01*
X155227884Y-102665864D02*
X155227884Y-103189673D01*
X155227884Y-103189673D02*
X155275503Y-103284912D01*
X155275503Y-103284912D02*
X155370741Y-103332531D01*
X155370741Y-103332531D02*
X155513598Y-103332531D01*
X155513598Y-103332531D02*
X155608836Y-103284912D01*
X155608836Y-103284912D02*
X155656455Y-103237292D01*
X156561217Y-103284912D02*
X156465979Y-103332531D01*
X156465979Y-103332531D02*
X156275503Y-103332531D01*
X156275503Y-103332531D02*
X156180265Y-103284912D01*
X156180265Y-103284912D02*
X156132646Y-103237292D01*
X156132646Y-103237292D02*
X156085027Y-103142054D01*
X156085027Y-103142054D02*
X156085027Y-102856340D01*
X156085027Y-102856340D02*
X156132646Y-102761102D01*
X156132646Y-102761102D02*
X156180265Y-102713483D01*
X156180265Y-102713483D02*
X156275503Y-102665864D01*
X156275503Y-102665864D02*
X156465979Y-102665864D01*
X156465979Y-102665864D02*
X156561217Y-102713483D01*
X156989789Y-103332531D02*
X156989789Y-102332531D01*
X157085027Y-102951578D02*
X157370741Y-103332531D01*
X157370741Y-102665864D02*
X156989789Y-103046816D01*
X159132646Y-103237292D02*
X159085027Y-103284912D01*
X159085027Y-103284912D02*
X158942170Y-103332531D01*
X158942170Y-103332531D02*
X158846932Y-103332531D01*
X158846932Y-103332531D02*
X158704075Y-103284912D01*
X158704075Y-103284912D02*
X158608837Y-103189673D01*
X158608837Y-103189673D02*
X158561218Y-103094435D01*
X158561218Y-103094435D02*
X158513599Y-102903959D01*
X158513599Y-102903959D02*
X158513599Y-102761102D01*
X158513599Y-102761102D02*
X158561218Y-102570626D01*
X158561218Y-102570626D02*
X158608837Y-102475388D01*
X158608837Y-102475388D02*
X158704075Y-102380150D01*
X158704075Y-102380150D02*
X158846932Y-102332531D01*
X158846932Y-102332531D02*
X158942170Y-102332531D01*
X158942170Y-102332531D02*
X159085027Y-102380150D01*
X159085027Y-102380150D02*
X159132646Y-102427769D01*
X159704075Y-103332531D02*
X159608837Y-103284912D01*
X159608837Y-103284912D02*
X159561218Y-103237292D01*
X159561218Y-103237292D02*
X159513599Y-103142054D01*
X159513599Y-103142054D02*
X159513599Y-102856340D01*
X159513599Y-102856340D02*
X159561218Y-102761102D01*
X159561218Y-102761102D02*
X159608837Y-102713483D01*
X159608837Y-102713483D02*
X159704075Y-102665864D01*
X159704075Y-102665864D02*
X159846932Y-102665864D01*
X159846932Y-102665864D02*
X159942170Y-102713483D01*
X159942170Y-102713483D02*
X159989789Y-102761102D01*
X159989789Y-102761102D02*
X160037408Y-102856340D01*
X160037408Y-102856340D02*
X160037408Y-103142054D01*
X160037408Y-103142054D02*
X159989789Y-103237292D01*
X159989789Y-103237292D02*
X159942170Y-103284912D01*
X159942170Y-103284912D02*
X159846932Y-103332531D01*
X159846932Y-103332531D02*
X159704075Y-103332531D01*
X160465980Y-102665864D02*
X160465980Y-103332531D01*
X160465980Y-102761102D02*
X160513599Y-102713483D01*
X160513599Y-102713483D02*
X160608837Y-102665864D01*
X160608837Y-102665864D02*
X160751694Y-102665864D01*
X160751694Y-102665864D02*
X160846932Y-102713483D01*
X160846932Y-102713483D02*
X160894551Y-102808721D01*
X160894551Y-102808721D02*
X160894551Y-103332531D01*
X161275504Y-102665864D02*
X161513599Y-103332531D01*
X161513599Y-103332531D02*
X161751694Y-102665864D01*
X162513599Y-103284912D02*
X162418361Y-103332531D01*
X162418361Y-103332531D02*
X162227885Y-103332531D01*
X162227885Y-103332531D02*
X162132647Y-103284912D01*
X162132647Y-103284912D02*
X162085028Y-103189673D01*
X162085028Y-103189673D02*
X162085028Y-102808721D01*
X162085028Y-102808721D02*
X162132647Y-102713483D01*
X162132647Y-102713483D02*
X162227885Y-102665864D01*
X162227885Y-102665864D02*
X162418361Y-102665864D01*
X162418361Y-102665864D02*
X162513599Y-102713483D01*
X162513599Y-102713483D02*
X162561218Y-102808721D01*
X162561218Y-102808721D02*
X162561218Y-102903959D01*
X162561218Y-102903959D02*
X162085028Y-102999197D01*
X162989790Y-103332531D02*
X162989790Y-102665864D01*
X162989790Y-102856340D02*
X163037409Y-102761102D01*
X163037409Y-102761102D02*
X163085028Y-102713483D01*
X163085028Y-102713483D02*
X163180266Y-102665864D01*
X163180266Y-102665864D02*
X163275504Y-102665864D01*
X163465981Y-102665864D02*
X163846933Y-102665864D01*
X163608838Y-102332531D02*
X163608838Y-103189673D01*
X163608838Y-103189673D02*
X163656457Y-103284912D01*
X163656457Y-103284912D02*
X163751695Y-103332531D01*
X163751695Y-103332531D02*
X163846933Y-103332531D01*
X164561219Y-103284912D02*
X164465981Y-103332531D01*
X164465981Y-103332531D02*
X164275505Y-103332531D01*
X164275505Y-103332531D02*
X164180267Y-103284912D01*
X164180267Y-103284912D02*
X164132648Y-103189673D01*
X164132648Y-103189673D02*
X164132648Y-102808721D01*
X164132648Y-102808721D02*
X164180267Y-102713483D01*
X164180267Y-102713483D02*
X164275505Y-102665864D01*
X164275505Y-102665864D02*
X164465981Y-102665864D01*
X164465981Y-102665864D02*
X164561219Y-102713483D01*
X164561219Y-102713483D02*
X164608838Y-102808721D01*
X164608838Y-102808721D02*
X164608838Y-102903959D01*
X164608838Y-102903959D02*
X164132648Y-102999197D01*
X165037410Y-103332531D02*
X165037410Y-102665864D01*
X165037410Y-102856340D02*
X165085029Y-102761102D01*
X165085029Y-102761102D02*
X165132648Y-102713483D01*
X165132648Y-102713483D02*
X165227886Y-102665864D01*
X165227886Y-102665864D02*
X165323124Y-102665864D01*
X154418360Y-103942475D02*
X154608836Y-103942475D01*
X154608836Y-103942475D02*
X154704074Y-103990094D01*
X154704074Y-103990094D02*
X154799312Y-104085332D01*
X154799312Y-104085332D02*
X154846931Y-104275808D01*
X154846931Y-104275808D02*
X154846931Y-104609141D01*
X154846931Y-104609141D02*
X154799312Y-104799617D01*
X154799312Y-104799617D02*
X154704074Y-104894856D01*
X154704074Y-104894856D02*
X154608836Y-104942475D01*
X154608836Y-104942475D02*
X154418360Y-104942475D01*
X154418360Y-104942475D02*
X154323122Y-104894856D01*
X154323122Y-104894856D02*
X154227884Y-104799617D01*
X154227884Y-104799617D02*
X154180265Y-104609141D01*
X154180265Y-104609141D02*
X154180265Y-104275808D01*
X154180265Y-104275808D02*
X154227884Y-104085332D01*
X154227884Y-104085332D02*
X154323122Y-103990094D01*
X154323122Y-103990094D02*
X154418360Y-103942475D01*
X155704074Y-104275808D02*
X155704074Y-104942475D01*
X155275503Y-104275808D02*
X155275503Y-104799617D01*
X155275503Y-104799617D02*
X155323122Y-104894856D01*
X155323122Y-104894856D02*
X155418360Y-104942475D01*
X155418360Y-104942475D02*
X155561217Y-104942475D01*
X155561217Y-104942475D02*
X155656455Y-104894856D01*
X155656455Y-104894856D02*
X155704074Y-104847236D01*
X156180265Y-104275808D02*
X156180265Y-105275808D01*
X156180265Y-104323427D02*
X156275503Y-104275808D01*
X156275503Y-104275808D02*
X156465979Y-104275808D01*
X156465979Y-104275808D02*
X156561217Y-104323427D01*
X156561217Y-104323427D02*
X156608836Y-104371046D01*
X156608836Y-104371046D02*
X156656455Y-104466284D01*
X156656455Y-104466284D02*
X156656455Y-104751998D01*
X156656455Y-104751998D02*
X156608836Y-104847236D01*
X156608836Y-104847236D02*
X156561217Y-104894856D01*
X156561217Y-104894856D02*
X156465979Y-104942475D01*
X156465979Y-104942475D02*
X156275503Y-104942475D01*
X156275503Y-104942475D02*
X156180265Y-104894856D01*
X157513598Y-104275808D02*
X157513598Y-104942475D01*
X157085027Y-104275808D02*
X157085027Y-104799617D01*
X157085027Y-104799617D02*
X157132646Y-104894856D01*
X157132646Y-104894856D02*
X157227884Y-104942475D01*
X157227884Y-104942475D02*
X157370741Y-104942475D01*
X157370741Y-104942475D02*
X157465979Y-104894856D01*
X157465979Y-104894856D02*
X157513598Y-104847236D01*
X157846932Y-104275808D02*
X158227884Y-104275808D01*
X157989789Y-103942475D02*
X157989789Y-104799617D01*
X157989789Y-104799617D02*
X158037408Y-104894856D01*
X158037408Y-104894856D02*
X158132646Y-104942475D01*
X158132646Y-104942475D02*
X158227884Y-104942475D01*
X158561218Y-104847236D02*
X158608837Y-104894856D01*
X158608837Y-104894856D02*
X158561218Y-104942475D01*
X158561218Y-104942475D02*
X158513599Y-104894856D01*
X158513599Y-104894856D02*
X158561218Y-104847236D01*
X158561218Y-104847236D02*
X158561218Y-104942475D01*
X158561218Y-104323427D02*
X158608837Y-104371046D01*
X158608837Y-104371046D02*
X158561218Y-104418665D01*
X158561218Y-104418665D02*
X158513599Y-104371046D01*
X158513599Y-104371046D02*
X158561218Y-104323427D01*
X158561218Y-104323427D02*
X158561218Y-104418665D01*
X160275503Y-103942475D02*
X159799313Y-103942475D01*
X159799313Y-103942475D02*
X159751694Y-104418665D01*
X159751694Y-104418665D02*
X159799313Y-104371046D01*
X159799313Y-104371046D02*
X159894551Y-104323427D01*
X159894551Y-104323427D02*
X160132646Y-104323427D01*
X160132646Y-104323427D02*
X160227884Y-104371046D01*
X160227884Y-104371046D02*
X160275503Y-104418665D01*
X160275503Y-104418665D02*
X160323122Y-104513903D01*
X160323122Y-104513903D02*
X160323122Y-104751998D01*
X160323122Y-104751998D02*
X160275503Y-104847236D01*
X160275503Y-104847236D02*
X160227884Y-104894856D01*
X160227884Y-104894856D02*
X160132646Y-104942475D01*
X160132646Y-104942475D02*
X159894551Y-104942475D01*
X159894551Y-104942475D02*
X159799313Y-104894856D01*
X159799313Y-104894856D02*
X159751694Y-104847236D01*
X160608837Y-103942475D02*
X160942170Y-104942475D01*
X160942170Y-104942475D02*
X161275503Y-103942475D01*
X161656456Y-104894856D02*
X161656456Y-104942475D01*
X161656456Y-104942475D02*
X161608837Y-105037713D01*
X161608837Y-105037713D02*
X161561218Y-105085332D01*
X162751694Y-103942475D02*
X163370741Y-103942475D01*
X163370741Y-103942475D02*
X163037408Y-104323427D01*
X163037408Y-104323427D02*
X163180265Y-104323427D01*
X163180265Y-104323427D02*
X163275503Y-104371046D01*
X163275503Y-104371046D02*
X163323122Y-104418665D01*
X163323122Y-104418665D02*
X163370741Y-104513903D01*
X163370741Y-104513903D02*
X163370741Y-104751998D01*
X163370741Y-104751998D02*
X163323122Y-104847236D01*
X163323122Y-104847236D02*
X163275503Y-104894856D01*
X163275503Y-104894856D02*
X163180265Y-104942475D01*
X163180265Y-104942475D02*
X162894551Y-104942475D01*
X162894551Y-104942475D02*
X162799313Y-104894856D01*
X162799313Y-104894856D02*
X162751694Y-104847236D01*
X163751694Y-104656760D02*
X164227884Y-104656760D01*
X163656456Y-104942475D02*
X163989789Y-103942475D01*
X163989789Y-103942475D02*
X164323122Y-104942475D01*
X165418361Y-104942475D02*
X165418361Y-103942475D01*
X165418361Y-103942475D02*
X165751694Y-104656760D01*
X165751694Y-104656760D02*
X166085027Y-103942475D01*
X166085027Y-103942475D02*
X166085027Y-104942475D01*
X166989789Y-104942475D02*
X166989789Y-104418665D01*
X166989789Y-104418665D02*
X166942170Y-104323427D01*
X166942170Y-104323427D02*
X166846932Y-104275808D01*
X166846932Y-104275808D02*
X166656456Y-104275808D01*
X166656456Y-104275808D02*
X166561218Y-104323427D01*
X166989789Y-104894856D02*
X166894551Y-104942475D01*
X166894551Y-104942475D02*
X166656456Y-104942475D01*
X166656456Y-104942475D02*
X166561218Y-104894856D01*
X166561218Y-104894856D02*
X166513599Y-104799617D01*
X166513599Y-104799617D02*
X166513599Y-104704379D01*
X166513599Y-104704379D02*
X166561218Y-104609141D01*
X166561218Y-104609141D02*
X166656456Y-104561522D01*
X166656456Y-104561522D02*
X166894551Y-104561522D01*
X166894551Y-104561522D02*
X166989789Y-104513903D01*
X167370742Y-104942475D02*
X167894551Y-104275808D01*
X167370742Y-104275808D02*
X167894551Y-104942475D01*
X154227884Y-106552419D02*
X154227884Y-105552419D01*
X154227884Y-105552419D02*
X154561217Y-106266704D01*
X154561217Y-106266704D02*
X154894550Y-105552419D01*
X154894550Y-105552419D02*
X154894550Y-106552419D01*
X155513598Y-106552419D02*
X155418360Y-106504800D01*
X155418360Y-106504800D02*
X155370741Y-106457180D01*
X155370741Y-106457180D02*
X155323122Y-106361942D01*
X155323122Y-106361942D02*
X155323122Y-106076228D01*
X155323122Y-106076228D02*
X155370741Y-105980990D01*
X155370741Y-105980990D02*
X155418360Y-105933371D01*
X155418360Y-105933371D02*
X155513598Y-105885752D01*
X155513598Y-105885752D02*
X155656455Y-105885752D01*
X155656455Y-105885752D02*
X155751693Y-105933371D01*
X155751693Y-105933371D02*
X155799312Y-105980990D01*
X155799312Y-105980990D02*
X155846931Y-106076228D01*
X155846931Y-106076228D02*
X155846931Y-106361942D01*
X155846931Y-106361942D02*
X155799312Y-106457180D01*
X155799312Y-106457180D02*
X155751693Y-106504800D01*
X155751693Y-106504800D02*
X155656455Y-106552419D01*
X155656455Y-106552419D02*
X155513598Y-106552419D01*
X156275503Y-106552419D02*
X156275503Y-105885752D01*
X156275503Y-105552419D02*
X156227884Y-105600038D01*
X156227884Y-105600038D02*
X156275503Y-105647657D01*
X156275503Y-105647657D02*
X156323122Y-105600038D01*
X156323122Y-105600038D02*
X156275503Y-105552419D01*
X156275503Y-105552419D02*
X156275503Y-105647657D01*
X156751693Y-105885752D02*
X156751693Y-106552419D01*
X156751693Y-105980990D02*
X156799312Y-105933371D01*
X156799312Y-105933371D02*
X156894550Y-105885752D01*
X156894550Y-105885752D02*
X157037407Y-105885752D01*
X157037407Y-105885752D02*
X157132645Y-105933371D01*
X157132645Y-105933371D02*
X157180264Y-106028609D01*
X157180264Y-106028609D02*
X157180264Y-106552419D01*
X158370741Y-106266704D02*
X158846931Y-106266704D01*
X158275503Y-106552419D02*
X158608836Y-105552419D01*
X158608836Y-105552419D02*
X158942169Y-106552419D01*
X159275503Y-106552419D02*
X159275503Y-105552419D01*
X159704074Y-106552419D02*
X159704074Y-106028609D01*
X159704074Y-106028609D02*
X159656455Y-105933371D01*
X159656455Y-105933371D02*
X159561217Y-105885752D01*
X159561217Y-105885752D02*
X159418360Y-105885752D01*
X159418360Y-105885752D02*
X159323122Y-105933371D01*
X159323122Y-105933371D02*
X159275503Y-105980990D01*
X160180265Y-106552419D02*
X160180265Y-105885752D01*
X160180265Y-105980990D02*
X160227884Y-105933371D01*
X160227884Y-105933371D02*
X160323122Y-105885752D01*
X160323122Y-105885752D02*
X160465979Y-105885752D01*
X160465979Y-105885752D02*
X160561217Y-105933371D01*
X160561217Y-105933371D02*
X160608836Y-106028609D01*
X160608836Y-106028609D02*
X160608836Y-106552419D01*
X160608836Y-106028609D02*
X160656455Y-105933371D01*
X160656455Y-105933371D02*
X160751693Y-105885752D01*
X160751693Y-105885752D02*
X160894550Y-105885752D01*
X160894550Y-105885752D02*
X160989789Y-105933371D01*
X160989789Y-105933371D02*
X161037408Y-106028609D01*
X161037408Y-106028609D02*
X161037408Y-106552419D01*
X161894550Y-106504800D02*
X161799312Y-106552419D01*
X161799312Y-106552419D02*
X161608836Y-106552419D01*
X161608836Y-106552419D02*
X161513598Y-106504800D01*
X161513598Y-106504800D02*
X161465979Y-106409561D01*
X161465979Y-106409561D02*
X161465979Y-106028609D01*
X161465979Y-106028609D02*
X161513598Y-105933371D01*
X161513598Y-105933371D02*
X161608836Y-105885752D01*
X161608836Y-105885752D02*
X161799312Y-105885752D01*
X161799312Y-105885752D02*
X161894550Y-105933371D01*
X161894550Y-105933371D02*
X161942169Y-106028609D01*
X161942169Y-106028609D02*
X161942169Y-106123847D01*
X161942169Y-106123847D02*
X161465979Y-106219085D01*
X162799312Y-106552419D02*
X162799312Y-105552419D01*
X162799312Y-106504800D02*
X162704074Y-106552419D01*
X162704074Y-106552419D02*
X162513598Y-106552419D01*
X162513598Y-106552419D02*
X162418360Y-106504800D01*
X162418360Y-106504800D02*
X162370741Y-106457180D01*
X162370741Y-106457180D02*
X162323122Y-106361942D01*
X162323122Y-106361942D02*
X162323122Y-106076228D01*
X162323122Y-106076228D02*
X162370741Y-105980990D01*
X162370741Y-105980990D02*
X162418360Y-105933371D01*
X162418360Y-105933371D02*
X162513598Y-105885752D01*
X162513598Y-105885752D02*
X162704074Y-105885752D01*
X162704074Y-105885752D02*
X162799312Y-105933371D01*
D10*
X168160819Y-106279744D02*
X168160819Y-106089268D01*
X168160819Y-106089268D02*
X168208438Y-105994030D01*
X168208438Y-105994030D02*
X168303676Y-105898792D01*
X168303676Y-105898792D02*
X168494152Y-105851173D01*
X168494152Y-105851173D02*
X168827485Y-105851173D01*
X168827485Y-105851173D02*
X169017961Y-105898792D01*
X169017961Y-105898792D02*
X169113200Y-105994030D01*
X169113200Y-105994030D02*
X169160819Y-106089268D01*
X169160819Y-106089268D02*
X169160819Y-106279744D01*
X169160819Y-106279744D02*
X169113200Y-106374982D01*
X169113200Y-106374982D02*
X169017961Y-106470220D01*
X169017961Y-106470220D02*
X168827485Y-106517839D01*
X168827485Y-106517839D02*
X168494152Y-106517839D01*
X168494152Y-106517839D02*
X168303676Y-106470220D01*
X168303676Y-106470220D02*
X168208438Y-106374982D01*
X168208438Y-106374982D02*
X168160819Y-106279744D01*
X168494152Y-104994030D02*
X169160819Y-104994030D01*
X168494152Y-105422601D02*
X169017961Y-105422601D01*
X169017961Y-105422601D02*
X169113200Y-105374982D01*
X169113200Y-105374982D02*
X169160819Y-105279744D01*
X169160819Y-105279744D02*
X169160819Y-105136887D01*
X169160819Y-105136887D02*
X169113200Y-105041649D01*
X169113200Y-105041649D02*
X169065580Y-104994030D01*
X168494152Y-104517839D02*
X169494152Y-104517839D01*
X168541771Y-104517839D02*
X168494152Y-104422601D01*
X168494152Y-104422601D02*
X168494152Y-104232125D01*
X168494152Y-104232125D02*
X168541771Y-104136887D01*
X168541771Y-104136887D02*
X168589390Y-104089268D01*
X168589390Y-104089268D02*
X168684628Y-104041649D01*
X168684628Y-104041649D02*
X168970342Y-104041649D01*
X168970342Y-104041649D02*
X169065580Y-104089268D01*
X169065580Y-104089268D02*
X169113200Y-104136887D01*
X169113200Y-104136887D02*
X169160819Y-104232125D01*
X169160819Y-104232125D02*
X169160819Y-104422601D01*
X169160819Y-104422601D02*
X169113200Y-104517839D01*
X168494152Y-103184506D02*
X169160819Y-103184506D01*
X168494152Y-103613077D02*
X169017961Y-103613077D01*
X169017961Y-103613077D02*
X169113200Y-103565458D01*
X169113200Y-103565458D02*
X169160819Y-103470220D01*
X169160819Y-103470220D02*
X169160819Y-103327363D01*
X169160819Y-103327363D02*
X169113200Y-103232125D01*
X169113200Y-103232125D02*
X169065580Y-103184506D01*
X168494152Y-102851172D02*
X168494152Y-102470220D01*
X168160819Y-102708315D02*
X169017961Y-102708315D01*
X169017961Y-102708315D02*
X169113200Y-102660696D01*
X169113200Y-102660696D02*
X169160819Y-102565458D01*
X169160819Y-102565458D02*
X169160819Y-102470220D01*
X168779866Y-102136886D02*
X168779866Y-101374982D01*
X169160819Y-101755934D02*
X168398914Y-101755934D01*
X181368819Y-106914744D02*
X181368819Y-106724268D01*
X181368819Y-106724268D02*
X181416438Y-106629030D01*
X181416438Y-106629030D02*
X181511676Y-106533792D01*
X181511676Y-106533792D02*
X181702152Y-106486173D01*
X181702152Y-106486173D02*
X182035485Y-106486173D01*
X182035485Y-106486173D02*
X182225961Y-106533792D01*
X182225961Y-106533792D02*
X182321200Y-106629030D01*
X182321200Y-106629030D02*
X182368819Y-106724268D01*
X182368819Y-106724268D02*
X182368819Y-106914744D01*
X182368819Y-106914744D02*
X182321200Y-107009982D01*
X182321200Y-107009982D02*
X182225961Y-107105220D01*
X182225961Y-107105220D02*
X182035485Y-107152839D01*
X182035485Y-107152839D02*
X181702152Y-107152839D01*
X181702152Y-107152839D02*
X181511676Y-107105220D01*
X181511676Y-107105220D02*
X181416438Y-107009982D01*
X181416438Y-107009982D02*
X181368819Y-106914744D01*
X181702152Y-105629030D02*
X182368819Y-105629030D01*
X181702152Y-106057601D02*
X182225961Y-106057601D01*
X182225961Y-106057601D02*
X182321200Y-106009982D01*
X182321200Y-106009982D02*
X182368819Y-105914744D01*
X182368819Y-105914744D02*
X182368819Y-105771887D01*
X182368819Y-105771887D02*
X182321200Y-105676649D01*
X182321200Y-105676649D02*
X182273580Y-105629030D01*
X181702152Y-105152839D02*
X182702152Y-105152839D01*
X181749771Y-105152839D02*
X181702152Y-105057601D01*
X181702152Y-105057601D02*
X181702152Y-104867125D01*
X181702152Y-104867125D02*
X181749771Y-104771887D01*
X181749771Y-104771887D02*
X181797390Y-104724268D01*
X181797390Y-104724268D02*
X181892628Y-104676649D01*
X181892628Y-104676649D02*
X182178342Y-104676649D01*
X182178342Y-104676649D02*
X182273580Y-104724268D01*
X182273580Y-104724268D02*
X182321200Y-104771887D01*
X182321200Y-104771887D02*
X182368819Y-104867125D01*
X182368819Y-104867125D02*
X182368819Y-105057601D01*
X182368819Y-105057601D02*
X182321200Y-105152839D01*
X181702152Y-103819506D02*
X182368819Y-103819506D01*
X181702152Y-104248077D02*
X182225961Y-104248077D01*
X182225961Y-104248077D02*
X182321200Y-104200458D01*
X182321200Y-104200458D02*
X182368819Y-104105220D01*
X182368819Y-104105220D02*
X182368819Y-103962363D01*
X182368819Y-103962363D02*
X182321200Y-103867125D01*
X182321200Y-103867125D02*
X182273580Y-103819506D01*
X181702152Y-103486172D02*
X181702152Y-103105220D01*
X181368819Y-103343315D02*
X182225961Y-103343315D01*
X182225961Y-103343315D02*
X182321200Y-103295696D01*
X182321200Y-103295696D02*
X182368819Y-103200458D01*
X182368819Y-103200458D02*
X182368819Y-103105220D01*
X181987866Y-102771886D02*
X181987866Y-102009982D01*
X155219495Y-58840019D02*
X155219495Y-59649542D01*
X155219495Y-59649542D02*
X155267114Y-59744780D01*
X155267114Y-59744780D02*
X155314733Y-59792400D01*
X155314733Y-59792400D02*
X155409971Y-59840019D01*
X155409971Y-59840019D02*
X155600447Y-59840019D01*
X155600447Y-59840019D02*
X155695685Y-59792400D01*
X155695685Y-59792400D02*
X155743304Y-59744780D01*
X155743304Y-59744780D02*
X155790923Y-59649542D01*
X155790923Y-59649542D02*
X155790923Y-58840019D01*
X156790923Y-59840019D02*
X156219495Y-59840019D01*
X156505209Y-59840019D02*
X156505209Y-58840019D01*
X156505209Y-58840019D02*
X156409971Y-58982876D01*
X156409971Y-58982876D02*
X156314733Y-59078114D01*
X156314733Y-59078114D02*
X156219495Y-59125733D01*
X174262580Y-69849666D02*
X174310200Y-69897285D01*
X174310200Y-69897285D02*
X174357819Y-70040142D01*
X174357819Y-70040142D02*
X174357819Y-70135380D01*
X174357819Y-70135380D02*
X174310200Y-70278237D01*
X174310200Y-70278237D02*
X174214961Y-70373475D01*
X174214961Y-70373475D02*
X174119723Y-70421094D01*
X174119723Y-70421094D02*
X173929247Y-70468713D01*
X173929247Y-70468713D02*
X173786390Y-70468713D01*
X173786390Y-70468713D02*
X173595914Y-70421094D01*
X173595914Y-70421094D02*
X173500676Y-70373475D01*
X173500676Y-70373475D02*
X173405438Y-70278237D01*
X173405438Y-70278237D02*
X173357819Y-70135380D01*
X173357819Y-70135380D02*
X173357819Y-70040142D01*
X173357819Y-70040142D02*
X173405438Y-69897285D01*
X173405438Y-69897285D02*
X173453057Y-69849666D01*
X173691152Y-68992523D02*
X174357819Y-68992523D01*
X173310200Y-69230618D02*
X174024485Y-69468713D01*
X174024485Y-69468713D02*
X174024485Y-68849666D01*
X148042666Y-95585819D02*
X148042666Y-96300104D01*
X148042666Y-96300104D02*
X147995047Y-96442961D01*
X147995047Y-96442961D02*
X147899809Y-96538200D01*
X147899809Y-96538200D02*
X147756952Y-96585819D01*
X147756952Y-96585819D02*
X147661714Y-96585819D01*
X149042666Y-96585819D02*
X148471238Y-96585819D01*
X148756952Y-96585819D02*
X148756952Y-95585819D01*
X148756952Y-95585819D02*
X148661714Y-95728676D01*
X148661714Y-95728676D02*
X148566476Y-95823914D01*
X148566476Y-95823914D02*
X148471238Y-95871533D01*
X169280819Y-72175666D02*
X168804628Y-72508999D01*
X169280819Y-72747094D02*
X168280819Y-72747094D01*
X168280819Y-72747094D02*
X168280819Y-72366142D01*
X168280819Y-72366142D02*
X168328438Y-72270904D01*
X168328438Y-72270904D02*
X168376057Y-72223285D01*
X168376057Y-72223285D02*
X168471295Y-72175666D01*
X168471295Y-72175666D02*
X168614152Y-72175666D01*
X168614152Y-72175666D02*
X168709390Y-72223285D01*
X168709390Y-72223285D02*
X168757009Y-72270904D01*
X168757009Y-72270904D02*
X168804628Y-72366142D01*
X168804628Y-72366142D02*
X168804628Y-72747094D01*
X169280819Y-71223285D02*
X169280819Y-71794713D01*
X169280819Y-71508999D02*
X168280819Y-71508999D01*
X168280819Y-71508999D02*
X168423676Y-71604237D01*
X168423676Y-71604237D02*
X168518914Y-71699475D01*
X168518914Y-71699475D02*
X168566533Y-71794713D01*
X174839666Y-95585819D02*
X174839666Y-96300104D01*
X174839666Y-96300104D02*
X174792047Y-96442961D01*
X174792047Y-96442961D02*
X174696809Y-96538200D01*
X174696809Y-96538200D02*
X174553952Y-96585819D01*
X174553952Y-96585819D02*
X174458714Y-96585819D01*
X175268238Y-95681057D02*
X175315857Y-95633438D01*
X175315857Y-95633438D02*
X175411095Y-95585819D01*
X175411095Y-95585819D02*
X175649190Y-95585819D01*
X175649190Y-95585819D02*
X175744428Y-95633438D01*
X175744428Y-95633438D02*
X175792047Y-95681057D01*
X175792047Y-95681057D02*
X175839666Y-95776295D01*
X175839666Y-95776295D02*
X175839666Y-95871533D01*
X175839666Y-95871533D02*
X175792047Y-96014390D01*
X175792047Y-96014390D02*
X175220619Y-96585819D01*
X175220619Y-96585819D02*
X175839666Y-96585819D01*
X147153333Y-90624819D02*
X146677143Y-90624819D01*
X146677143Y-90624819D02*
X146677143Y-89624819D01*
X148010476Y-90624819D02*
X147439048Y-90624819D01*
X147724762Y-90624819D02*
X147724762Y-89624819D01*
X147724762Y-89624819D02*
X147629524Y-89767676D01*
X147629524Y-89767676D02*
X147534286Y-89862914D01*
X147534286Y-89862914D02*
X147439048Y-89910533D01*
X177313419Y-88695233D02*
X177265800Y-88647614D01*
X177265800Y-88647614D02*
X177218180Y-88504757D01*
X177218180Y-88504757D02*
X177218180Y-88409519D01*
X177218180Y-88409519D02*
X177265800Y-88266662D01*
X177265800Y-88266662D02*
X177361038Y-88171424D01*
X177361038Y-88171424D02*
X177456276Y-88123805D01*
X177456276Y-88123805D02*
X177646752Y-88076186D01*
X177646752Y-88076186D02*
X177789609Y-88076186D01*
X177789609Y-88076186D02*
X177980085Y-88123805D01*
X177980085Y-88123805D02*
X178075323Y-88171424D01*
X178075323Y-88171424D02*
X178170561Y-88266662D01*
X178170561Y-88266662D02*
X178218180Y-88409519D01*
X178218180Y-88409519D02*
X178218180Y-88504757D01*
X178218180Y-88504757D02*
X178170561Y-88647614D01*
X178170561Y-88647614D02*
X178122942Y-88695233D01*
X178122942Y-89076186D02*
X178170561Y-89123805D01*
X178170561Y-89123805D02*
X178218180Y-89219043D01*
X178218180Y-89219043D02*
X178218180Y-89457138D01*
X178218180Y-89457138D02*
X178170561Y-89552376D01*
X178170561Y-89552376D02*
X178122942Y-89599995D01*
X178122942Y-89599995D02*
X178027704Y-89647614D01*
X178027704Y-89647614D02*
X177932466Y-89647614D01*
X177932466Y-89647614D02*
X177789609Y-89599995D01*
X177789609Y-89599995D02*
X177218180Y-89028567D01*
X177218180Y-89028567D02*
X177218180Y-89647614D01*
X162543819Y-82653094D02*
X161543819Y-82653094D01*
X161543819Y-82653094D02*
X161543819Y-82414999D01*
X161543819Y-82414999D02*
X161591438Y-82272142D01*
X161591438Y-82272142D02*
X161686676Y-82176904D01*
X161686676Y-82176904D02*
X161781914Y-82129285D01*
X161781914Y-82129285D02*
X161972390Y-82081666D01*
X161972390Y-82081666D02*
X162115247Y-82081666D01*
X162115247Y-82081666D02*
X162305723Y-82129285D01*
X162305723Y-82129285D02*
X162400961Y-82176904D01*
X162400961Y-82176904D02*
X162496200Y-82272142D01*
X162496200Y-82272142D02*
X162543819Y-82414999D01*
X162543819Y-82414999D02*
X162543819Y-82653094D01*
X162543819Y-81129285D02*
X162543819Y-81700713D01*
X162543819Y-81414999D02*
X161543819Y-81414999D01*
X161543819Y-81414999D02*
X161686676Y-81510237D01*
X161686676Y-81510237D02*
X161781914Y-81605475D01*
X161781914Y-81605475D02*
X161829533Y-81700713D01*
X161423819Y-74556904D02*
X160423819Y-74556904D01*
X161423819Y-73985476D02*
X160852390Y-74414047D01*
X160423819Y-73985476D02*
X160995247Y-74556904D01*
X144250580Y-59221666D02*
X144298200Y-59269285D01*
X144298200Y-59269285D02*
X144345819Y-59412142D01*
X144345819Y-59412142D02*
X144345819Y-59507380D01*
X144345819Y-59507380D02*
X144298200Y-59650237D01*
X144298200Y-59650237D02*
X144202961Y-59745475D01*
X144202961Y-59745475D02*
X144107723Y-59793094D01*
X144107723Y-59793094D02*
X143917247Y-59840713D01*
X143917247Y-59840713D02*
X143774390Y-59840713D01*
X143774390Y-59840713D02*
X143583914Y-59793094D01*
X143583914Y-59793094D02*
X143488676Y-59745475D01*
X143488676Y-59745475D02*
X143393438Y-59650237D01*
X143393438Y-59650237D02*
X143345819Y-59507380D01*
X143345819Y-59507380D02*
X143345819Y-59412142D01*
X143345819Y-59412142D02*
X143393438Y-59269285D01*
X143393438Y-59269285D02*
X143441057Y-59221666D01*
X144345819Y-58269285D02*
X144345819Y-58840713D01*
X144345819Y-58554999D02*
X143345819Y-58554999D01*
X143345819Y-58554999D02*
X143488676Y-58650237D01*
X143488676Y-58650237D02*
X143583914Y-58745475D01*
X143583914Y-58745475D02*
X143631533Y-58840713D01*
X183545819Y-72429666D02*
X183069628Y-72762999D01*
X183545819Y-73001094D02*
X182545819Y-73001094D01*
X182545819Y-73001094D02*
X182545819Y-72620142D01*
X182545819Y-72620142D02*
X182593438Y-72524904D01*
X182593438Y-72524904D02*
X182641057Y-72477285D01*
X182641057Y-72477285D02*
X182736295Y-72429666D01*
X182736295Y-72429666D02*
X182879152Y-72429666D01*
X182879152Y-72429666D02*
X182974390Y-72477285D01*
X182974390Y-72477285D02*
X183022009Y-72524904D01*
X183022009Y-72524904D02*
X183069628Y-72620142D01*
X183069628Y-72620142D02*
X183069628Y-73001094D01*
X182641057Y-72048713D02*
X182593438Y-72001094D01*
X182593438Y-72001094D02*
X182545819Y-71905856D01*
X182545819Y-71905856D02*
X182545819Y-71667761D01*
X182545819Y-71667761D02*
X182593438Y-71572523D01*
X182593438Y-71572523D02*
X182641057Y-71524904D01*
X182641057Y-71524904D02*
X182736295Y-71477285D01*
X182736295Y-71477285D02*
X182831533Y-71477285D01*
X182831533Y-71477285D02*
X182974390Y-71524904D01*
X182974390Y-71524904D02*
X183545819Y-72096332D01*
X183545819Y-72096332D02*
X183545819Y-71477285D01*
D12*
%TO.C,U1*%
X155549600Y-60172600D02*
X155549600Y-64871600D01*
X155549600Y-64871600D02*
X157835600Y-64871600D01*
X163830000Y-64871600D02*
X166116000Y-64871600D01*
X166116000Y-60172600D02*
X155549600Y-60172600D01*
X166116000Y-64871600D02*
X166116000Y-60172600D01*
D13*
%TO.C,C4*%
X175033000Y-67063000D02*
X175348000Y-67063000D01*
X175033000Y-72303000D02*
X175033000Y-67063000D01*
X175033000Y-72303000D02*
X175348000Y-72303000D01*
X177458000Y-67063000D02*
X177773000Y-67063000D01*
X177458000Y-72303000D02*
X177773000Y-72303000D01*
X177773000Y-72303000D02*
X177773000Y-67063000D01*
%TO.C,J1*%
X141806000Y-106641000D02*
X141806000Y-107281000D01*
X141806000Y-107281000D02*
X142206000Y-107281000D01*
X142046000Y-97921000D02*
X142046000Y-107041000D01*
X142046000Y-97921000D02*
X152166000Y-97921000D01*
X142046000Y-105481000D02*
X152166000Y-105481000D01*
X142046000Y-106581000D02*
X152166000Y-106581000D01*
X142046000Y-107041000D02*
X152166000Y-107041000D01*
X143058000Y-103262000D02*
X142952000Y-103369000D01*
X143324000Y-103528000D02*
X143218000Y-103635000D01*
X145994000Y-100327000D02*
X145887000Y-100434000D01*
X146260000Y-100593000D02*
X146153000Y-100700000D01*
X148348000Y-102973000D02*
X147953000Y-103369000D01*
X148599000Y-103255000D02*
X148219000Y-103635000D01*
X150994000Y-100327000D02*
X150614000Y-100707000D01*
X151260000Y-100593000D02*
X150865000Y-100989000D01*
X152166000Y-97921000D02*
X152166000Y-107041000D01*
X146786000Y-101981000D02*
G75*
G02*
X142426000Y-101981000I-2180000J0D01*
G01*
X142426000Y-101981000D02*
G75*
G02*
X146786000Y-101981000I2180000J0D01*
G01*
X151786000Y-101981000D02*
G75*
G02*
X147426000Y-101981000I-2180000J0D01*
G01*
X147426000Y-101981000D02*
G75*
G02*
X151786000Y-101981000I2180000J0D01*
G01*
%TO.C,R1*%
X169826000Y-68739000D02*
X169826000Y-75279000D01*
X169826000Y-75279000D02*
X172566000Y-75279000D01*
X171196000Y-67969000D02*
X171196000Y-68739000D01*
X171196000Y-76049000D02*
X171196000Y-75279000D01*
X172566000Y-68739000D02*
X169826000Y-68739000D01*
X172566000Y-75279000D02*
X172566000Y-68739000D01*
%TO.C,J2*%
X169873000Y-106641000D02*
X169873000Y-107281000D01*
X169873000Y-107281000D02*
X170273000Y-107281000D01*
X170113000Y-97921000D02*
X170113000Y-107041000D01*
X170113000Y-97921000D02*
X180233000Y-97921000D01*
X170113000Y-105481000D02*
X180233000Y-105481000D01*
X170113000Y-106581000D02*
X180233000Y-106581000D01*
X170113000Y-107041000D02*
X180233000Y-107041000D01*
X171125000Y-103262000D02*
X171019000Y-103369000D01*
X171391000Y-103528000D02*
X171285000Y-103635000D01*
X174061000Y-100327000D02*
X173954000Y-100434000D01*
X174327000Y-100593000D02*
X174220000Y-100700000D01*
X176415000Y-102973000D02*
X176020000Y-103369000D01*
X176666000Y-103255000D02*
X176286000Y-103635000D01*
X179061000Y-100327000D02*
X178681000Y-100707000D01*
X179327000Y-100593000D02*
X178932000Y-100989000D01*
X180233000Y-97921000D02*
X180233000Y-107041000D01*
X174853000Y-101981000D02*
G75*
G02*
X170493000Y-101981000I-2180000J0D01*
G01*
X170493000Y-101981000D02*
G75*
G02*
X174853000Y-101981000I2180000J0D01*
G01*
X179853000Y-101981000D02*
G75*
G02*
X175493000Y-101981000I-2180000J0D01*
G01*
X175493000Y-101981000D02*
G75*
G02*
X179853000Y-101981000I2180000J0D01*
G01*
D14*
%TO.C,L1*%
X142240000Y-70485000D02*
X153670000Y-70485000D01*
X142240000Y-92075000D02*
X142240000Y-70485000D01*
D15*
X143955000Y-74280000D02*
X151955000Y-74280000D01*
X143955000Y-75280000D02*
X151955000Y-75280000D01*
X143955000Y-76780000D02*
X151955000Y-76780000D01*
X143955000Y-78050000D02*
X151955000Y-78050000D01*
X143955000Y-79780000D02*
X151955000Y-79780000D01*
X143955000Y-82780000D02*
X151955000Y-82780000D01*
X143955000Y-84510000D02*
X151955000Y-84510000D01*
X143955000Y-85780000D02*
X151955000Y-85780000D01*
X143955000Y-87280000D02*
X151955000Y-87280000D01*
X143955000Y-88280000D02*
X151955000Y-88280000D01*
D14*
X144955000Y-74280000D02*
X144955000Y-81280000D01*
X144955000Y-81280000D02*
X144955000Y-88280000D01*
D15*
X144955000Y-81280000D02*
X150955000Y-81280000D01*
D14*
X144955000Y-88280000D02*
X150955000Y-88280000D01*
X150955000Y-74280000D02*
X144955000Y-74280000D01*
X150955000Y-81280000D02*
X150955000Y-74280000D01*
X150955000Y-88280000D02*
X150955000Y-81280000D01*
X153670000Y-70485000D02*
X153670000Y-92075000D01*
X153670000Y-92075000D02*
X142240000Y-92075000D01*
D12*
%TO.C,C2*%
X175133000Y-82092800D02*
X175133000Y-83362800D01*
X175768000Y-82727800D02*
X174498000Y-82727800D01*
X180505100Y-88861900D02*
G75*
G02*
X169760900Y-88861900I-5372100J0D01*
G01*
X169760900Y-88861900D02*
G75*
G02*
X180505100Y-88861900I5372100J0D01*
G01*
D13*
%TO.C,D1*%
X155649000Y-77045000D02*
X155649000Y-86785000D01*
X155649000Y-86785000D02*
X161089000Y-86785000D01*
X158369000Y-76135000D02*
X158369000Y-77045000D01*
X158369000Y-87695000D02*
X158369000Y-86785000D01*
X161089000Y-77045000D02*
X155649000Y-77045000D01*
X161089000Y-78470000D02*
X155649000Y-78470000D01*
X161089000Y-78590000D02*
X155649000Y-78590000D01*
X161089000Y-78710000D02*
X155649000Y-78710000D01*
X161089000Y-86785000D02*
X161089000Y-77045000D01*
D12*
%TO.C,C1*%
X145796000Y-69621400D02*
X147066000Y-69621400D01*
X146431000Y-70256400D02*
X146431000Y-68986400D01*
X153060400Y-62230000D02*
G75*
G02*
X139801600Y-62230000I-6629400J0D01*
G01*
X139801600Y-62230000D02*
G75*
G02*
X153060400Y-62230000I6629400J0D01*
G01*
D13*
%TO.C,R2*%
X179351000Y-68993000D02*
X179351000Y-75533000D01*
X179351000Y-75533000D02*
X182091000Y-75533000D01*
X180721000Y-68223000D02*
X180721000Y-68993000D01*
X180721000Y-76303000D02*
X180721000Y-75533000D01*
X182091000Y-68993000D02*
X179351000Y-68993000D01*
X182091000Y-75533000D02*
X182091000Y-68993000D01*
%TD*%
M02*
