G04 #@! TF.GenerationSoftware,KiCad,Pcbnew,8.0.5*
G04 #@! TF.CreationDate,2024-12-02T19:57:29-05:00*
G04 #@! TF.ProjectId,usb_to_uart_ft232rl,7573625f-746f-45f7-9561-72745f667432,rev?*
G04 #@! TF.SameCoordinates,Original*
G04 #@! TF.FileFunction,Paste,Top*
G04 #@! TF.FilePolarity,Positive*
%FSLAX46Y46*%
G04 Gerber Fmt 4.6, Leading zero omitted, Abs format (unit mm)*
G04 Created by KiCad (PCBNEW 8.0.5) date 2024-12-02 19:57:29*
%MOMM*%
%LPD*%
G01*
G04 APERTURE LIST*
G04 Aperture macros list*
%AMRoundRect*
0 Rectangle with rounded corners*
0 $1 Rounding radius*
0 $2 $3 $4 $5 $6 $7 $8 $9 X,Y pos of 4 corners*
0 Add a 4 corners polygon primitive as box body*
4,1,4,$2,$3,$4,$5,$6,$7,$8,$9,$2,$3,0*
0 Add four circle primitives for the rounded corners*
1,1,$1+$1,$2,$3*
1,1,$1+$1,$4,$5*
1,1,$1+$1,$6,$7*
1,1,$1+$1,$8,$9*
0 Add four rect primitives between the rounded corners*
20,1,$1+$1,$2,$3,$4,$5,0*
20,1,$1+$1,$4,$5,$6,$7,0*
20,1,$1+$1,$6,$7,$8,$9,0*
20,1,$1+$1,$8,$9,$2,$3,0*%
G04 Aperture macros list end*
%ADD10R,0.450000X1.300000*%
%ADD11RoundRect,0.250000X-0.475000X0.250000X-0.475000X-0.250000X0.475000X-0.250000X0.475000X0.250000X0*%
%ADD12RoundRect,0.250000X0.475000X-0.250000X0.475000X0.250000X-0.475000X0.250000X-0.475000X-0.250000X0*%
%ADD13RoundRect,0.218750X0.218750X0.256250X-0.218750X0.256250X-0.218750X-0.256250X0.218750X-0.256250X0*%
%ADD14RoundRect,0.250000X0.625000X-0.312500X0.625000X0.312500X-0.625000X0.312500X-0.625000X-0.312500X0*%
%ADD15RoundRect,0.250000X0.312500X0.625000X-0.312500X0.625000X-0.312500X-0.625000X0.312500X-0.625000X0*%
%ADD16RoundRect,0.250000X0.650000X-0.325000X0.650000X0.325000X-0.650000X0.325000X-0.650000X-0.325000X0*%
%ADD17R,1.750000X0.450000*%
G04 APERTURE END LIST*
D10*
X102075000Y-62900000D03*
X102725000Y-62900000D03*
X103375000Y-62900000D03*
X104025000Y-62900000D03*
X104675000Y-62900000D03*
D11*
X113750000Y-56800000D03*
X113750000Y-58700000D03*
D12*
X113750000Y-55200000D03*
X113750000Y-53300000D03*
D13*
X111537500Y-63000000D03*
X109962500Y-63000000D03*
X111537500Y-61250000D03*
X109962500Y-61250000D03*
D14*
X101000000Y-59462500D03*
X101000000Y-56537500D03*
X113750000Y-65962500D03*
X113750000Y-63037500D03*
D15*
X112712500Y-68000000D03*
X109787500Y-68000000D03*
D13*
X111537500Y-65000000D03*
X109962500Y-65000000D03*
D14*
X116250000Y-65962500D03*
X116250000Y-63037500D03*
D16*
X116000000Y-56475000D03*
X116000000Y-53525000D03*
D17*
X104250000Y-50400000D03*
X104250000Y-51050000D03*
X104250000Y-51700000D03*
X104250000Y-52350000D03*
X104250000Y-53000000D03*
X104250000Y-53650000D03*
X104250000Y-54300000D03*
X104250000Y-54950000D03*
X104250000Y-55600000D03*
X104250000Y-56250000D03*
X104250000Y-56900000D03*
X104250000Y-57550000D03*
X104250000Y-58200000D03*
X104250000Y-58850000D03*
X111450000Y-58850000D03*
X111450000Y-58200000D03*
X111450000Y-57550000D03*
X111450000Y-56900000D03*
X111450000Y-56250000D03*
X111450000Y-55600000D03*
X111450000Y-54950000D03*
X111450000Y-54300000D03*
X111450000Y-53650000D03*
X111450000Y-53000000D03*
X111450000Y-52350000D03*
X111450000Y-51700000D03*
X111450000Y-51050000D03*
X111450000Y-50400000D03*
M02*
