M48
; DRILL file {KiCad 8.0.4} date 2024-11-22T23:05:49-0500
; FORMAT={-:-/ absolute / metric / decimal}
; #@! TF.CreationDate,2024-11-22T23:05:49-05:00
; #@! TF.GenerationSoftware,Kicad,Pcbnew,8.0.4
; #@! TF.FileFunction,Plated,1,4,PTH
FMAT,2
METRIC
; #@! TA.AperFunction,Plated,PTH,ViaDrill
T1C0.300
; #@! TA.AperFunction,Plated,PTH,ComponentDrill
T2C1.000
%
G90
G05
T1
X100.0Y-54.75
X102.5Y-52.25
X102.5Y-54.25
X106.5Y-61.25
X108.5Y-55.0
X108.75Y-51.75
X109.0Y-52.5
X109.259Y-53.65
X109.75Y-61.25
X113.5Y-53.5
X113.75Y-60.75
X114.5Y-58.5
X116.0Y-55.0
X116.0Y-58.0
X116.25Y-60.75
T2
X100.25Y-40.59
X100.25Y-43.13
X100.25Y-45.67
X100.25Y-48.21
X100.25Y-50.75
X115.49Y-40.59
X115.49Y-43.13
X115.49Y-45.67
X115.49Y-48.21
X115.49Y-50.75
M30
