G04 #@! TF.GenerationSoftware,KiCad,Pcbnew,8.0.5*
G04 #@! TF.CreationDate,2024-12-02T19:57:29-05:00*
G04 #@! TF.ProjectId,usb_to_uart_ft232rl,7573625f-746f-45f7-9561-72745f667432,rev?*
G04 #@! TF.SameCoordinates,Original*
G04 #@! TF.FileFunction,Soldermask,Top*
G04 #@! TF.FilePolarity,Negative*
%FSLAX46Y46*%
G04 Gerber Fmt 4.6, Leading zero omitted, Abs format (unit mm)*
G04 Created by KiCad (PCBNEW 8.0.5) date 2024-12-02 19:57:29*
%MOMM*%
%LPD*%
G01*
G04 APERTURE LIST*
G04 Aperture macros list*
%AMRoundRect*
0 Rectangle with rounded corners*
0 $1 Rounding radius*
0 $2 $3 $4 $5 $6 $7 $8 $9 X,Y pos of 4 corners*
0 Add a 4 corners polygon primitive as box body*
4,1,4,$2,$3,$4,$5,$6,$7,$8,$9,$2,$3,0*
0 Add four circle primitives for the rounded corners*
1,1,$1+$1,$2,$3*
1,1,$1+$1,$4,$5*
1,1,$1+$1,$6,$7*
1,1,$1+$1,$8,$9*
0 Add four rect primitives between the rounded corners*
20,1,$1+$1,$2,$3,$4,$5,0*
20,1,$1+$1,$4,$5,$6,$7,0*
20,1,$1+$1,$6,$7,$8,$9,0*
20,1,$1+$1,$8,$9,$2,$3,0*%
G04 Aperture macros list end*
%ADD10O,0.800000X0.800000*%
%ADD11R,0.450000X1.300000*%
%ADD12O,1.150000X1.800000*%
%ADD13O,1.450000X2.000000*%
%ADD14RoundRect,0.250000X-0.475000X0.250000X-0.475000X-0.250000X0.475000X-0.250000X0.475000X0.250000X0*%
%ADD15RoundRect,0.250000X0.475000X-0.250000X0.475000X0.250000X-0.475000X0.250000X-0.475000X-0.250000X0*%
%ADD16RoundRect,0.218750X0.218750X0.256250X-0.218750X0.256250X-0.218750X-0.256250X0.218750X-0.256250X0*%
%ADD17RoundRect,0.250000X0.625000X-0.312500X0.625000X0.312500X-0.625000X0.312500X-0.625000X-0.312500X0*%
%ADD18RoundRect,0.250000X0.312500X0.625000X-0.312500X0.625000X-0.312500X-0.625000X0.312500X-0.625000X0*%
%ADD19RoundRect,0.250000X0.650000X-0.325000X0.650000X0.325000X-0.650000X0.325000X-0.650000X-0.325000X0*%
%ADD20R,1.750000X0.450000*%
%ADD21R,1.700000X1.700000*%
%ADD22O,1.700000X1.700000*%
%ADD23C,0.600000*%
G04 APERTURE END LIST*
D10*
X100875000Y-64000000D03*
X105875000Y-64000000D03*
D11*
X102075000Y-62900000D03*
X102725000Y-62900000D03*
X103375000Y-62900000D03*
X104025000Y-62900000D03*
X104675000Y-62900000D03*
D12*
X99500000Y-66750000D03*
D13*
X99650000Y-62950000D03*
X107100000Y-62950000D03*
D12*
X107250000Y-66750000D03*
D14*
X113750000Y-56800000D03*
X113750000Y-58700000D03*
D15*
X113750000Y-55200000D03*
X113750000Y-53300000D03*
D16*
X111537500Y-63000000D03*
X109962500Y-63000000D03*
X111537500Y-61250000D03*
X109962500Y-61250000D03*
D17*
X101000000Y-59462500D03*
X101000000Y-56537500D03*
X113750000Y-65962500D03*
X113750000Y-63037500D03*
D18*
X112712500Y-68000000D03*
X109787500Y-68000000D03*
D16*
X111537500Y-65000000D03*
X109962500Y-65000000D03*
D17*
X116250000Y-65962500D03*
X116250000Y-63037500D03*
D19*
X116000000Y-56475000D03*
X116000000Y-53525000D03*
D20*
X104250000Y-50400000D03*
X104250000Y-51050000D03*
X104250000Y-51700000D03*
X104250000Y-52350000D03*
X104250000Y-53000000D03*
X104250000Y-53650000D03*
X104250000Y-54300000D03*
X104250000Y-54950000D03*
X104250000Y-55600000D03*
X104250000Y-56250000D03*
X104250000Y-56900000D03*
X104250000Y-57550000D03*
X104250000Y-58200000D03*
X104250000Y-58850000D03*
X111450000Y-58850000D03*
X111450000Y-58200000D03*
X111450000Y-57550000D03*
X111450000Y-56900000D03*
X111450000Y-56250000D03*
X111450000Y-55600000D03*
X111450000Y-54950000D03*
X111450000Y-54300000D03*
X111450000Y-53650000D03*
X111450000Y-53000000D03*
X111450000Y-52350000D03*
X111450000Y-51700000D03*
X111450000Y-51050000D03*
X111450000Y-50400000D03*
D21*
X100250000Y-40590000D03*
D22*
X100250000Y-43130000D03*
X100250000Y-45670000D03*
X100250000Y-48210000D03*
X100250000Y-50750000D03*
D21*
X115490000Y-40590000D03*
D22*
X115490000Y-43130000D03*
X115490000Y-45670000D03*
X115490000Y-48210000D03*
X115490000Y-50750000D03*
D23*
X117000000Y-59500000D03*
X108750000Y-51750000D03*
X116000000Y-55000000D03*
X106500000Y-61250000D03*
X102500000Y-54250000D03*
X109000000Y-52500000D03*
X102500000Y-52250000D03*
X108250000Y-61250000D03*
X116000000Y-58000000D03*
X100000000Y-54750000D03*
X116250000Y-60750000D03*
X109258848Y-53650000D03*
X113750000Y-60750000D03*
X108500000Y-55000000D03*
X108750000Y-63250000D03*
X106166635Y-58166635D03*
M02*
