G04 #@! TF.GenerationSoftware,KiCad,Pcbnew,8.0.4*
G04 #@! TF.CreationDate,2024-11-22T23:05:38-05:00*
G04 #@! TF.ProjectId,usb_to_uart_ft232rl,7573625f-746f-45f7-9561-72745f667432,rev?*
G04 #@! TF.SameCoordinates,Original*
G04 #@! TF.FileFunction,Copper,L3,Inr*
G04 #@! TF.FilePolarity,Positive*
%FSLAX46Y46*%
G04 Gerber Fmt 4.6, Leading zero omitted, Abs format (unit mm)*
G04 Created by KiCad (PCBNEW 8.0.4) date 2024-11-22 23:05:38*
%MOMM*%
%LPD*%
G01*
G04 APERTURE LIST*
G04 #@! TA.AperFunction,ComponentPad*
%ADD10R,1.700000X1.700000*%
G04 #@! TD*
G04 #@! TA.AperFunction,ComponentPad*
%ADD11O,1.700000X1.700000*%
G04 #@! TD*
G04 #@! TA.AperFunction,ViaPad*
%ADD12C,0.600000*%
G04 #@! TD*
G04 APERTURE END LIST*
D10*
X100250000Y-40590000D03*
D11*
X100250000Y-43130000D03*
X100250000Y-45670000D03*
X100250000Y-48210000D03*
X100250000Y-50750000D03*
D10*
X115490000Y-40590000D03*
D11*
X115490000Y-43130000D03*
X115490000Y-45670000D03*
X115490000Y-48210000D03*
X115490000Y-50750000D03*
D12*
X114500000Y-58500000D03*
X113500000Y-53500000D03*
X109750000Y-61250000D03*
X100000000Y-54750000D03*
X106500000Y-61250000D03*
X109258848Y-53650000D03*
X108500000Y-55000000D03*
X116250000Y-60750000D03*
X113750000Y-60750000D03*
X116000000Y-55000000D03*
X116000000Y-58000000D03*
X102500000Y-52250000D03*
X102500000Y-54250000D03*
X108750000Y-51750000D03*
X109000000Y-52500000D03*
G04 #@! TA.AperFunction,Conductor*
G36*
X117442539Y-37895185D02*
G01*
X117488294Y-37947989D01*
X117499500Y-37999500D01*
X117499500Y-67250500D01*
X117479815Y-67317539D01*
X117427011Y-67363294D01*
X117375500Y-67374500D01*
X98624500Y-67374500D01*
X98557461Y-67354815D01*
X98511706Y-67302011D01*
X98500500Y-67250500D01*
X98500500Y-61249996D01*
X105694435Y-61249996D01*
X105694435Y-61250003D01*
X105714630Y-61429249D01*
X105714631Y-61429254D01*
X105774211Y-61599523D01*
X105870184Y-61752262D01*
X105997738Y-61879816D01*
X106150478Y-61975789D01*
X106320745Y-62035368D01*
X106320750Y-62035369D01*
X106499996Y-62055565D01*
X106500000Y-62055565D01*
X106500004Y-62055565D01*
X106679249Y-62035369D01*
X106679252Y-62035368D01*
X106679255Y-62035368D01*
X106849522Y-61975789D01*
X107002262Y-61879816D01*
X107129816Y-61752262D01*
X107225789Y-61599522D01*
X107285368Y-61429255D01*
X107285369Y-61429249D01*
X107305565Y-61250003D01*
X107305565Y-61249996D01*
X107285369Y-61070750D01*
X107285368Y-61070745D01*
X107225789Y-60900478D01*
X107131235Y-60749996D01*
X112944435Y-60749996D01*
X112944435Y-60750003D01*
X112964630Y-60929249D01*
X112964631Y-60929254D01*
X113024211Y-61099523D01*
X113118760Y-61249996D01*
X113120184Y-61252262D01*
X113247738Y-61379816D01*
X113400478Y-61475789D01*
X113570745Y-61535368D01*
X113570750Y-61535369D01*
X113749996Y-61555565D01*
X113750000Y-61555565D01*
X113750004Y-61555565D01*
X113929249Y-61535369D01*
X113929252Y-61535368D01*
X113929255Y-61535368D01*
X114099522Y-61475789D01*
X114252262Y-61379816D01*
X114379816Y-61252262D01*
X114475789Y-61099522D01*
X114535368Y-60929255D01*
X114535369Y-60929249D01*
X114555565Y-60750003D01*
X114555565Y-60749996D01*
X115444435Y-60749996D01*
X115444435Y-60750003D01*
X115464630Y-60929249D01*
X115464631Y-60929254D01*
X115524211Y-61099523D01*
X115618760Y-61249996D01*
X115620184Y-61252262D01*
X115747738Y-61379816D01*
X115900478Y-61475789D01*
X116070745Y-61535368D01*
X116070750Y-61535369D01*
X116249996Y-61555565D01*
X116250000Y-61555565D01*
X116250004Y-61555565D01*
X116429249Y-61535369D01*
X116429252Y-61535368D01*
X116429255Y-61535368D01*
X116599522Y-61475789D01*
X116752262Y-61379816D01*
X116879816Y-61252262D01*
X116975789Y-61099522D01*
X117035368Y-60929255D01*
X117035369Y-60929249D01*
X117055565Y-60750003D01*
X117055565Y-60749996D01*
X117035369Y-60570750D01*
X117035368Y-60570745D01*
X116975788Y-60400476D01*
X116879815Y-60247737D01*
X116752262Y-60120184D01*
X116599523Y-60024211D01*
X116429254Y-59964631D01*
X116429249Y-59964630D01*
X116250004Y-59944435D01*
X116249996Y-59944435D01*
X116070750Y-59964630D01*
X116070745Y-59964631D01*
X115900476Y-60024211D01*
X115747737Y-60120184D01*
X115620184Y-60247737D01*
X115524211Y-60400476D01*
X115464631Y-60570745D01*
X115464630Y-60570750D01*
X115444435Y-60749996D01*
X114555565Y-60749996D01*
X114535369Y-60570750D01*
X114535368Y-60570745D01*
X114475788Y-60400476D01*
X114379815Y-60247737D01*
X114252262Y-60120184D01*
X114099523Y-60024211D01*
X113929254Y-59964631D01*
X113929249Y-59964630D01*
X113750004Y-59944435D01*
X113749996Y-59944435D01*
X113570750Y-59964630D01*
X113570745Y-59964631D01*
X113400476Y-60024211D01*
X113247737Y-60120184D01*
X113120184Y-60247737D01*
X113024211Y-60400476D01*
X112964631Y-60570745D01*
X112964630Y-60570750D01*
X112944435Y-60749996D01*
X107131235Y-60749996D01*
X107129816Y-60747738D01*
X107002262Y-60620184D01*
X106849523Y-60524211D01*
X106679254Y-60464631D01*
X106679249Y-60464630D01*
X106500004Y-60444435D01*
X106499996Y-60444435D01*
X106320750Y-60464630D01*
X106320745Y-60464631D01*
X106150476Y-60524211D01*
X105997737Y-60620184D01*
X105870184Y-60747737D01*
X105774211Y-60900476D01*
X105714631Y-61070745D01*
X105714630Y-61070750D01*
X105694435Y-61249996D01*
X98500500Y-61249996D01*
X98500500Y-58499996D01*
X113694435Y-58499996D01*
X113694435Y-58500003D01*
X113714630Y-58679249D01*
X113714631Y-58679254D01*
X113774211Y-58849523D01*
X113870184Y-59002262D01*
X113997738Y-59129816D01*
X114150478Y-59225789D01*
X114320745Y-59285368D01*
X114320750Y-59285369D01*
X114499996Y-59305565D01*
X114500000Y-59305565D01*
X114500004Y-59305565D01*
X114679249Y-59285369D01*
X114679252Y-59285368D01*
X114679255Y-59285368D01*
X114849522Y-59225789D01*
X115002262Y-59129816D01*
X115129816Y-59002262D01*
X115225789Y-58849522D01*
X115285368Y-58679255D01*
X115305565Y-58500000D01*
X115285368Y-58320745D01*
X115225789Y-58150478D01*
X115129816Y-57997738D01*
X115002262Y-57870184D01*
X114849523Y-57774211D01*
X114679254Y-57714631D01*
X114679249Y-57714630D01*
X114500004Y-57694435D01*
X114499996Y-57694435D01*
X114320750Y-57714630D01*
X114320745Y-57714631D01*
X114150476Y-57774211D01*
X113997737Y-57870184D01*
X113870184Y-57997737D01*
X113774211Y-58150476D01*
X113714631Y-58320745D01*
X113714630Y-58320750D01*
X113694435Y-58499996D01*
X98500500Y-58499996D01*
X98500500Y-54249996D01*
X101694435Y-54249996D01*
X101694435Y-54250003D01*
X101714630Y-54429249D01*
X101714631Y-54429254D01*
X101774211Y-54599523D01*
X101870184Y-54752262D01*
X101997738Y-54879816D01*
X102150478Y-54975789D01*
X102219678Y-55000003D01*
X102320745Y-55035368D01*
X102320750Y-55035369D01*
X102499996Y-55055565D01*
X102500000Y-55055565D01*
X102500004Y-55055565D01*
X102679249Y-55035369D01*
X102679252Y-55035368D01*
X102679255Y-55035368D01*
X102780342Y-54999996D01*
X107694435Y-54999996D01*
X107694435Y-55000003D01*
X107714630Y-55179249D01*
X107714631Y-55179254D01*
X107774211Y-55349523D01*
X107870184Y-55502262D01*
X107997738Y-55629816D01*
X108150478Y-55725789D01*
X108320745Y-55785368D01*
X108320750Y-55785369D01*
X108499996Y-55805565D01*
X108500000Y-55805565D01*
X108500004Y-55805565D01*
X108679249Y-55785369D01*
X108679252Y-55785368D01*
X108679255Y-55785368D01*
X108849522Y-55725789D01*
X109002262Y-55629816D01*
X109129816Y-55502262D01*
X109225789Y-55349522D01*
X109285368Y-55179255D01*
X109285369Y-55179249D01*
X109305565Y-55000003D01*
X109305565Y-54999996D01*
X115194435Y-54999996D01*
X115194435Y-55000003D01*
X115214630Y-55179249D01*
X115214631Y-55179254D01*
X115274211Y-55349523D01*
X115370184Y-55502262D01*
X115497738Y-55629816D01*
X115650478Y-55725789D01*
X115820745Y-55785368D01*
X115820750Y-55785369D01*
X115999996Y-55805565D01*
X116000000Y-55805565D01*
X116000004Y-55805565D01*
X116179249Y-55785369D01*
X116179252Y-55785368D01*
X116179255Y-55785368D01*
X116349522Y-55725789D01*
X116502262Y-55629816D01*
X116629816Y-55502262D01*
X116725789Y-55349522D01*
X116785368Y-55179255D01*
X116785369Y-55179249D01*
X116805565Y-55000003D01*
X116805565Y-54999996D01*
X116785369Y-54820750D01*
X116785368Y-54820745D01*
X116725788Y-54650476D01*
X116629815Y-54497737D01*
X116502262Y-54370184D01*
X116349523Y-54274211D01*
X116179254Y-54214631D01*
X116179249Y-54214630D01*
X116000004Y-54194435D01*
X115999996Y-54194435D01*
X115820750Y-54214630D01*
X115820745Y-54214631D01*
X115650476Y-54274211D01*
X115497737Y-54370184D01*
X115370184Y-54497737D01*
X115274211Y-54650476D01*
X115214631Y-54820745D01*
X115214630Y-54820750D01*
X115194435Y-54999996D01*
X109305565Y-54999996D01*
X109285369Y-54820750D01*
X109285368Y-54820745D01*
X109225788Y-54650475D01*
X109218595Y-54639028D01*
X109199594Y-54571791D01*
X109219961Y-54504956D01*
X109273229Y-54459741D01*
X109309705Y-54449835D01*
X109438097Y-54435369D01*
X109438100Y-54435368D01*
X109438103Y-54435368D01*
X109608370Y-54375789D01*
X109761110Y-54279816D01*
X109888664Y-54152262D01*
X109984637Y-53999522D01*
X110044216Y-53829255D01*
X110061117Y-53679254D01*
X110064413Y-53650003D01*
X110064413Y-53649996D01*
X110047512Y-53499996D01*
X112694435Y-53499996D01*
X112694435Y-53500003D01*
X112714630Y-53679249D01*
X112714631Y-53679254D01*
X112774211Y-53849523D01*
X112868462Y-53999522D01*
X112870184Y-54002262D01*
X112997738Y-54129816D01*
X113021975Y-54145045D01*
X113132721Y-54214632D01*
X113150478Y-54225789D01*
X113304878Y-54279816D01*
X113320745Y-54285368D01*
X113320750Y-54285369D01*
X113499996Y-54305565D01*
X113500000Y-54305565D01*
X113500004Y-54305565D01*
X113679249Y-54285369D01*
X113679252Y-54285368D01*
X113679255Y-54285368D01*
X113849522Y-54225789D01*
X114002262Y-54129816D01*
X114129816Y-54002262D01*
X114225789Y-53849522D01*
X114285368Y-53679255D01*
X114288664Y-53650003D01*
X114305565Y-53500003D01*
X114305565Y-53499996D01*
X114285369Y-53320750D01*
X114285368Y-53320745D01*
X114278276Y-53300476D01*
X114225789Y-53150478D01*
X114224067Y-53147738D01*
X114186582Y-53088080D01*
X114129816Y-52997738D01*
X114002262Y-52870184D01*
X113849523Y-52774211D01*
X113679254Y-52714631D01*
X113679249Y-52714630D01*
X113500004Y-52694435D01*
X113499996Y-52694435D01*
X113320750Y-52714630D01*
X113320745Y-52714631D01*
X113150476Y-52774211D01*
X112997737Y-52870184D01*
X112870184Y-52997737D01*
X112774211Y-53150476D01*
X112714631Y-53320745D01*
X112714630Y-53320750D01*
X112694435Y-53499996D01*
X110047512Y-53499996D01*
X110044217Y-53470750D01*
X110044216Y-53470745D01*
X109991730Y-53320750D01*
X109984637Y-53300478D01*
X109983716Y-53299013D01*
X109909185Y-53180397D01*
X109888664Y-53147738D01*
X109761110Y-53020184D01*
X109755664Y-53015841D01*
X109757011Y-53014151D01*
X109717604Y-52969593D01*
X109706962Y-52900538D01*
X109723082Y-52855946D01*
X109722769Y-52855795D01*
X109724245Y-52852728D01*
X109724884Y-52850963D01*
X109725788Y-52849524D01*
X109772989Y-52714631D01*
X109785368Y-52679255D01*
X109805565Y-52500000D01*
X109787997Y-52344080D01*
X109785369Y-52320750D01*
X109785368Y-52320745D01*
X109725788Y-52150476D01*
X109646258Y-52023905D01*
X109629816Y-51997738D01*
X109580222Y-51948144D01*
X109546737Y-51886821D01*
X109544683Y-51846579D01*
X109555565Y-51750002D01*
X109555565Y-51749996D01*
X109535369Y-51570750D01*
X109535368Y-51570745D01*
X109475788Y-51400476D01*
X109379815Y-51247737D01*
X109252262Y-51120184D01*
X109099523Y-51024211D01*
X108929254Y-50964631D01*
X108929249Y-50964630D01*
X108750004Y-50944435D01*
X108749996Y-50944435D01*
X108570750Y-50964630D01*
X108570745Y-50964631D01*
X108400476Y-51024211D01*
X108247737Y-51120184D01*
X108120184Y-51247737D01*
X108024211Y-51400476D01*
X107964631Y-51570745D01*
X107964630Y-51570750D01*
X107944435Y-51749996D01*
X107944435Y-51750003D01*
X107964630Y-51929249D01*
X107964631Y-51929254D01*
X108024211Y-52099523D01*
X108120184Y-52252262D01*
X108169777Y-52301855D01*
X108203262Y-52363178D01*
X108205316Y-52403419D01*
X108194435Y-52499996D01*
X108194435Y-52500003D01*
X108214630Y-52679249D01*
X108214631Y-52679254D01*
X108274211Y-52849523D01*
X108370184Y-53002262D01*
X108497737Y-53129815D01*
X108503184Y-53134159D01*
X108501835Y-53135849D01*
X108541238Y-53180397D01*
X108551886Y-53249450D01*
X108535768Y-53294056D01*
X108536079Y-53294206D01*
X108534620Y-53297233D01*
X108533978Y-53299013D01*
X108533060Y-53300473D01*
X108533058Y-53300478D01*
X108473481Y-53470737D01*
X108473478Y-53470750D01*
X108453283Y-53649996D01*
X108453283Y-53650003D01*
X108473478Y-53829249D01*
X108473479Y-53829254D01*
X108533060Y-53999525D01*
X108540253Y-54010973D01*
X108559253Y-54078210D01*
X108538885Y-54145045D01*
X108485616Y-54190258D01*
X108449143Y-54200164D01*
X108320749Y-54214630D01*
X108320745Y-54214631D01*
X108150476Y-54274211D01*
X107997737Y-54370184D01*
X107870184Y-54497737D01*
X107774211Y-54650476D01*
X107714631Y-54820745D01*
X107714630Y-54820750D01*
X107694435Y-54999996D01*
X102780342Y-54999996D01*
X102849522Y-54975789D01*
X103002262Y-54879816D01*
X103129816Y-54752262D01*
X103225789Y-54599522D01*
X103285368Y-54429255D01*
X103291392Y-54375789D01*
X103305565Y-54250003D01*
X103305565Y-54249996D01*
X103285369Y-54070750D01*
X103285368Y-54070745D01*
X103225788Y-53900476D01*
X103129815Y-53747737D01*
X103002262Y-53620184D01*
X102849523Y-53524211D01*
X102679254Y-53464631D01*
X102679249Y-53464630D01*
X102500004Y-53444435D01*
X102499996Y-53444435D01*
X102320750Y-53464630D01*
X102320745Y-53464631D01*
X102150476Y-53524211D01*
X101997737Y-53620184D01*
X101870184Y-53747737D01*
X101774211Y-53900476D01*
X101714631Y-54070745D01*
X101714630Y-54070750D01*
X101694435Y-54249996D01*
X98500500Y-54249996D01*
X98500500Y-45669999D01*
X98894341Y-45669999D01*
X98894341Y-45670000D01*
X98914936Y-45905403D01*
X98914938Y-45905413D01*
X98976094Y-46133655D01*
X98976096Y-46133659D01*
X98976097Y-46133663D01*
X99075965Y-46347830D01*
X99075967Y-46347834D01*
X99211501Y-46541395D01*
X99211506Y-46541402D01*
X99378597Y-46708493D01*
X99378603Y-46708498D01*
X99564158Y-46838425D01*
X99607783Y-46893002D01*
X99614977Y-46962500D01*
X99583454Y-47024855D01*
X99564158Y-47041575D01*
X99378597Y-47171505D01*
X99211505Y-47338597D01*
X99075965Y-47532169D01*
X99075964Y-47532171D01*
X98976098Y-47746335D01*
X98976094Y-47746344D01*
X98914938Y-47974586D01*
X98914936Y-47974596D01*
X98894341Y-48209999D01*
X98894341Y-48210000D01*
X98914936Y-48445403D01*
X98914938Y-48445413D01*
X98976094Y-48673655D01*
X98976096Y-48673659D01*
X98976097Y-48673663D01*
X99075965Y-48887830D01*
X99075967Y-48887834D01*
X99211501Y-49081395D01*
X99211506Y-49081402D01*
X99378597Y-49248493D01*
X99378603Y-49248498D01*
X99564158Y-49378425D01*
X99607783Y-49433002D01*
X99614977Y-49502500D01*
X99583454Y-49564855D01*
X99564158Y-49581575D01*
X99378597Y-49711505D01*
X99211505Y-49878597D01*
X99075965Y-50072169D01*
X99075964Y-50072171D01*
X98976098Y-50286335D01*
X98976094Y-50286344D01*
X98914938Y-50514586D01*
X98914936Y-50514596D01*
X98894341Y-50749999D01*
X98894341Y-50750000D01*
X98914936Y-50985403D01*
X98914938Y-50985413D01*
X98976094Y-51213655D01*
X98976096Y-51213659D01*
X98976097Y-51213663D01*
X99063210Y-51400476D01*
X99075965Y-51427830D01*
X99075967Y-51427834D01*
X99176035Y-51570745D01*
X99211505Y-51621401D01*
X99378599Y-51788495D01*
X99475384Y-51856265D01*
X99572165Y-51924032D01*
X99572167Y-51924033D01*
X99572170Y-51924035D01*
X99786337Y-52023903D01*
X100014592Y-52085063D01*
X100179867Y-52099523D01*
X100249999Y-52105659D01*
X100250000Y-52105659D01*
X100250001Y-52105659D01*
X100289234Y-52102226D01*
X100485408Y-52085063D01*
X100713663Y-52023903D01*
X100927830Y-51924035D01*
X101121401Y-51788495D01*
X101288495Y-51621401D01*
X101424035Y-51427830D01*
X101523903Y-51213663D01*
X101585063Y-50985408D01*
X101605659Y-50750000D01*
X101585063Y-50514592D01*
X101523903Y-50286337D01*
X101424035Y-50072171D01*
X101288495Y-49878599D01*
X101288494Y-49878597D01*
X101121402Y-49711506D01*
X101121396Y-49711501D01*
X100935842Y-49581575D01*
X100892217Y-49526998D01*
X100885023Y-49457500D01*
X100916546Y-49395145D01*
X100935842Y-49378425D01*
X100958026Y-49362891D01*
X101121401Y-49248495D01*
X101288495Y-49081401D01*
X101424035Y-48887830D01*
X101523903Y-48673663D01*
X101585063Y-48445408D01*
X101605659Y-48210000D01*
X101585063Y-47974592D01*
X101523903Y-47746337D01*
X101424035Y-47532171D01*
X101288495Y-47338599D01*
X101288494Y-47338597D01*
X101121402Y-47171506D01*
X101121396Y-47171501D01*
X100935842Y-47041575D01*
X100892217Y-46986998D01*
X100885023Y-46917500D01*
X100916546Y-46855145D01*
X100935842Y-46838425D01*
X100958026Y-46822891D01*
X101121401Y-46708495D01*
X101288495Y-46541401D01*
X101424035Y-46347830D01*
X101523903Y-46133663D01*
X101585063Y-45905408D01*
X101605659Y-45670000D01*
X101585063Y-45434592D01*
X101523903Y-45206337D01*
X101424035Y-44992171D01*
X101288495Y-44798599D01*
X101288494Y-44798597D01*
X101121402Y-44631506D01*
X101121401Y-44631505D01*
X100935405Y-44501269D01*
X100891781Y-44446692D01*
X100884588Y-44377193D01*
X100916110Y-44314839D01*
X100935405Y-44298119D01*
X101121082Y-44168105D01*
X101288105Y-44001082D01*
X101423600Y-43807578D01*
X101523429Y-43593492D01*
X101523432Y-43593486D01*
X101580636Y-43380000D01*
X100683012Y-43380000D01*
X100715925Y-43322993D01*
X100750000Y-43195826D01*
X100750000Y-43129999D01*
X114134341Y-43129999D01*
X114134341Y-43130000D01*
X114154936Y-43365403D01*
X114154938Y-43365413D01*
X114216094Y-43593655D01*
X114216096Y-43593659D01*
X114216097Y-43593663D01*
X114315847Y-43807578D01*
X114315965Y-43807830D01*
X114315967Y-43807834D01*
X114451501Y-44001395D01*
X114451506Y-44001402D01*
X114618597Y-44168493D01*
X114618603Y-44168498D01*
X114804158Y-44298425D01*
X114847783Y-44353002D01*
X114854977Y-44422500D01*
X114823454Y-44484855D01*
X114804158Y-44501575D01*
X114618597Y-44631505D01*
X114451505Y-44798597D01*
X114315965Y-44992169D01*
X114315964Y-44992171D01*
X114216098Y-45206335D01*
X114216094Y-45206344D01*
X114154938Y-45434586D01*
X114154936Y-45434596D01*
X114134341Y-45669999D01*
X114134341Y-45670000D01*
X114154936Y-45905403D01*
X114154938Y-45905413D01*
X114216094Y-46133655D01*
X114216096Y-46133659D01*
X114216097Y-46133663D01*
X114315965Y-46347830D01*
X114315967Y-46347834D01*
X114451501Y-46541395D01*
X114451506Y-46541402D01*
X114618597Y-46708493D01*
X114618603Y-46708498D01*
X114804158Y-46838425D01*
X114847783Y-46893002D01*
X114854977Y-46962500D01*
X114823454Y-47024855D01*
X114804158Y-47041575D01*
X114618597Y-47171505D01*
X114451505Y-47338597D01*
X114315965Y-47532169D01*
X114315964Y-47532171D01*
X114216098Y-47746335D01*
X114216094Y-47746344D01*
X114154938Y-47974586D01*
X114154936Y-47974596D01*
X114134341Y-48209999D01*
X114134341Y-48210000D01*
X114154936Y-48445403D01*
X114154938Y-48445413D01*
X114216094Y-48673655D01*
X114216096Y-48673659D01*
X114216097Y-48673663D01*
X114315965Y-48887830D01*
X114315967Y-48887834D01*
X114451501Y-49081395D01*
X114451506Y-49081402D01*
X114618597Y-49248493D01*
X114618603Y-49248498D01*
X114804158Y-49378425D01*
X114847783Y-49433002D01*
X114854977Y-49502500D01*
X114823454Y-49564855D01*
X114804158Y-49581575D01*
X114618597Y-49711505D01*
X114451505Y-49878597D01*
X114315965Y-50072169D01*
X114315964Y-50072171D01*
X114216098Y-50286335D01*
X114216094Y-50286344D01*
X114154938Y-50514586D01*
X114154936Y-50514596D01*
X114134341Y-50749999D01*
X114134341Y-50750000D01*
X114154936Y-50985403D01*
X114154938Y-50985413D01*
X114216094Y-51213655D01*
X114216096Y-51213659D01*
X114216097Y-51213663D01*
X114303210Y-51400476D01*
X114315965Y-51427830D01*
X114315967Y-51427834D01*
X114416035Y-51570745D01*
X114451505Y-51621401D01*
X114618599Y-51788495D01*
X114715384Y-51856265D01*
X114812165Y-51924032D01*
X114812167Y-51924033D01*
X114812170Y-51924035D01*
X115026337Y-52023903D01*
X115254592Y-52085063D01*
X115419867Y-52099523D01*
X115489999Y-52105659D01*
X115490000Y-52105659D01*
X115490001Y-52105659D01*
X115529234Y-52102226D01*
X115725408Y-52085063D01*
X115953663Y-52023903D01*
X116167830Y-51924035D01*
X116361401Y-51788495D01*
X116528495Y-51621401D01*
X116664035Y-51427830D01*
X116763903Y-51213663D01*
X116825063Y-50985408D01*
X116845659Y-50750000D01*
X116825063Y-50514592D01*
X116763903Y-50286337D01*
X116664035Y-50072171D01*
X116528495Y-49878599D01*
X116528494Y-49878597D01*
X116361402Y-49711506D01*
X116361396Y-49711501D01*
X116175842Y-49581575D01*
X116132217Y-49526998D01*
X116125023Y-49457500D01*
X116156546Y-49395145D01*
X116175842Y-49378425D01*
X116198026Y-49362891D01*
X116361401Y-49248495D01*
X116528495Y-49081401D01*
X116664035Y-48887830D01*
X116763903Y-48673663D01*
X116825063Y-48445408D01*
X116845659Y-48210000D01*
X116825063Y-47974592D01*
X116763903Y-47746337D01*
X116664035Y-47532171D01*
X116528495Y-47338599D01*
X116528494Y-47338597D01*
X116361402Y-47171506D01*
X116361396Y-47171501D01*
X116175842Y-47041575D01*
X116132217Y-46986998D01*
X116125023Y-46917500D01*
X116156546Y-46855145D01*
X116175842Y-46838425D01*
X116198026Y-46822891D01*
X116361401Y-46708495D01*
X116528495Y-46541401D01*
X116664035Y-46347830D01*
X116763903Y-46133663D01*
X116825063Y-45905408D01*
X116845659Y-45670000D01*
X116825063Y-45434592D01*
X116763903Y-45206337D01*
X116664035Y-44992171D01*
X116528495Y-44798599D01*
X116528494Y-44798597D01*
X116361402Y-44631506D01*
X116361396Y-44631501D01*
X116175842Y-44501575D01*
X116132217Y-44446998D01*
X116125023Y-44377500D01*
X116156546Y-44315145D01*
X116175842Y-44298425D01*
X116198026Y-44282891D01*
X116361401Y-44168495D01*
X116528495Y-44001401D01*
X116664035Y-43807830D01*
X116763903Y-43593663D01*
X116825063Y-43365408D01*
X116845659Y-43130000D01*
X116825063Y-42894592D01*
X116763903Y-42666337D01*
X116664035Y-42452171D01*
X116528495Y-42258599D01*
X116406567Y-42136671D01*
X116373084Y-42075351D01*
X116378068Y-42005659D01*
X116419939Y-41949725D01*
X116450915Y-41932810D01*
X116582331Y-41883796D01*
X116697546Y-41797546D01*
X116783796Y-41682331D01*
X116834091Y-41547483D01*
X116840500Y-41487873D01*
X116840499Y-39692128D01*
X116834091Y-39632517D01*
X116783796Y-39497669D01*
X116783795Y-39497668D01*
X116783793Y-39497664D01*
X116697547Y-39382455D01*
X116697544Y-39382452D01*
X116582335Y-39296206D01*
X116582328Y-39296202D01*
X116447482Y-39245908D01*
X116447483Y-39245908D01*
X116387883Y-39239501D01*
X116387881Y-39239500D01*
X116387873Y-39239500D01*
X116387864Y-39239500D01*
X114592129Y-39239500D01*
X114592123Y-39239501D01*
X114532516Y-39245908D01*
X114397671Y-39296202D01*
X114397664Y-39296206D01*
X114282455Y-39382452D01*
X114282452Y-39382455D01*
X114196206Y-39497664D01*
X114196202Y-39497671D01*
X114145908Y-39632517D01*
X114139501Y-39692116D01*
X114139501Y-39692123D01*
X114139500Y-39692135D01*
X114139500Y-41487870D01*
X114139501Y-41487876D01*
X114145908Y-41547483D01*
X114196202Y-41682328D01*
X114196206Y-41682335D01*
X114282452Y-41797544D01*
X114282455Y-41797547D01*
X114397664Y-41883793D01*
X114397671Y-41883797D01*
X114529081Y-41932810D01*
X114585015Y-41974681D01*
X114609432Y-42040145D01*
X114594580Y-42108418D01*
X114573430Y-42136673D01*
X114451503Y-42258600D01*
X114315965Y-42452169D01*
X114315964Y-42452171D01*
X114216098Y-42666335D01*
X114216094Y-42666344D01*
X114154938Y-42894586D01*
X114154936Y-42894596D01*
X114134341Y-43129999D01*
X100750000Y-43129999D01*
X100750000Y-43064174D01*
X100715925Y-42937007D01*
X100683012Y-42880000D01*
X101580636Y-42880000D01*
X101580635Y-42879999D01*
X101523432Y-42666513D01*
X101523429Y-42666507D01*
X101423600Y-42452422D01*
X101423599Y-42452420D01*
X101288113Y-42258926D01*
X101288108Y-42258920D01*
X101166053Y-42136865D01*
X101132568Y-42075542D01*
X101137552Y-42005850D01*
X101179424Y-41949917D01*
X101210400Y-41933002D01*
X101342331Y-41883796D01*
X101457546Y-41797546D01*
X101543796Y-41682331D01*
X101594091Y-41547483D01*
X101600500Y-41487873D01*
X101600499Y-39692128D01*
X101594091Y-39632517D01*
X101543796Y-39497669D01*
X101543795Y-39497668D01*
X101543793Y-39497664D01*
X101457547Y-39382455D01*
X101457544Y-39382452D01*
X101342335Y-39296206D01*
X101342328Y-39296202D01*
X101207482Y-39245908D01*
X101207483Y-39245908D01*
X101147883Y-39239501D01*
X101147881Y-39239500D01*
X101147873Y-39239500D01*
X101147864Y-39239500D01*
X99352129Y-39239500D01*
X99352123Y-39239501D01*
X99292516Y-39245908D01*
X99157671Y-39296202D01*
X99157664Y-39296206D01*
X99042455Y-39382452D01*
X99042452Y-39382455D01*
X98956206Y-39497664D01*
X98956202Y-39497671D01*
X98905908Y-39632517D01*
X98899501Y-39692116D01*
X98899501Y-39692123D01*
X98899500Y-39692135D01*
X98899500Y-41487870D01*
X98899501Y-41487876D01*
X98905908Y-41547483D01*
X98956202Y-41682328D01*
X98956206Y-41682335D01*
X99042452Y-41797544D01*
X99042455Y-41797547D01*
X99157664Y-41883793D01*
X99157671Y-41883797D01*
X99157674Y-41883798D01*
X99289598Y-41933002D01*
X99345531Y-41974873D01*
X99369949Y-42040337D01*
X99355098Y-42108610D01*
X99333947Y-42136865D01*
X99211886Y-42258926D01*
X99076400Y-42452420D01*
X99076399Y-42452422D01*
X98976570Y-42666507D01*
X98976567Y-42666513D01*
X98919364Y-42879999D01*
X98919364Y-42880000D01*
X99816988Y-42880000D01*
X99784075Y-42937007D01*
X99750000Y-43064174D01*
X99750000Y-43195826D01*
X99784075Y-43322993D01*
X99816988Y-43380000D01*
X98919364Y-43380000D01*
X98976567Y-43593486D01*
X98976570Y-43593492D01*
X99076399Y-43807578D01*
X99211894Y-44001082D01*
X99378917Y-44168105D01*
X99564595Y-44298119D01*
X99608219Y-44352696D01*
X99615412Y-44422195D01*
X99583890Y-44484549D01*
X99564595Y-44501269D01*
X99378594Y-44631508D01*
X99211505Y-44798597D01*
X99075965Y-44992169D01*
X99075964Y-44992171D01*
X98976098Y-45206335D01*
X98976094Y-45206344D01*
X98914938Y-45434586D01*
X98914936Y-45434596D01*
X98894341Y-45669999D01*
X98500500Y-45669999D01*
X98500500Y-37999500D01*
X98520185Y-37932461D01*
X98572989Y-37886706D01*
X98624500Y-37875500D01*
X117375500Y-37875500D01*
X117442539Y-37895185D01*
G37*
G04 #@! TD.AperFunction*
M02*
