G04 #@! TF.GenerationSoftware,KiCad,Pcbnew,8.0.5*
G04 #@! TF.CreationDate,2024-12-02T19:57:29-05:00*
G04 #@! TF.ProjectId,usb_to_uart_ft232rl,7573625f-746f-45f7-9561-72745f667432,rev?*
G04 #@! TF.SameCoordinates,Original*
G04 #@! TF.FileFunction,Legend,Bot*
G04 #@! TF.FilePolarity,Positive*
%FSLAX46Y46*%
G04 Gerber Fmt 4.6, Leading zero omitted, Abs format (unit mm)*
G04 Created by KiCad (PCBNEW 8.0.5) date 2024-12-02 19:57:29*
%MOMM*%
%LPD*%
G01*
G04 APERTURE LIST*
%ADD10C,0.225000*%
%ADD11C,0.150000*%
%ADD12C,0.120000*%
%ADD13O,0.800000X0.800000*%
%ADD14O,1.150000X1.800000*%
%ADD15O,1.450000X2.000000*%
%ADD16R,1.700000X1.700000*%
%ADD17O,1.700000X1.700000*%
%ADD18C,0.600000*%
G04 APERTURE END LIST*
D10*
X106580257Y-50037688D02*
X105680257Y-50037688D01*
X105680257Y-50037688D02*
X106323114Y-49737688D01*
X106323114Y-49737688D02*
X105680257Y-49437688D01*
X105680257Y-49437688D02*
X106580257Y-49437688D01*
X106580257Y-49009117D02*
X105980257Y-49009117D01*
X105680257Y-49009117D02*
X105723114Y-49051974D01*
X105723114Y-49051974D02*
X105765971Y-49009117D01*
X105765971Y-49009117D02*
X105723114Y-48966260D01*
X105723114Y-48966260D02*
X105680257Y-49009117D01*
X105680257Y-49009117D02*
X105765971Y-49009117D01*
X106537400Y-48194832D02*
X106580257Y-48280546D01*
X106580257Y-48280546D02*
X106580257Y-48451974D01*
X106580257Y-48451974D02*
X106537400Y-48537689D01*
X106537400Y-48537689D02*
X106494542Y-48580546D01*
X106494542Y-48580546D02*
X106408828Y-48623403D01*
X106408828Y-48623403D02*
X106151685Y-48623403D01*
X106151685Y-48623403D02*
X106065971Y-48580546D01*
X106065971Y-48580546D02*
X106023114Y-48537689D01*
X106023114Y-48537689D02*
X105980257Y-48451974D01*
X105980257Y-48451974D02*
X105980257Y-48280546D01*
X105980257Y-48280546D02*
X106023114Y-48194832D01*
X106580257Y-47809117D02*
X105980257Y-47809117D01*
X106151685Y-47809117D02*
X106065971Y-47766260D01*
X106065971Y-47766260D02*
X106023114Y-47723403D01*
X106023114Y-47723403D02*
X105980257Y-47637688D01*
X105980257Y-47637688D02*
X105980257Y-47551974D01*
X106580257Y-47123402D02*
X106537400Y-47209117D01*
X106537400Y-47209117D02*
X106494542Y-47251974D01*
X106494542Y-47251974D02*
X106408828Y-47294831D01*
X106408828Y-47294831D02*
X106151685Y-47294831D01*
X106151685Y-47294831D02*
X106065971Y-47251974D01*
X106065971Y-47251974D02*
X106023114Y-47209117D01*
X106023114Y-47209117D02*
X105980257Y-47123402D01*
X105980257Y-47123402D02*
X105980257Y-46994831D01*
X105980257Y-46994831D02*
X106023114Y-46909117D01*
X106023114Y-46909117D02*
X106065971Y-46866260D01*
X106065971Y-46866260D02*
X106151685Y-46823402D01*
X106151685Y-46823402D02*
X106408828Y-46823402D01*
X106408828Y-46823402D02*
X106494542Y-46866260D01*
X106494542Y-46866260D02*
X106537400Y-46909117D01*
X106537400Y-46909117D02*
X106580257Y-46994831D01*
X106580257Y-46994831D02*
X106580257Y-47123402D01*
X105680257Y-46437688D02*
X106408828Y-46437688D01*
X106408828Y-46437688D02*
X106494542Y-46394831D01*
X106494542Y-46394831D02*
X106537400Y-46351974D01*
X106537400Y-46351974D02*
X106580257Y-46266259D01*
X106580257Y-46266259D02*
X106580257Y-46094831D01*
X106580257Y-46094831D02*
X106537400Y-46009116D01*
X106537400Y-46009116D02*
X106494542Y-45966259D01*
X106494542Y-45966259D02*
X106408828Y-45923402D01*
X106408828Y-45923402D02*
X105680257Y-45923402D01*
X106537400Y-45537688D02*
X106580257Y-45409117D01*
X106580257Y-45409117D02*
X106580257Y-45194831D01*
X106580257Y-45194831D02*
X106537400Y-45109117D01*
X106537400Y-45109117D02*
X106494542Y-45066259D01*
X106494542Y-45066259D02*
X106408828Y-45023402D01*
X106408828Y-45023402D02*
X106323114Y-45023402D01*
X106323114Y-45023402D02*
X106237400Y-45066259D01*
X106237400Y-45066259D02*
X106194542Y-45109117D01*
X106194542Y-45109117D02*
X106151685Y-45194831D01*
X106151685Y-45194831D02*
X106108828Y-45366259D01*
X106108828Y-45366259D02*
X106065971Y-45451974D01*
X106065971Y-45451974D02*
X106023114Y-45494831D01*
X106023114Y-45494831D02*
X105937400Y-45537688D01*
X105937400Y-45537688D02*
X105851685Y-45537688D01*
X105851685Y-45537688D02*
X105765971Y-45494831D01*
X105765971Y-45494831D02*
X105723114Y-45451974D01*
X105723114Y-45451974D02*
X105680257Y-45366259D01*
X105680257Y-45366259D02*
X105680257Y-45151974D01*
X105680257Y-45151974D02*
X105723114Y-45023402D01*
X106108828Y-44337688D02*
X106151685Y-44209116D01*
X106151685Y-44209116D02*
X106194542Y-44166259D01*
X106194542Y-44166259D02*
X106280257Y-44123402D01*
X106280257Y-44123402D02*
X106408828Y-44123402D01*
X106408828Y-44123402D02*
X106494542Y-44166259D01*
X106494542Y-44166259D02*
X106537400Y-44209116D01*
X106537400Y-44209116D02*
X106580257Y-44294831D01*
X106580257Y-44294831D02*
X106580257Y-44637688D01*
X106580257Y-44637688D02*
X105680257Y-44637688D01*
X105680257Y-44637688D02*
X105680257Y-44337688D01*
X105680257Y-44337688D02*
X105723114Y-44251974D01*
X105723114Y-44251974D02*
X105765971Y-44209116D01*
X105765971Y-44209116D02*
X105851685Y-44166259D01*
X105851685Y-44166259D02*
X105937400Y-44166259D01*
X105937400Y-44166259D02*
X106023114Y-44209116D01*
X106023114Y-44209116D02*
X106065971Y-44251974D01*
X106065971Y-44251974D02*
X106108828Y-44337688D01*
X106108828Y-44337688D02*
X106108828Y-44637688D01*
X105980257Y-43180545D02*
X105980257Y-42837688D01*
X105680257Y-43051974D02*
X106451685Y-43051974D01*
X106451685Y-43051974D02*
X106537400Y-43009117D01*
X106537400Y-43009117D02*
X106580257Y-42923402D01*
X106580257Y-42923402D02*
X106580257Y-42837688D01*
X106580257Y-42409116D02*
X106537400Y-42494831D01*
X106537400Y-42494831D02*
X106494542Y-42537688D01*
X106494542Y-42537688D02*
X106408828Y-42580545D01*
X106408828Y-42580545D02*
X106151685Y-42580545D01*
X106151685Y-42580545D02*
X106065971Y-42537688D01*
X106065971Y-42537688D02*
X106023114Y-42494831D01*
X106023114Y-42494831D02*
X105980257Y-42409116D01*
X105980257Y-42409116D02*
X105980257Y-42280545D01*
X105980257Y-42280545D02*
X106023114Y-42194831D01*
X106023114Y-42194831D02*
X106065971Y-42151974D01*
X106065971Y-42151974D02*
X106151685Y-42109116D01*
X106151685Y-42109116D02*
X106408828Y-42109116D01*
X106408828Y-42109116D02*
X106494542Y-42151974D01*
X106494542Y-42151974D02*
X106537400Y-42194831D01*
X106537400Y-42194831D02*
X106580257Y-42280545D01*
X106580257Y-42280545D02*
X106580257Y-42409116D01*
X105680257Y-41037688D02*
X106408828Y-41037688D01*
X106408828Y-41037688D02*
X106494542Y-40994831D01*
X106494542Y-40994831D02*
X106537400Y-40951974D01*
X106537400Y-40951974D02*
X106580257Y-40866259D01*
X106580257Y-40866259D02*
X106580257Y-40694831D01*
X106580257Y-40694831D02*
X106537400Y-40609116D01*
X106537400Y-40609116D02*
X106494542Y-40566259D01*
X106494542Y-40566259D02*
X106408828Y-40523402D01*
X106408828Y-40523402D02*
X105680257Y-40523402D01*
X106323114Y-40137688D02*
X106323114Y-39709117D01*
X106580257Y-40223402D02*
X105680257Y-39923402D01*
X105680257Y-39923402D02*
X106580257Y-39623402D01*
X106580257Y-38809116D02*
X106151685Y-39109116D01*
X106580257Y-39323402D02*
X105680257Y-39323402D01*
X105680257Y-39323402D02*
X105680257Y-38980545D01*
X105680257Y-38980545D02*
X105723114Y-38894830D01*
X105723114Y-38894830D02*
X105765971Y-38851973D01*
X105765971Y-38851973D02*
X105851685Y-38809116D01*
X105851685Y-38809116D02*
X105980257Y-38809116D01*
X105980257Y-38809116D02*
X106065971Y-38851973D01*
X106065971Y-38851973D02*
X106108828Y-38894830D01*
X106108828Y-38894830D02*
X106151685Y-38980545D01*
X106151685Y-38980545D02*
X106151685Y-39323402D01*
X105680257Y-38551973D02*
X105680257Y-38037688D01*
X106580257Y-38294830D02*
X105680257Y-38294830D01*
X108029207Y-50037688D02*
X107129207Y-50037688D01*
X107129207Y-50037688D02*
X107772064Y-49737688D01*
X107772064Y-49737688D02*
X107129207Y-49437688D01*
X107129207Y-49437688D02*
X108029207Y-49437688D01*
X108029207Y-48880545D02*
X107986350Y-48966260D01*
X107986350Y-48966260D02*
X107943492Y-49009117D01*
X107943492Y-49009117D02*
X107857778Y-49051974D01*
X107857778Y-49051974D02*
X107600635Y-49051974D01*
X107600635Y-49051974D02*
X107514921Y-49009117D01*
X107514921Y-49009117D02*
X107472064Y-48966260D01*
X107472064Y-48966260D02*
X107429207Y-48880545D01*
X107429207Y-48880545D02*
X107429207Y-48751974D01*
X107429207Y-48751974D02*
X107472064Y-48666260D01*
X107472064Y-48666260D02*
X107514921Y-48623403D01*
X107514921Y-48623403D02*
X107600635Y-48580545D01*
X107600635Y-48580545D02*
X107857778Y-48580545D01*
X107857778Y-48580545D02*
X107943492Y-48623403D01*
X107943492Y-48623403D02*
X107986350Y-48666260D01*
X107986350Y-48666260D02*
X108029207Y-48751974D01*
X108029207Y-48751974D02*
X108029207Y-48880545D01*
X108029207Y-48194831D02*
X107429207Y-48194831D01*
X107129207Y-48194831D02*
X107172064Y-48237688D01*
X107172064Y-48237688D02*
X107214921Y-48194831D01*
X107214921Y-48194831D02*
X107172064Y-48151974D01*
X107172064Y-48151974D02*
X107129207Y-48194831D01*
X107129207Y-48194831D02*
X107214921Y-48194831D01*
X107429207Y-47766260D02*
X108029207Y-47766260D01*
X107514921Y-47766260D02*
X107472064Y-47723403D01*
X107472064Y-47723403D02*
X107429207Y-47637688D01*
X107429207Y-47637688D02*
X107429207Y-47509117D01*
X107429207Y-47509117D02*
X107472064Y-47423403D01*
X107472064Y-47423403D02*
X107557778Y-47380546D01*
X107557778Y-47380546D02*
X108029207Y-47380546D01*
X107772064Y-46309117D02*
X107772064Y-45880546D01*
X108029207Y-46394831D02*
X107129207Y-46094831D01*
X107129207Y-46094831D02*
X108029207Y-45794831D01*
X108029207Y-45494831D02*
X107129207Y-45494831D01*
X108029207Y-45109117D02*
X107557778Y-45109117D01*
X107557778Y-45109117D02*
X107472064Y-45151974D01*
X107472064Y-45151974D02*
X107429207Y-45237688D01*
X107429207Y-45237688D02*
X107429207Y-45366259D01*
X107429207Y-45366259D02*
X107472064Y-45451974D01*
X107472064Y-45451974D02*
X107514921Y-45494831D01*
X108029207Y-44680545D02*
X107429207Y-44680545D01*
X107514921Y-44680545D02*
X107472064Y-44637688D01*
X107472064Y-44637688D02*
X107429207Y-44551973D01*
X107429207Y-44551973D02*
X107429207Y-44423402D01*
X107429207Y-44423402D02*
X107472064Y-44337688D01*
X107472064Y-44337688D02*
X107557778Y-44294831D01*
X107557778Y-44294831D02*
X108029207Y-44294831D01*
X107557778Y-44294831D02*
X107472064Y-44251973D01*
X107472064Y-44251973D02*
X107429207Y-44166259D01*
X107429207Y-44166259D02*
X107429207Y-44037688D01*
X107429207Y-44037688D02*
X107472064Y-43951973D01*
X107472064Y-43951973D02*
X107557778Y-43909116D01*
X107557778Y-43909116D02*
X108029207Y-43909116D01*
X107986350Y-43137688D02*
X108029207Y-43223402D01*
X108029207Y-43223402D02*
X108029207Y-43394831D01*
X108029207Y-43394831D02*
X107986350Y-43480545D01*
X107986350Y-43480545D02*
X107900635Y-43523402D01*
X107900635Y-43523402D02*
X107557778Y-43523402D01*
X107557778Y-43523402D02*
X107472064Y-43480545D01*
X107472064Y-43480545D02*
X107429207Y-43394831D01*
X107429207Y-43394831D02*
X107429207Y-43223402D01*
X107429207Y-43223402D02*
X107472064Y-43137688D01*
X107472064Y-43137688D02*
X107557778Y-43094831D01*
X107557778Y-43094831D02*
X107643492Y-43094831D01*
X107643492Y-43094831D02*
X107729207Y-43523402D01*
X108029207Y-42323402D02*
X107129207Y-42323402D01*
X107986350Y-42323402D02*
X108029207Y-42409116D01*
X108029207Y-42409116D02*
X108029207Y-42580544D01*
X108029207Y-42580544D02*
X107986350Y-42666259D01*
X107986350Y-42666259D02*
X107943492Y-42709116D01*
X107943492Y-42709116D02*
X107857778Y-42751973D01*
X107857778Y-42751973D02*
X107600635Y-42751973D01*
X107600635Y-42751973D02*
X107514921Y-42709116D01*
X107514921Y-42709116D02*
X107472064Y-42666259D01*
X107472064Y-42666259D02*
X107429207Y-42580544D01*
X107429207Y-42580544D02*
X107429207Y-42409116D01*
X107429207Y-42409116D02*
X107472064Y-42323402D01*
X109478157Y-50037688D02*
X108578157Y-50037688D01*
X108578157Y-50037688D02*
X109478157Y-49523402D01*
X109478157Y-49523402D02*
X108578157Y-49523402D01*
X109478157Y-48966259D02*
X109435300Y-49051974D01*
X109435300Y-49051974D02*
X109392442Y-49094831D01*
X109392442Y-49094831D02*
X109306728Y-49137688D01*
X109306728Y-49137688D02*
X109049585Y-49137688D01*
X109049585Y-49137688D02*
X108963871Y-49094831D01*
X108963871Y-49094831D02*
X108921014Y-49051974D01*
X108921014Y-49051974D02*
X108878157Y-48966259D01*
X108878157Y-48966259D02*
X108878157Y-48837688D01*
X108878157Y-48837688D02*
X108921014Y-48751974D01*
X108921014Y-48751974D02*
X108963871Y-48709117D01*
X108963871Y-48709117D02*
X109049585Y-48666259D01*
X109049585Y-48666259D02*
X109306728Y-48666259D01*
X109306728Y-48666259D02*
X109392442Y-48709117D01*
X109392442Y-48709117D02*
X109435300Y-48751974D01*
X109435300Y-48751974D02*
X109478157Y-48837688D01*
X109478157Y-48837688D02*
X109478157Y-48966259D01*
X108878157Y-48366259D02*
X109478157Y-48151973D01*
X109478157Y-48151973D02*
X108878157Y-47937688D01*
X109392442Y-47594831D02*
X109435300Y-47551974D01*
X109435300Y-47551974D02*
X109478157Y-47594831D01*
X109478157Y-47594831D02*
X109435300Y-47637688D01*
X109435300Y-47637688D02*
X109392442Y-47594831D01*
X109392442Y-47594831D02*
X109478157Y-47594831D01*
X108663871Y-46523403D02*
X108621014Y-46480546D01*
X108621014Y-46480546D02*
X108578157Y-46394832D01*
X108578157Y-46394832D02*
X108578157Y-46180546D01*
X108578157Y-46180546D02*
X108621014Y-46094832D01*
X108621014Y-46094832D02*
X108663871Y-46051974D01*
X108663871Y-46051974D02*
X108749585Y-46009117D01*
X108749585Y-46009117D02*
X108835300Y-46009117D01*
X108835300Y-46009117D02*
X108963871Y-46051974D01*
X108963871Y-46051974D02*
X109478157Y-46566260D01*
X109478157Y-46566260D02*
X109478157Y-46009117D01*
X108578157Y-45451974D02*
X108578157Y-45366260D01*
X108578157Y-45366260D02*
X108621014Y-45280546D01*
X108621014Y-45280546D02*
X108663871Y-45237689D01*
X108663871Y-45237689D02*
X108749585Y-45194831D01*
X108749585Y-45194831D02*
X108921014Y-45151974D01*
X108921014Y-45151974D02*
X109135300Y-45151974D01*
X109135300Y-45151974D02*
X109306728Y-45194831D01*
X109306728Y-45194831D02*
X109392442Y-45237689D01*
X109392442Y-45237689D02*
X109435300Y-45280546D01*
X109435300Y-45280546D02*
X109478157Y-45366260D01*
X109478157Y-45366260D02*
X109478157Y-45451974D01*
X109478157Y-45451974D02*
X109435300Y-45537689D01*
X109435300Y-45537689D02*
X109392442Y-45580546D01*
X109392442Y-45580546D02*
X109306728Y-45623403D01*
X109306728Y-45623403D02*
X109135300Y-45666260D01*
X109135300Y-45666260D02*
X108921014Y-45666260D01*
X108921014Y-45666260D02*
X108749585Y-45623403D01*
X108749585Y-45623403D02*
X108663871Y-45580546D01*
X108663871Y-45580546D02*
X108621014Y-45537689D01*
X108621014Y-45537689D02*
X108578157Y-45451974D01*
X108663871Y-44809117D02*
X108621014Y-44766260D01*
X108621014Y-44766260D02*
X108578157Y-44680546D01*
X108578157Y-44680546D02*
X108578157Y-44466260D01*
X108578157Y-44466260D02*
X108621014Y-44380546D01*
X108621014Y-44380546D02*
X108663871Y-44337688D01*
X108663871Y-44337688D02*
X108749585Y-44294831D01*
X108749585Y-44294831D02*
X108835300Y-44294831D01*
X108835300Y-44294831D02*
X108963871Y-44337688D01*
X108963871Y-44337688D02*
X109478157Y-44851974D01*
X109478157Y-44851974D02*
X109478157Y-44294831D01*
X108878157Y-43523403D02*
X109478157Y-43523403D01*
X108535300Y-43737688D02*
X109178157Y-43951974D01*
X109178157Y-43951974D02*
X109178157Y-43394831D01*
D11*
X100583333Y-37714819D02*
X100583333Y-38429104D01*
X100583333Y-38429104D02*
X100630952Y-38571961D01*
X100630952Y-38571961D02*
X100726190Y-38667200D01*
X100726190Y-38667200D02*
X100869047Y-38714819D01*
X100869047Y-38714819D02*
X100964285Y-38714819D01*
X100202380Y-37714819D02*
X99583333Y-37714819D01*
X99583333Y-37714819D02*
X99916666Y-38095771D01*
X99916666Y-38095771D02*
X99773809Y-38095771D01*
X99773809Y-38095771D02*
X99678571Y-38143390D01*
X99678571Y-38143390D02*
X99630952Y-38191009D01*
X99630952Y-38191009D02*
X99583333Y-38286247D01*
X99583333Y-38286247D02*
X99583333Y-38524342D01*
X99583333Y-38524342D02*
X99630952Y-38619580D01*
X99630952Y-38619580D02*
X99678571Y-38667200D01*
X99678571Y-38667200D02*
X99773809Y-38714819D01*
X99773809Y-38714819D02*
X100059523Y-38714819D01*
X100059523Y-38714819D02*
X100154761Y-38667200D01*
X100154761Y-38667200D02*
X100202380Y-38619580D01*
X115823333Y-37714819D02*
X115823333Y-38429104D01*
X115823333Y-38429104D02*
X115870952Y-38571961D01*
X115870952Y-38571961D02*
X115966190Y-38667200D01*
X115966190Y-38667200D02*
X116109047Y-38714819D01*
X116109047Y-38714819D02*
X116204285Y-38714819D01*
X115394761Y-37810057D02*
X115347142Y-37762438D01*
X115347142Y-37762438D02*
X115251904Y-37714819D01*
X115251904Y-37714819D02*
X115013809Y-37714819D01*
X115013809Y-37714819D02*
X114918571Y-37762438D01*
X114918571Y-37762438D02*
X114870952Y-37810057D01*
X114870952Y-37810057D02*
X114823333Y-37905295D01*
X114823333Y-37905295D02*
X114823333Y-38000533D01*
X114823333Y-38000533D02*
X114870952Y-38143390D01*
X114870952Y-38143390D02*
X115442380Y-38714819D01*
X115442380Y-38714819D02*
X114823333Y-38714819D01*
D12*
X98920000Y-41860000D02*
X101580000Y-41860000D01*
X98920000Y-52080000D02*
X98920000Y-41860000D01*
X98920000Y-52080000D02*
X101580000Y-52080000D01*
X100250000Y-39260000D02*
X101580000Y-39260000D01*
X101580000Y-39260000D02*
X101580000Y-40590000D01*
X101580000Y-52080000D02*
X101580000Y-41860000D01*
X114160000Y-41860000D02*
X116820000Y-41860000D01*
X114160000Y-52080000D02*
X114160000Y-41860000D01*
X114160000Y-52080000D02*
X116820000Y-52080000D01*
X115490000Y-39260000D02*
X116820000Y-39260000D01*
X116820000Y-39260000D02*
X116820000Y-40590000D01*
X116820000Y-52080000D02*
X116820000Y-41860000D01*
%LPC*%
D13*
X100875000Y-64000000D03*
X105875000Y-64000000D03*
D14*
X99500000Y-66750000D03*
D15*
X99650000Y-62950000D03*
X107100000Y-62950000D03*
D14*
X107250000Y-66750000D03*
D16*
X100250000Y-40590000D03*
D17*
X100250000Y-43130000D03*
X100250000Y-45670000D03*
X100250000Y-48210000D03*
X100250000Y-50750000D03*
D16*
X115490000Y-40590000D03*
D17*
X115490000Y-43130000D03*
X115490000Y-45670000D03*
X115490000Y-48210000D03*
X115490000Y-50750000D03*
D18*
X117000000Y-59500000D03*
X108750000Y-51750000D03*
X116000000Y-55000000D03*
X106500000Y-61250000D03*
X102500000Y-54250000D03*
X109000000Y-52500000D03*
X102500000Y-52250000D03*
X108250000Y-61250000D03*
X116000000Y-58000000D03*
X100000000Y-54750000D03*
X116250000Y-60750000D03*
X109258848Y-53650000D03*
X113750000Y-60750000D03*
X108500000Y-55000000D03*
X108750000Y-63250000D03*
X106166635Y-58166635D03*
%LPD*%
M02*
