G04 #@! TF.GenerationSoftware,KiCad,Pcbnew,8.0.4*
G04 #@! TF.CreationDate,2024-11-22T23:05:38-05:00*
G04 #@! TF.ProjectId,usb_to_uart_ft232rl,7573625f-746f-45f7-9561-72745f667432,rev?*
G04 #@! TF.SameCoordinates,Original*
G04 #@! TF.FileFunction,Copper,L1,Top*
G04 #@! TF.FilePolarity,Positive*
%FSLAX46Y46*%
G04 Gerber Fmt 4.6, Leading zero omitted, Abs format (unit mm)*
G04 Created by KiCad (PCBNEW 8.0.4) date 2024-11-22 23:05:38*
%MOMM*%
%LPD*%
G01*
G04 APERTURE LIST*
G04 Aperture macros list*
%AMRoundRect*
0 Rectangle with rounded corners*
0 $1 Rounding radius*
0 $2 $3 $4 $5 $6 $7 $8 $9 X,Y pos of 4 corners*
0 Add a 4 corners polygon primitive as box body*
4,1,4,$2,$3,$4,$5,$6,$7,$8,$9,$2,$3,0*
0 Add four circle primitives for the rounded corners*
1,1,$1+$1,$2,$3*
1,1,$1+$1,$4,$5*
1,1,$1+$1,$6,$7*
1,1,$1+$1,$8,$9*
0 Add four rect primitives between the rounded corners*
20,1,$1+$1,$2,$3,$4,$5,0*
20,1,$1+$1,$4,$5,$6,$7,0*
20,1,$1+$1,$6,$7,$8,$9,0*
20,1,$1+$1,$8,$9,$2,$3,0*%
G04 Aperture macros list end*
G04 #@! TA.AperFunction,ComponentPad*
%ADD10R,1.700000X1.700000*%
G04 #@! TD*
G04 #@! TA.AperFunction,ComponentPad*
%ADD11O,1.700000X1.700000*%
G04 #@! TD*
G04 #@! TA.AperFunction,SMDPad,CuDef*
%ADD12RoundRect,0.218750X0.218750X0.256250X-0.218750X0.256250X-0.218750X-0.256250X0.218750X-0.256250X0*%
G04 #@! TD*
G04 #@! TA.AperFunction,SMDPad,CuDef*
%ADD13R,0.450000X1.380000*%
G04 #@! TD*
G04 #@! TA.AperFunction,SMDPad,CuDef*
%ADD14R,1.650000X1.300000*%
G04 #@! TD*
G04 #@! TA.AperFunction,SMDPad,CuDef*
%ADD15R,1.425000X1.550000*%
G04 #@! TD*
G04 #@! TA.AperFunction,SMDPad,CuDef*
%ADD16R,1.800000X1.900000*%
G04 #@! TD*
G04 #@! TA.AperFunction,SMDPad,CuDef*
%ADD17R,1.000000X1.900000*%
G04 #@! TD*
G04 #@! TA.AperFunction,SMDPad,CuDef*
%ADD18RoundRect,0.140000X-0.170000X0.140000X-0.170000X-0.140000X0.170000X-0.140000X0.170000X0.140000X0*%
G04 #@! TD*
G04 #@! TA.AperFunction,SMDPad,CuDef*
%ADD19RoundRect,0.250000X0.625000X-0.312500X0.625000X0.312500X-0.625000X0.312500X-0.625000X-0.312500X0*%
G04 #@! TD*
G04 #@! TA.AperFunction,SMDPad,CuDef*
%ADD20RoundRect,0.250000X0.650000X-0.325000X0.650000X0.325000X-0.650000X0.325000X-0.650000X-0.325000X0*%
G04 #@! TD*
G04 #@! TA.AperFunction,SMDPad,CuDef*
%ADD21RoundRect,0.140000X0.170000X-0.140000X0.170000X0.140000X-0.170000X0.140000X-0.170000X-0.140000X0*%
G04 #@! TD*
G04 #@! TA.AperFunction,SMDPad,CuDef*
%ADD22R,1.750000X0.450000*%
G04 #@! TD*
G04 #@! TA.AperFunction,ViaPad*
%ADD23C,0.600000*%
G04 #@! TD*
G04 #@! TA.AperFunction,Conductor*
%ADD24C,0.300000*%
G04 #@! TD*
G04 #@! TA.AperFunction,Conductor*
%ADD25C,0.500000*%
G04 #@! TD*
G04 #@! TA.AperFunction,Conductor*
%ADD26C,0.200000*%
G04 #@! TD*
G04 APERTURE END LIST*
D10*
X100250000Y-40590000D03*
D11*
X100250000Y-43130000D03*
X100250000Y-45670000D03*
X100250000Y-48210000D03*
X100250000Y-50750000D03*
D10*
X115490000Y-40590000D03*
D11*
X115490000Y-43130000D03*
X115490000Y-45670000D03*
X115490000Y-48210000D03*
X115490000Y-50750000D03*
D12*
X111537500Y-65250000D03*
X109962500Y-65250000D03*
D13*
X102712500Y-63165000D03*
X103362500Y-63165000D03*
X104012500Y-63165000D03*
X104662500Y-63165000D03*
X105312500Y-63165000D03*
D14*
X100637500Y-65825000D03*
D15*
X101525000Y-63250000D03*
D16*
X102862500Y-65825000D03*
D17*
X105562500Y-65825000D03*
D15*
X106500000Y-63250000D03*
D14*
X107387500Y-65825000D03*
D18*
X113500000Y-56770000D03*
X113500000Y-57730000D03*
D12*
X109962500Y-63250000D03*
X111537500Y-63250000D03*
D19*
X101000000Y-59462500D03*
X101000000Y-56537500D03*
X113750000Y-65962500D03*
X113750000Y-63037500D03*
X116250000Y-65962500D03*
X116250000Y-63037500D03*
D20*
X116000000Y-56475000D03*
X116000000Y-53525000D03*
D21*
X113500000Y-55710000D03*
X113500000Y-54750000D03*
D22*
X104250000Y-50400000D03*
X104250000Y-51050000D03*
X104250000Y-51700000D03*
X104250000Y-52350000D03*
X104250000Y-53000000D03*
X104250000Y-53650000D03*
X104250000Y-54300000D03*
X104250000Y-54950000D03*
X104250000Y-55600000D03*
X104250000Y-56250000D03*
X104250000Y-56900000D03*
X104250000Y-57550000D03*
X104250000Y-58200000D03*
X104250000Y-58850000D03*
X111450000Y-58850000D03*
X111450000Y-58200000D03*
X111450000Y-57550000D03*
X111450000Y-56900000D03*
X111450000Y-56250000D03*
X111450000Y-55600000D03*
X111450000Y-54950000D03*
X111450000Y-54300000D03*
X111450000Y-53650000D03*
X111450000Y-53000000D03*
X111450000Y-52350000D03*
X111450000Y-51700000D03*
X111450000Y-51050000D03*
X111450000Y-50400000D03*
D23*
X114500000Y-58500000D03*
X113500000Y-53500000D03*
X109750000Y-61250000D03*
X100000000Y-54750000D03*
X106500000Y-61250000D03*
X109258848Y-53650000D03*
X108500000Y-55000000D03*
X116250000Y-60750000D03*
X113750000Y-60750000D03*
X116000000Y-55000000D03*
X116000000Y-58000000D03*
X102500000Y-52250000D03*
X102500000Y-54250000D03*
X108750000Y-51750000D03*
X109000000Y-52500000D03*
D24*
X114500000Y-57460001D02*
X114500000Y-58500000D01*
X113809999Y-56770000D02*
X114500000Y-57460001D01*
X113500000Y-56770000D02*
X113809999Y-56770000D01*
X113500000Y-54750000D02*
X113500000Y-53500000D01*
D25*
X109962500Y-61462500D02*
X109750000Y-61250000D01*
X109962500Y-63250000D02*
X109962500Y-61462500D01*
X101000000Y-55750000D02*
X100000000Y-54750000D01*
X101000000Y-56537500D02*
X101000000Y-55750000D01*
D24*
X105312500Y-62437500D02*
X106500000Y-61250000D01*
X105312500Y-63165000D02*
X105312500Y-62437500D01*
X109258848Y-53650000D02*
X111450000Y-53650000D01*
X108500000Y-55000000D02*
X109200000Y-54300000D01*
X109200000Y-54300000D02*
X111450000Y-54300000D01*
X116250000Y-63037500D02*
X116250000Y-60750000D01*
X113750000Y-63037500D02*
X113750000Y-60750000D01*
X112250000Y-65962500D02*
X113750000Y-65962500D01*
X111537500Y-65250000D02*
X112250000Y-65962500D01*
X115337500Y-65050000D02*
X116250000Y-65962500D01*
X113337500Y-65050000D02*
X115337500Y-65050000D01*
X111537500Y-63250000D02*
X113337500Y-65050000D01*
D26*
X106881800Y-58300000D02*
X103362500Y-61819300D01*
X103362500Y-61819300D02*
X103362500Y-63165000D01*
X111450000Y-58200000D02*
X110137499Y-58200000D01*
X110137499Y-58200000D02*
X110037499Y-58300000D01*
X103887500Y-63040000D02*
X104012500Y-63165000D01*
X103887500Y-62175000D02*
X103887500Y-63040000D01*
X103812501Y-62175000D02*
X103887500Y-62175000D01*
X110037499Y-58300000D02*
X106881800Y-58300000D01*
X107068200Y-58750000D02*
X103812501Y-62005699D01*
X103812501Y-62005699D02*
X103812501Y-62175000D01*
X110037499Y-58750000D02*
X107068200Y-58750000D01*
X110137499Y-58850000D02*
X110037499Y-58750000D01*
X111450000Y-58850000D02*
X110137499Y-58850000D01*
D25*
X109962500Y-63250000D02*
X109962500Y-65250000D01*
D24*
X116000000Y-53525000D02*
X116000000Y-55000000D01*
X116000000Y-56475000D02*
X116000000Y-58000000D01*
X102600000Y-52350000D02*
X102500000Y-52250000D01*
X104250000Y-52350000D02*
X102600000Y-52350000D01*
X104250000Y-46000000D02*
X109660000Y-40590000D01*
X109660000Y-40590000D02*
X115490000Y-40590000D01*
X104250000Y-50400000D02*
X104250000Y-46000000D01*
X102712500Y-61175000D02*
X101000000Y-59462500D01*
X102712500Y-63165000D02*
X102712500Y-61175000D01*
X113320000Y-57550000D02*
X111450000Y-57550000D01*
X113500000Y-57730000D02*
X113320000Y-57550000D01*
X113370000Y-56900000D02*
X111450000Y-56900000D01*
X113500000Y-56770000D02*
X113370000Y-56900000D01*
X115235000Y-55710000D02*
X116000000Y-56475000D01*
X113500000Y-55710000D02*
X115235000Y-55710000D01*
X114725000Y-53525000D02*
X116000000Y-53525000D01*
X113500000Y-54750000D02*
X114725000Y-53525000D01*
X113300000Y-54950000D02*
X111450000Y-54950000D01*
X113500000Y-54750000D02*
X113300000Y-54950000D01*
X113390000Y-55600000D02*
X111450000Y-55600000D01*
X113500000Y-55710000D02*
X113390000Y-55600000D01*
X102550000Y-54300000D02*
X102500000Y-54250000D01*
X104250000Y-54300000D02*
X102550000Y-54300000D01*
X105750000Y-53000000D02*
X104250000Y-53000000D01*
X109250000Y-49500000D02*
X105750000Y-53000000D01*
X115490000Y-50082894D02*
X114907106Y-49500000D01*
X114907106Y-49500000D02*
X109250000Y-49500000D01*
X115490000Y-50750000D02*
X115490000Y-50082894D01*
X114700000Y-49000000D02*
X115490000Y-48210000D01*
X108750000Y-49000000D02*
X114700000Y-49000000D01*
X106700000Y-51050000D02*
X108750000Y-49000000D01*
X104250000Y-51050000D02*
X106700000Y-51050000D01*
X109150000Y-52350000D02*
X109000000Y-52500000D01*
X111450000Y-52350000D02*
X109150000Y-52350000D01*
X108800000Y-51700000D02*
X108750000Y-51750000D01*
X111450000Y-51700000D02*
X108800000Y-51700000D01*
M02*
