G04 #@! TF.GenerationSoftware,KiCad,Pcbnew,8.0.5*
G04 #@! TF.CreationDate,2024-12-02T19:57:29-05:00*
G04 #@! TF.ProjectId,usb_to_uart_ft232rl,7573625f-746f-45f7-9561-72745f667432,rev?*
G04 #@! TF.SameCoordinates,Original*
G04 #@! TF.FileFunction,Legend,Top*
G04 #@! TF.FilePolarity,Positive*
%FSLAX46Y46*%
G04 Gerber Fmt 4.6, Leading zero omitted, Abs format (unit mm)*
G04 Created by KiCad (PCBNEW 8.0.5) date 2024-12-02 19:57:29*
%MOMM*%
%LPD*%
G01*
G04 APERTURE LIST*
G04 Aperture macros list*
%AMRoundRect*
0 Rectangle with rounded corners*
0 $1 Rounding radius*
0 $2 $3 $4 $5 $6 $7 $8 $9 X,Y pos of 4 corners*
0 Add a 4 corners polygon primitive as box body*
4,1,4,$2,$3,$4,$5,$6,$7,$8,$9,$2,$3,0*
0 Add four circle primitives for the rounded corners*
1,1,$1+$1,$2,$3*
1,1,$1+$1,$4,$5*
1,1,$1+$1,$6,$7*
1,1,$1+$1,$8,$9*
0 Add four rect primitives between the rounded corners*
20,1,$1+$1,$2,$3,$4,$5,0*
20,1,$1+$1,$4,$5,$6,$7,0*
20,1,$1+$1,$6,$7,$8,$9,0*
20,1,$1+$1,$8,$9,$2,$3,0*%
G04 Aperture macros list end*
%ADD10C,0.200000*%
%ADD11C,0.150000*%
%ADD12C,0.120000*%
%ADD13O,0.800000X0.800000*%
%ADD14R,0.450000X1.300000*%
%ADD15O,1.150000X1.800000*%
%ADD16O,1.450000X2.000000*%
%ADD17RoundRect,0.250000X-0.475000X0.250000X-0.475000X-0.250000X0.475000X-0.250000X0.475000X0.250000X0*%
%ADD18RoundRect,0.250000X0.475000X-0.250000X0.475000X0.250000X-0.475000X0.250000X-0.475000X-0.250000X0*%
%ADD19RoundRect,0.218750X0.218750X0.256250X-0.218750X0.256250X-0.218750X-0.256250X0.218750X-0.256250X0*%
%ADD20RoundRect,0.250000X0.625000X-0.312500X0.625000X0.312500X-0.625000X0.312500X-0.625000X-0.312500X0*%
%ADD21RoundRect,0.250000X0.312500X0.625000X-0.312500X0.625000X-0.312500X-0.625000X0.312500X-0.625000X0*%
%ADD22RoundRect,0.250000X0.650000X-0.325000X0.650000X0.325000X-0.650000X0.325000X-0.650000X-0.325000X0*%
%ADD23R,1.750000X0.450000*%
%ADD24R,1.700000X1.700000*%
%ADD25O,1.700000X1.700000*%
%ADD26C,0.600000*%
G04 APERTURE END LIST*
D10*
X111369673Y-48617219D02*
X111369673Y-47617219D01*
X111369673Y-47617219D02*
X111607768Y-47617219D01*
X111607768Y-47617219D02*
X111750625Y-47664838D01*
X111750625Y-47664838D02*
X111845863Y-47760076D01*
X111845863Y-47760076D02*
X111893482Y-47855314D01*
X111893482Y-47855314D02*
X111941101Y-48045790D01*
X111941101Y-48045790D02*
X111941101Y-48188647D01*
X111941101Y-48188647D02*
X111893482Y-48379123D01*
X111893482Y-48379123D02*
X111845863Y-48474361D01*
X111845863Y-48474361D02*
X111750625Y-48569600D01*
X111750625Y-48569600D02*
X111607768Y-48617219D01*
X111607768Y-48617219D02*
X111369673Y-48617219D01*
X112226816Y-47617219D02*
X112798244Y-47617219D01*
X112512530Y-48617219D02*
X112512530Y-47617219D01*
X113703006Y-48617219D02*
X113369673Y-48141028D01*
X113131578Y-48617219D02*
X113131578Y-47617219D01*
X113131578Y-47617219D02*
X113512530Y-47617219D01*
X113512530Y-47617219D02*
X113607768Y-47664838D01*
X113607768Y-47664838D02*
X113655387Y-47712457D01*
X113655387Y-47712457D02*
X113703006Y-47807695D01*
X113703006Y-47807695D02*
X113703006Y-47950552D01*
X113703006Y-47950552D02*
X113655387Y-48045790D01*
X113655387Y-48045790D02*
X113607768Y-48093409D01*
X113607768Y-48093409D02*
X113512530Y-48141028D01*
X113512530Y-48141028D02*
X113131578Y-48141028D01*
X117867219Y-51058898D02*
X117391028Y-51392231D01*
X117867219Y-51630326D02*
X116867219Y-51630326D01*
X116867219Y-51630326D02*
X116867219Y-51249374D01*
X116867219Y-51249374D02*
X116914838Y-51154136D01*
X116914838Y-51154136D02*
X116962457Y-51106517D01*
X116962457Y-51106517D02*
X117057695Y-51058898D01*
X117057695Y-51058898D02*
X117200552Y-51058898D01*
X117200552Y-51058898D02*
X117295790Y-51106517D01*
X117295790Y-51106517D02*
X117343409Y-51154136D01*
X117343409Y-51154136D02*
X117391028Y-51249374D01*
X117391028Y-51249374D02*
X117391028Y-51630326D01*
X116867219Y-50725564D02*
X117867219Y-50058898D01*
X116867219Y-50058898D02*
X117867219Y-50725564D01*
X117867219Y-49677945D02*
X116867219Y-49677945D01*
X116867219Y-49677945D02*
X116867219Y-49439850D01*
X116867219Y-49439850D02*
X116914838Y-49296993D01*
X116914838Y-49296993D02*
X117010076Y-49201755D01*
X117010076Y-49201755D02*
X117105314Y-49154136D01*
X117105314Y-49154136D02*
X117295790Y-49106517D01*
X117295790Y-49106517D02*
X117438647Y-49106517D01*
X117438647Y-49106517D02*
X117629123Y-49154136D01*
X117629123Y-49154136D02*
X117724361Y-49201755D01*
X117724361Y-49201755D02*
X117819600Y-49296993D01*
X117819600Y-49296993D02*
X117867219Y-49439850D01*
X117867219Y-49439850D02*
X117867219Y-49677945D01*
X102595863Y-42867219D02*
X102119673Y-42867219D01*
X102119673Y-42867219D02*
X102072054Y-43343409D01*
X102072054Y-43343409D02*
X102119673Y-43295790D01*
X102119673Y-43295790D02*
X102214911Y-43248171D01*
X102214911Y-43248171D02*
X102453006Y-43248171D01*
X102453006Y-43248171D02*
X102548244Y-43295790D01*
X102548244Y-43295790D02*
X102595863Y-43343409D01*
X102595863Y-43343409D02*
X102643482Y-43438647D01*
X102643482Y-43438647D02*
X102643482Y-43676742D01*
X102643482Y-43676742D02*
X102595863Y-43771980D01*
X102595863Y-43771980D02*
X102548244Y-43819600D01*
X102548244Y-43819600D02*
X102453006Y-43867219D01*
X102453006Y-43867219D02*
X102214911Y-43867219D01*
X102214911Y-43867219D02*
X102119673Y-43819600D01*
X102119673Y-43819600D02*
X102072054Y-43771980D01*
X102929197Y-42867219D02*
X103262530Y-43867219D01*
X103262530Y-43867219D02*
X103595863Y-42867219D01*
X99393482Y-52414838D02*
X99298244Y-52367219D01*
X99298244Y-52367219D02*
X99155387Y-52367219D01*
X99155387Y-52367219D02*
X99012530Y-52414838D01*
X99012530Y-52414838D02*
X98917292Y-52510076D01*
X98917292Y-52510076D02*
X98869673Y-52605314D01*
X98869673Y-52605314D02*
X98822054Y-52795790D01*
X98822054Y-52795790D02*
X98822054Y-52938647D01*
X98822054Y-52938647D02*
X98869673Y-53129123D01*
X98869673Y-53129123D02*
X98917292Y-53224361D01*
X98917292Y-53224361D02*
X99012530Y-53319600D01*
X99012530Y-53319600D02*
X99155387Y-53367219D01*
X99155387Y-53367219D02*
X99250625Y-53367219D01*
X99250625Y-53367219D02*
X99393482Y-53319600D01*
X99393482Y-53319600D02*
X99441101Y-53271980D01*
X99441101Y-53271980D02*
X99441101Y-52938647D01*
X99441101Y-52938647D02*
X99250625Y-52938647D01*
X99869673Y-53367219D02*
X99869673Y-52367219D01*
X99869673Y-52367219D02*
X100441101Y-53367219D01*
X100441101Y-53367219D02*
X100441101Y-52367219D01*
X100917292Y-53367219D02*
X100917292Y-52367219D01*
X100917292Y-52367219D02*
X101155387Y-52367219D01*
X101155387Y-52367219D02*
X101298244Y-52414838D01*
X101298244Y-52414838D02*
X101393482Y-52510076D01*
X101393482Y-52510076D02*
X101441101Y-52605314D01*
X101441101Y-52605314D02*
X101488720Y-52795790D01*
X101488720Y-52795790D02*
X101488720Y-52938647D01*
X101488720Y-52938647D02*
X101441101Y-53129123D01*
X101441101Y-53129123D02*
X101393482Y-53224361D01*
X101393482Y-53224361D02*
X101298244Y-53319600D01*
X101298244Y-53319600D02*
X101155387Y-53367219D01*
X101155387Y-53367219D02*
X100917292Y-53367219D01*
X110976816Y-40117219D02*
X111548244Y-40117219D01*
X111262530Y-41117219D02*
X111262530Y-40117219D01*
X111786340Y-40117219D02*
X112453006Y-41117219D01*
X112453006Y-40117219D02*
X111786340Y-41117219D01*
X112833959Y-41117219D02*
X112833959Y-40117219D01*
X112833959Y-40117219D02*
X113072054Y-40117219D01*
X113072054Y-40117219D02*
X113214911Y-40164838D01*
X113214911Y-40164838D02*
X113310149Y-40260076D01*
X113310149Y-40260076D02*
X113357768Y-40355314D01*
X113357768Y-40355314D02*
X113405387Y-40545790D01*
X113405387Y-40545790D02*
X113405387Y-40688647D01*
X113405387Y-40688647D02*
X113357768Y-40879123D01*
X113357768Y-40879123D02*
X113310149Y-40974361D01*
X113310149Y-40974361D02*
X113214911Y-41069600D01*
X113214911Y-41069600D02*
X113072054Y-41117219D01*
X113072054Y-41117219D02*
X112833959Y-41117219D01*
D11*
X103041666Y-60204819D02*
X103041666Y-60919104D01*
X103041666Y-60919104D02*
X102994047Y-61061961D01*
X102994047Y-61061961D02*
X102898809Y-61157200D01*
X102898809Y-61157200D02*
X102755952Y-61204819D01*
X102755952Y-61204819D02*
X102660714Y-61204819D01*
X104041666Y-61204819D02*
X103470238Y-61204819D01*
X103755952Y-61204819D02*
X103755952Y-60204819D01*
X103755952Y-60204819D02*
X103660714Y-60347676D01*
X103660714Y-60347676D02*
X103565476Y-60442914D01*
X103565476Y-60442914D02*
X103470238Y-60490533D01*
X115789580Y-59916666D02*
X115837200Y-59964285D01*
X115837200Y-59964285D02*
X115884819Y-60107142D01*
X115884819Y-60107142D02*
X115884819Y-60202380D01*
X115884819Y-60202380D02*
X115837200Y-60345237D01*
X115837200Y-60345237D02*
X115741961Y-60440475D01*
X115741961Y-60440475D02*
X115646723Y-60488094D01*
X115646723Y-60488094D02*
X115456247Y-60535713D01*
X115456247Y-60535713D02*
X115313390Y-60535713D01*
X115313390Y-60535713D02*
X115122914Y-60488094D01*
X115122914Y-60488094D02*
X115027676Y-60440475D01*
X115027676Y-60440475D02*
X114932438Y-60345237D01*
X114932438Y-60345237D02*
X114884819Y-60202380D01*
X114884819Y-60202380D02*
X114884819Y-60107142D01*
X114884819Y-60107142D02*
X114932438Y-59964285D01*
X114932438Y-59964285D02*
X114980057Y-59916666D01*
X114884819Y-59583332D02*
X114884819Y-58964285D01*
X114884819Y-58964285D02*
X115265771Y-59297618D01*
X115265771Y-59297618D02*
X115265771Y-59154761D01*
X115265771Y-59154761D02*
X115313390Y-59059523D01*
X115313390Y-59059523D02*
X115361009Y-59011904D01*
X115361009Y-59011904D02*
X115456247Y-58964285D01*
X115456247Y-58964285D02*
X115694342Y-58964285D01*
X115694342Y-58964285D02*
X115789580Y-59011904D01*
X115789580Y-59011904D02*
X115837200Y-59059523D01*
X115837200Y-59059523D02*
X115884819Y-59154761D01*
X115884819Y-59154761D02*
X115884819Y-59440475D01*
X115884819Y-59440475D02*
X115837200Y-59535713D01*
X115837200Y-59535713D02*
X115789580Y-59583332D01*
X113859580Y-51666666D02*
X113907200Y-51714285D01*
X113907200Y-51714285D02*
X113954819Y-51857142D01*
X113954819Y-51857142D02*
X113954819Y-51952380D01*
X113954819Y-51952380D02*
X113907200Y-52095237D01*
X113907200Y-52095237D02*
X113811961Y-52190475D01*
X113811961Y-52190475D02*
X113716723Y-52238094D01*
X113716723Y-52238094D02*
X113526247Y-52285713D01*
X113526247Y-52285713D02*
X113383390Y-52285713D01*
X113383390Y-52285713D02*
X113192914Y-52238094D01*
X113192914Y-52238094D02*
X113097676Y-52190475D01*
X113097676Y-52190475D02*
X113002438Y-52095237D01*
X113002438Y-52095237D02*
X112954819Y-51952380D01*
X112954819Y-51952380D02*
X112954819Y-51857142D01*
X112954819Y-51857142D02*
X113002438Y-51714285D01*
X113002438Y-51714285D02*
X113050057Y-51666666D01*
X113954819Y-50714285D02*
X113954819Y-51285713D01*
X113954819Y-50999999D02*
X112954819Y-50999999D01*
X112954819Y-50999999D02*
X113097676Y-51095237D01*
X113097676Y-51095237D02*
X113192914Y-51190475D01*
X113192914Y-51190475D02*
X113240533Y-51285713D01*
X99181009Y-58833333D02*
X99181009Y-59166666D01*
X99704819Y-59166666D02*
X98704819Y-59166666D01*
X98704819Y-59166666D02*
X98704819Y-58690476D01*
X99181009Y-57976190D02*
X99228628Y-57833333D01*
X99228628Y-57833333D02*
X99276247Y-57785714D01*
X99276247Y-57785714D02*
X99371485Y-57738095D01*
X99371485Y-57738095D02*
X99514342Y-57738095D01*
X99514342Y-57738095D02*
X99609580Y-57785714D01*
X99609580Y-57785714D02*
X99657200Y-57833333D01*
X99657200Y-57833333D02*
X99704819Y-57928571D01*
X99704819Y-57928571D02*
X99704819Y-58309523D01*
X99704819Y-58309523D02*
X98704819Y-58309523D01*
X98704819Y-58309523D02*
X98704819Y-57976190D01*
X98704819Y-57976190D02*
X98752438Y-57880952D01*
X98752438Y-57880952D02*
X98800057Y-57833333D01*
X98800057Y-57833333D02*
X98895295Y-57785714D01*
X98895295Y-57785714D02*
X98990533Y-57785714D01*
X98990533Y-57785714D02*
X99085771Y-57833333D01*
X99085771Y-57833333D02*
X99133390Y-57880952D01*
X99133390Y-57880952D02*
X99181009Y-57976190D01*
X99181009Y-57976190D02*
X99181009Y-58309523D01*
X99704819Y-56785714D02*
X99704819Y-57357142D01*
X99704819Y-57071428D02*
X98704819Y-57071428D01*
X98704819Y-57071428D02*
X98847676Y-57166666D01*
X98847676Y-57166666D02*
X98942914Y-57261904D01*
X98942914Y-57261904D02*
X98990533Y-57357142D01*
X114633333Y-62054819D02*
X114300000Y-61578628D01*
X114061905Y-62054819D02*
X114061905Y-61054819D01*
X114061905Y-61054819D02*
X114442857Y-61054819D01*
X114442857Y-61054819D02*
X114538095Y-61102438D01*
X114538095Y-61102438D02*
X114585714Y-61150057D01*
X114585714Y-61150057D02*
X114633333Y-61245295D01*
X114633333Y-61245295D02*
X114633333Y-61388152D01*
X114633333Y-61388152D02*
X114585714Y-61483390D01*
X114585714Y-61483390D02*
X114538095Y-61531009D01*
X114538095Y-61531009D02*
X114442857Y-61578628D01*
X114442857Y-61578628D02*
X114061905Y-61578628D01*
X115014286Y-61150057D02*
X115061905Y-61102438D01*
X115061905Y-61102438D02*
X115157143Y-61054819D01*
X115157143Y-61054819D02*
X115395238Y-61054819D01*
X115395238Y-61054819D02*
X115490476Y-61102438D01*
X115490476Y-61102438D02*
X115538095Y-61150057D01*
X115538095Y-61150057D02*
X115585714Y-61245295D01*
X115585714Y-61245295D02*
X115585714Y-61340533D01*
X115585714Y-61340533D02*
X115538095Y-61483390D01*
X115538095Y-61483390D02*
X114966667Y-62054819D01*
X114966667Y-62054819D02*
X115585714Y-62054819D01*
X114583333Y-68454819D02*
X114250000Y-67978628D01*
X114011905Y-68454819D02*
X114011905Y-67454819D01*
X114011905Y-67454819D02*
X114392857Y-67454819D01*
X114392857Y-67454819D02*
X114488095Y-67502438D01*
X114488095Y-67502438D02*
X114535714Y-67550057D01*
X114535714Y-67550057D02*
X114583333Y-67645295D01*
X114583333Y-67645295D02*
X114583333Y-67788152D01*
X114583333Y-67788152D02*
X114535714Y-67883390D01*
X114535714Y-67883390D02*
X114488095Y-67931009D01*
X114488095Y-67931009D02*
X114392857Y-67978628D01*
X114392857Y-67978628D02*
X114011905Y-67978628D01*
X114916667Y-67454819D02*
X115535714Y-67454819D01*
X115535714Y-67454819D02*
X115202381Y-67835771D01*
X115202381Y-67835771D02*
X115345238Y-67835771D01*
X115345238Y-67835771D02*
X115440476Y-67883390D01*
X115440476Y-67883390D02*
X115488095Y-67931009D01*
X115488095Y-67931009D02*
X115535714Y-68026247D01*
X115535714Y-68026247D02*
X115535714Y-68264342D01*
X115535714Y-68264342D02*
X115488095Y-68359580D01*
X115488095Y-68359580D02*
X115440476Y-68407200D01*
X115440476Y-68407200D02*
X115345238Y-68454819D01*
X115345238Y-68454819D02*
X115059524Y-68454819D01*
X115059524Y-68454819D02*
X114964286Y-68407200D01*
X114964286Y-68407200D02*
X114916667Y-68359580D01*
X117254819Y-67966666D02*
X116778628Y-68299999D01*
X117254819Y-68538094D02*
X116254819Y-68538094D01*
X116254819Y-68538094D02*
X116254819Y-68157142D01*
X116254819Y-68157142D02*
X116302438Y-68061904D01*
X116302438Y-68061904D02*
X116350057Y-68014285D01*
X116350057Y-68014285D02*
X116445295Y-67966666D01*
X116445295Y-67966666D02*
X116588152Y-67966666D01*
X116588152Y-67966666D02*
X116683390Y-68014285D01*
X116683390Y-68014285D02*
X116731009Y-68061904D01*
X116731009Y-68061904D02*
X116778628Y-68157142D01*
X116778628Y-68157142D02*
X116778628Y-68538094D01*
X117254819Y-67014285D02*
X117254819Y-67585713D01*
X117254819Y-67299999D02*
X116254819Y-67299999D01*
X116254819Y-67299999D02*
X116397676Y-67395237D01*
X116397676Y-67395237D02*
X116492914Y-67490475D01*
X116492914Y-67490475D02*
X116540533Y-67585713D01*
X117609580Y-58416666D02*
X117657200Y-58464285D01*
X117657200Y-58464285D02*
X117704819Y-58607142D01*
X117704819Y-58607142D02*
X117704819Y-58702380D01*
X117704819Y-58702380D02*
X117657200Y-58845237D01*
X117657200Y-58845237D02*
X117561961Y-58940475D01*
X117561961Y-58940475D02*
X117466723Y-58988094D01*
X117466723Y-58988094D02*
X117276247Y-59035713D01*
X117276247Y-59035713D02*
X117133390Y-59035713D01*
X117133390Y-59035713D02*
X116942914Y-58988094D01*
X116942914Y-58988094D02*
X116847676Y-58940475D01*
X116847676Y-58940475D02*
X116752438Y-58845237D01*
X116752438Y-58845237D02*
X116704819Y-58702380D01*
X116704819Y-58702380D02*
X116704819Y-58607142D01*
X116704819Y-58607142D02*
X116752438Y-58464285D01*
X116752438Y-58464285D02*
X116800057Y-58416666D01*
X116800057Y-58035713D02*
X116752438Y-57988094D01*
X116752438Y-57988094D02*
X116704819Y-57892856D01*
X116704819Y-57892856D02*
X116704819Y-57654761D01*
X116704819Y-57654761D02*
X116752438Y-57559523D01*
X116752438Y-57559523D02*
X116800057Y-57511904D01*
X116800057Y-57511904D02*
X116895295Y-57464285D01*
X116895295Y-57464285D02*
X116990533Y-57464285D01*
X116990533Y-57464285D02*
X117133390Y-57511904D01*
X117133390Y-57511904D02*
X117704819Y-58083332D01*
X117704819Y-58083332D02*
X117704819Y-57464285D01*
X103488095Y-47454819D02*
X103488095Y-48264342D01*
X103488095Y-48264342D02*
X103535714Y-48359580D01*
X103535714Y-48359580D02*
X103583333Y-48407200D01*
X103583333Y-48407200D02*
X103678571Y-48454819D01*
X103678571Y-48454819D02*
X103869047Y-48454819D01*
X103869047Y-48454819D02*
X103964285Y-48407200D01*
X103964285Y-48407200D02*
X104011904Y-48359580D01*
X104011904Y-48359580D02*
X104059523Y-48264342D01*
X104059523Y-48264342D02*
X104059523Y-47454819D01*
X105059523Y-48454819D02*
X104488095Y-48454819D01*
X104773809Y-48454819D02*
X104773809Y-47454819D01*
X104773809Y-47454819D02*
X104678571Y-47597676D01*
X104678571Y-47597676D02*
X104583333Y-47692914D01*
X104583333Y-47692914D02*
X104488095Y-47740533D01*
X99225000Y-64150000D02*
X99225000Y-65550000D01*
X99225000Y-67950000D02*
X99225000Y-68100000D01*
X99225000Y-68100000D02*
X99525000Y-68100000D01*
X99525000Y-68100000D02*
X99525000Y-68550000D01*
X101575000Y-61975000D02*
X101575000Y-62400000D01*
X101575000Y-62400000D02*
X100575000Y-62400000D01*
X102300000Y-61975000D02*
X101575000Y-61975000D01*
X105175000Y-62400000D02*
X106175000Y-62400000D01*
X107225000Y-68100000D02*
X107525000Y-68100000D01*
X107225000Y-68550000D02*
X107225000Y-68100000D01*
X107525000Y-65550000D02*
X107525000Y-64150000D01*
X107525000Y-68100000D02*
X107525000Y-67950000D01*
D12*
X114485000Y-57488748D02*
X114485000Y-58011252D01*
X113015000Y-57488748D02*
X113015000Y-58011252D01*
X113015000Y-54511252D02*
X113015000Y-53988748D01*
X114485000Y-54511252D02*
X114485000Y-53988748D01*
X109950000Y-63735000D02*
X112235000Y-63735000D01*
X112235000Y-62265000D02*
X109950000Y-62265000D01*
X112235000Y-63735000D02*
X112235000Y-62265000D01*
X109950000Y-61985000D02*
X112235000Y-61985000D01*
X112235000Y-60515000D02*
X109950000Y-60515000D01*
X112235000Y-61985000D02*
X112235000Y-60515000D01*
X100090000Y-58727064D02*
X100090000Y-57272936D01*
X101910000Y-58727064D02*
X101910000Y-57272936D01*
X112840000Y-65227064D02*
X112840000Y-63772936D01*
X114660000Y-65227064D02*
X114660000Y-63772936D01*
X111977064Y-67090000D02*
X110522936Y-67090000D01*
X111977064Y-68910000D02*
X110522936Y-68910000D01*
X109950000Y-65735000D02*
X112235000Y-65735000D01*
X112235000Y-64265000D02*
X109950000Y-64265000D01*
X112235000Y-65735000D02*
X112235000Y-64265000D01*
X115340000Y-65227064D02*
X115340000Y-63772936D01*
X117160000Y-65227064D02*
X117160000Y-63772936D01*
X115090000Y-55711252D02*
X115090000Y-54288748D01*
X116910000Y-55711252D02*
X116910000Y-54288748D01*
D11*
X104975000Y-49300000D02*
X104975000Y-49875000D01*
X104975000Y-49300000D02*
X110725000Y-49300000D01*
X104975000Y-59375000D02*
X104975000Y-59950000D01*
X104975000Y-59950000D02*
X110725000Y-59950000D01*
X110725000Y-49300000D02*
X110725000Y-49875000D01*
X110725000Y-59375000D02*
X110725000Y-59950000D01*
D12*
X104475000Y-49875000D02*
X104235000Y-49545000D01*
X104715000Y-49545000D01*
X104475000Y-49875000D01*
G36*
X104475000Y-49875000D02*
G01*
X104235000Y-49545000D01*
X104715000Y-49545000D01*
X104475000Y-49875000D01*
G37*
%LPC*%
D13*
X100875000Y-64000000D03*
X105875000Y-64000000D03*
D14*
X102075000Y-62900000D03*
X102725000Y-62900000D03*
X103375000Y-62900000D03*
X104025000Y-62900000D03*
X104675000Y-62900000D03*
D15*
X99500000Y-66750000D03*
D16*
X99650000Y-62950000D03*
X107100000Y-62950000D03*
D15*
X107250000Y-66750000D03*
D17*
X113750000Y-56800000D03*
X113750000Y-58700000D03*
D18*
X113750000Y-55200000D03*
X113750000Y-53300000D03*
D19*
X111537500Y-63000000D03*
X109962500Y-63000000D03*
X111537500Y-61250000D03*
X109962500Y-61250000D03*
D20*
X101000000Y-59462500D03*
X101000000Y-56537500D03*
X113750000Y-65962500D03*
X113750000Y-63037500D03*
D21*
X112712500Y-68000000D03*
X109787500Y-68000000D03*
D19*
X111537500Y-65000000D03*
X109962500Y-65000000D03*
D20*
X116250000Y-65962500D03*
X116250000Y-63037500D03*
D22*
X116000000Y-56475000D03*
X116000000Y-53525000D03*
D23*
X104250000Y-50400000D03*
X104250000Y-51050000D03*
X104250000Y-51700000D03*
X104250000Y-52350000D03*
X104250000Y-53000000D03*
X104250000Y-53650000D03*
X104250000Y-54300000D03*
X104250000Y-54950000D03*
X104250000Y-55600000D03*
X104250000Y-56250000D03*
X104250000Y-56900000D03*
X104250000Y-57550000D03*
X104250000Y-58200000D03*
X104250000Y-58850000D03*
X111450000Y-58850000D03*
X111450000Y-58200000D03*
X111450000Y-57550000D03*
X111450000Y-56900000D03*
X111450000Y-56250000D03*
X111450000Y-55600000D03*
X111450000Y-54950000D03*
X111450000Y-54300000D03*
X111450000Y-53650000D03*
X111450000Y-53000000D03*
X111450000Y-52350000D03*
X111450000Y-51700000D03*
X111450000Y-51050000D03*
X111450000Y-50400000D03*
D24*
X100250000Y-40590000D03*
D25*
X100250000Y-43130000D03*
X100250000Y-45670000D03*
X100250000Y-48210000D03*
X100250000Y-50750000D03*
D24*
X115490000Y-40590000D03*
D25*
X115490000Y-43130000D03*
X115490000Y-45670000D03*
X115490000Y-48210000D03*
X115490000Y-50750000D03*
D26*
X117000000Y-59500000D03*
X108750000Y-51750000D03*
X116000000Y-55000000D03*
X106500000Y-61250000D03*
X102500000Y-54250000D03*
X109000000Y-52500000D03*
X102500000Y-52250000D03*
X108250000Y-61250000D03*
X116000000Y-58000000D03*
X100000000Y-54750000D03*
X116250000Y-60750000D03*
X109258848Y-53650000D03*
X113750000Y-60750000D03*
X108500000Y-55000000D03*
X108750000Y-63250000D03*
X106166635Y-58166635D03*
%LPD*%
M02*
