%TF.GenerationSoftware,KiCad,Pcbnew,8.0.4*%
%TF.CreationDate,2024-11-22T23:05:50-05:00*%
%TF.ProjectId,usb_to_uart_ft232rl,7573625f-746f-45f7-9561-72745f667432,rev?*%
%TF.SameCoordinates,Original*%
%TF.FileFunction,Drillmap*%
%TF.FilePolarity,Positive*%
%FSLAX45Y45*%
G04 Gerber Fmt 4.5, Leading zero omitted, Abs format (unit mm)*
G04 Created by KiCad (PCBNEW 8.0.4) date 2024-11-22 23:05:50*
%MOMM*%
%LPD*%
G01*
G04 APERTURE LIST*
%ADD10C,0.050000*%
%ADD11C,0.200000*%
%ADD12C,0.100000*%
G04 APERTURE END LIST*
D10*
X9800000Y-3737500D02*
X11800000Y-3737500D01*
X11800000Y-6787500D01*
X9800000Y-6787500D01*
X9800000Y-3737500D01*
D11*
D12*
X9985000Y-5460000D02*
X10015000Y-5490000D01*
X10015000Y-5460000D02*
X9985000Y-5490000D01*
X10235000Y-5210000D02*
X10265000Y-5240000D01*
X10265000Y-5210000D02*
X10235000Y-5240000D01*
X10235000Y-5410000D02*
X10265000Y-5440000D01*
X10265000Y-5410000D02*
X10235000Y-5440000D01*
X10635000Y-6110000D02*
X10665000Y-6140000D01*
X10665000Y-6110000D02*
X10635000Y-6140000D01*
X10835000Y-5485000D02*
X10865000Y-5515000D01*
X10865000Y-5485000D02*
X10835000Y-5515000D01*
X10860000Y-5160000D02*
X10890000Y-5190000D01*
X10890000Y-5160000D02*
X10860000Y-5190000D01*
X10885000Y-5235000D02*
X10915000Y-5265000D01*
X10915000Y-5235000D02*
X10885000Y-5265000D01*
X10910885Y-5350000D02*
X10940885Y-5380000D01*
X10940885Y-5350000D02*
X10910885Y-5380000D01*
X10960000Y-6110000D02*
X10990000Y-6140000D01*
X10990000Y-6110000D02*
X10960000Y-6140000D01*
X11335000Y-5335000D02*
X11365000Y-5365000D01*
X11365000Y-5335000D02*
X11335000Y-5365000D01*
X11360000Y-6060000D02*
X11390000Y-6090000D01*
X11390000Y-6060000D02*
X11360000Y-6090000D01*
X11435000Y-5835000D02*
X11465000Y-5865000D01*
X11465000Y-5835000D02*
X11435000Y-5865000D01*
X11585000Y-5485000D02*
X11615000Y-5515000D01*
X11615000Y-5485000D02*
X11585000Y-5515000D01*
X11585000Y-5785000D02*
X11615000Y-5815000D01*
X11615000Y-5785000D02*
X11585000Y-5815000D01*
X11610000Y-6060000D02*
X11640000Y-6090000D01*
X11640000Y-6060000D02*
X11610000Y-6090000D01*
X10075000Y-4059000D02*
G75*
G02*
X9975000Y-4059000I-50000J0D01*
G01*
X9975000Y-4059000D02*
G75*
G02*
X10075000Y-4059000I50000J0D01*
G01*
X10075000Y-4313000D02*
G75*
G02*
X9975000Y-4313000I-50000J0D01*
G01*
X9975000Y-4313000D02*
G75*
G02*
X10075000Y-4313000I50000J0D01*
G01*
X10075000Y-4567000D02*
G75*
G02*
X9975000Y-4567000I-50000J0D01*
G01*
X9975000Y-4567000D02*
G75*
G02*
X10075000Y-4567000I50000J0D01*
G01*
X10075000Y-4821000D02*
G75*
G02*
X9975000Y-4821000I-50000J0D01*
G01*
X9975000Y-4821000D02*
G75*
G02*
X10075000Y-4821000I50000J0D01*
G01*
X10075000Y-5075000D02*
G75*
G02*
X9975000Y-5075000I-50000J0D01*
G01*
X9975000Y-5075000D02*
G75*
G02*
X10075000Y-5075000I50000J0D01*
G01*
X11599000Y-4059000D02*
G75*
G02*
X11499000Y-4059000I-50000J0D01*
G01*
X11499000Y-4059000D02*
G75*
G02*
X11599000Y-4059000I50000J0D01*
G01*
X11599000Y-4313000D02*
G75*
G02*
X11499000Y-4313000I-50000J0D01*
G01*
X11499000Y-4313000D02*
G75*
G02*
X11599000Y-4313000I50000J0D01*
G01*
X11599000Y-4567000D02*
G75*
G02*
X11499000Y-4567000I-50000J0D01*
G01*
X11499000Y-4567000D02*
G75*
G02*
X11599000Y-4567000I50000J0D01*
G01*
X11599000Y-4821000D02*
G75*
G02*
X11499000Y-4821000I-50000J0D01*
G01*
X11499000Y-4821000D02*
G75*
G02*
X11599000Y-4821000I50000J0D01*
G01*
X11599000Y-5075000D02*
G75*
G02*
X11499000Y-5075000I-50000J0D01*
G01*
X11499000Y-5075000D02*
G75*
G02*
X11599000Y-5075000I50000J0D01*
G01*
D11*
X10058277Y-7101484D02*
X10058277Y-6901484D01*
X10058277Y-6901484D02*
X10105896Y-6901484D01*
X10105896Y-6901484D02*
X10134467Y-6911008D01*
X10134467Y-6911008D02*
X10153515Y-6930055D01*
X10153515Y-6930055D02*
X10163039Y-6949103D01*
X10163039Y-6949103D02*
X10172563Y-6987198D01*
X10172563Y-6987198D02*
X10172563Y-7015769D01*
X10172563Y-7015769D02*
X10163039Y-7053865D01*
X10163039Y-7053865D02*
X10153515Y-7072912D01*
X10153515Y-7072912D02*
X10134467Y-7091960D01*
X10134467Y-7091960D02*
X10105896Y-7101484D01*
X10105896Y-7101484D02*
X10058277Y-7101484D01*
X10258277Y-7101484D02*
X10258277Y-6968150D01*
X10258277Y-7006246D02*
X10267801Y-6987198D01*
X10267801Y-6987198D02*
X10277324Y-6977674D01*
X10277324Y-6977674D02*
X10296372Y-6968150D01*
X10296372Y-6968150D02*
X10315420Y-6968150D01*
X10382086Y-7101484D02*
X10382086Y-6968150D01*
X10382086Y-6901484D02*
X10372563Y-6911008D01*
X10372563Y-6911008D02*
X10382086Y-6920531D01*
X10382086Y-6920531D02*
X10391610Y-6911008D01*
X10391610Y-6911008D02*
X10382086Y-6901484D01*
X10382086Y-6901484D02*
X10382086Y-6920531D01*
X10505896Y-7101484D02*
X10486848Y-7091960D01*
X10486848Y-7091960D02*
X10477324Y-7072912D01*
X10477324Y-7072912D02*
X10477324Y-6901484D01*
X10610658Y-7101484D02*
X10591610Y-7091960D01*
X10591610Y-7091960D02*
X10582086Y-7072912D01*
X10582086Y-7072912D02*
X10582086Y-6901484D01*
X10839229Y-7101484D02*
X10839229Y-6901484D01*
X10839229Y-6901484D02*
X10905896Y-7044341D01*
X10905896Y-7044341D02*
X10972563Y-6901484D01*
X10972563Y-6901484D02*
X10972563Y-7101484D01*
X11153515Y-7101484D02*
X11153515Y-6996722D01*
X11153515Y-6996722D02*
X11143991Y-6977674D01*
X11143991Y-6977674D02*
X11124944Y-6968150D01*
X11124944Y-6968150D02*
X11086848Y-6968150D01*
X11086848Y-6968150D02*
X11067801Y-6977674D01*
X11153515Y-7091960D02*
X11134467Y-7101484D01*
X11134467Y-7101484D02*
X11086848Y-7101484D01*
X11086848Y-7101484D02*
X11067801Y-7091960D01*
X11067801Y-7091960D02*
X11058277Y-7072912D01*
X11058277Y-7072912D02*
X11058277Y-7053865D01*
X11058277Y-7053865D02*
X11067801Y-7034817D01*
X11067801Y-7034817D02*
X11086848Y-7025293D01*
X11086848Y-7025293D02*
X11134467Y-7025293D01*
X11134467Y-7025293D02*
X11153515Y-7015769D01*
X11248753Y-6968150D02*
X11248753Y-7168150D01*
X11248753Y-6977674D02*
X11267801Y-6968150D01*
X11267801Y-6968150D02*
X11305896Y-6968150D01*
X11305896Y-6968150D02*
X11324943Y-6977674D01*
X11324943Y-6977674D02*
X11334467Y-6987198D01*
X11334467Y-6987198D02*
X11343991Y-7006246D01*
X11343991Y-7006246D02*
X11343991Y-7063388D01*
X11343991Y-7063388D02*
X11334467Y-7082436D01*
X11334467Y-7082436D02*
X11324943Y-7091960D01*
X11324943Y-7091960D02*
X11305896Y-7101484D01*
X11305896Y-7101484D02*
X11267801Y-7101484D01*
X11267801Y-7101484D02*
X11248753Y-7091960D01*
X11429705Y-7082436D02*
X11439229Y-7091960D01*
X11439229Y-7091960D02*
X11429705Y-7101484D01*
X11429705Y-7101484D02*
X11420182Y-7091960D01*
X11420182Y-7091960D02*
X11429705Y-7082436D01*
X11429705Y-7082436D02*
X11429705Y-7101484D01*
X11429705Y-6977674D02*
X11439229Y-6987198D01*
X11439229Y-6987198D02*
X11429705Y-6996722D01*
X11429705Y-6996722D02*
X11420182Y-6987198D01*
X11420182Y-6987198D02*
X11429705Y-6977674D01*
X11429705Y-6977674D02*
X11429705Y-6996722D01*
D12*
X9767500Y-7415000D02*
X9797500Y-7445000D01*
X9797500Y-7415000D02*
X9767500Y-7445000D01*
D11*
X10096372Y-7321484D02*
X10115420Y-7321484D01*
X10115420Y-7321484D02*
X10134467Y-7331008D01*
X10134467Y-7331008D02*
X10143991Y-7340531D01*
X10143991Y-7340531D02*
X10153515Y-7359579D01*
X10153515Y-7359579D02*
X10163039Y-7397674D01*
X10163039Y-7397674D02*
X10163039Y-7445293D01*
X10163039Y-7445293D02*
X10153515Y-7483388D01*
X10153515Y-7483388D02*
X10143991Y-7502436D01*
X10143991Y-7502436D02*
X10134467Y-7511960D01*
X10134467Y-7511960D02*
X10115420Y-7521484D01*
X10115420Y-7521484D02*
X10096372Y-7521484D01*
X10096372Y-7521484D02*
X10077324Y-7511960D01*
X10077324Y-7511960D02*
X10067801Y-7502436D01*
X10067801Y-7502436D02*
X10058277Y-7483388D01*
X10058277Y-7483388D02*
X10048753Y-7445293D01*
X10048753Y-7445293D02*
X10048753Y-7397674D01*
X10048753Y-7397674D02*
X10058277Y-7359579D01*
X10058277Y-7359579D02*
X10067801Y-7340531D01*
X10067801Y-7340531D02*
X10077324Y-7331008D01*
X10077324Y-7331008D02*
X10096372Y-7321484D01*
X10248753Y-7502436D02*
X10258277Y-7511960D01*
X10258277Y-7511960D02*
X10248753Y-7521484D01*
X10248753Y-7521484D02*
X10239229Y-7511960D01*
X10239229Y-7511960D02*
X10248753Y-7502436D01*
X10248753Y-7502436D02*
X10248753Y-7521484D01*
X10324944Y-7321484D02*
X10448753Y-7321484D01*
X10448753Y-7321484D02*
X10382086Y-7397674D01*
X10382086Y-7397674D02*
X10410658Y-7397674D01*
X10410658Y-7397674D02*
X10429705Y-7407198D01*
X10429705Y-7407198D02*
X10439229Y-7416722D01*
X10439229Y-7416722D02*
X10448753Y-7435769D01*
X10448753Y-7435769D02*
X10448753Y-7483388D01*
X10448753Y-7483388D02*
X10439229Y-7502436D01*
X10439229Y-7502436D02*
X10429705Y-7511960D01*
X10429705Y-7511960D02*
X10410658Y-7521484D01*
X10410658Y-7521484D02*
X10353515Y-7521484D01*
X10353515Y-7521484D02*
X10334467Y-7511960D01*
X10334467Y-7511960D02*
X10324944Y-7502436D01*
X10572563Y-7321484D02*
X10591610Y-7321484D01*
X10591610Y-7321484D02*
X10610658Y-7331008D01*
X10610658Y-7331008D02*
X10620182Y-7340531D01*
X10620182Y-7340531D02*
X10629705Y-7359579D01*
X10629705Y-7359579D02*
X10639229Y-7397674D01*
X10639229Y-7397674D02*
X10639229Y-7445293D01*
X10639229Y-7445293D02*
X10629705Y-7483388D01*
X10629705Y-7483388D02*
X10620182Y-7502436D01*
X10620182Y-7502436D02*
X10610658Y-7511960D01*
X10610658Y-7511960D02*
X10591610Y-7521484D01*
X10591610Y-7521484D02*
X10572563Y-7521484D01*
X10572563Y-7521484D02*
X10553515Y-7511960D01*
X10553515Y-7511960D02*
X10543991Y-7502436D01*
X10543991Y-7502436D02*
X10534467Y-7483388D01*
X10534467Y-7483388D02*
X10524944Y-7445293D01*
X10524944Y-7445293D02*
X10524944Y-7397674D01*
X10524944Y-7397674D02*
X10534467Y-7359579D01*
X10534467Y-7359579D02*
X10543991Y-7340531D01*
X10543991Y-7340531D02*
X10553515Y-7331008D01*
X10553515Y-7331008D02*
X10572563Y-7321484D01*
X10763039Y-7321484D02*
X10782086Y-7321484D01*
X10782086Y-7321484D02*
X10801134Y-7331008D01*
X10801134Y-7331008D02*
X10810658Y-7340531D01*
X10810658Y-7340531D02*
X10820182Y-7359579D01*
X10820182Y-7359579D02*
X10829705Y-7397674D01*
X10829705Y-7397674D02*
X10829705Y-7445293D01*
X10829705Y-7445293D02*
X10820182Y-7483388D01*
X10820182Y-7483388D02*
X10810658Y-7502436D01*
X10810658Y-7502436D02*
X10801134Y-7511960D01*
X10801134Y-7511960D02*
X10782086Y-7521484D01*
X10782086Y-7521484D02*
X10763039Y-7521484D01*
X10763039Y-7521484D02*
X10743991Y-7511960D01*
X10743991Y-7511960D02*
X10734467Y-7502436D01*
X10734467Y-7502436D02*
X10724944Y-7483388D01*
X10724944Y-7483388D02*
X10715420Y-7445293D01*
X10715420Y-7445293D02*
X10715420Y-7397674D01*
X10715420Y-7397674D02*
X10724944Y-7359579D01*
X10724944Y-7359579D02*
X10734467Y-7340531D01*
X10734467Y-7340531D02*
X10743991Y-7331008D01*
X10743991Y-7331008D02*
X10763039Y-7321484D01*
X10915420Y-7521484D02*
X10915420Y-7388150D01*
X10915420Y-7407198D02*
X10924944Y-7397674D01*
X10924944Y-7397674D02*
X10943991Y-7388150D01*
X10943991Y-7388150D02*
X10972563Y-7388150D01*
X10972563Y-7388150D02*
X10991610Y-7397674D01*
X10991610Y-7397674D02*
X11001134Y-7416722D01*
X11001134Y-7416722D02*
X11001134Y-7521484D01*
X11001134Y-7416722D02*
X11010658Y-7397674D01*
X11010658Y-7397674D02*
X11029705Y-7388150D01*
X11029705Y-7388150D02*
X11058277Y-7388150D01*
X11058277Y-7388150D02*
X11077325Y-7397674D01*
X11077325Y-7397674D02*
X11086848Y-7416722D01*
X11086848Y-7416722D02*
X11086848Y-7521484D01*
X11182086Y-7521484D02*
X11182086Y-7388150D01*
X11182086Y-7407198D02*
X11191610Y-7397674D01*
X11191610Y-7397674D02*
X11210658Y-7388150D01*
X11210658Y-7388150D02*
X11239229Y-7388150D01*
X11239229Y-7388150D02*
X11258277Y-7397674D01*
X11258277Y-7397674D02*
X11267801Y-7416722D01*
X11267801Y-7416722D02*
X11267801Y-7521484D01*
X11267801Y-7416722D02*
X11277324Y-7397674D01*
X11277324Y-7397674D02*
X11296372Y-7388150D01*
X11296372Y-7388150D02*
X11324943Y-7388150D01*
X11324943Y-7388150D02*
X11343991Y-7397674D01*
X11343991Y-7397674D02*
X11353515Y-7416722D01*
X11353515Y-7416722D02*
X11353515Y-7521484D01*
X11743991Y-7311960D02*
X11572563Y-7569103D01*
X12001134Y-7321484D02*
X12020182Y-7321484D01*
X12020182Y-7321484D02*
X12039229Y-7331008D01*
X12039229Y-7331008D02*
X12048753Y-7340531D01*
X12048753Y-7340531D02*
X12058277Y-7359579D01*
X12058277Y-7359579D02*
X12067801Y-7397674D01*
X12067801Y-7397674D02*
X12067801Y-7445293D01*
X12067801Y-7445293D02*
X12058277Y-7483388D01*
X12058277Y-7483388D02*
X12048753Y-7502436D01*
X12048753Y-7502436D02*
X12039229Y-7511960D01*
X12039229Y-7511960D02*
X12020182Y-7521484D01*
X12020182Y-7521484D02*
X12001134Y-7521484D01*
X12001134Y-7521484D02*
X11982086Y-7511960D01*
X11982086Y-7511960D02*
X11972563Y-7502436D01*
X11972563Y-7502436D02*
X11963039Y-7483388D01*
X11963039Y-7483388D02*
X11953515Y-7445293D01*
X11953515Y-7445293D02*
X11953515Y-7397674D01*
X11953515Y-7397674D02*
X11963039Y-7359579D01*
X11963039Y-7359579D02*
X11972563Y-7340531D01*
X11972563Y-7340531D02*
X11982086Y-7331008D01*
X11982086Y-7331008D02*
X12001134Y-7321484D01*
X12153515Y-7502436D02*
X12163039Y-7511960D01*
X12163039Y-7511960D02*
X12153515Y-7521484D01*
X12153515Y-7521484D02*
X12143991Y-7511960D01*
X12143991Y-7511960D02*
X12153515Y-7502436D01*
X12153515Y-7502436D02*
X12153515Y-7521484D01*
X12286848Y-7321484D02*
X12305896Y-7321484D01*
X12305896Y-7321484D02*
X12324944Y-7331008D01*
X12324944Y-7331008D02*
X12334467Y-7340531D01*
X12334467Y-7340531D02*
X12343991Y-7359579D01*
X12343991Y-7359579D02*
X12353515Y-7397674D01*
X12353515Y-7397674D02*
X12353515Y-7445293D01*
X12353515Y-7445293D02*
X12343991Y-7483388D01*
X12343991Y-7483388D02*
X12334467Y-7502436D01*
X12334467Y-7502436D02*
X12324944Y-7511960D01*
X12324944Y-7511960D02*
X12305896Y-7521484D01*
X12305896Y-7521484D02*
X12286848Y-7521484D01*
X12286848Y-7521484D02*
X12267801Y-7511960D01*
X12267801Y-7511960D02*
X12258277Y-7502436D01*
X12258277Y-7502436D02*
X12248753Y-7483388D01*
X12248753Y-7483388D02*
X12239229Y-7445293D01*
X12239229Y-7445293D02*
X12239229Y-7397674D01*
X12239229Y-7397674D02*
X12248753Y-7359579D01*
X12248753Y-7359579D02*
X12258277Y-7340531D01*
X12258277Y-7340531D02*
X12267801Y-7331008D01*
X12267801Y-7331008D02*
X12286848Y-7321484D01*
X12543991Y-7521484D02*
X12429706Y-7521484D01*
X12486848Y-7521484D02*
X12486848Y-7321484D01*
X12486848Y-7321484D02*
X12467801Y-7350055D01*
X12467801Y-7350055D02*
X12448753Y-7369103D01*
X12448753Y-7369103D02*
X12429706Y-7378627D01*
X12734467Y-7521484D02*
X12620182Y-7521484D01*
X12677325Y-7521484D02*
X12677325Y-7321484D01*
X12677325Y-7321484D02*
X12658277Y-7350055D01*
X12658277Y-7350055D02*
X12639229Y-7369103D01*
X12639229Y-7369103D02*
X12620182Y-7378627D01*
X12848753Y-7407198D02*
X12829706Y-7397674D01*
X12829706Y-7397674D02*
X12820182Y-7388150D01*
X12820182Y-7388150D02*
X12810658Y-7369103D01*
X12810658Y-7369103D02*
X12810658Y-7359579D01*
X12810658Y-7359579D02*
X12820182Y-7340531D01*
X12820182Y-7340531D02*
X12829706Y-7331008D01*
X12829706Y-7331008D02*
X12848753Y-7321484D01*
X12848753Y-7321484D02*
X12886848Y-7321484D01*
X12886848Y-7321484D02*
X12905896Y-7331008D01*
X12905896Y-7331008D02*
X12915420Y-7340531D01*
X12915420Y-7340531D02*
X12924944Y-7359579D01*
X12924944Y-7359579D02*
X12924944Y-7369103D01*
X12924944Y-7369103D02*
X12915420Y-7388150D01*
X12915420Y-7388150D02*
X12905896Y-7397674D01*
X12905896Y-7397674D02*
X12886848Y-7407198D01*
X12886848Y-7407198D02*
X12848753Y-7407198D01*
X12848753Y-7407198D02*
X12829706Y-7416722D01*
X12829706Y-7416722D02*
X12820182Y-7426246D01*
X12820182Y-7426246D02*
X12810658Y-7445293D01*
X12810658Y-7445293D02*
X12810658Y-7483388D01*
X12810658Y-7483388D02*
X12820182Y-7502436D01*
X12820182Y-7502436D02*
X12829706Y-7511960D01*
X12829706Y-7511960D02*
X12848753Y-7521484D01*
X12848753Y-7521484D02*
X12886848Y-7521484D01*
X12886848Y-7521484D02*
X12905896Y-7511960D01*
X12905896Y-7511960D02*
X12915420Y-7502436D01*
X12915420Y-7502436D02*
X12924944Y-7483388D01*
X12924944Y-7483388D02*
X12924944Y-7445293D01*
X12924944Y-7445293D02*
X12915420Y-7426246D01*
X12915420Y-7426246D02*
X12905896Y-7416722D01*
X12905896Y-7416722D02*
X12886848Y-7407198D01*
X13001134Y-7321484D02*
X13001134Y-7359579D01*
X13077325Y-7321484D02*
X13077325Y-7359579D01*
X13372563Y-7597674D02*
X13363039Y-7588150D01*
X13363039Y-7588150D02*
X13343991Y-7559579D01*
X13343991Y-7559579D02*
X13334468Y-7540531D01*
X13334468Y-7540531D02*
X13324944Y-7511960D01*
X13324944Y-7511960D02*
X13315420Y-7464341D01*
X13315420Y-7464341D02*
X13315420Y-7426246D01*
X13315420Y-7426246D02*
X13324944Y-7378627D01*
X13324944Y-7378627D02*
X13334468Y-7350055D01*
X13334468Y-7350055D02*
X13343991Y-7331008D01*
X13343991Y-7331008D02*
X13363039Y-7302436D01*
X13363039Y-7302436D02*
X13372563Y-7292912D01*
X13553515Y-7521484D02*
X13439229Y-7521484D01*
X13496372Y-7521484D02*
X13496372Y-7321484D01*
X13496372Y-7321484D02*
X13477325Y-7350055D01*
X13477325Y-7350055D02*
X13458277Y-7369103D01*
X13458277Y-7369103D02*
X13439229Y-7378627D01*
X13734468Y-7321484D02*
X13639229Y-7321484D01*
X13639229Y-7321484D02*
X13629706Y-7416722D01*
X13629706Y-7416722D02*
X13639229Y-7407198D01*
X13639229Y-7407198D02*
X13658277Y-7397674D01*
X13658277Y-7397674D02*
X13705896Y-7397674D01*
X13705896Y-7397674D02*
X13724944Y-7407198D01*
X13724944Y-7407198D02*
X13734468Y-7416722D01*
X13734468Y-7416722D02*
X13743991Y-7435769D01*
X13743991Y-7435769D02*
X13743991Y-7483388D01*
X13743991Y-7483388D02*
X13734468Y-7502436D01*
X13734468Y-7502436D02*
X13724944Y-7511960D01*
X13724944Y-7511960D02*
X13705896Y-7521484D01*
X13705896Y-7521484D02*
X13658277Y-7521484D01*
X13658277Y-7521484D02*
X13639229Y-7511960D01*
X13639229Y-7511960D02*
X13629706Y-7502436D01*
X13982087Y-7521484D02*
X13982087Y-7321484D01*
X14067801Y-7521484D02*
X14067801Y-7416722D01*
X14067801Y-7416722D02*
X14058277Y-7397674D01*
X14058277Y-7397674D02*
X14039230Y-7388150D01*
X14039230Y-7388150D02*
X14010658Y-7388150D01*
X14010658Y-7388150D02*
X13991610Y-7397674D01*
X13991610Y-7397674D02*
X13982087Y-7407198D01*
X14191610Y-7521484D02*
X14172563Y-7511960D01*
X14172563Y-7511960D02*
X14163039Y-7502436D01*
X14163039Y-7502436D02*
X14153515Y-7483388D01*
X14153515Y-7483388D02*
X14153515Y-7426246D01*
X14153515Y-7426246D02*
X14163039Y-7407198D01*
X14163039Y-7407198D02*
X14172563Y-7397674D01*
X14172563Y-7397674D02*
X14191610Y-7388150D01*
X14191610Y-7388150D02*
X14220182Y-7388150D01*
X14220182Y-7388150D02*
X14239230Y-7397674D01*
X14239230Y-7397674D02*
X14248753Y-7407198D01*
X14248753Y-7407198D02*
X14258277Y-7426246D01*
X14258277Y-7426246D02*
X14258277Y-7483388D01*
X14258277Y-7483388D02*
X14248753Y-7502436D01*
X14248753Y-7502436D02*
X14239230Y-7511960D01*
X14239230Y-7511960D02*
X14220182Y-7521484D01*
X14220182Y-7521484D02*
X14191610Y-7521484D01*
X14372563Y-7521484D02*
X14353515Y-7511960D01*
X14353515Y-7511960D02*
X14343991Y-7492912D01*
X14343991Y-7492912D02*
X14343991Y-7321484D01*
X14524944Y-7511960D02*
X14505896Y-7521484D01*
X14505896Y-7521484D02*
X14467801Y-7521484D01*
X14467801Y-7521484D02*
X14448753Y-7511960D01*
X14448753Y-7511960D02*
X14439230Y-7492912D01*
X14439230Y-7492912D02*
X14439230Y-7416722D01*
X14439230Y-7416722D02*
X14448753Y-7397674D01*
X14448753Y-7397674D02*
X14467801Y-7388150D01*
X14467801Y-7388150D02*
X14505896Y-7388150D01*
X14505896Y-7388150D02*
X14524944Y-7397674D01*
X14524944Y-7397674D02*
X14534468Y-7416722D01*
X14534468Y-7416722D02*
X14534468Y-7435769D01*
X14534468Y-7435769D02*
X14439230Y-7454817D01*
X14610658Y-7511960D02*
X14629706Y-7521484D01*
X14629706Y-7521484D02*
X14667801Y-7521484D01*
X14667801Y-7521484D02*
X14686849Y-7511960D01*
X14686849Y-7511960D02*
X14696372Y-7492912D01*
X14696372Y-7492912D02*
X14696372Y-7483388D01*
X14696372Y-7483388D02*
X14686849Y-7464341D01*
X14686849Y-7464341D02*
X14667801Y-7454817D01*
X14667801Y-7454817D02*
X14639230Y-7454817D01*
X14639230Y-7454817D02*
X14620182Y-7445293D01*
X14620182Y-7445293D02*
X14610658Y-7426246D01*
X14610658Y-7426246D02*
X14610658Y-7416722D01*
X14610658Y-7416722D02*
X14620182Y-7397674D01*
X14620182Y-7397674D02*
X14639230Y-7388150D01*
X14639230Y-7388150D02*
X14667801Y-7388150D01*
X14667801Y-7388150D02*
X14686849Y-7397674D01*
X14763039Y-7597674D02*
X14772563Y-7588150D01*
X14772563Y-7588150D02*
X14791611Y-7559579D01*
X14791611Y-7559579D02*
X14801134Y-7540531D01*
X14801134Y-7540531D02*
X14810658Y-7511960D01*
X14810658Y-7511960D02*
X14820182Y-7464341D01*
X14820182Y-7464341D02*
X14820182Y-7426246D01*
X14820182Y-7426246D02*
X14810658Y-7378627D01*
X14810658Y-7378627D02*
X14801134Y-7350055D01*
X14801134Y-7350055D02*
X14791611Y-7331008D01*
X14791611Y-7331008D02*
X14772563Y-7302436D01*
X14772563Y-7302436D02*
X14763039Y-7292912D01*
D12*
X9797500Y-7694000D02*
G75*
G02*
X9697500Y-7694000I-50000J0D01*
G01*
X9697500Y-7694000D02*
G75*
G02*
X9797500Y-7694000I50000J0D01*
G01*
D11*
X10163039Y-7785484D02*
X10048753Y-7785484D01*
X10105896Y-7785484D02*
X10105896Y-7585484D01*
X10105896Y-7585484D02*
X10086848Y-7614055D01*
X10086848Y-7614055D02*
X10067801Y-7633103D01*
X10067801Y-7633103D02*
X10048753Y-7642627D01*
X10248753Y-7766436D02*
X10258277Y-7775960D01*
X10258277Y-7775960D02*
X10248753Y-7785484D01*
X10248753Y-7785484D02*
X10239229Y-7775960D01*
X10239229Y-7775960D02*
X10248753Y-7766436D01*
X10248753Y-7766436D02*
X10248753Y-7785484D01*
X10382086Y-7585484D02*
X10401134Y-7585484D01*
X10401134Y-7585484D02*
X10420182Y-7595008D01*
X10420182Y-7595008D02*
X10429705Y-7604531D01*
X10429705Y-7604531D02*
X10439229Y-7623579D01*
X10439229Y-7623579D02*
X10448753Y-7661674D01*
X10448753Y-7661674D02*
X10448753Y-7709293D01*
X10448753Y-7709293D02*
X10439229Y-7747388D01*
X10439229Y-7747388D02*
X10429705Y-7766436D01*
X10429705Y-7766436D02*
X10420182Y-7775960D01*
X10420182Y-7775960D02*
X10401134Y-7785484D01*
X10401134Y-7785484D02*
X10382086Y-7785484D01*
X10382086Y-7785484D02*
X10363039Y-7775960D01*
X10363039Y-7775960D02*
X10353515Y-7766436D01*
X10353515Y-7766436D02*
X10343991Y-7747388D01*
X10343991Y-7747388D02*
X10334467Y-7709293D01*
X10334467Y-7709293D02*
X10334467Y-7661674D01*
X10334467Y-7661674D02*
X10343991Y-7623579D01*
X10343991Y-7623579D02*
X10353515Y-7604531D01*
X10353515Y-7604531D02*
X10363039Y-7595008D01*
X10363039Y-7595008D02*
X10382086Y-7585484D01*
X10572563Y-7585484D02*
X10591610Y-7585484D01*
X10591610Y-7585484D02*
X10610658Y-7595008D01*
X10610658Y-7595008D02*
X10620182Y-7604531D01*
X10620182Y-7604531D02*
X10629705Y-7623579D01*
X10629705Y-7623579D02*
X10639229Y-7661674D01*
X10639229Y-7661674D02*
X10639229Y-7709293D01*
X10639229Y-7709293D02*
X10629705Y-7747388D01*
X10629705Y-7747388D02*
X10620182Y-7766436D01*
X10620182Y-7766436D02*
X10610658Y-7775960D01*
X10610658Y-7775960D02*
X10591610Y-7785484D01*
X10591610Y-7785484D02*
X10572563Y-7785484D01*
X10572563Y-7785484D02*
X10553515Y-7775960D01*
X10553515Y-7775960D02*
X10543991Y-7766436D01*
X10543991Y-7766436D02*
X10534467Y-7747388D01*
X10534467Y-7747388D02*
X10524944Y-7709293D01*
X10524944Y-7709293D02*
X10524944Y-7661674D01*
X10524944Y-7661674D02*
X10534467Y-7623579D01*
X10534467Y-7623579D02*
X10543991Y-7604531D01*
X10543991Y-7604531D02*
X10553515Y-7595008D01*
X10553515Y-7595008D02*
X10572563Y-7585484D01*
X10763039Y-7585484D02*
X10782086Y-7585484D01*
X10782086Y-7585484D02*
X10801134Y-7595008D01*
X10801134Y-7595008D02*
X10810658Y-7604531D01*
X10810658Y-7604531D02*
X10820182Y-7623579D01*
X10820182Y-7623579D02*
X10829705Y-7661674D01*
X10829705Y-7661674D02*
X10829705Y-7709293D01*
X10829705Y-7709293D02*
X10820182Y-7747388D01*
X10820182Y-7747388D02*
X10810658Y-7766436D01*
X10810658Y-7766436D02*
X10801134Y-7775960D01*
X10801134Y-7775960D02*
X10782086Y-7785484D01*
X10782086Y-7785484D02*
X10763039Y-7785484D01*
X10763039Y-7785484D02*
X10743991Y-7775960D01*
X10743991Y-7775960D02*
X10734467Y-7766436D01*
X10734467Y-7766436D02*
X10724944Y-7747388D01*
X10724944Y-7747388D02*
X10715420Y-7709293D01*
X10715420Y-7709293D02*
X10715420Y-7661674D01*
X10715420Y-7661674D02*
X10724944Y-7623579D01*
X10724944Y-7623579D02*
X10734467Y-7604531D01*
X10734467Y-7604531D02*
X10743991Y-7595008D01*
X10743991Y-7595008D02*
X10763039Y-7585484D01*
X10915420Y-7785484D02*
X10915420Y-7652150D01*
X10915420Y-7671198D02*
X10924944Y-7661674D01*
X10924944Y-7661674D02*
X10943991Y-7652150D01*
X10943991Y-7652150D02*
X10972563Y-7652150D01*
X10972563Y-7652150D02*
X10991610Y-7661674D01*
X10991610Y-7661674D02*
X11001134Y-7680722D01*
X11001134Y-7680722D02*
X11001134Y-7785484D01*
X11001134Y-7680722D02*
X11010658Y-7661674D01*
X11010658Y-7661674D02*
X11029705Y-7652150D01*
X11029705Y-7652150D02*
X11058277Y-7652150D01*
X11058277Y-7652150D02*
X11077325Y-7661674D01*
X11077325Y-7661674D02*
X11086848Y-7680722D01*
X11086848Y-7680722D02*
X11086848Y-7785484D01*
X11182086Y-7785484D02*
X11182086Y-7652150D01*
X11182086Y-7671198D02*
X11191610Y-7661674D01*
X11191610Y-7661674D02*
X11210658Y-7652150D01*
X11210658Y-7652150D02*
X11239229Y-7652150D01*
X11239229Y-7652150D02*
X11258277Y-7661674D01*
X11258277Y-7661674D02*
X11267801Y-7680722D01*
X11267801Y-7680722D02*
X11267801Y-7785484D01*
X11267801Y-7680722D02*
X11277324Y-7661674D01*
X11277324Y-7661674D02*
X11296372Y-7652150D01*
X11296372Y-7652150D02*
X11324943Y-7652150D01*
X11324943Y-7652150D02*
X11343991Y-7661674D01*
X11343991Y-7661674D02*
X11353515Y-7680722D01*
X11353515Y-7680722D02*
X11353515Y-7785484D01*
X11743991Y-7575960D02*
X11572563Y-7833103D01*
X12001134Y-7585484D02*
X12020182Y-7585484D01*
X12020182Y-7585484D02*
X12039229Y-7595008D01*
X12039229Y-7595008D02*
X12048753Y-7604531D01*
X12048753Y-7604531D02*
X12058277Y-7623579D01*
X12058277Y-7623579D02*
X12067801Y-7661674D01*
X12067801Y-7661674D02*
X12067801Y-7709293D01*
X12067801Y-7709293D02*
X12058277Y-7747388D01*
X12058277Y-7747388D02*
X12048753Y-7766436D01*
X12048753Y-7766436D02*
X12039229Y-7775960D01*
X12039229Y-7775960D02*
X12020182Y-7785484D01*
X12020182Y-7785484D02*
X12001134Y-7785484D01*
X12001134Y-7785484D02*
X11982086Y-7775960D01*
X11982086Y-7775960D02*
X11972563Y-7766436D01*
X11972563Y-7766436D02*
X11963039Y-7747388D01*
X11963039Y-7747388D02*
X11953515Y-7709293D01*
X11953515Y-7709293D02*
X11953515Y-7661674D01*
X11953515Y-7661674D02*
X11963039Y-7623579D01*
X11963039Y-7623579D02*
X11972563Y-7604531D01*
X11972563Y-7604531D02*
X11982086Y-7595008D01*
X11982086Y-7595008D02*
X12001134Y-7585484D01*
X12153515Y-7766436D02*
X12163039Y-7775960D01*
X12163039Y-7775960D02*
X12153515Y-7785484D01*
X12153515Y-7785484D02*
X12143991Y-7775960D01*
X12143991Y-7775960D02*
X12153515Y-7766436D01*
X12153515Y-7766436D02*
X12153515Y-7785484D01*
X12286848Y-7585484D02*
X12305896Y-7585484D01*
X12305896Y-7585484D02*
X12324944Y-7595008D01*
X12324944Y-7595008D02*
X12334467Y-7604531D01*
X12334467Y-7604531D02*
X12343991Y-7623579D01*
X12343991Y-7623579D02*
X12353515Y-7661674D01*
X12353515Y-7661674D02*
X12353515Y-7709293D01*
X12353515Y-7709293D02*
X12343991Y-7747388D01*
X12343991Y-7747388D02*
X12334467Y-7766436D01*
X12334467Y-7766436D02*
X12324944Y-7775960D01*
X12324944Y-7775960D02*
X12305896Y-7785484D01*
X12305896Y-7785484D02*
X12286848Y-7785484D01*
X12286848Y-7785484D02*
X12267801Y-7775960D01*
X12267801Y-7775960D02*
X12258277Y-7766436D01*
X12258277Y-7766436D02*
X12248753Y-7747388D01*
X12248753Y-7747388D02*
X12239229Y-7709293D01*
X12239229Y-7709293D02*
X12239229Y-7661674D01*
X12239229Y-7661674D02*
X12248753Y-7623579D01*
X12248753Y-7623579D02*
X12258277Y-7604531D01*
X12258277Y-7604531D02*
X12267801Y-7595008D01*
X12267801Y-7595008D02*
X12286848Y-7585484D01*
X12420182Y-7585484D02*
X12543991Y-7585484D01*
X12543991Y-7585484D02*
X12477325Y-7661674D01*
X12477325Y-7661674D02*
X12505896Y-7661674D01*
X12505896Y-7661674D02*
X12524944Y-7671198D01*
X12524944Y-7671198D02*
X12534467Y-7680722D01*
X12534467Y-7680722D02*
X12543991Y-7699769D01*
X12543991Y-7699769D02*
X12543991Y-7747388D01*
X12543991Y-7747388D02*
X12534467Y-7766436D01*
X12534467Y-7766436D02*
X12524944Y-7775960D01*
X12524944Y-7775960D02*
X12505896Y-7785484D01*
X12505896Y-7785484D02*
X12448753Y-7785484D01*
X12448753Y-7785484D02*
X12429706Y-7775960D01*
X12429706Y-7775960D02*
X12420182Y-7766436D01*
X12639229Y-7785484D02*
X12677325Y-7785484D01*
X12677325Y-7785484D02*
X12696372Y-7775960D01*
X12696372Y-7775960D02*
X12705896Y-7766436D01*
X12705896Y-7766436D02*
X12724944Y-7737865D01*
X12724944Y-7737865D02*
X12734467Y-7699769D01*
X12734467Y-7699769D02*
X12734467Y-7623579D01*
X12734467Y-7623579D02*
X12724944Y-7604531D01*
X12724944Y-7604531D02*
X12715420Y-7595008D01*
X12715420Y-7595008D02*
X12696372Y-7585484D01*
X12696372Y-7585484D02*
X12658277Y-7585484D01*
X12658277Y-7585484D02*
X12639229Y-7595008D01*
X12639229Y-7595008D02*
X12629706Y-7604531D01*
X12629706Y-7604531D02*
X12620182Y-7623579D01*
X12620182Y-7623579D02*
X12620182Y-7671198D01*
X12620182Y-7671198D02*
X12629706Y-7690246D01*
X12629706Y-7690246D02*
X12639229Y-7699769D01*
X12639229Y-7699769D02*
X12658277Y-7709293D01*
X12658277Y-7709293D02*
X12696372Y-7709293D01*
X12696372Y-7709293D02*
X12715420Y-7699769D01*
X12715420Y-7699769D02*
X12724944Y-7690246D01*
X12724944Y-7690246D02*
X12734467Y-7671198D01*
X12905896Y-7652150D02*
X12905896Y-7785484D01*
X12858277Y-7575960D02*
X12810658Y-7718817D01*
X12810658Y-7718817D02*
X12934467Y-7718817D01*
X13001134Y-7585484D02*
X13001134Y-7623579D01*
X13077325Y-7585484D02*
X13077325Y-7623579D01*
X13372563Y-7861674D02*
X13363039Y-7852150D01*
X13363039Y-7852150D02*
X13343991Y-7823579D01*
X13343991Y-7823579D02*
X13334468Y-7804531D01*
X13334468Y-7804531D02*
X13324944Y-7775960D01*
X13324944Y-7775960D02*
X13315420Y-7728341D01*
X13315420Y-7728341D02*
X13315420Y-7690246D01*
X13315420Y-7690246D02*
X13324944Y-7642627D01*
X13324944Y-7642627D02*
X13334468Y-7614055D01*
X13334468Y-7614055D02*
X13343991Y-7595008D01*
X13343991Y-7595008D02*
X13363039Y-7566436D01*
X13363039Y-7566436D02*
X13372563Y-7556912D01*
X13553515Y-7785484D02*
X13439229Y-7785484D01*
X13496372Y-7785484D02*
X13496372Y-7585484D01*
X13496372Y-7585484D02*
X13477325Y-7614055D01*
X13477325Y-7614055D02*
X13458277Y-7633103D01*
X13458277Y-7633103D02*
X13439229Y-7642627D01*
X13677325Y-7585484D02*
X13696372Y-7585484D01*
X13696372Y-7585484D02*
X13715420Y-7595008D01*
X13715420Y-7595008D02*
X13724944Y-7604531D01*
X13724944Y-7604531D02*
X13734468Y-7623579D01*
X13734468Y-7623579D02*
X13743991Y-7661674D01*
X13743991Y-7661674D02*
X13743991Y-7709293D01*
X13743991Y-7709293D02*
X13734468Y-7747388D01*
X13734468Y-7747388D02*
X13724944Y-7766436D01*
X13724944Y-7766436D02*
X13715420Y-7775960D01*
X13715420Y-7775960D02*
X13696372Y-7785484D01*
X13696372Y-7785484D02*
X13677325Y-7785484D01*
X13677325Y-7785484D02*
X13658277Y-7775960D01*
X13658277Y-7775960D02*
X13648753Y-7766436D01*
X13648753Y-7766436D02*
X13639229Y-7747388D01*
X13639229Y-7747388D02*
X13629706Y-7709293D01*
X13629706Y-7709293D02*
X13629706Y-7661674D01*
X13629706Y-7661674D02*
X13639229Y-7623579D01*
X13639229Y-7623579D02*
X13648753Y-7604531D01*
X13648753Y-7604531D02*
X13658277Y-7595008D01*
X13658277Y-7595008D02*
X13677325Y-7585484D01*
X13982087Y-7785484D02*
X13982087Y-7585484D01*
X14067801Y-7785484D02*
X14067801Y-7680722D01*
X14067801Y-7680722D02*
X14058277Y-7661674D01*
X14058277Y-7661674D02*
X14039230Y-7652150D01*
X14039230Y-7652150D02*
X14010658Y-7652150D01*
X14010658Y-7652150D02*
X13991610Y-7661674D01*
X13991610Y-7661674D02*
X13982087Y-7671198D01*
X14191610Y-7785484D02*
X14172563Y-7775960D01*
X14172563Y-7775960D02*
X14163039Y-7766436D01*
X14163039Y-7766436D02*
X14153515Y-7747388D01*
X14153515Y-7747388D02*
X14153515Y-7690246D01*
X14153515Y-7690246D02*
X14163039Y-7671198D01*
X14163039Y-7671198D02*
X14172563Y-7661674D01*
X14172563Y-7661674D02*
X14191610Y-7652150D01*
X14191610Y-7652150D02*
X14220182Y-7652150D01*
X14220182Y-7652150D02*
X14239230Y-7661674D01*
X14239230Y-7661674D02*
X14248753Y-7671198D01*
X14248753Y-7671198D02*
X14258277Y-7690246D01*
X14258277Y-7690246D02*
X14258277Y-7747388D01*
X14258277Y-7747388D02*
X14248753Y-7766436D01*
X14248753Y-7766436D02*
X14239230Y-7775960D01*
X14239230Y-7775960D02*
X14220182Y-7785484D01*
X14220182Y-7785484D02*
X14191610Y-7785484D01*
X14372563Y-7785484D02*
X14353515Y-7775960D01*
X14353515Y-7775960D02*
X14343991Y-7756912D01*
X14343991Y-7756912D02*
X14343991Y-7585484D01*
X14524944Y-7775960D02*
X14505896Y-7785484D01*
X14505896Y-7785484D02*
X14467801Y-7785484D01*
X14467801Y-7785484D02*
X14448753Y-7775960D01*
X14448753Y-7775960D02*
X14439230Y-7756912D01*
X14439230Y-7756912D02*
X14439230Y-7680722D01*
X14439230Y-7680722D02*
X14448753Y-7661674D01*
X14448753Y-7661674D02*
X14467801Y-7652150D01*
X14467801Y-7652150D02*
X14505896Y-7652150D01*
X14505896Y-7652150D02*
X14524944Y-7661674D01*
X14524944Y-7661674D02*
X14534468Y-7680722D01*
X14534468Y-7680722D02*
X14534468Y-7699769D01*
X14534468Y-7699769D02*
X14439230Y-7718817D01*
X14610658Y-7775960D02*
X14629706Y-7785484D01*
X14629706Y-7785484D02*
X14667801Y-7785484D01*
X14667801Y-7785484D02*
X14686849Y-7775960D01*
X14686849Y-7775960D02*
X14696372Y-7756912D01*
X14696372Y-7756912D02*
X14696372Y-7747388D01*
X14696372Y-7747388D02*
X14686849Y-7728341D01*
X14686849Y-7728341D02*
X14667801Y-7718817D01*
X14667801Y-7718817D02*
X14639230Y-7718817D01*
X14639230Y-7718817D02*
X14620182Y-7709293D01*
X14620182Y-7709293D02*
X14610658Y-7690246D01*
X14610658Y-7690246D02*
X14610658Y-7680722D01*
X14610658Y-7680722D02*
X14620182Y-7661674D01*
X14620182Y-7661674D02*
X14639230Y-7652150D01*
X14639230Y-7652150D02*
X14667801Y-7652150D01*
X14667801Y-7652150D02*
X14686849Y-7661674D01*
X14763039Y-7861674D02*
X14772563Y-7852150D01*
X14772563Y-7852150D02*
X14791611Y-7823579D01*
X14791611Y-7823579D02*
X14801134Y-7804531D01*
X14801134Y-7804531D02*
X14810658Y-7775960D01*
X14810658Y-7775960D02*
X14820182Y-7728341D01*
X14820182Y-7728341D02*
X14820182Y-7690246D01*
X14820182Y-7690246D02*
X14810658Y-7642627D01*
X14810658Y-7642627D02*
X14801134Y-7614055D01*
X14801134Y-7614055D02*
X14791611Y-7595008D01*
X14791611Y-7595008D02*
X14772563Y-7566436D01*
X14772563Y-7566436D02*
X14763039Y-7556912D01*
M02*
