G04 #@! TF.GenerationSoftware,KiCad,Pcbnew,8.0.5*
G04 #@! TF.CreationDate,2024-12-02T19:57:29-05:00*
G04 #@! TF.ProjectId,usb_to_uart_ft232rl,7573625f-746f-45f7-9561-72745f667432,rev?*
G04 #@! TF.SameCoordinates,Original*
G04 #@! TF.FileFunction,Copper,L2,Inr*
G04 #@! TF.FilePolarity,Positive*
%FSLAX46Y46*%
G04 Gerber Fmt 4.6, Leading zero omitted, Abs format (unit mm)*
G04 Created by KiCad (PCBNEW 8.0.5) date 2024-12-02 19:57:29*
%MOMM*%
%LPD*%
G01*
G04 APERTURE LIST*
G04 #@! TA.AperFunction,ComponentPad*
%ADD10O,1.150000X1.800000*%
G04 #@! TD*
G04 #@! TA.AperFunction,ComponentPad*
%ADD11O,1.450000X2.000000*%
G04 #@! TD*
G04 #@! TA.AperFunction,ComponentPad*
%ADD12R,1.700000X1.700000*%
G04 #@! TD*
G04 #@! TA.AperFunction,ComponentPad*
%ADD13O,1.700000X1.700000*%
G04 #@! TD*
G04 #@! TA.AperFunction,ViaPad*
%ADD14C,0.600000*%
G04 #@! TD*
G04 APERTURE END LIST*
D10*
X99500000Y-66750000D03*
D11*
X99650000Y-62950000D03*
X107100000Y-62950000D03*
D10*
X107250000Y-66750000D03*
D12*
X100250000Y-40590000D03*
D13*
X100250000Y-43130000D03*
X100250000Y-45670000D03*
X100250000Y-48210000D03*
X100250000Y-50750000D03*
D12*
X115490000Y-40590000D03*
D13*
X115490000Y-43130000D03*
X115490000Y-45670000D03*
X115490000Y-48210000D03*
X115490000Y-50750000D03*
D14*
X117000000Y-59500000D03*
X108750000Y-51750000D03*
X116000000Y-55000000D03*
X106500000Y-61250000D03*
X102500000Y-54250000D03*
X109000000Y-52500000D03*
X102500000Y-52250000D03*
X108250000Y-61250000D03*
X116000000Y-58000000D03*
X100000000Y-54750000D03*
X116250000Y-60750000D03*
X109258848Y-53650000D03*
X113750000Y-60750000D03*
X108500000Y-55000000D03*
X108750000Y-63250000D03*
X106166635Y-58166635D03*
G04 #@! TA.AperFunction,Conductor*
G36*
X117442539Y-37895185D02*
G01*
X117488294Y-37947989D01*
X117499500Y-37999500D01*
X117499500Y-69000500D01*
X117479815Y-69067539D01*
X117427011Y-69113294D01*
X117375500Y-69124500D01*
X98624500Y-69124500D01*
X98557461Y-69104815D01*
X98511706Y-69052011D01*
X98500500Y-69000500D01*
X98500500Y-67895849D01*
X98520185Y-67828810D01*
X98572989Y-67783055D01*
X98642147Y-67773111D01*
X98705703Y-67802136D01*
X98712181Y-67808168D01*
X98799360Y-67895347D01*
X98799365Y-67895351D01*
X98918817Y-67982137D01*
X98936315Y-67994850D01*
X99032425Y-68043820D01*
X99087146Y-68071703D01*
X99087148Y-68071703D01*
X99087151Y-68071705D01*
X99173450Y-68099745D01*
X99248152Y-68124018D01*
X99415351Y-68150500D01*
X99415356Y-68150500D01*
X99584649Y-68150500D01*
X99751847Y-68124018D01*
X99912849Y-68071705D01*
X100063685Y-67994850D01*
X100200641Y-67895346D01*
X100320346Y-67775641D01*
X100419850Y-67638685D01*
X100496705Y-67487849D01*
X100549018Y-67326847D01*
X100575500Y-67159649D01*
X100575500Y-66340350D01*
X106174500Y-66340350D01*
X106174500Y-67159649D01*
X106200981Y-67326847D01*
X106253296Y-67487853D01*
X106330152Y-67638688D01*
X106429648Y-67775634D01*
X106429652Y-67775639D01*
X106549360Y-67895347D01*
X106549365Y-67895351D01*
X106668817Y-67982137D01*
X106686315Y-67994850D01*
X106782425Y-68043820D01*
X106837146Y-68071703D01*
X106837148Y-68071703D01*
X106837151Y-68071705D01*
X106923450Y-68099745D01*
X106998152Y-68124018D01*
X107165351Y-68150500D01*
X107165356Y-68150500D01*
X107334649Y-68150500D01*
X107501847Y-68124018D01*
X107662849Y-68071705D01*
X107813685Y-67994850D01*
X107950641Y-67895346D01*
X108070346Y-67775641D01*
X108169850Y-67638685D01*
X108246705Y-67487849D01*
X108299018Y-67326847D01*
X108325500Y-67159649D01*
X108325500Y-66340350D01*
X108299018Y-66173152D01*
X108246703Y-66012146D01*
X108218820Y-65957425D01*
X108169850Y-65861315D01*
X108157137Y-65843817D01*
X108070351Y-65724365D01*
X108070347Y-65724360D01*
X107950639Y-65604652D01*
X107950634Y-65604648D01*
X107813688Y-65505152D01*
X107813687Y-65505151D01*
X107813685Y-65505150D01*
X107766582Y-65481150D01*
X107662853Y-65428296D01*
X107501847Y-65375981D01*
X107334649Y-65349500D01*
X107334644Y-65349500D01*
X107165356Y-65349500D01*
X107165351Y-65349500D01*
X106998152Y-65375981D01*
X106837146Y-65428296D01*
X106686311Y-65505152D01*
X106549365Y-65604648D01*
X106549360Y-65604652D01*
X106429652Y-65724360D01*
X106429648Y-65724365D01*
X106330152Y-65861311D01*
X106253296Y-66012146D01*
X106200981Y-66173152D01*
X106174500Y-66340350D01*
X100575500Y-66340350D01*
X100549018Y-66173152D01*
X100496703Y-66012146D01*
X100468820Y-65957425D01*
X100419850Y-65861315D01*
X100407137Y-65843817D01*
X100320351Y-65724365D01*
X100320347Y-65724360D01*
X100200639Y-65604652D01*
X100200634Y-65604648D01*
X100063688Y-65505152D01*
X100063687Y-65505151D01*
X100063685Y-65505150D01*
X100016582Y-65481150D01*
X99912853Y-65428296D01*
X99751847Y-65375981D01*
X99584649Y-65349500D01*
X99584644Y-65349500D01*
X99415356Y-65349500D01*
X99415351Y-65349500D01*
X99248152Y-65375981D01*
X99087146Y-65428296D01*
X98936311Y-65505152D01*
X98799365Y-65604648D01*
X98799360Y-65604652D01*
X98712181Y-65691832D01*
X98650858Y-65725317D01*
X98581166Y-65720333D01*
X98525233Y-65678461D01*
X98500816Y-65612997D01*
X98500500Y-65604151D01*
X98500500Y-64107980D01*
X98520185Y-64040941D01*
X98572989Y-63995186D01*
X98642147Y-63985242D01*
X98705703Y-64014267D01*
X98712181Y-64020299D01*
X98715241Y-64023359D01*
X98851641Y-64159759D01*
X99007698Y-64273141D01*
X99179571Y-64360715D01*
X99363028Y-64420324D01*
X99553551Y-64450500D01*
X99553552Y-64450500D01*
X99746448Y-64450500D01*
X99746449Y-64450500D01*
X99936972Y-64420324D01*
X99960109Y-64412805D01*
X100029947Y-64410807D01*
X100089781Y-64446885D01*
X100105816Y-64468735D01*
X100142465Y-64532214D01*
X100269129Y-64672888D01*
X100422265Y-64784148D01*
X100422270Y-64784151D01*
X100595192Y-64861142D01*
X100595197Y-64861144D01*
X100780354Y-64900500D01*
X100780355Y-64900500D01*
X100969644Y-64900500D01*
X100969646Y-64900500D01*
X101154803Y-64861144D01*
X101327730Y-64784151D01*
X101480871Y-64672888D01*
X101607533Y-64532216D01*
X101702179Y-64368284D01*
X101760674Y-64188256D01*
X101780460Y-64000000D01*
X104969540Y-64000000D01*
X104989326Y-64188256D01*
X104989327Y-64188259D01*
X105047818Y-64368277D01*
X105047821Y-64368284D01*
X105142467Y-64532216D01*
X105269129Y-64672888D01*
X105422265Y-64784148D01*
X105422270Y-64784151D01*
X105595192Y-64861142D01*
X105595197Y-64861144D01*
X105780354Y-64900500D01*
X105780355Y-64900500D01*
X105969644Y-64900500D01*
X105969646Y-64900500D01*
X106154803Y-64861144D01*
X106327730Y-64784151D01*
X106480871Y-64672888D01*
X106607533Y-64532216D01*
X106644183Y-64468734D01*
X106694749Y-64420520D01*
X106763355Y-64407296D01*
X106789879Y-64412802D01*
X106813028Y-64420324D01*
X106813031Y-64420324D01*
X106813033Y-64420325D01*
X106921209Y-64437458D01*
X107003551Y-64450500D01*
X107003552Y-64450500D01*
X107196448Y-64450500D01*
X107196449Y-64450500D01*
X107386972Y-64420324D01*
X107570429Y-64360715D01*
X107742302Y-64273141D01*
X107898359Y-64159759D01*
X108034759Y-64023359D01*
X108104979Y-63926708D01*
X108160307Y-63884044D01*
X108229921Y-63878065D01*
X108271268Y-63894601D01*
X108400478Y-63975789D01*
X108510442Y-64014267D01*
X108570745Y-64035368D01*
X108570750Y-64035369D01*
X108749996Y-64055565D01*
X108750000Y-64055565D01*
X108750004Y-64055565D01*
X108929249Y-64035369D01*
X108929252Y-64035368D01*
X108929255Y-64035368D01*
X109099522Y-63975789D01*
X109252262Y-63879816D01*
X109379816Y-63752262D01*
X109475789Y-63599522D01*
X109535368Y-63429255D01*
X109555565Y-63250000D01*
X109551717Y-63215851D01*
X109535369Y-63070750D01*
X109535368Y-63070745D01*
X109475788Y-62900476D01*
X109379815Y-62747737D01*
X109252262Y-62620184D01*
X109099523Y-62524211D01*
X108929254Y-62464631D01*
X108929249Y-62464630D01*
X108750004Y-62444435D01*
X108749996Y-62444435D01*
X108570750Y-62464630D01*
X108570742Y-62464632D01*
X108461474Y-62502867D01*
X108391696Y-62506428D01*
X108331068Y-62471699D01*
X108298841Y-62409706D01*
X108298054Y-62405266D01*
X108295324Y-62388028D01*
X108236471Y-62206900D01*
X108234476Y-62137064D01*
X108270556Y-62077231D01*
X108333257Y-62046402D01*
X108340520Y-62045366D01*
X108429250Y-62035369D01*
X108429253Y-62035368D01*
X108429255Y-62035368D01*
X108599522Y-61975789D01*
X108752262Y-61879816D01*
X108879816Y-61752262D01*
X108975789Y-61599522D01*
X109035368Y-61429255D01*
X109035369Y-61429249D01*
X109055565Y-61250003D01*
X109055565Y-61249996D01*
X109035369Y-61070750D01*
X109035368Y-61070745D01*
X108975789Y-60900478D01*
X108881235Y-60749996D01*
X112944435Y-60749996D01*
X112944435Y-60750003D01*
X112964630Y-60929249D01*
X112964631Y-60929254D01*
X113024211Y-61099523D01*
X113118760Y-61249996D01*
X113120184Y-61252262D01*
X113247738Y-61379816D01*
X113400478Y-61475789D01*
X113570745Y-61535368D01*
X113570750Y-61535369D01*
X113749996Y-61555565D01*
X113750000Y-61555565D01*
X113750004Y-61555565D01*
X113929249Y-61535369D01*
X113929252Y-61535368D01*
X113929255Y-61535368D01*
X114099522Y-61475789D01*
X114252262Y-61379816D01*
X114379816Y-61252262D01*
X114475789Y-61099522D01*
X114535368Y-60929255D01*
X114535369Y-60929249D01*
X114555565Y-60750003D01*
X114555565Y-60749996D01*
X115444435Y-60749996D01*
X115444435Y-60750003D01*
X115464630Y-60929249D01*
X115464631Y-60929254D01*
X115524211Y-61099523D01*
X115618760Y-61249996D01*
X115620184Y-61252262D01*
X115747738Y-61379816D01*
X115900478Y-61475789D01*
X116070745Y-61535368D01*
X116070750Y-61535369D01*
X116249996Y-61555565D01*
X116250000Y-61555565D01*
X116250004Y-61555565D01*
X116429249Y-61535369D01*
X116429252Y-61535368D01*
X116429255Y-61535368D01*
X116599522Y-61475789D01*
X116752262Y-61379816D01*
X116879816Y-61252262D01*
X116975789Y-61099522D01*
X117035368Y-60929255D01*
X117035369Y-60929249D01*
X117055565Y-60750003D01*
X117055565Y-60749996D01*
X117035369Y-60570750D01*
X117035368Y-60570745D01*
X116975788Y-60400476D01*
X116879815Y-60247737D01*
X116752262Y-60120184D01*
X116599523Y-60024211D01*
X116429254Y-59964631D01*
X116429249Y-59964630D01*
X116250004Y-59944435D01*
X116249996Y-59944435D01*
X116070750Y-59964630D01*
X116070745Y-59964631D01*
X115900476Y-60024211D01*
X115747737Y-60120184D01*
X115620184Y-60247737D01*
X115524211Y-60400476D01*
X115464631Y-60570745D01*
X115464630Y-60570750D01*
X115444435Y-60749996D01*
X114555565Y-60749996D01*
X114535369Y-60570750D01*
X114535368Y-60570745D01*
X114475788Y-60400476D01*
X114379815Y-60247737D01*
X114252262Y-60120184D01*
X114099523Y-60024211D01*
X113929254Y-59964631D01*
X113929249Y-59964630D01*
X113750004Y-59944435D01*
X113749996Y-59944435D01*
X113570750Y-59964630D01*
X113570745Y-59964631D01*
X113400476Y-60024211D01*
X113247737Y-60120184D01*
X113120184Y-60247737D01*
X113024211Y-60400476D01*
X112964631Y-60570745D01*
X112964630Y-60570750D01*
X112944435Y-60749996D01*
X108881235Y-60749996D01*
X108879816Y-60747738D01*
X108752262Y-60620184D01*
X108599523Y-60524211D01*
X108429254Y-60464631D01*
X108429249Y-60464630D01*
X108250004Y-60444435D01*
X108249996Y-60444435D01*
X108070750Y-60464630D01*
X108070745Y-60464631D01*
X107900476Y-60524211D01*
X107747737Y-60620184D01*
X107620184Y-60747737D01*
X107524211Y-60900476D01*
X107464631Y-61070745D01*
X107464630Y-61070750D01*
X107444435Y-61249996D01*
X107444435Y-61250005D01*
X107453592Y-61331284D01*
X107441537Y-61400106D01*
X107394187Y-61451484D01*
X107326577Y-61469108D01*
X107310974Y-61467639D01*
X107208975Y-61451484D01*
X107196449Y-61449500D01*
X107003551Y-61449500D01*
X106991025Y-61451484D01*
X106813030Y-61479675D01*
X106629568Y-61539286D01*
X106457697Y-61626859D01*
X106368661Y-61691547D01*
X106301641Y-61740241D01*
X106301639Y-61740243D01*
X106301638Y-61740243D01*
X106165243Y-61876638D01*
X106165243Y-61876639D01*
X106165241Y-61876641D01*
X106142311Y-61908202D01*
X106051859Y-62032697D01*
X105964286Y-62204568D01*
X105904675Y-62388030D01*
X105874500Y-62578551D01*
X105874500Y-62979075D01*
X105854815Y-63046114D01*
X105802011Y-63091869D01*
X105776281Y-63100365D01*
X105595197Y-63138855D01*
X105595192Y-63138857D01*
X105422270Y-63215848D01*
X105422265Y-63215851D01*
X105269129Y-63327111D01*
X105142466Y-63467785D01*
X105047821Y-63631715D01*
X105047818Y-63631722D01*
X104990018Y-63809613D01*
X104989326Y-63811744D01*
X104969540Y-64000000D01*
X101780460Y-64000000D01*
X101760674Y-63811744D01*
X101702179Y-63631716D01*
X101607533Y-63467784D01*
X101480871Y-63327112D01*
X101480870Y-63327111D01*
X101327734Y-63215851D01*
X101327729Y-63215848D01*
X101154807Y-63138857D01*
X101154802Y-63138855D01*
X100973719Y-63100365D01*
X100912237Y-63067173D01*
X100878461Y-63006009D01*
X100875500Y-62979075D01*
X100875500Y-62578551D01*
X100857457Y-62464631D01*
X100845324Y-62388028D01*
X100785715Y-62204571D01*
X100698141Y-62032698D01*
X100584759Y-61876641D01*
X100448359Y-61740241D01*
X100292302Y-61626859D01*
X100120429Y-61539285D01*
X99936972Y-61479676D01*
X99936970Y-61479675D01*
X99936969Y-61479675D01*
X99758975Y-61451484D01*
X99746449Y-61449500D01*
X99553551Y-61449500D01*
X99541025Y-61451484D01*
X99363030Y-61479675D01*
X99179568Y-61539286D01*
X99007697Y-61626859D01*
X98918661Y-61691547D01*
X98851641Y-61740241D01*
X98851639Y-61740243D01*
X98851638Y-61740243D01*
X98712181Y-61879701D01*
X98650858Y-61913186D01*
X98581166Y-61908202D01*
X98525233Y-61866330D01*
X98500816Y-61800866D01*
X98500500Y-61792020D01*
X98500500Y-58166631D01*
X105361070Y-58166631D01*
X105361070Y-58166638D01*
X105381265Y-58345884D01*
X105381266Y-58345889D01*
X105440846Y-58516158D01*
X105512262Y-58629815D01*
X105536819Y-58668897D01*
X105664373Y-58796451D01*
X105817113Y-58892424D01*
X105987380Y-58952003D01*
X105987385Y-58952004D01*
X106166631Y-58972200D01*
X106166635Y-58972200D01*
X106166639Y-58972200D01*
X106345884Y-58952004D01*
X106345887Y-58952003D01*
X106345890Y-58952003D01*
X106516157Y-58892424D01*
X106668897Y-58796451D01*
X106796451Y-58668897D01*
X106892424Y-58516157D01*
X106952003Y-58345890D01*
X106970778Y-58179255D01*
X106972200Y-58166638D01*
X106972200Y-58166631D01*
X106953425Y-57999996D01*
X115194435Y-57999996D01*
X115194435Y-58000003D01*
X115214630Y-58179249D01*
X115214631Y-58179254D01*
X115274211Y-58349523D01*
X115370184Y-58502262D01*
X115497738Y-58629816D01*
X115650478Y-58725789D01*
X115820745Y-58785368D01*
X115820750Y-58785369D01*
X115999996Y-58805565D01*
X116000000Y-58805565D01*
X116000004Y-58805565D01*
X116179249Y-58785369D01*
X116179252Y-58785368D01*
X116179255Y-58785368D01*
X116349522Y-58725789D01*
X116502262Y-58629816D01*
X116629816Y-58502262D01*
X116725789Y-58349522D01*
X116785368Y-58179255D01*
X116786790Y-58166635D01*
X116805565Y-58000003D01*
X116805565Y-57999996D01*
X116785369Y-57820750D01*
X116785368Y-57820745D01*
X116730651Y-57664373D01*
X116725789Y-57650478D01*
X116629816Y-57497738D01*
X116502262Y-57370184D01*
X116487757Y-57361070D01*
X116349523Y-57274211D01*
X116179254Y-57214631D01*
X116179249Y-57214630D01*
X116000004Y-57194435D01*
X115999996Y-57194435D01*
X115820750Y-57214630D01*
X115820745Y-57214631D01*
X115650476Y-57274211D01*
X115497737Y-57370184D01*
X115370184Y-57497737D01*
X115274211Y-57650476D01*
X115214631Y-57820745D01*
X115214630Y-57820750D01*
X115194435Y-57999996D01*
X106953425Y-57999996D01*
X106952004Y-57987385D01*
X106952003Y-57987380D01*
X106892424Y-57817113D01*
X106796451Y-57664373D01*
X106668897Y-57536819D01*
X106606700Y-57497738D01*
X106516158Y-57440846D01*
X106345889Y-57381266D01*
X106345884Y-57381265D01*
X106166639Y-57361070D01*
X106166631Y-57361070D01*
X105987385Y-57381265D01*
X105987380Y-57381266D01*
X105817111Y-57440846D01*
X105664372Y-57536819D01*
X105536819Y-57664372D01*
X105440846Y-57817111D01*
X105381266Y-57987380D01*
X105381265Y-57987385D01*
X105361070Y-58166631D01*
X98500500Y-58166631D01*
X98500500Y-54749996D01*
X99194435Y-54749996D01*
X99194435Y-54750003D01*
X99214630Y-54929249D01*
X99214631Y-54929254D01*
X99274211Y-55099523D01*
X99370184Y-55252262D01*
X99497738Y-55379816D01*
X99650478Y-55475789D01*
X99820745Y-55535368D01*
X99820750Y-55535369D01*
X99999996Y-55555565D01*
X100000000Y-55555565D01*
X100000004Y-55555565D01*
X100179249Y-55535369D01*
X100179252Y-55535368D01*
X100179255Y-55535368D01*
X100349522Y-55475789D01*
X100502262Y-55379816D01*
X100629816Y-55252262D01*
X100725789Y-55099522D01*
X100760615Y-54999996D01*
X107694435Y-54999996D01*
X107694435Y-55000003D01*
X107714630Y-55179249D01*
X107714631Y-55179254D01*
X107774211Y-55349523D01*
X107853549Y-55475788D01*
X107870184Y-55502262D01*
X107997738Y-55629816D01*
X108150478Y-55725789D01*
X108320745Y-55785368D01*
X108320750Y-55785369D01*
X108499996Y-55805565D01*
X108500000Y-55805565D01*
X108500004Y-55805565D01*
X108679249Y-55785369D01*
X108679252Y-55785368D01*
X108679255Y-55785368D01*
X108849522Y-55725789D01*
X109002262Y-55629816D01*
X109129816Y-55502262D01*
X109225789Y-55349522D01*
X109285368Y-55179255D01*
X109305565Y-55000000D01*
X109297593Y-54929249D01*
X109285369Y-54820750D01*
X109285368Y-54820745D01*
X109225788Y-54650475D01*
X109218595Y-54639028D01*
X109199594Y-54571791D01*
X109219961Y-54504956D01*
X109273229Y-54459741D01*
X109309705Y-54449835D01*
X109438097Y-54435369D01*
X109438100Y-54435368D01*
X109438103Y-54435368D01*
X109608370Y-54375789D01*
X109761110Y-54279816D01*
X109888664Y-54152262D01*
X109984637Y-53999522D01*
X110044216Y-53829255D01*
X110064413Y-53650000D01*
X110044216Y-53470745D01*
X109984637Y-53300478D01*
X109888664Y-53147738D01*
X109761110Y-53020184D01*
X109690456Y-52975789D01*
X109608371Y-52924211D01*
X109438102Y-52864631D01*
X109438097Y-52864630D01*
X109258852Y-52844435D01*
X109258844Y-52844435D01*
X109079598Y-52864630D01*
X109079593Y-52864631D01*
X108909324Y-52924211D01*
X108756585Y-53020184D01*
X108629032Y-53147737D01*
X108533059Y-53300476D01*
X108473479Y-53470745D01*
X108473478Y-53470750D01*
X108453283Y-53649996D01*
X108453283Y-53650003D01*
X108473478Y-53829249D01*
X108473479Y-53829254D01*
X108533060Y-53999525D01*
X108540253Y-54010973D01*
X108559253Y-54078210D01*
X108538885Y-54145045D01*
X108485616Y-54190258D01*
X108449143Y-54200164D01*
X108320749Y-54214630D01*
X108320745Y-54214631D01*
X108150476Y-54274211D01*
X107997737Y-54370184D01*
X107870184Y-54497737D01*
X107774211Y-54650476D01*
X107714631Y-54820745D01*
X107714630Y-54820750D01*
X107694435Y-54999996D01*
X100760615Y-54999996D01*
X100785368Y-54929255D01*
X100785369Y-54929249D01*
X100805565Y-54750003D01*
X100805565Y-54749996D01*
X100785369Y-54570750D01*
X100785368Y-54570745D01*
X100737998Y-54435369D01*
X100725789Y-54400478D01*
X100629816Y-54247738D01*
X100502262Y-54120184D01*
X100435461Y-54078210D01*
X100349523Y-54024211D01*
X100179254Y-53964631D01*
X100179249Y-53964630D01*
X100000004Y-53944435D01*
X99999996Y-53944435D01*
X99820750Y-53964630D01*
X99820745Y-53964631D01*
X99650476Y-54024211D01*
X99497737Y-54120184D01*
X99370184Y-54247737D01*
X99274211Y-54400476D01*
X99214631Y-54570745D01*
X99214630Y-54570750D01*
X99194435Y-54749996D01*
X98500500Y-54749996D01*
X98500500Y-52249996D01*
X101694435Y-52249996D01*
X101694435Y-52250003D01*
X101714630Y-52429249D01*
X101714631Y-52429254D01*
X101774211Y-52599523D01*
X101870184Y-52752262D01*
X101997738Y-52879816D01*
X102150478Y-52975789D01*
X102277352Y-53020184D01*
X102320745Y-53035368D01*
X102320750Y-53035369D01*
X102499996Y-53055565D01*
X102500000Y-53055565D01*
X102500004Y-53055565D01*
X102679249Y-53035369D01*
X102679252Y-53035368D01*
X102679255Y-53035368D01*
X102849522Y-52975789D01*
X103002262Y-52879816D01*
X103129816Y-52752262D01*
X103225789Y-52599522D01*
X103285368Y-52429255D01*
X103305565Y-52250000D01*
X103286981Y-52085063D01*
X103285369Y-52070750D01*
X103285368Y-52070745D01*
X103268977Y-52023903D01*
X103225789Y-51900478D01*
X103129816Y-51747738D01*
X103002262Y-51620184D01*
X102849523Y-51524211D01*
X102679254Y-51464631D01*
X102679249Y-51464630D01*
X102500004Y-51444435D01*
X102499996Y-51444435D01*
X102320750Y-51464630D01*
X102320745Y-51464631D01*
X102150476Y-51524211D01*
X101997737Y-51620184D01*
X101870184Y-51747737D01*
X101774211Y-51900476D01*
X101714631Y-52070745D01*
X101714630Y-52070750D01*
X101694435Y-52249996D01*
X98500500Y-52249996D01*
X98500500Y-43129999D01*
X98894341Y-43129999D01*
X98894341Y-43130000D01*
X98914936Y-43365403D01*
X98914938Y-43365413D01*
X98976094Y-43593655D01*
X98976096Y-43593659D01*
X98976097Y-43593663D01*
X99075965Y-43807830D01*
X99075967Y-43807834D01*
X99211501Y-44001395D01*
X99211506Y-44001402D01*
X99378597Y-44168493D01*
X99378603Y-44168498D01*
X99564158Y-44298425D01*
X99607783Y-44353002D01*
X99614977Y-44422500D01*
X99583454Y-44484855D01*
X99564158Y-44501575D01*
X99378597Y-44631505D01*
X99211505Y-44798597D01*
X99075965Y-44992169D01*
X99075964Y-44992171D01*
X98976098Y-45206335D01*
X98976094Y-45206344D01*
X98914938Y-45434586D01*
X98914936Y-45434596D01*
X98894341Y-45669999D01*
X98894341Y-45670000D01*
X98914936Y-45905403D01*
X98914938Y-45905413D01*
X98976094Y-46133655D01*
X98976096Y-46133659D01*
X98976097Y-46133663D01*
X99075965Y-46347830D01*
X99075967Y-46347834D01*
X99211501Y-46541395D01*
X99211506Y-46541402D01*
X99378597Y-46708493D01*
X99378603Y-46708498D01*
X99564158Y-46838425D01*
X99607783Y-46893002D01*
X99614977Y-46962500D01*
X99583454Y-47024855D01*
X99564158Y-47041575D01*
X99378597Y-47171505D01*
X99211505Y-47338597D01*
X99075965Y-47532169D01*
X99075964Y-47532171D01*
X98976098Y-47746335D01*
X98976094Y-47746344D01*
X98914938Y-47974586D01*
X98914936Y-47974596D01*
X98894341Y-48209999D01*
X98894341Y-48210000D01*
X98914936Y-48445403D01*
X98914938Y-48445413D01*
X98976094Y-48673655D01*
X98976096Y-48673659D01*
X98976097Y-48673663D01*
X99075965Y-48887830D01*
X99075967Y-48887834D01*
X99211501Y-49081395D01*
X99211506Y-49081402D01*
X99378597Y-49248493D01*
X99378603Y-49248498D01*
X99564594Y-49378730D01*
X99608219Y-49433307D01*
X99615413Y-49502805D01*
X99583890Y-49565160D01*
X99564595Y-49581880D01*
X99378922Y-49711890D01*
X99378920Y-49711891D01*
X99211891Y-49878920D01*
X99211886Y-49878926D01*
X99076400Y-50072420D01*
X99076399Y-50072422D01*
X98976570Y-50286507D01*
X98976567Y-50286513D01*
X98919364Y-50499999D01*
X98919364Y-50500000D01*
X99816988Y-50500000D01*
X99784075Y-50557007D01*
X99750000Y-50684174D01*
X99750000Y-50815826D01*
X99784075Y-50942993D01*
X99816988Y-51000000D01*
X98919364Y-51000000D01*
X98976567Y-51213486D01*
X98976570Y-51213492D01*
X99076399Y-51427578D01*
X99211894Y-51621082D01*
X99378917Y-51788105D01*
X99572421Y-51923600D01*
X99786507Y-52023429D01*
X99786516Y-52023433D01*
X100000000Y-52080634D01*
X100000000Y-51183012D01*
X100057007Y-51215925D01*
X100184174Y-51250000D01*
X100315826Y-51250000D01*
X100442993Y-51215925D01*
X100500000Y-51183012D01*
X100500000Y-52080633D01*
X100713483Y-52023433D01*
X100713492Y-52023429D01*
X100927578Y-51923600D01*
X101121082Y-51788105D01*
X101288105Y-51621082D01*
X101423600Y-51427578D01*
X101523429Y-51213492D01*
X101523432Y-51213486D01*
X101580636Y-51000000D01*
X100683012Y-51000000D01*
X100715925Y-50942993D01*
X100750000Y-50815826D01*
X100750000Y-50684174D01*
X100715925Y-50557007D01*
X100683012Y-50500000D01*
X101580636Y-50500000D01*
X101580635Y-50499999D01*
X101523432Y-50286513D01*
X101523429Y-50286507D01*
X101423600Y-50072422D01*
X101423599Y-50072420D01*
X101288113Y-49878926D01*
X101288108Y-49878920D01*
X101121078Y-49711890D01*
X100935405Y-49581879D01*
X100891780Y-49527302D01*
X100884588Y-49457804D01*
X100916110Y-49395449D01*
X100935406Y-49378730D01*
X100935842Y-49378425D01*
X101121401Y-49248495D01*
X101288495Y-49081401D01*
X101424035Y-48887830D01*
X101523903Y-48673663D01*
X101585063Y-48445408D01*
X101605659Y-48210000D01*
X101585063Y-47974592D01*
X101523903Y-47746337D01*
X101424035Y-47532171D01*
X101288495Y-47338599D01*
X101288494Y-47338597D01*
X101121402Y-47171506D01*
X101121396Y-47171501D01*
X100935842Y-47041575D01*
X100892217Y-46986998D01*
X100885023Y-46917500D01*
X100916546Y-46855145D01*
X100935842Y-46838425D01*
X100958026Y-46822891D01*
X101121401Y-46708495D01*
X101288495Y-46541401D01*
X101424035Y-46347830D01*
X101523903Y-46133663D01*
X101585063Y-45905408D01*
X101605659Y-45670000D01*
X101585063Y-45434592D01*
X101523903Y-45206337D01*
X101424035Y-44992171D01*
X101288495Y-44798599D01*
X101288494Y-44798597D01*
X101121402Y-44631506D01*
X101121396Y-44631501D01*
X100935842Y-44501575D01*
X100892217Y-44446998D01*
X100885023Y-44377500D01*
X100916546Y-44315145D01*
X100935842Y-44298425D01*
X100958026Y-44282891D01*
X101121401Y-44168495D01*
X101288495Y-44001401D01*
X101424035Y-43807830D01*
X101523903Y-43593663D01*
X101585063Y-43365408D01*
X101605659Y-43130000D01*
X101605659Y-43129999D01*
X114134341Y-43129999D01*
X114134341Y-43130000D01*
X114154936Y-43365403D01*
X114154938Y-43365413D01*
X114216094Y-43593655D01*
X114216096Y-43593659D01*
X114216097Y-43593663D01*
X114315965Y-43807830D01*
X114315967Y-43807834D01*
X114451501Y-44001395D01*
X114451506Y-44001402D01*
X114618597Y-44168493D01*
X114618603Y-44168498D01*
X114804158Y-44298425D01*
X114847783Y-44353002D01*
X114854977Y-44422500D01*
X114823454Y-44484855D01*
X114804158Y-44501575D01*
X114618597Y-44631505D01*
X114451505Y-44798597D01*
X114315965Y-44992169D01*
X114315964Y-44992171D01*
X114216098Y-45206335D01*
X114216094Y-45206344D01*
X114154938Y-45434586D01*
X114154936Y-45434596D01*
X114134341Y-45669999D01*
X114134341Y-45670000D01*
X114154936Y-45905403D01*
X114154938Y-45905413D01*
X114216094Y-46133655D01*
X114216096Y-46133659D01*
X114216097Y-46133663D01*
X114315965Y-46347830D01*
X114315967Y-46347834D01*
X114451501Y-46541395D01*
X114451506Y-46541402D01*
X114618597Y-46708493D01*
X114618603Y-46708498D01*
X114804158Y-46838425D01*
X114847783Y-46893002D01*
X114854977Y-46962500D01*
X114823454Y-47024855D01*
X114804158Y-47041575D01*
X114618597Y-47171505D01*
X114451505Y-47338597D01*
X114315965Y-47532169D01*
X114315964Y-47532171D01*
X114216098Y-47746335D01*
X114216094Y-47746344D01*
X114154938Y-47974586D01*
X114154936Y-47974596D01*
X114134341Y-48209999D01*
X114134341Y-48210000D01*
X114154936Y-48445403D01*
X114154938Y-48445413D01*
X114216094Y-48673655D01*
X114216096Y-48673659D01*
X114216097Y-48673663D01*
X114315965Y-48887830D01*
X114315967Y-48887834D01*
X114451501Y-49081395D01*
X114451506Y-49081402D01*
X114618597Y-49248493D01*
X114618603Y-49248498D01*
X114804158Y-49378425D01*
X114847783Y-49433002D01*
X114854977Y-49502500D01*
X114823454Y-49564855D01*
X114804158Y-49581575D01*
X114618597Y-49711505D01*
X114451505Y-49878597D01*
X114315965Y-50072169D01*
X114315964Y-50072171D01*
X114216098Y-50286335D01*
X114216094Y-50286344D01*
X114154938Y-50514586D01*
X114154936Y-50514596D01*
X114134341Y-50749999D01*
X114134341Y-50750000D01*
X114154936Y-50985403D01*
X114154938Y-50985413D01*
X114216094Y-51213655D01*
X114216096Y-51213659D01*
X114216097Y-51213663D01*
X114315847Y-51427578D01*
X114315965Y-51427830D01*
X114315967Y-51427834D01*
X114424281Y-51582521D01*
X114451505Y-51621401D01*
X114618599Y-51788495D01*
X114715384Y-51856265D01*
X114812165Y-51924032D01*
X114812167Y-51924033D01*
X114812170Y-51924035D01*
X115026337Y-52023903D01*
X115254592Y-52085063D01*
X115442918Y-52101539D01*
X115489999Y-52105659D01*
X115490000Y-52105659D01*
X115490001Y-52105659D01*
X115529234Y-52102226D01*
X115725408Y-52085063D01*
X115953663Y-52023903D01*
X116167830Y-51924035D01*
X116361401Y-51788495D01*
X116528495Y-51621401D01*
X116664035Y-51427830D01*
X116763903Y-51213663D01*
X116825063Y-50985408D01*
X116845659Y-50750000D01*
X116825063Y-50514592D01*
X116763903Y-50286337D01*
X116664035Y-50072171D01*
X116528495Y-49878599D01*
X116528494Y-49878597D01*
X116361402Y-49711506D01*
X116361396Y-49711501D01*
X116175842Y-49581575D01*
X116132217Y-49526998D01*
X116125023Y-49457500D01*
X116156546Y-49395145D01*
X116175842Y-49378425D01*
X116198026Y-49362891D01*
X116361401Y-49248495D01*
X116528495Y-49081401D01*
X116664035Y-48887830D01*
X116763903Y-48673663D01*
X116825063Y-48445408D01*
X116845659Y-48210000D01*
X116825063Y-47974592D01*
X116763903Y-47746337D01*
X116664035Y-47532171D01*
X116528495Y-47338599D01*
X116528494Y-47338597D01*
X116361402Y-47171506D01*
X116361396Y-47171501D01*
X116175842Y-47041575D01*
X116132217Y-46986998D01*
X116125023Y-46917500D01*
X116156546Y-46855145D01*
X116175842Y-46838425D01*
X116198026Y-46822891D01*
X116361401Y-46708495D01*
X116528495Y-46541401D01*
X116664035Y-46347830D01*
X116763903Y-46133663D01*
X116825063Y-45905408D01*
X116845659Y-45670000D01*
X116825063Y-45434592D01*
X116763903Y-45206337D01*
X116664035Y-44992171D01*
X116528495Y-44798599D01*
X116528494Y-44798597D01*
X116361402Y-44631506D01*
X116361396Y-44631501D01*
X116175842Y-44501575D01*
X116132217Y-44446998D01*
X116125023Y-44377500D01*
X116156546Y-44315145D01*
X116175842Y-44298425D01*
X116198026Y-44282891D01*
X116361401Y-44168495D01*
X116528495Y-44001401D01*
X116664035Y-43807830D01*
X116763903Y-43593663D01*
X116825063Y-43365408D01*
X116845659Y-43130000D01*
X116825063Y-42894592D01*
X116763903Y-42666337D01*
X116664035Y-42452171D01*
X116528495Y-42258599D01*
X116406567Y-42136671D01*
X116373084Y-42075351D01*
X116378068Y-42005659D01*
X116419939Y-41949725D01*
X116450915Y-41932810D01*
X116582331Y-41883796D01*
X116697546Y-41797546D01*
X116783796Y-41682331D01*
X116834091Y-41547483D01*
X116840500Y-41487873D01*
X116840499Y-39692128D01*
X116834091Y-39632517D01*
X116783796Y-39497669D01*
X116783795Y-39497668D01*
X116783793Y-39497664D01*
X116697547Y-39382455D01*
X116697544Y-39382452D01*
X116582335Y-39296206D01*
X116582328Y-39296202D01*
X116447482Y-39245908D01*
X116447483Y-39245908D01*
X116387883Y-39239501D01*
X116387881Y-39239500D01*
X116387873Y-39239500D01*
X116387864Y-39239500D01*
X114592129Y-39239500D01*
X114592123Y-39239501D01*
X114532516Y-39245908D01*
X114397671Y-39296202D01*
X114397664Y-39296206D01*
X114282455Y-39382452D01*
X114282452Y-39382455D01*
X114196206Y-39497664D01*
X114196202Y-39497671D01*
X114145908Y-39632517D01*
X114139501Y-39692116D01*
X114139501Y-39692123D01*
X114139500Y-39692135D01*
X114139500Y-41487870D01*
X114139501Y-41487876D01*
X114145908Y-41547483D01*
X114196202Y-41682328D01*
X114196206Y-41682335D01*
X114282452Y-41797544D01*
X114282455Y-41797547D01*
X114397664Y-41883793D01*
X114397671Y-41883797D01*
X114529081Y-41932810D01*
X114585015Y-41974681D01*
X114609432Y-42040145D01*
X114594580Y-42108418D01*
X114573430Y-42136673D01*
X114451503Y-42258600D01*
X114315965Y-42452169D01*
X114315964Y-42452171D01*
X114216098Y-42666335D01*
X114216094Y-42666344D01*
X114154938Y-42894586D01*
X114154936Y-42894596D01*
X114134341Y-43129999D01*
X101605659Y-43129999D01*
X101585063Y-42894592D01*
X101523903Y-42666337D01*
X101424035Y-42452171D01*
X101288495Y-42258599D01*
X101166567Y-42136671D01*
X101133084Y-42075351D01*
X101138068Y-42005659D01*
X101179939Y-41949725D01*
X101210915Y-41932810D01*
X101342331Y-41883796D01*
X101457546Y-41797546D01*
X101543796Y-41682331D01*
X101594091Y-41547483D01*
X101600500Y-41487873D01*
X101600499Y-39692128D01*
X101594091Y-39632517D01*
X101543796Y-39497669D01*
X101543795Y-39497668D01*
X101543793Y-39497664D01*
X101457547Y-39382455D01*
X101457544Y-39382452D01*
X101342335Y-39296206D01*
X101342328Y-39296202D01*
X101207482Y-39245908D01*
X101207483Y-39245908D01*
X101147883Y-39239501D01*
X101147881Y-39239500D01*
X101147873Y-39239500D01*
X101147864Y-39239500D01*
X99352129Y-39239500D01*
X99352123Y-39239501D01*
X99292516Y-39245908D01*
X99157671Y-39296202D01*
X99157664Y-39296206D01*
X99042455Y-39382452D01*
X99042452Y-39382455D01*
X98956206Y-39497664D01*
X98956202Y-39497671D01*
X98905908Y-39632517D01*
X98899501Y-39692116D01*
X98899501Y-39692123D01*
X98899500Y-39692135D01*
X98899500Y-41487870D01*
X98899501Y-41487876D01*
X98905908Y-41547483D01*
X98956202Y-41682328D01*
X98956206Y-41682335D01*
X99042452Y-41797544D01*
X99042455Y-41797547D01*
X99157664Y-41883793D01*
X99157671Y-41883797D01*
X99289081Y-41932810D01*
X99345015Y-41974681D01*
X99369432Y-42040145D01*
X99354580Y-42108418D01*
X99333430Y-42136673D01*
X99211503Y-42258600D01*
X99075965Y-42452169D01*
X99075964Y-42452171D01*
X98976098Y-42666335D01*
X98976094Y-42666344D01*
X98914938Y-42894586D01*
X98914936Y-42894596D01*
X98894341Y-43129999D01*
X98500500Y-43129999D01*
X98500500Y-37999500D01*
X98520185Y-37932461D01*
X98572989Y-37886706D01*
X98624500Y-37875500D01*
X117375500Y-37875500D01*
X117442539Y-37895185D01*
G37*
G04 #@! TD.AperFunction*
M02*
