%TF.GenerationSoftware,KiCad,Pcbnew,8.0.5*%
%TF.CreationDate,2024-10-22T15:17:33-04:00*%
%TF.ProjectId,buck_converter_lm2596_5V,6275636b-5f63-46f6-9e76-65727465725f,rev?*%
%TF.SameCoordinates,Original*%
%TF.FileFunction,Copper,L1,Top*%
%TF.FilePolarity,Positive*%
%FSLAX46Y46*%
G04 Gerber Fmt 4.6, Leading zero omitted, Abs format (unit mm)*
G04 Created by KiCad (PCBNEW 8.0.5) date 2024-10-22 15:17:33*
%MOMM*%
%LPD*%
G01*
G04 APERTURE LIST*
%TA.AperFunction,ComponentPad*%
%ADD10R,2.019300X2.019300*%
%TD*%
%TA.AperFunction,ComponentPad*%
%ADD11C,2.019300*%
%TD*%
%TA.AperFunction,ComponentPad*%
%ADD12C,1.600000*%
%TD*%
%TA.AperFunction,ComponentPad*%
%ADD13R,2.600000X2.600000*%
%TD*%
%TA.AperFunction,ComponentPad*%
%ADD14C,2.600000*%
%TD*%
%TA.AperFunction,ComponentPad*%
%ADD15O,1.600000X1.600000*%
%TD*%
%TA.AperFunction,ComponentPad*%
%ADD16O,1.800000X3.600000*%
%TD*%
%TA.AperFunction,ComponentPad*%
%ADD17R,1.422400X1.422400*%
%TD*%
%TA.AperFunction,ComponentPad*%
%ADD18C,1.422400*%
%TD*%
%TA.AperFunction,ComponentPad*%
%ADD19R,3.200000X3.200000*%
%TD*%
%TA.AperFunction,ComponentPad*%
%ADD20O,3.200000X3.200000*%
%TD*%
%TA.AperFunction,Conductor*%
%ADD21C,1.750000*%
%TD*%
G04 APERTURE END LIST*
D10*
%TO.P,U1,1,VIN*%
%TO.N,Net-(J1-Pin_2)*%
X157429200Y-68656200D03*
D11*
%TO.P,U1,2,OUTPUT*%
%TO.N,LM2596_Output*%
X159131000Y-64643000D03*
%TO.P,U1,3,GND*%
%TO.N,GND*%
X160832800Y-68656200D03*
%TO.P,U1,4,FEEDBACK*%
%TO.N,feedback*%
X162534600Y-64643000D03*
%TO.P,U1,5,\u002AON/OFF*%
%TO.N,GND*%
X164236400Y-68656200D03*
%TD*%
D12*
%TO.P,C4,1*%
%TO.N,Net-(J2-Pin_1)*%
X176403000Y-72183000D03*
%TO.P,C4,2*%
%TO.N,feedback*%
X176403000Y-67183000D03*
%TD*%
D13*
%TO.P,J1,1,Pin_1*%
%TO.N,GND*%
X144606000Y-101981000D03*
D14*
%TO.P,J1,2,Pin_2*%
%TO.N,Net-(J1-Pin_2)*%
X149606000Y-101981000D03*
%TD*%
D12*
%TO.P,R1,1*%
%TO.N,Net-(J2-Pin_1)*%
X171196000Y-77089000D03*
D15*
%TO.P,R1,2*%
%TO.N,feedback*%
X171196000Y-66929000D03*
%TD*%
D13*
%TO.P,J2,1,Pin_1*%
%TO.N,Net-(J2-Pin_1)*%
X172673000Y-101981000D03*
D14*
%TO.P,J2,2,Pin_2*%
%TO.N,GND*%
X177673000Y-101981000D03*
%TD*%
D16*
%TO.P,L1,1,1*%
%TO.N,Net-(J2-Pin_1)*%
X144145000Y-81280000D03*
%TO.P,L1,2,2*%
%TO.N,LM2596_Output*%
X151765000Y-81280000D03*
%TD*%
D17*
%TO.P,C2,1*%
%TO.N,Net-(J2-Pin_1)*%
X175133000Y-86360000D03*
D18*
%TO.P,C2,2*%
%TO.N,GND*%
X175133000Y-91363800D03*
%TD*%
D19*
%TO.P,D1,1,K*%
%TO.N,LM2596_Output*%
X158369000Y-74295000D03*
D20*
%TO.P,D1,2,A*%
%TO.N,GND*%
X158369000Y-89535000D03*
%TD*%
D17*
%TO.P,C1,1*%
%TO.N,Net-(J1-Pin_2)*%
X146431000Y-64770000D03*
D18*
%TO.P,C1,2*%
%TO.N,GND*%
X146431000Y-59690000D03*
%TD*%
D12*
%TO.P,R2,1*%
%TO.N,feedback*%
X180721000Y-67183000D03*
D15*
%TO.P,R2,2*%
%TO.N,GND*%
X180721000Y-77343000D03*
%TD*%
D21*
%TO.N,Net-(J2-Pin_1)*%
X175133000Y-81026000D02*
X171196000Y-77089000D01*
X167386000Y-94107000D02*
X175133000Y-86360000D01*
X144145000Y-85217000D02*
X153035000Y-94107000D01*
X167386000Y-96694000D02*
X172673000Y-101981000D01*
X175133000Y-86360000D02*
X175133000Y-81026000D01*
X153035000Y-94107000D02*
X167386000Y-94107000D01*
X144145000Y-81280000D02*
X144145000Y-85217000D01*
X167386000Y-94107000D02*
X167386000Y-96694000D01*
X176102000Y-72183000D02*
X171196000Y-77089000D01*
X176403000Y-72183000D02*
X176102000Y-72183000D01*
%TO.N,LM2596_Output*%
X159131000Y-64643000D02*
X155194000Y-64643000D01*
X153416000Y-69342000D02*
X158369000Y-74295000D01*
X153416000Y-69342000D02*
X153416000Y-66421000D01*
X151765000Y-80899000D02*
X158369000Y-74295000D01*
X153416000Y-66421000D02*
X155003500Y-64833500D01*
X151765000Y-81280000D02*
X151765000Y-80899000D01*
X155194000Y-64643000D02*
X155003500Y-64833500D01*
%TO.N,feedback*%
X171196000Y-66929000D02*
X176149000Y-66929000D01*
X168910000Y-64643000D02*
X162534600Y-64643000D01*
X176149000Y-66929000D02*
X176403000Y-67183000D01*
X176403000Y-67183000D02*
X180721000Y-67183000D01*
X171196000Y-66929000D02*
X168910000Y-64643000D01*
%TD*%
M02*
