%TF.GenerationSoftware,KiCad,Pcbnew,8.0.5*%
%TF.CreationDate,2024-10-22T15:17:33-04:00*%
%TF.ProjectId,buck_converter_lm2596_5V,6275636b-5f63-46f6-9e76-65727465725f,rev?*%
%TF.SameCoordinates,Original*%
%TF.FileFunction,Copper,L2,Bot*%
%TF.FilePolarity,Positive*%
%FSLAX46Y46*%
G04 Gerber Fmt 4.6, Leading zero omitted, Abs format (unit mm)*
G04 Created by KiCad (PCBNEW 8.0.5) date 2024-10-22 15:17:33*
%MOMM*%
%LPD*%
G01*
G04 APERTURE LIST*
%TA.AperFunction,ComponentPad*%
%ADD10R,2.019300X2.019300*%
%TD*%
%TA.AperFunction,ComponentPad*%
%ADD11C,2.019300*%
%TD*%
%TA.AperFunction,ComponentPad*%
%ADD12C,1.600000*%
%TD*%
%TA.AperFunction,ComponentPad*%
%ADD13R,2.600000X2.600000*%
%TD*%
%TA.AperFunction,ComponentPad*%
%ADD14C,2.600000*%
%TD*%
%TA.AperFunction,ComponentPad*%
%ADD15O,1.600000X1.600000*%
%TD*%
%TA.AperFunction,ComponentPad*%
%ADD16O,1.800000X3.600000*%
%TD*%
%TA.AperFunction,ComponentPad*%
%ADD17R,1.422400X1.422400*%
%TD*%
%TA.AperFunction,ComponentPad*%
%ADD18C,1.422400*%
%TD*%
%TA.AperFunction,ComponentPad*%
%ADD19R,3.200000X3.200000*%
%TD*%
%TA.AperFunction,ComponentPad*%
%ADD20O,3.200000X3.200000*%
%TD*%
%TA.AperFunction,Conductor*%
%ADD21C,1.750000*%
%TD*%
G04 APERTURE END LIST*
D10*
%TO.P,U1,1,VIN*%
%TO.N,Net-(J1-Pin_2)*%
X157429200Y-68656200D03*
D11*
%TO.P,U1,2,OUTPUT*%
%TO.N,LM2596_Output*%
X159131000Y-64643000D03*
%TO.P,U1,3,GND*%
%TO.N,GND*%
X160832800Y-68656200D03*
%TO.P,U1,4,FEEDBACK*%
%TO.N,feedback*%
X162534600Y-64643000D03*
%TO.P,U1,5,\u002AON/OFF*%
%TO.N,GND*%
X164236400Y-68656200D03*
%TD*%
D12*
%TO.P,C4,1*%
%TO.N,Net-(J2-Pin_1)*%
X176403000Y-72183000D03*
%TO.P,C4,2*%
%TO.N,feedback*%
X176403000Y-67183000D03*
%TD*%
D13*
%TO.P,J1,1,Pin_1*%
%TO.N,GND*%
X144606000Y-101981000D03*
D14*
%TO.P,J1,2,Pin_2*%
%TO.N,Net-(J1-Pin_2)*%
X149606000Y-101981000D03*
%TD*%
D12*
%TO.P,R1,1*%
%TO.N,Net-(J2-Pin_1)*%
X171196000Y-77089000D03*
D15*
%TO.P,R1,2*%
%TO.N,feedback*%
X171196000Y-66929000D03*
%TD*%
D13*
%TO.P,J2,1,Pin_1*%
%TO.N,Net-(J2-Pin_1)*%
X172673000Y-101981000D03*
D14*
%TO.P,J2,2,Pin_2*%
%TO.N,GND*%
X177673000Y-101981000D03*
%TD*%
D16*
%TO.P,L1,1,1*%
%TO.N,Net-(J2-Pin_1)*%
X144145000Y-81280000D03*
%TO.P,L1,2,2*%
%TO.N,LM2596_Output*%
X151765000Y-81280000D03*
%TD*%
D17*
%TO.P,C2,1*%
%TO.N,Net-(J2-Pin_1)*%
X175133000Y-86360000D03*
D18*
%TO.P,C2,2*%
%TO.N,GND*%
X175133000Y-91363800D03*
%TD*%
D19*
%TO.P,D1,1,K*%
%TO.N,LM2596_Output*%
X158369000Y-74295000D03*
D20*
%TO.P,D1,2,A*%
%TO.N,GND*%
X158369000Y-89535000D03*
%TD*%
D17*
%TO.P,C1,1*%
%TO.N,Net-(J1-Pin_2)*%
X146431000Y-64770000D03*
D18*
%TO.P,C1,2*%
%TO.N,GND*%
X146431000Y-59690000D03*
%TD*%
D12*
%TO.P,R2,1*%
%TO.N,feedback*%
X180721000Y-67183000D03*
D15*
%TO.P,R2,2*%
%TO.N,GND*%
X180721000Y-77343000D03*
%TD*%
D21*
%TO.N,Net-(J1-Pin_2)*%
X149606000Y-101981000D02*
X140081000Y-92456000D01*
X140081000Y-92456000D02*
X140081000Y-67818000D01*
X140081000Y-67818000D02*
X143129000Y-64770000D01*
X146431000Y-64770000D02*
X153543000Y-64770000D01*
X143129000Y-64770000D02*
X146431000Y-64770000D01*
X153543000Y-64770000D02*
X157429200Y-68656200D01*
%TD*%
%TA.AperFunction,Conductor*%
%TO.N,GND*%
G36*
X183592539Y-55130185D02*
G01*
X183638294Y-55182989D01*
X183649500Y-55234500D01*
X183649500Y-107833500D01*
X183629815Y-107900539D01*
X183577011Y-107946294D01*
X183525500Y-107957500D01*
X137784500Y-107957500D01*
X137717461Y-107937815D01*
X137671706Y-107885011D01*
X137660500Y-107833500D01*
X137660500Y-67709746D01*
X138705500Y-67709746D01*
X138705500Y-92564253D01*
X138739370Y-92778098D01*
X138806272Y-92984006D01*
X138806273Y-92984009D01*
X138904569Y-93176922D01*
X139031821Y-93352071D01*
X139031825Y-93352076D01*
X145649068Y-99969319D01*
X145682553Y-100030642D01*
X145677569Y-100100334D01*
X145635697Y-100156267D01*
X145570233Y-100180684D01*
X145561387Y-100181000D01*
X144856000Y-100181000D01*
X144856000Y-101380998D01*
X144795598Y-101355979D01*
X144670019Y-101331000D01*
X144541981Y-101331000D01*
X144416402Y-101355979D01*
X144356000Y-101380998D01*
X144356000Y-100181000D01*
X143258155Y-100181000D01*
X143198627Y-100187401D01*
X143198620Y-100187403D01*
X143063913Y-100237645D01*
X143063906Y-100237649D01*
X142948812Y-100323809D01*
X142948809Y-100323812D01*
X142862649Y-100438906D01*
X142862645Y-100438913D01*
X142812403Y-100573620D01*
X142812401Y-100573627D01*
X142806000Y-100633155D01*
X142806000Y-101731000D01*
X144005999Y-101731000D01*
X143980979Y-101791402D01*
X143956000Y-101916981D01*
X143956000Y-102045019D01*
X143980979Y-102170598D01*
X144005999Y-102231000D01*
X142806000Y-102231000D01*
X142806000Y-103328844D01*
X142812401Y-103388372D01*
X142812403Y-103388379D01*
X142862645Y-103523086D01*
X142862649Y-103523093D01*
X142948809Y-103638187D01*
X142948812Y-103638190D01*
X143063906Y-103724350D01*
X143063913Y-103724354D01*
X143198620Y-103774596D01*
X143198627Y-103774598D01*
X143258155Y-103780999D01*
X143258172Y-103781000D01*
X144356000Y-103781000D01*
X144356000Y-102581001D01*
X144416402Y-102606021D01*
X144541981Y-102631000D01*
X144670019Y-102631000D01*
X144795598Y-102606021D01*
X144856000Y-102581001D01*
X144856000Y-103781000D01*
X145953828Y-103781000D01*
X145953844Y-103780999D01*
X146013372Y-103774598D01*
X146013379Y-103774596D01*
X146148086Y-103724354D01*
X146148093Y-103724350D01*
X146263187Y-103638190D01*
X146263190Y-103638187D01*
X146349350Y-103523093D01*
X146349354Y-103523086D01*
X146399596Y-103388379D01*
X146399598Y-103388372D01*
X146405999Y-103328844D01*
X146406000Y-103328827D01*
X146406000Y-102231000D01*
X145206001Y-102231000D01*
X145231021Y-102170598D01*
X145256000Y-102045019D01*
X145256000Y-101916981D01*
X145231021Y-101791402D01*
X145206001Y-101731000D01*
X146406000Y-101731000D01*
X146406000Y-101025613D01*
X146425685Y-100958574D01*
X146478489Y-100912819D01*
X146547647Y-100902875D01*
X146611203Y-100931900D01*
X146617681Y-100937932D01*
X147779233Y-102099484D01*
X147812718Y-102160807D01*
X147815205Y-102177896D01*
X147820617Y-102250103D01*
X147820618Y-102250106D01*
X147880663Y-102513186D01*
X147880666Y-102513195D01*
X147926901Y-102631000D01*
X147979257Y-102764398D01*
X148114185Y-102998102D01*
X148167655Y-103065151D01*
X148282442Y-103209089D01*
X148469183Y-103382358D01*
X148480259Y-103392635D01*
X148703226Y-103544651D01*
X148946359Y-103661738D01*
X149204228Y-103741280D01*
X149204229Y-103741280D01*
X149204232Y-103741281D01*
X149471063Y-103781499D01*
X149471068Y-103781499D01*
X149471071Y-103781500D01*
X149471072Y-103781500D01*
X149740928Y-103781500D01*
X149740929Y-103781500D01*
X149740936Y-103781499D01*
X150007767Y-103741281D01*
X150007768Y-103741280D01*
X150007772Y-103741280D01*
X150265641Y-103661738D01*
X150508775Y-103544651D01*
X150731741Y-103392635D01*
X150929561Y-103209085D01*
X151097815Y-102998102D01*
X151232743Y-102764398D01*
X151331334Y-102513195D01*
X151391383Y-102250103D01*
X151411549Y-101981000D01*
X151391383Y-101711897D01*
X151331334Y-101448805D01*
X151232743Y-101197602D01*
X151097815Y-100963898D01*
X150929561Y-100752915D01*
X150929560Y-100752914D01*
X150929557Y-100752910D01*
X150800469Y-100633135D01*
X170872500Y-100633135D01*
X170872500Y-103328870D01*
X170872501Y-103328876D01*
X170878908Y-103388483D01*
X170929202Y-103523328D01*
X170929206Y-103523335D01*
X171015452Y-103638544D01*
X171015455Y-103638547D01*
X171130664Y-103724793D01*
X171130671Y-103724797D01*
X171265517Y-103775091D01*
X171265516Y-103775091D01*
X171272444Y-103775835D01*
X171325127Y-103781500D01*
X174020872Y-103781499D01*
X174080483Y-103775091D01*
X174215331Y-103724796D01*
X174330546Y-103638546D01*
X174416796Y-103523331D01*
X174467091Y-103388483D01*
X174473500Y-103328873D01*
X174473499Y-101980995D01*
X175867953Y-101980995D01*
X175867953Y-101981004D01*
X175888113Y-102250026D01*
X175888113Y-102250028D01*
X175948142Y-102513033D01*
X175948148Y-102513052D01*
X176046709Y-102764181D01*
X176046708Y-102764181D01*
X176181602Y-102997822D01*
X176235294Y-103065151D01*
X176235295Y-103065151D01*
X177071958Y-102228488D01*
X177096978Y-102288890D01*
X177168112Y-102395351D01*
X177258649Y-102485888D01*
X177365110Y-102557022D01*
X177425510Y-102582041D01*
X176587848Y-103419702D01*
X176770483Y-103544220D01*
X176770485Y-103544221D01*
X177013539Y-103661269D01*
X177013537Y-103661269D01*
X177271337Y-103740790D01*
X177271343Y-103740792D01*
X177538101Y-103780999D01*
X177538110Y-103781000D01*
X177807890Y-103781000D01*
X177807898Y-103780999D01*
X178074656Y-103740792D01*
X178074662Y-103740790D01*
X178332461Y-103661269D01*
X178575521Y-103544218D01*
X178758150Y-103419702D01*
X177920488Y-102582041D01*
X177980890Y-102557022D01*
X178087351Y-102485888D01*
X178177888Y-102395351D01*
X178249022Y-102288890D01*
X178274041Y-102228488D01*
X179110703Y-103065151D01*
X179110704Y-103065150D01*
X179164393Y-102997828D01*
X179164400Y-102997817D01*
X179299290Y-102764181D01*
X179397851Y-102513052D01*
X179397857Y-102513033D01*
X179457886Y-102250028D01*
X179457886Y-102250026D01*
X179478047Y-101981004D01*
X179478047Y-101980995D01*
X179457886Y-101711973D01*
X179457886Y-101711971D01*
X179397857Y-101448966D01*
X179397851Y-101448947D01*
X179299290Y-101197818D01*
X179299291Y-101197818D01*
X179164397Y-100964177D01*
X179110704Y-100896847D01*
X178274041Y-101733510D01*
X178249022Y-101673110D01*
X178177888Y-101566649D01*
X178087351Y-101476112D01*
X177980890Y-101404978D01*
X177920488Y-101379958D01*
X178758150Y-100542296D01*
X178575517Y-100417779D01*
X178575516Y-100417778D01*
X178332460Y-100300730D01*
X178332462Y-100300730D01*
X178074662Y-100221209D01*
X178074656Y-100221207D01*
X177807898Y-100181000D01*
X177538101Y-100181000D01*
X177271343Y-100221207D01*
X177271337Y-100221209D01*
X177013538Y-100300730D01*
X176770485Y-100417778D01*
X176770476Y-100417783D01*
X176587848Y-100542296D01*
X177425511Y-101379958D01*
X177365110Y-101404978D01*
X177258649Y-101476112D01*
X177168112Y-101566649D01*
X177096978Y-101673110D01*
X177071958Y-101733511D01*
X176235295Y-100896848D01*
X176181600Y-100964180D01*
X176046709Y-101197818D01*
X175948148Y-101448947D01*
X175948142Y-101448966D01*
X175888113Y-101711971D01*
X175888113Y-101711973D01*
X175867953Y-101980995D01*
X174473499Y-101980995D01*
X174473499Y-100633128D01*
X174467091Y-100573517D01*
X174465542Y-100569365D01*
X174416797Y-100438671D01*
X174416793Y-100438664D01*
X174330547Y-100323455D01*
X174330544Y-100323452D01*
X174215335Y-100237206D01*
X174215328Y-100237202D01*
X174080482Y-100186908D01*
X174080483Y-100186908D01*
X174020883Y-100180501D01*
X174020881Y-100180500D01*
X174020873Y-100180500D01*
X174020864Y-100180500D01*
X171325129Y-100180500D01*
X171325123Y-100180501D01*
X171265516Y-100186908D01*
X171130671Y-100237202D01*
X171130664Y-100237206D01*
X171015455Y-100323452D01*
X171015452Y-100323455D01*
X170929206Y-100438664D01*
X170929202Y-100438671D01*
X170878908Y-100573517D01*
X170872501Y-100633116D01*
X170872501Y-100633123D01*
X170872500Y-100633135D01*
X150800469Y-100633135D01*
X150731741Y-100569365D01*
X150692038Y-100542296D01*
X150508775Y-100417349D01*
X150508771Y-100417347D01*
X150508768Y-100417345D01*
X150508767Y-100417344D01*
X150265643Y-100300263D01*
X150265645Y-100300263D01*
X150007773Y-100220720D01*
X150007767Y-100220718D01*
X149792840Y-100188324D01*
X149729483Y-100158868D01*
X149723640Y-100153390D01*
X141492819Y-91922568D01*
X141459334Y-91861245D01*
X141456500Y-91834887D01*
X141456500Y-89284999D01*
X156281192Y-89284999D01*
X156281193Y-89285000D01*
X157606639Y-89285000D01*
X157599743Y-89301649D01*
X157569000Y-89456207D01*
X157569000Y-89613793D01*
X157599743Y-89768351D01*
X157606639Y-89785000D01*
X156281193Y-89785000D01*
X156283697Y-89821619D01*
X156342146Y-90102888D01*
X156342150Y-90102902D01*
X156438355Y-90373595D01*
X156570527Y-90628676D01*
X156736204Y-90863385D01*
X156736204Y-90863386D01*
X156932288Y-91073341D01*
X157155135Y-91254641D01*
X157155146Y-91254648D01*
X157400607Y-91403917D01*
X157664108Y-91518371D01*
X157940737Y-91595879D01*
X157940746Y-91595881D01*
X158118999Y-91620380D01*
X158119000Y-91620380D01*
X158119000Y-90297360D01*
X158135649Y-90304257D01*
X158290207Y-90335000D01*
X158447793Y-90335000D01*
X158602351Y-90304257D01*
X158619000Y-90297360D01*
X158619000Y-91620380D01*
X158797253Y-91595881D01*
X158797262Y-91595879D01*
X159073891Y-91518371D01*
X159337392Y-91403917D01*
X159403365Y-91363798D01*
X173917173Y-91363798D01*
X173917173Y-91363801D01*
X173935643Y-91574920D01*
X173935645Y-91574931D01*
X173990493Y-91779629D01*
X173990497Y-91779638D01*
X174080062Y-91971712D01*
X174080063Y-91971714D01*
X174117733Y-92025512D01*
X174117734Y-92025513D01*
X174684983Y-91458263D01*
X174706958Y-91540273D01*
X174767149Y-91644527D01*
X174852273Y-91729651D01*
X174956527Y-91789842D01*
X175038535Y-91811816D01*
X174471285Y-92379065D01*
X174525087Y-92416737D01*
X174717161Y-92506302D01*
X174717170Y-92506306D01*
X174921868Y-92561154D01*
X174921879Y-92561156D01*
X175132998Y-92579627D01*
X175133002Y-92579627D01*
X175344120Y-92561156D01*
X175344131Y-92561154D01*
X175548829Y-92506306D01*
X175548838Y-92506302D01*
X175740913Y-92416737D01*
X175740917Y-92416735D01*
X175794713Y-92379066D01*
X175227464Y-91811816D01*
X175309473Y-91789842D01*
X175413727Y-91729651D01*
X175498851Y-91644527D01*
X175559042Y-91540273D01*
X175581016Y-91458263D01*
X176148266Y-92025513D01*
X176185935Y-91971717D01*
X176185937Y-91971713D01*
X176275502Y-91779638D01*
X176275506Y-91779629D01*
X176330354Y-91574931D01*
X176330356Y-91574920D01*
X176348827Y-91363801D01*
X176348827Y-91363798D01*
X176330356Y-91152679D01*
X176330354Y-91152668D01*
X176275506Y-90947970D01*
X176275502Y-90947961D01*
X176185934Y-90755883D01*
X176148266Y-90702086D01*
X176148265Y-90702085D01*
X175581016Y-91269335D01*
X175559042Y-91187327D01*
X175498851Y-91083073D01*
X175413727Y-90997949D01*
X175309473Y-90937758D01*
X175227464Y-90915783D01*
X175794713Y-90348534D01*
X175794712Y-90348533D01*
X175740914Y-90310863D01*
X175740912Y-90310862D01*
X175548838Y-90221297D01*
X175548829Y-90221293D01*
X175344131Y-90166445D01*
X175344120Y-90166443D01*
X175133002Y-90147973D01*
X175132998Y-90147973D01*
X174921879Y-90166443D01*
X174921868Y-90166445D01*
X174717170Y-90221293D01*
X174717161Y-90221297D01*
X174525088Y-90310862D01*
X174471286Y-90348533D01*
X175038536Y-90915783D01*
X174956527Y-90937758D01*
X174852273Y-90997949D01*
X174767149Y-91083073D01*
X174706958Y-91187327D01*
X174684983Y-91269336D01*
X174117733Y-90702086D01*
X174080062Y-90755888D01*
X173990497Y-90947961D01*
X173990493Y-90947970D01*
X173935645Y-91152668D01*
X173935643Y-91152679D01*
X173917173Y-91363798D01*
X159403365Y-91363798D01*
X159582853Y-91254648D01*
X159582864Y-91254641D01*
X159805711Y-91073341D01*
X160001795Y-90863386D01*
X160001795Y-90863385D01*
X160167472Y-90628676D01*
X160299644Y-90373595D01*
X160395849Y-90102902D01*
X160395853Y-90102888D01*
X160454302Y-89821619D01*
X160456807Y-89785000D01*
X159131361Y-89785000D01*
X159138257Y-89768351D01*
X159169000Y-89613793D01*
X159169000Y-89456207D01*
X159138257Y-89301649D01*
X159131361Y-89285000D01*
X160456807Y-89285000D01*
X160456807Y-89284999D01*
X160454302Y-89248380D01*
X160395853Y-88967111D01*
X160395849Y-88967097D01*
X160299644Y-88696404D01*
X160167472Y-88441323D01*
X160001795Y-88206614D01*
X160001795Y-88206613D01*
X159805711Y-87996658D01*
X159582864Y-87815358D01*
X159582853Y-87815351D01*
X159337392Y-87666082D01*
X159073891Y-87551628D01*
X158797262Y-87474120D01*
X158797255Y-87474119D01*
X158619000Y-87449618D01*
X158619000Y-88772639D01*
X158602351Y-88765743D01*
X158447793Y-88735000D01*
X158290207Y-88735000D01*
X158135649Y-88765743D01*
X158119000Y-88772639D01*
X158119000Y-87449618D01*
X157940744Y-87474119D01*
X157940737Y-87474120D01*
X157664108Y-87551628D01*
X157400607Y-87666082D01*
X157155146Y-87815351D01*
X157155135Y-87815358D01*
X156932288Y-87996658D01*
X156736204Y-88206613D01*
X156736204Y-88206614D01*
X156570527Y-88441323D01*
X156438355Y-88696404D01*
X156342150Y-88967097D01*
X156342146Y-88967111D01*
X156283697Y-89248380D01*
X156281192Y-89284999D01*
X141456500Y-89284999D01*
X141456500Y-85600935D01*
X173921300Y-85600935D01*
X173921300Y-87119070D01*
X173921301Y-87119076D01*
X173927708Y-87178683D01*
X173978002Y-87313528D01*
X173978006Y-87313535D01*
X174064252Y-87428744D01*
X174064255Y-87428747D01*
X174179464Y-87514993D01*
X174179471Y-87514997D01*
X174314317Y-87565291D01*
X174314316Y-87565291D01*
X174321244Y-87566035D01*
X174373927Y-87571700D01*
X175892072Y-87571699D01*
X175951683Y-87565291D01*
X176086531Y-87514996D01*
X176201746Y-87428746D01*
X176287996Y-87313531D01*
X176338291Y-87178683D01*
X176344700Y-87119073D01*
X176344699Y-85600928D01*
X176338291Y-85541317D01*
X176287996Y-85406469D01*
X176287995Y-85406468D01*
X176287993Y-85406464D01*
X176201747Y-85291255D01*
X176201744Y-85291252D01*
X176086535Y-85205006D01*
X176086528Y-85205002D01*
X175951682Y-85154708D01*
X175951683Y-85154708D01*
X175892083Y-85148301D01*
X175892081Y-85148300D01*
X175892073Y-85148300D01*
X175892064Y-85148300D01*
X174373929Y-85148300D01*
X174373923Y-85148301D01*
X174314316Y-85154708D01*
X174179471Y-85205002D01*
X174179464Y-85205006D01*
X174064255Y-85291252D01*
X174064252Y-85291255D01*
X173978006Y-85406464D01*
X173978002Y-85406471D01*
X173927708Y-85541317D01*
X173921301Y-85600916D01*
X173921301Y-85600923D01*
X173921300Y-85600935D01*
X141456500Y-85600935D01*
X141456500Y-80269778D01*
X142744500Y-80269778D01*
X142744500Y-82290221D01*
X142778985Y-82507952D01*
X142847103Y-82717603D01*
X142847104Y-82717606D01*
X142947187Y-82914025D01*
X143076752Y-83092358D01*
X143076756Y-83092363D01*
X143232636Y-83248243D01*
X143232641Y-83248247D01*
X143388192Y-83361260D01*
X143410978Y-83377815D01*
X143539375Y-83443237D01*
X143607393Y-83477895D01*
X143607396Y-83477896D01*
X143712221Y-83511955D01*
X143817049Y-83546015D01*
X144034778Y-83580500D01*
X144034779Y-83580500D01*
X144255221Y-83580500D01*
X144255222Y-83580500D01*
X144472951Y-83546015D01*
X144682606Y-83477895D01*
X144879022Y-83377815D01*
X145057365Y-83248242D01*
X145213242Y-83092365D01*
X145342815Y-82914022D01*
X145442895Y-82717606D01*
X145511015Y-82507951D01*
X145545500Y-82290222D01*
X145545500Y-80269778D01*
X150364500Y-80269778D01*
X150364500Y-82290221D01*
X150398985Y-82507952D01*
X150467103Y-82717603D01*
X150467104Y-82717606D01*
X150567187Y-82914025D01*
X150696752Y-83092358D01*
X150696756Y-83092363D01*
X150852636Y-83248243D01*
X150852641Y-83248247D01*
X151008192Y-83361260D01*
X151030978Y-83377815D01*
X151159375Y-83443237D01*
X151227393Y-83477895D01*
X151227396Y-83477896D01*
X151332221Y-83511955D01*
X151437049Y-83546015D01*
X151654778Y-83580500D01*
X151654779Y-83580500D01*
X151875221Y-83580500D01*
X151875222Y-83580500D01*
X152092951Y-83546015D01*
X152302606Y-83477895D01*
X152499022Y-83377815D01*
X152677365Y-83248242D01*
X152833242Y-83092365D01*
X152962815Y-82914022D01*
X153062895Y-82717606D01*
X153131015Y-82507951D01*
X153165500Y-82290222D01*
X153165500Y-80269778D01*
X153131015Y-80052049D01*
X153062895Y-79842394D01*
X153062895Y-79842393D01*
X153028237Y-79774375D01*
X152962815Y-79645978D01*
X152946260Y-79623192D01*
X152833247Y-79467641D01*
X152833243Y-79467636D01*
X152677363Y-79311756D01*
X152677358Y-79311752D01*
X152499025Y-79182187D01*
X152499024Y-79182186D01*
X152499022Y-79182185D01*
X152436096Y-79150122D01*
X152302606Y-79082104D01*
X152302603Y-79082103D01*
X152092952Y-79013985D01*
X151984086Y-78996742D01*
X151875222Y-78979500D01*
X151654778Y-78979500D01*
X151582201Y-78990995D01*
X151437047Y-79013985D01*
X151227396Y-79082103D01*
X151227393Y-79082104D01*
X151030974Y-79182187D01*
X150852641Y-79311752D01*
X150852636Y-79311756D01*
X150696756Y-79467636D01*
X150696752Y-79467641D01*
X150567187Y-79645974D01*
X150467104Y-79842393D01*
X150467103Y-79842396D01*
X150398985Y-80052047D01*
X150364500Y-80269778D01*
X145545500Y-80269778D01*
X145511015Y-80052049D01*
X145442895Y-79842394D01*
X145442895Y-79842393D01*
X145408237Y-79774375D01*
X145342815Y-79645978D01*
X145326260Y-79623192D01*
X145213247Y-79467641D01*
X145213243Y-79467636D01*
X145057363Y-79311756D01*
X145057358Y-79311752D01*
X144879025Y-79182187D01*
X144879024Y-79182186D01*
X144879022Y-79182185D01*
X144816096Y-79150122D01*
X144682606Y-79082104D01*
X144682603Y-79082103D01*
X144472952Y-79013985D01*
X144364086Y-78996742D01*
X144255222Y-78979500D01*
X144034778Y-78979500D01*
X143962201Y-78990995D01*
X143817047Y-79013985D01*
X143607396Y-79082103D01*
X143607393Y-79082104D01*
X143410974Y-79182187D01*
X143232641Y-79311752D01*
X143232636Y-79311756D01*
X143076756Y-79467636D01*
X143076752Y-79467641D01*
X142947187Y-79645974D01*
X142847104Y-79842393D01*
X142847103Y-79842396D01*
X142778985Y-80052047D01*
X142744500Y-80269778D01*
X141456500Y-80269778D01*
X141456500Y-77088998D01*
X169890532Y-77088998D01*
X169890532Y-77089001D01*
X169910364Y-77315686D01*
X169910366Y-77315697D01*
X169969258Y-77535488D01*
X169969261Y-77535497D01*
X170065431Y-77741732D01*
X170065432Y-77741734D01*
X170195954Y-77928141D01*
X170356858Y-78089045D01*
X170356861Y-78089047D01*
X170543266Y-78219568D01*
X170749504Y-78315739D01*
X170969308Y-78374635D01*
X171131230Y-78388801D01*
X171195998Y-78394468D01*
X171196000Y-78394468D01*
X171196002Y-78394468D01*
X171252673Y-78389509D01*
X171422692Y-78374635D01*
X171642496Y-78315739D01*
X171848734Y-78219568D01*
X172035139Y-78089047D01*
X172196047Y-77928139D01*
X172326568Y-77741734D01*
X172422739Y-77535496D01*
X172481635Y-77315692D01*
X172501118Y-77092999D01*
X179442127Y-77092999D01*
X179442128Y-77093000D01*
X180405314Y-77093000D01*
X180400920Y-77097394D01*
X180348259Y-77188606D01*
X180321000Y-77290339D01*
X180321000Y-77395661D01*
X180348259Y-77497394D01*
X180400920Y-77588606D01*
X180405314Y-77593000D01*
X179442128Y-77593000D01*
X179494730Y-77789317D01*
X179494734Y-77789326D01*
X179590865Y-77995482D01*
X179721342Y-78181820D01*
X179882179Y-78342657D01*
X180068517Y-78473134D01*
X180274673Y-78569265D01*
X180274682Y-78569269D01*
X180470999Y-78621872D01*
X180471000Y-78621871D01*
X180471000Y-77658686D01*
X180475394Y-77663080D01*
X180566606Y-77715741D01*
X180668339Y-77743000D01*
X180773661Y-77743000D01*
X180875394Y-77715741D01*
X180966606Y-77663080D01*
X180971000Y-77658686D01*
X180971000Y-78621872D01*
X181167317Y-78569269D01*
X181167326Y-78569265D01*
X181373482Y-78473134D01*
X181559820Y-78342657D01*
X181720657Y-78181820D01*
X181851134Y-77995482D01*
X181947265Y-77789326D01*
X181947269Y-77789317D01*
X181999872Y-77593000D01*
X181036686Y-77593000D01*
X181041080Y-77588606D01*
X181093741Y-77497394D01*
X181121000Y-77395661D01*
X181121000Y-77290339D01*
X181093741Y-77188606D01*
X181041080Y-77097394D01*
X181036686Y-77093000D01*
X181999872Y-77093000D01*
X181999872Y-77092999D01*
X181947269Y-76896682D01*
X181947265Y-76896673D01*
X181851134Y-76690517D01*
X181720657Y-76504179D01*
X181559820Y-76343342D01*
X181373482Y-76212865D01*
X181167328Y-76116734D01*
X180971000Y-76064127D01*
X180971000Y-77027314D01*
X180966606Y-77022920D01*
X180875394Y-76970259D01*
X180773661Y-76943000D01*
X180668339Y-76943000D01*
X180566606Y-76970259D01*
X180475394Y-77022920D01*
X180471000Y-77027314D01*
X180471000Y-76064127D01*
X180274671Y-76116734D01*
X180068517Y-76212865D01*
X179882179Y-76343342D01*
X179721342Y-76504179D01*
X179590865Y-76690517D01*
X179494734Y-76896673D01*
X179494730Y-76896682D01*
X179442127Y-77092999D01*
X172501118Y-77092999D01*
X172501468Y-77089000D01*
X172481635Y-76862308D01*
X172422739Y-76642504D01*
X172326568Y-76436266D01*
X172196047Y-76249861D01*
X172196045Y-76249858D01*
X172035141Y-76088954D01*
X171848734Y-75958432D01*
X171848732Y-75958431D01*
X171642497Y-75862261D01*
X171642488Y-75862258D01*
X171422697Y-75803366D01*
X171422693Y-75803365D01*
X171422692Y-75803365D01*
X171422691Y-75803364D01*
X171422686Y-75803364D01*
X171196002Y-75783532D01*
X171195998Y-75783532D01*
X170969313Y-75803364D01*
X170969302Y-75803366D01*
X170749511Y-75862258D01*
X170749502Y-75862261D01*
X170543267Y-75958431D01*
X170543265Y-75958432D01*
X170356858Y-76088954D01*
X170195954Y-76249858D01*
X170065432Y-76436265D01*
X170065431Y-76436267D01*
X169969261Y-76642502D01*
X169969258Y-76642511D01*
X169910366Y-76862302D01*
X169910364Y-76862313D01*
X169890532Y-77088998D01*
X141456500Y-77088998D01*
X141456500Y-72647135D01*
X156268500Y-72647135D01*
X156268500Y-75942870D01*
X156268501Y-75942876D01*
X156274908Y-76002483D01*
X156325202Y-76137328D01*
X156325206Y-76137335D01*
X156411452Y-76252544D01*
X156411455Y-76252547D01*
X156526664Y-76338793D01*
X156526671Y-76338797D01*
X156661517Y-76389091D01*
X156661516Y-76389091D01*
X156668444Y-76389835D01*
X156721127Y-76395500D01*
X160016872Y-76395499D01*
X160076483Y-76389091D01*
X160211331Y-76338796D01*
X160326546Y-76252546D01*
X160412796Y-76137331D01*
X160463091Y-76002483D01*
X160469500Y-75942873D01*
X160469499Y-72647128D01*
X160463091Y-72587517D01*
X160412796Y-72452669D01*
X160412795Y-72452668D01*
X160412793Y-72452664D01*
X160326547Y-72337455D01*
X160326544Y-72337452D01*
X160211335Y-72251206D01*
X160211328Y-72251202D01*
X160076482Y-72200908D01*
X160076483Y-72200908D01*
X160016883Y-72194501D01*
X160016881Y-72194500D01*
X160016873Y-72194500D01*
X160016864Y-72194500D01*
X156721129Y-72194500D01*
X156721123Y-72194501D01*
X156661516Y-72200908D01*
X156526671Y-72251202D01*
X156526664Y-72251206D01*
X156411455Y-72337452D01*
X156411452Y-72337455D01*
X156325206Y-72452664D01*
X156325202Y-72452671D01*
X156274908Y-72587517D01*
X156270395Y-72629497D01*
X156268501Y-72647123D01*
X156268500Y-72647135D01*
X141456500Y-72647135D01*
X141456500Y-72182998D01*
X175097532Y-72182998D01*
X175097532Y-72183001D01*
X175117364Y-72409686D01*
X175117366Y-72409697D01*
X175176258Y-72629488D01*
X175176261Y-72629497D01*
X175272431Y-72835732D01*
X175272432Y-72835734D01*
X175402954Y-73022141D01*
X175563858Y-73183045D01*
X175563861Y-73183047D01*
X175750266Y-73313568D01*
X175956504Y-73409739D01*
X176176308Y-73468635D01*
X176338230Y-73482801D01*
X176402998Y-73488468D01*
X176403000Y-73488468D01*
X176403002Y-73488468D01*
X176459673Y-73483509D01*
X176629692Y-73468635D01*
X176849496Y-73409739D01*
X177055734Y-73313568D01*
X177242139Y-73183047D01*
X177403047Y-73022139D01*
X177533568Y-72835734D01*
X177629739Y-72629496D01*
X177688635Y-72409692D01*
X177708468Y-72183000D01*
X177688635Y-71956308D01*
X177629739Y-71736504D01*
X177533568Y-71530266D01*
X177403047Y-71343861D01*
X177403045Y-71343858D01*
X177242141Y-71182954D01*
X177055734Y-71052432D01*
X177055732Y-71052431D01*
X176849497Y-70956261D01*
X176849488Y-70956258D01*
X176629697Y-70897366D01*
X176629693Y-70897365D01*
X176629692Y-70897365D01*
X176629691Y-70897364D01*
X176629686Y-70897364D01*
X176403002Y-70877532D01*
X176402998Y-70877532D01*
X176176313Y-70897364D01*
X176176302Y-70897366D01*
X175956511Y-70956258D01*
X175956502Y-70956261D01*
X175750267Y-71052431D01*
X175750265Y-71052432D01*
X175563858Y-71182954D01*
X175402954Y-71343858D01*
X175272432Y-71530265D01*
X175272431Y-71530267D01*
X175176261Y-71736502D01*
X175176258Y-71736511D01*
X175117366Y-71956302D01*
X175117364Y-71956313D01*
X175097532Y-72182998D01*
X141456500Y-72182998D01*
X141456500Y-68439113D01*
X141476185Y-68372074D01*
X141492819Y-68351432D01*
X143662432Y-66181819D01*
X143723755Y-66148334D01*
X143750113Y-66145500D01*
X146322746Y-66145500D01*
X152921887Y-66145500D01*
X152988926Y-66165185D01*
X153009568Y-66181819D01*
X155882731Y-69054982D01*
X155916216Y-69116305D01*
X155919050Y-69142663D01*
X155919050Y-69713720D01*
X155919051Y-69713726D01*
X155925458Y-69773333D01*
X155975752Y-69908178D01*
X155975756Y-69908185D01*
X156062002Y-70023394D01*
X156062005Y-70023397D01*
X156177214Y-70109643D01*
X156177221Y-70109647D01*
X156312067Y-70159941D01*
X156312066Y-70159941D01*
X156318994Y-70160685D01*
X156371677Y-70166350D01*
X158486722Y-70166349D01*
X158546333Y-70159941D01*
X158681181Y-70109646D01*
X158796396Y-70023396D01*
X158882646Y-69908181D01*
X158932941Y-69773333D01*
X158939350Y-69713723D01*
X158939349Y-68656200D01*
X159318482Y-68656200D01*
X159337126Y-68893095D01*
X159392596Y-69124145D01*
X159483532Y-69343686D01*
X159600647Y-69534799D01*
X160214078Y-68921368D01*
X160236306Y-68975032D01*
X160309969Y-69085276D01*
X160403724Y-69179031D01*
X160513968Y-69252694D01*
X160567630Y-69274921D01*
X159954199Y-69888351D01*
X160145313Y-70005467D01*
X160364854Y-70096403D01*
X160595904Y-70151873D01*
X160832800Y-70170517D01*
X161069695Y-70151873D01*
X161300745Y-70096403D01*
X161520286Y-70005467D01*
X161711399Y-69888352D01*
X161711399Y-69888351D01*
X161097969Y-69274921D01*
X161151632Y-69252694D01*
X161261876Y-69179031D01*
X161355631Y-69085276D01*
X161429294Y-68975032D01*
X161451521Y-68921369D01*
X162064951Y-69534799D01*
X162064952Y-69534799D01*
X162182067Y-69343686D01*
X162273003Y-69124145D01*
X162328473Y-68893095D01*
X162347117Y-68656200D01*
X162722082Y-68656200D01*
X162740726Y-68893095D01*
X162796196Y-69124145D01*
X162887132Y-69343686D01*
X163004247Y-69534799D01*
X163617678Y-68921368D01*
X163639906Y-68975032D01*
X163713569Y-69085276D01*
X163807324Y-69179031D01*
X163917568Y-69252694D01*
X163971230Y-69274921D01*
X163357799Y-69888351D01*
X163548913Y-70005467D01*
X163768454Y-70096403D01*
X163999504Y-70151873D01*
X164236400Y-70170517D01*
X164473295Y-70151873D01*
X164704345Y-70096403D01*
X164923886Y-70005467D01*
X165114999Y-69888352D01*
X165114999Y-69888351D01*
X164501569Y-69274921D01*
X164555232Y-69252694D01*
X164665476Y-69179031D01*
X164759231Y-69085276D01*
X164832894Y-68975032D01*
X164855121Y-68921369D01*
X165468551Y-69534799D01*
X165468552Y-69534799D01*
X165585667Y-69343686D01*
X165676603Y-69124145D01*
X165732073Y-68893095D01*
X165750717Y-68656200D01*
X165732073Y-68419304D01*
X165676603Y-68188254D01*
X165585667Y-67968713D01*
X165468551Y-67777599D01*
X164855121Y-68391030D01*
X164832894Y-68337368D01*
X164759231Y-68227124D01*
X164665476Y-68133369D01*
X164555232Y-68059706D01*
X164501569Y-68037478D01*
X165114999Y-67424047D01*
X164923886Y-67306932D01*
X164704345Y-67215996D01*
X164473295Y-67160526D01*
X164236400Y-67141882D01*
X163999504Y-67160526D01*
X163768454Y-67215996D01*
X163548913Y-67306932D01*
X163357799Y-67424047D01*
X163971230Y-68037478D01*
X163917568Y-68059706D01*
X163807324Y-68133369D01*
X163713569Y-68227124D01*
X163639906Y-68337368D01*
X163617678Y-68391030D01*
X163004247Y-67777599D01*
X162887132Y-67968713D01*
X162796196Y-68188254D01*
X162740726Y-68419304D01*
X162722082Y-68656200D01*
X162347117Y-68656200D01*
X162328473Y-68419304D01*
X162273003Y-68188254D01*
X162182067Y-67968713D01*
X162064951Y-67777599D01*
X161451521Y-68391030D01*
X161429294Y-68337368D01*
X161355631Y-68227124D01*
X161261876Y-68133369D01*
X161151632Y-68059706D01*
X161097969Y-68037478D01*
X161711399Y-67424047D01*
X161520286Y-67306932D01*
X161300745Y-67215996D01*
X161069695Y-67160526D01*
X160832800Y-67141882D01*
X160595904Y-67160526D01*
X160364854Y-67215996D01*
X160145313Y-67306932D01*
X159954199Y-67424047D01*
X160567630Y-68037478D01*
X160513968Y-68059706D01*
X160403724Y-68133369D01*
X160309969Y-68227124D01*
X160236306Y-68337368D01*
X160214078Y-68391030D01*
X159600647Y-67777599D01*
X159483532Y-67968713D01*
X159392596Y-68188254D01*
X159337126Y-68419304D01*
X159318482Y-68656200D01*
X158939349Y-68656200D01*
X158939349Y-67598678D01*
X158932941Y-67539067D01*
X158890041Y-67424047D01*
X158882647Y-67404221D01*
X158882643Y-67404214D01*
X158796397Y-67289005D01*
X158796394Y-67289002D01*
X158681185Y-67202756D01*
X158681178Y-67202752D01*
X158546332Y-67152458D01*
X158546333Y-67152458D01*
X158486733Y-67146051D01*
X158486731Y-67146050D01*
X158486723Y-67146050D01*
X158486715Y-67146050D01*
X157915663Y-67146050D01*
X157848624Y-67126365D01*
X157827982Y-67109731D01*
X157647249Y-66928998D01*
X169890532Y-66928998D01*
X169890532Y-66929001D01*
X169910364Y-67155686D01*
X169910366Y-67155697D01*
X169969258Y-67375488D01*
X169969261Y-67375497D01*
X170065431Y-67581732D01*
X170065432Y-67581734D01*
X170195954Y-67768141D01*
X170356858Y-67929045D01*
X170356861Y-67929047D01*
X170543266Y-68059568D01*
X170749504Y-68155739D01*
X170969308Y-68214635D01*
X171112058Y-68227124D01*
X171195998Y-68234468D01*
X171196000Y-68234468D01*
X171196002Y-68234468D01*
X171252673Y-68229509D01*
X171422692Y-68214635D01*
X171642496Y-68155739D01*
X171848734Y-68059568D01*
X172035139Y-67929047D01*
X172196047Y-67768139D01*
X172326568Y-67581734D01*
X172422739Y-67375496D01*
X172474318Y-67182998D01*
X175097532Y-67182998D01*
X175097532Y-67183001D01*
X175117364Y-67409686D01*
X175117366Y-67409697D01*
X175176258Y-67629488D01*
X175176261Y-67629497D01*
X175272431Y-67835732D01*
X175272432Y-67835734D01*
X175402954Y-68022141D01*
X175563858Y-68183045D01*
X175563861Y-68183047D01*
X175750266Y-68313568D01*
X175956504Y-68409739D01*
X176176308Y-68468635D01*
X176338230Y-68482801D01*
X176402998Y-68488468D01*
X176403000Y-68488468D01*
X176403002Y-68488468D01*
X176459673Y-68483509D01*
X176629692Y-68468635D01*
X176849496Y-68409739D01*
X177055734Y-68313568D01*
X177242139Y-68183047D01*
X177403047Y-68022139D01*
X177533568Y-67835734D01*
X177629739Y-67629496D01*
X177688635Y-67409692D01*
X177708468Y-67183000D01*
X177708468Y-67182998D01*
X179415532Y-67182998D01*
X179415532Y-67183001D01*
X179435364Y-67409686D01*
X179435366Y-67409697D01*
X179494258Y-67629488D01*
X179494261Y-67629497D01*
X179590431Y-67835732D01*
X179590432Y-67835734D01*
X179720954Y-68022141D01*
X179881858Y-68183045D01*
X179881861Y-68183047D01*
X180068266Y-68313568D01*
X180274504Y-68409739D01*
X180494308Y-68468635D01*
X180656230Y-68482801D01*
X180720998Y-68488468D01*
X180721000Y-68488468D01*
X180721002Y-68488468D01*
X180777673Y-68483509D01*
X180947692Y-68468635D01*
X181167496Y-68409739D01*
X181373734Y-68313568D01*
X181560139Y-68183047D01*
X181721047Y-68022139D01*
X181851568Y-67835734D01*
X181947739Y-67629496D01*
X182006635Y-67409692D01*
X182026468Y-67183000D01*
X182006635Y-66956308D01*
X181947739Y-66736504D01*
X181851568Y-66530266D01*
X181721047Y-66343861D01*
X181721045Y-66343858D01*
X181560141Y-66182954D01*
X181373734Y-66052432D01*
X181373732Y-66052431D01*
X181167497Y-65956261D01*
X181167488Y-65956258D01*
X180947697Y-65897366D01*
X180947693Y-65897365D01*
X180947692Y-65897365D01*
X180947691Y-65897364D01*
X180947686Y-65897364D01*
X180721002Y-65877532D01*
X180720998Y-65877532D01*
X180494313Y-65897364D01*
X180494302Y-65897366D01*
X180274511Y-65956258D01*
X180274502Y-65956261D01*
X180068267Y-66052431D01*
X180068265Y-66052432D01*
X179881858Y-66182954D01*
X179720954Y-66343858D01*
X179590432Y-66530265D01*
X179590431Y-66530267D01*
X179494261Y-66736502D01*
X179494258Y-66736511D01*
X179435366Y-66956302D01*
X179435364Y-66956313D01*
X179415532Y-67182998D01*
X177708468Y-67182998D01*
X177688635Y-66956308D01*
X177629739Y-66736504D01*
X177533568Y-66530266D01*
X177403047Y-66343861D01*
X177403045Y-66343858D01*
X177242141Y-66182954D01*
X177055734Y-66052432D01*
X177055732Y-66052431D01*
X176849497Y-65956261D01*
X176849488Y-65956258D01*
X176629697Y-65897366D01*
X176629693Y-65897365D01*
X176629692Y-65897365D01*
X176629691Y-65897364D01*
X176629686Y-65897364D01*
X176403002Y-65877532D01*
X176402998Y-65877532D01*
X176176313Y-65897364D01*
X176176302Y-65897366D01*
X175956511Y-65956258D01*
X175956502Y-65956261D01*
X175750267Y-66052431D01*
X175750265Y-66052432D01*
X175563858Y-66182954D01*
X175402954Y-66343858D01*
X175272432Y-66530265D01*
X175272431Y-66530267D01*
X175176261Y-66736502D01*
X175176258Y-66736511D01*
X175117366Y-66956302D01*
X175117364Y-66956313D01*
X175097532Y-67182998D01*
X172474318Y-67182998D01*
X172481635Y-67155692D01*
X172501468Y-66929000D01*
X172481635Y-66702308D01*
X172422739Y-66482504D01*
X172326568Y-66276266D01*
X172196047Y-66089861D01*
X172196045Y-66089858D01*
X172035141Y-65928954D01*
X171848734Y-65798432D01*
X171848732Y-65798431D01*
X171642497Y-65702261D01*
X171642488Y-65702258D01*
X171422697Y-65643366D01*
X171422693Y-65643365D01*
X171422692Y-65643365D01*
X171422691Y-65643364D01*
X171422686Y-65643364D01*
X171196002Y-65623532D01*
X171195998Y-65623532D01*
X170969313Y-65643364D01*
X170969302Y-65643366D01*
X170749511Y-65702258D01*
X170749502Y-65702261D01*
X170543267Y-65798431D01*
X170543265Y-65798432D01*
X170356858Y-65928954D01*
X170195954Y-66089858D01*
X170065432Y-66276265D01*
X170065431Y-66276267D01*
X169969261Y-66482502D01*
X169969258Y-66482511D01*
X169910366Y-66702302D01*
X169910364Y-66702313D01*
X169890532Y-66928998D01*
X157647249Y-66928998D01*
X155361251Y-64643000D01*
X157616180Y-64643000D01*
X157634830Y-64879973D01*
X157690320Y-65111105D01*
X157690320Y-65111106D01*
X157781282Y-65330710D01*
X157781284Y-65330713D01*
X157905481Y-65533383D01*
X157905482Y-65533385D01*
X157905483Y-65533387D01*
X157905485Y-65533389D01*
X158059861Y-65714139D01*
X158240611Y-65868515D01*
X158240613Y-65868516D01*
X158240614Y-65868517D01*
X158240616Y-65868518D01*
X158443286Y-65992715D01*
X158443289Y-65992717D01*
X158662894Y-66083679D01*
X158861244Y-66131298D01*
X158894030Y-66139170D01*
X159131000Y-66157820D01*
X159367970Y-66139170D01*
X159599105Y-66083679D01*
X159599106Y-66083679D01*
X159818710Y-65992717D01*
X159818711Y-65992716D01*
X159818714Y-65992715D01*
X160021389Y-65868515D01*
X160202139Y-65714139D01*
X160356515Y-65533389D01*
X160480715Y-65330714D01*
X160571679Y-65111105D01*
X160627170Y-64879970D01*
X160645820Y-64643000D01*
X161019780Y-64643000D01*
X161038430Y-64879973D01*
X161093920Y-65111105D01*
X161093920Y-65111106D01*
X161184882Y-65330710D01*
X161184884Y-65330713D01*
X161309081Y-65533383D01*
X161309082Y-65533385D01*
X161309083Y-65533387D01*
X161309085Y-65533389D01*
X161463461Y-65714139D01*
X161644211Y-65868515D01*
X161644213Y-65868516D01*
X161644214Y-65868517D01*
X161644216Y-65868518D01*
X161846886Y-65992715D01*
X161846889Y-65992717D01*
X162066494Y-66083679D01*
X162264844Y-66131298D01*
X162297630Y-66139170D01*
X162534600Y-66157820D01*
X162771570Y-66139170D01*
X163002705Y-66083679D01*
X163002706Y-66083679D01*
X163222310Y-65992717D01*
X163222311Y-65992716D01*
X163222314Y-65992715D01*
X163424989Y-65868515D01*
X163605739Y-65714139D01*
X163760115Y-65533389D01*
X163884315Y-65330714D01*
X163975279Y-65111105D01*
X164030770Y-64879970D01*
X164049420Y-64643000D01*
X164030770Y-64406030D01*
X163975279Y-64174895D01*
X163975279Y-64174894D01*
X163975279Y-64174893D01*
X163884317Y-63955289D01*
X163884315Y-63955286D01*
X163760118Y-63752616D01*
X163760117Y-63752614D01*
X163760116Y-63752613D01*
X163760115Y-63752611D01*
X163605739Y-63571861D01*
X163424989Y-63417485D01*
X163424987Y-63417483D01*
X163424985Y-63417482D01*
X163424983Y-63417481D01*
X163222313Y-63293284D01*
X163222310Y-63293282D01*
X163002705Y-63202320D01*
X162771573Y-63146830D01*
X162534600Y-63128180D01*
X162297626Y-63146830D01*
X162066494Y-63202320D01*
X162066493Y-63202320D01*
X161846889Y-63293282D01*
X161846886Y-63293284D01*
X161644216Y-63417481D01*
X161644214Y-63417482D01*
X161463461Y-63571861D01*
X161309082Y-63752614D01*
X161309081Y-63752616D01*
X161184884Y-63955286D01*
X161184882Y-63955289D01*
X161093920Y-64174893D01*
X161093920Y-64174894D01*
X161038430Y-64406026D01*
X161019780Y-64643000D01*
X160645820Y-64643000D01*
X160627170Y-64406030D01*
X160571679Y-64174895D01*
X160571679Y-64174894D01*
X160571679Y-64174893D01*
X160480717Y-63955289D01*
X160480715Y-63955286D01*
X160356518Y-63752616D01*
X160356517Y-63752614D01*
X160356516Y-63752613D01*
X160356515Y-63752611D01*
X160202139Y-63571861D01*
X160021389Y-63417485D01*
X160021387Y-63417483D01*
X160021385Y-63417482D01*
X160021383Y-63417481D01*
X159818713Y-63293284D01*
X159818710Y-63293282D01*
X159599105Y-63202320D01*
X159367973Y-63146830D01*
X159131000Y-63128180D01*
X158894026Y-63146830D01*
X158662894Y-63202320D01*
X158662893Y-63202320D01*
X158443289Y-63293282D01*
X158443286Y-63293284D01*
X158240616Y-63417481D01*
X158240614Y-63417482D01*
X158059861Y-63571861D01*
X157905482Y-63752614D01*
X157905481Y-63752616D01*
X157781284Y-63955286D01*
X157781282Y-63955289D01*
X157690320Y-64174893D01*
X157690320Y-64174894D01*
X157634830Y-64406026D01*
X157616180Y-64643000D01*
X155361251Y-64643000D01*
X154439076Y-63720825D01*
X154439071Y-63720821D01*
X154263922Y-63593569D01*
X154263921Y-63593568D01*
X154263919Y-63593567D01*
X154202115Y-63562076D01*
X154071009Y-63495273D01*
X154071003Y-63495271D01*
X153865098Y-63428370D01*
X153865041Y-63428360D01*
X153678581Y-63398828D01*
X153651254Y-63394500D01*
X146539254Y-63394500D01*
X143237254Y-63394500D01*
X143020746Y-63394500D01*
X143020741Y-63394500D01*
X142806902Y-63428368D01*
X142600986Y-63495275D01*
X142408077Y-63593569D01*
X142232928Y-63720821D01*
X142232923Y-63720825D01*
X139031827Y-66921921D01*
X139002547Y-66962221D01*
X138962247Y-67017691D01*
X138933407Y-67057386D01*
X138904567Y-67097080D01*
X138806273Y-67289990D01*
X138806272Y-67289993D01*
X138739370Y-67495901D01*
X138705500Y-67709746D01*
X137660500Y-67709746D01*
X137660500Y-59689998D01*
X145215173Y-59689998D01*
X145215173Y-59690001D01*
X145233643Y-59901120D01*
X145233645Y-59901131D01*
X145288493Y-60105829D01*
X145288497Y-60105838D01*
X145378062Y-60297912D01*
X145378063Y-60297914D01*
X145415733Y-60351712D01*
X145415734Y-60351713D01*
X145982983Y-59784463D01*
X146004958Y-59866473D01*
X146065149Y-59970727D01*
X146150273Y-60055851D01*
X146254527Y-60116042D01*
X146336535Y-60138016D01*
X145769285Y-60705265D01*
X145823087Y-60742937D01*
X146015161Y-60832502D01*
X146015170Y-60832506D01*
X146219868Y-60887354D01*
X146219879Y-60887356D01*
X146430998Y-60905827D01*
X146431002Y-60905827D01*
X146642120Y-60887356D01*
X146642131Y-60887354D01*
X146846829Y-60832506D01*
X146846838Y-60832502D01*
X147038913Y-60742937D01*
X147038917Y-60742935D01*
X147092713Y-60705266D01*
X146525464Y-60138016D01*
X146607473Y-60116042D01*
X146711727Y-60055851D01*
X146796851Y-59970727D01*
X146857042Y-59866473D01*
X146879016Y-59784463D01*
X147446266Y-60351713D01*
X147483935Y-60297917D01*
X147483937Y-60297913D01*
X147573502Y-60105838D01*
X147573506Y-60105829D01*
X147628354Y-59901131D01*
X147628356Y-59901120D01*
X147646827Y-59690001D01*
X147646827Y-59689998D01*
X147628356Y-59478879D01*
X147628354Y-59478868D01*
X147573506Y-59274170D01*
X147573502Y-59274161D01*
X147483934Y-59082083D01*
X147446266Y-59028286D01*
X147446265Y-59028285D01*
X146879016Y-59595535D01*
X146857042Y-59513527D01*
X146796851Y-59409273D01*
X146711727Y-59324149D01*
X146607473Y-59263958D01*
X146525464Y-59241983D01*
X147092713Y-58674734D01*
X147092712Y-58674733D01*
X147038914Y-58637063D01*
X147038912Y-58637062D01*
X146846838Y-58547497D01*
X146846829Y-58547493D01*
X146642131Y-58492645D01*
X146642120Y-58492643D01*
X146431002Y-58474173D01*
X146430998Y-58474173D01*
X146219879Y-58492643D01*
X146219868Y-58492645D01*
X146015170Y-58547493D01*
X146015161Y-58547497D01*
X145823088Y-58637062D01*
X145769286Y-58674733D01*
X146336536Y-59241983D01*
X146254527Y-59263958D01*
X146150273Y-59324149D01*
X146065149Y-59409273D01*
X146004958Y-59513527D01*
X145982983Y-59595536D01*
X145415733Y-59028286D01*
X145378062Y-59082088D01*
X145288497Y-59274161D01*
X145288493Y-59274170D01*
X145233645Y-59478868D01*
X145233643Y-59478879D01*
X145215173Y-59689998D01*
X137660500Y-59689998D01*
X137660500Y-55234500D01*
X137680185Y-55167461D01*
X137732989Y-55121706D01*
X137784500Y-55110500D01*
X183525500Y-55110500D01*
X183592539Y-55130185D01*
G37*
%TD.AperFunction*%
%TD*%
M02*
