%TF.GenerationSoftware,KiCad,Pcbnew,8.0.4*%
%TF.CreationDate,2024-11-20T20:48:09-05:00*%
%TF.ProjectId,voltage_regulator_3V3_ap2210,766f6c74-6167-4655-9f72-6567756c6174,rev?*%
%TF.SameCoordinates,Original*%
%TF.FileFunction,Legend,Top*%
%TF.FilePolarity,Positive*%
%FSLAX46Y46*%
G04 Gerber Fmt 4.6, Leading zero omitted, Abs format (unit mm)*
G04 Created by KiCad (PCBNEW 8.0.4) date 2024-11-20 20:48:09*
%MOMM*%
%LPD*%
G01*
G04 APERTURE LIST*
G04 Aperture macros list*
%AMRoundRect*
0 Rectangle with rounded corners*
0 $1 Rounding radius*
0 $2 $3 $4 $5 $6 $7 $8 $9 X,Y pos of 4 corners*
0 Add a 4 corners polygon primitive as box body*
4,1,4,$2,$3,$4,$5,$6,$7,$8,$9,$2,$3,0*
0 Add four circle primitives for the rounded corners*
1,1,$1+$1,$2,$3*
1,1,$1+$1,$4,$5*
1,1,$1+$1,$6,$7*
1,1,$1+$1,$8,$9*
0 Add four rect primitives between the rounded corners*
20,1,$1+$1,$2,$3,$4,$5,0*
20,1,$1+$1,$4,$5,$6,$7,0*
20,1,$1+$1,$6,$7,$8,$9,0*
20,1,$1+$1,$8,$9,$2,$3,0*%
G04 Aperture macros list end*
%ADD10C,0.100000*%
%ADD11C,0.150000*%
%ADD12C,0.120000*%
%ADD13C,0.254000*%
%ADD14C,0.127000*%
%ADD15R,2.600000X2.600000*%
%ADD16C,2.600000*%
%ADD17C,4.704000*%
%ADD18RoundRect,0.102000X-0.275000X-0.650000X0.275000X-0.650000X0.275000X0.650000X-0.275000X0.650000X0*%
%ADD19RoundRect,0.100000X0.130000X0.100000X-0.130000X0.100000X-0.130000X-0.100000X0.130000X-0.100000X0*%
%ADD20RoundRect,0.140000X-0.140000X-0.170000X0.140000X-0.170000X0.140000X0.170000X-0.140000X0.170000X0*%
%ADD21RoundRect,0.225000X0.225000X0.250000X-0.225000X0.250000X-0.225000X-0.250000X0.225000X-0.250000X0*%
%ADD22C,0.600000*%
G04 APERTURE END LIST*
D10*
X106183609Y-73065163D02*
X105683609Y-73065163D01*
X106183609Y-72827068D02*
X105683609Y-72827068D01*
X105683609Y-72827068D02*
X106183609Y-72541354D01*
X106183609Y-72541354D02*
X105683609Y-72541354D01*
X106183609Y-72303258D02*
X105683609Y-72303258D01*
X105683609Y-72303258D02*
X105683609Y-72112782D01*
X105683609Y-72112782D02*
X105707419Y-72065163D01*
X105707419Y-72065163D02*
X105731228Y-72041353D01*
X105731228Y-72041353D02*
X105778847Y-72017544D01*
X105778847Y-72017544D02*
X105850276Y-72017544D01*
X105850276Y-72017544D02*
X105897895Y-72041353D01*
X105897895Y-72041353D02*
X105921704Y-72065163D01*
X105921704Y-72065163D02*
X105945514Y-72112782D01*
X105945514Y-72112782D02*
X105945514Y-72303258D01*
X105683609Y-71803258D02*
X106088371Y-71803258D01*
X106088371Y-71803258D02*
X106135990Y-71779448D01*
X106135990Y-71779448D02*
X106159800Y-71755639D01*
X106159800Y-71755639D02*
X106183609Y-71708020D01*
X106183609Y-71708020D02*
X106183609Y-71612782D01*
X106183609Y-71612782D02*
X106159800Y-71565163D01*
X106159800Y-71565163D02*
X106135990Y-71541353D01*
X106135990Y-71541353D02*
X106088371Y-71517544D01*
X106088371Y-71517544D02*
X105683609Y-71517544D01*
X105683609Y-71350876D02*
X105683609Y-71065162D01*
X106183609Y-71208019D02*
X105683609Y-71208019D01*
X105993133Y-70517544D02*
X105993133Y-70136592D01*
X105683609Y-69279449D02*
X105683609Y-69517544D01*
X105683609Y-69517544D02*
X105921704Y-69541353D01*
X105921704Y-69541353D02*
X105897895Y-69517544D01*
X105897895Y-69517544D02*
X105874085Y-69469925D01*
X105874085Y-69469925D02*
X105874085Y-69350877D01*
X105874085Y-69350877D02*
X105897895Y-69303258D01*
X105897895Y-69303258D02*
X105921704Y-69279449D01*
X105921704Y-69279449D02*
X105969323Y-69255639D01*
X105969323Y-69255639D02*
X106088371Y-69255639D01*
X106088371Y-69255639D02*
X106135990Y-69279449D01*
X106135990Y-69279449D02*
X106159800Y-69303258D01*
X106159800Y-69303258D02*
X106183609Y-69350877D01*
X106183609Y-69350877D02*
X106183609Y-69469925D01*
X106183609Y-69469925D02*
X106159800Y-69517544D01*
X106159800Y-69517544D02*
X106135990Y-69541353D01*
X105683609Y-69112782D02*
X106183609Y-68946116D01*
X106183609Y-68946116D02*
X105683609Y-68779449D01*
X94553884Y-46241466D02*
X95315789Y-46241466D01*
X94934836Y-46622419D02*
X94934836Y-45860514D01*
X107683609Y-49969925D02*
X107683609Y-49874687D01*
X107683609Y-49874687D02*
X107707419Y-49827068D01*
X107707419Y-49827068D02*
X107755038Y-49779449D01*
X107755038Y-49779449D02*
X107850276Y-49755639D01*
X107850276Y-49755639D02*
X108016942Y-49755639D01*
X108016942Y-49755639D02*
X108112180Y-49779449D01*
X108112180Y-49779449D02*
X108159800Y-49827068D01*
X108159800Y-49827068D02*
X108183609Y-49874687D01*
X108183609Y-49874687D02*
X108183609Y-49969925D01*
X108183609Y-49969925D02*
X108159800Y-50017544D01*
X108159800Y-50017544D02*
X108112180Y-50065163D01*
X108112180Y-50065163D02*
X108016942Y-50088972D01*
X108016942Y-50088972D02*
X107850276Y-50088972D01*
X107850276Y-50088972D02*
X107755038Y-50065163D01*
X107755038Y-50065163D02*
X107707419Y-50017544D01*
X107707419Y-50017544D02*
X107683609Y-49969925D01*
X107683609Y-49541353D02*
X108088371Y-49541353D01*
X108088371Y-49541353D02*
X108135990Y-49517543D01*
X108135990Y-49517543D02*
X108159800Y-49493734D01*
X108159800Y-49493734D02*
X108183609Y-49446115D01*
X108183609Y-49446115D02*
X108183609Y-49350877D01*
X108183609Y-49350877D02*
X108159800Y-49303258D01*
X108159800Y-49303258D02*
X108135990Y-49279448D01*
X108135990Y-49279448D02*
X108088371Y-49255639D01*
X108088371Y-49255639D02*
X107683609Y-49255639D01*
X107683609Y-49088971D02*
X107683609Y-48803257D01*
X108183609Y-48946114D02*
X107683609Y-48946114D01*
X108183609Y-48636591D02*
X107683609Y-48636591D01*
X107683609Y-48636591D02*
X107683609Y-48446115D01*
X107683609Y-48446115D02*
X107707419Y-48398496D01*
X107707419Y-48398496D02*
X107731228Y-48374686D01*
X107731228Y-48374686D02*
X107778847Y-48350877D01*
X107778847Y-48350877D02*
X107850276Y-48350877D01*
X107850276Y-48350877D02*
X107897895Y-48374686D01*
X107897895Y-48374686D02*
X107921704Y-48398496D01*
X107921704Y-48398496D02*
X107945514Y-48446115D01*
X107945514Y-48446115D02*
X107945514Y-48636591D01*
X107683609Y-48136591D02*
X108088371Y-48136591D01*
X108088371Y-48136591D02*
X108135990Y-48112781D01*
X108135990Y-48112781D02*
X108159800Y-48088972D01*
X108159800Y-48088972D02*
X108183609Y-48041353D01*
X108183609Y-48041353D02*
X108183609Y-47946115D01*
X108183609Y-47946115D02*
X108159800Y-47898496D01*
X108159800Y-47898496D02*
X108135990Y-47874686D01*
X108135990Y-47874686D02*
X108088371Y-47850877D01*
X108088371Y-47850877D02*
X107683609Y-47850877D01*
X107683609Y-47684209D02*
X107683609Y-47398495D01*
X108183609Y-47541352D02*
X107683609Y-47541352D01*
X107993133Y-46850877D02*
X107993133Y-46469925D01*
X107683609Y-45898496D02*
X107683609Y-45588972D01*
X107683609Y-45588972D02*
X107874085Y-45755639D01*
X107874085Y-45755639D02*
X107874085Y-45684210D01*
X107874085Y-45684210D02*
X107897895Y-45636591D01*
X107897895Y-45636591D02*
X107921704Y-45612782D01*
X107921704Y-45612782D02*
X107969323Y-45588972D01*
X107969323Y-45588972D02*
X108088371Y-45588972D01*
X108088371Y-45588972D02*
X108135990Y-45612782D01*
X108135990Y-45612782D02*
X108159800Y-45636591D01*
X108159800Y-45636591D02*
X108183609Y-45684210D01*
X108183609Y-45684210D02*
X108183609Y-45827067D01*
X108183609Y-45827067D02*
X108159800Y-45874686D01*
X108159800Y-45874686D02*
X108135990Y-45898496D01*
X108135990Y-45374687D02*
X108159800Y-45350877D01*
X108159800Y-45350877D02*
X108183609Y-45374687D01*
X108183609Y-45374687D02*
X108159800Y-45398496D01*
X108159800Y-45398496D02*
X108135990Y-45374687D01*
X108135990Y-45374687D02*
X108183609Y-45374687D01*
X107683609Y-45184211D02*
X107683609Y-44874687D01*
X107683609Y-44874687D02*
X107874085Y-45041354D01*
X107874085Y-45041354D02*
X107874085Y-44969925D01*
X107874085Y-44969925D02*
X107897895Y-44922306D01*
X107897895Y-44922306D02*
X107921704Y-44898497D01*
X107921704Y-44898497D02*
X107969323Y-44874687D01*
X107969323Y-44874687D02*
X108088371Y-44874687D01*
X108088371Y-44874687D02*
X108135990Y-44898497D01*
X108135990Y-44898497D02*
X108159800Y-44922306D01*
X108159800Y-44922306D02*
X108183609Y-44969925D01*
X108183609Y-44969925D02*
X108183609Y-45112782D01*
X108183609Y-45112782D02*
X108159800Y-45160401D01*
X108159800Y-45160401D02*
X108135990Y-45184211D01*
X107683609Y-44731830D02*
X108183609Y-44565164D01*
X108183609Y-44565164D02*
X107683609Y-44398497D01*
X108159800Y-44208021D02*
X108183609Y-44208021D01*
X108183609Y-44208021D02*
X108231228Y-44231831D01*
X108231228Y-44231831D02*
X108255038Y-44255640D01*
X107683609Y-43660403D02*
X107683609Y-43350879D01*
X107683609Y-43350879D02*
X107874085Y-43517546D01*
X107874085Y-43517546D02*
X107874085Y-43446117D01*
X107874085Y-43446117D02*
X107897895Y-43398498D01*
X107897895Y-43398498D02*
X107921704Y-43374689D01*
X107921704Y-43374689D02*
X107969323Y-43350879D01*
X107969323Y-43350879D02*
X108088371Y-43350879D01*
X108088371Y-43350879D02*
X108135990Y-43374689D01*
X108135990Y-43374689D02*
X108159800Y-43398498D01*
X108159800Y-43398498D02*
X108183609Y-43446117D01*
X108183609Y-43446117D02*
X108183609Y-43588974D01*
X108183609Y-43588974D02*
X108159800Y-43636593D01*
X108159800Y-43636593D02*
X108135990Y-43660403D01*
X107683609Y-43041356D02*
X107683609Y-42993737D01*
X107683609Y-42993737D02*
X107707419Y-42946118D01*
X107707419Y-42946118D02*
X107731228Y-42922308D01*
X107731228Y-42922308D02*
X107778847Y-42898499D01*
X107778847Y-42898499D02*
X107874085Y-42874689D01*
X107874085Y-42874689D02*
X107993133Y-42874689D01*
X107993133Y-42874689D02*
X108088371Y-42898499D01*
X108088371Y-42898499D02*
X108135990Y-42922308D01*
X108135990Y-42922308D02*
X108159800Y-42946118D01*
X108159800Y-42946118D02*
X108183609Y-42993737D01*
X108183609Y-42993737D02*
X108183609Y-43041356D01*
X108183609Y-43041356D02*
X108159800Y-43088975D01*
X108159800Y-43088975D02*
X108135990Y-43112784D01*
X108135990Y-43112784D02*
X108088371Y-43136594D01*
X108088371Y-43136594D02*
X107993133Y-43160403D01*
X107993133Y-43160403D02*
X107874085Y-43160403D01*
X107874085Y-43160403D02*
X107778847Y-43136594D01*
X107778847Y-43136594D02*
X107731228Y-43112784D01*
X107731228Y-43112784D02*
X107707419Y-43088975D01*
X107707419Y-43088975D02*
X107683609Y-43041356D01*
X107683609Y-42565166D02*
X107683609Y-42517547D01*
X107683609Y-42517547D02*
X107707419Y-42469928D01*
X107707419Y-42469928D02*
X107731228Y-42446118D01*
X107731228Y-42446118D02*
X107778847Y-42422309D01*
X107778847Y-42422309D02*
X107874085Y-42398499D01*
X107874085Y-42398499D02*
X107993133Y-42398499D01*
X107993133Y-42398499D02*
X108088371Y-42422309D01*
X108088371Y-42422309D02*
X108135990Y-42446118D01*
X108135990Y-42446118D02*
X108159800Y-42469928D01*
X108159800Y-42469928D02*
X108183609Y-42517547D01*
X108183609Y-42517547D02*
X108183609Y-42565166D01*
X108183609Y-42565166D02*
X108159800Y-42612785D01*
X108159800Y-42612785D02*
X108135990Y-42636594D01*
X108135990Y-42636594D02*
X108088371Y-42660404D01*
X108088371Y-42660404D02*
X107993133Y-42684213D01*
X107993133Y-42684213D02*
X107874085Y-42684213D01*
X107874085Y-42684213D02*
X107778847Y-42660404D01*
X107778847Y-42660404D02*
X107731228Y-42636594D01*
X107731228Y-42636594D02*
X107707419Y-42612785D01*
X107707419Y-42612785D02*
X107683609Y-42565166D01*
X108183609Y-42184214D02*
X107850276Y-42184214D01*
X107897895Y-42184214D02*
X107874085Y-42160404D01*
X107874085Y-42160404D02*
X107850276Y-42112785D01*
X107850276Y-42112785D02*
X107850276Y-42041357D01*
X107850276Y-42041357D02*
X107874085Y-41993738D01*
X107874085Y-41993738D02*
X107921704Y-41969928D01*
X107921704Y-41969928D02*
X108183609Y-41969928D01*
X107921704Y-41969928D02*
X107874085Y-41946119D01*
X107874085Y-41946119D02*
X107850276Y-41898500D01*
X107850276Y-41898500D02*
X107850276Y-41827071D01*
X107850276Y-41827071D02*
X107874085Y-41779452D01*
X107874085Y-41779452D02*
X107921704Y-41755642D01*
X107921704Y-41755642D02*
X108183609Y-41755642D01*
X108040752Y-41541356D02*
X108040752Y-41303261D01*
X108183609Y-41588975D02*
X107683609Y-41422309D01*
X107683609Y-41422309D02*
X108183609Y-41255642D01*
X94803884Y-62991466D02*
X95565789Y-62991466D01*
X95184836Y-63372419D02*
X95184836Y-62610514D01*
X117933609Y-73065163D02*
X117433609Y-73065163D01*
X117933609Y-72827068D02*
X117433609Y-72827068D01*
X117433609Y-72827068D02*
X117933609Y-72541354D01*
X117933609Y-72541354D02*
X117433609Y-72541354D01*
X117933609Y-72303258D02*
X117433609Y-72303258D01*
X117433609Y-72303258D02*
X117433609Y-72112782D01*
X117433609Y-72112782D02*
X117457419Y-72065163D01*
X117457419Y-72065163D02*
X117481228Y-72041353D01*
X117481228Y-72041353D02*
X117528847Y-72017544D01*
X117528847Y-72017544D02*
X117600276Y-72017544D01*
X117600276Y-72017544D02*
X117647895Y-72041353D01*
X117647895Y-72041353D02*
X117671704Y-72065163D01*
X117671704Y-72065163D02*
X117695514Y-72112782D01*
X117695514Y-72112782D02*
X117695514Y-72303258D01*
X117433609Y-71803258D02*
X117838371Y-71803258D01*
X117838371Y-71803258D02*
X117885990Y-71779448D01*
X117885990Y-71779448D02*
X117909800Y-71755639D01*
X117909800Y-71755639D02*
X117933609Y-71708020D01*
X117933609Y-71708020D02*
X117933609Y-71612782D01*
X117933609Y-71612782D02*
X117909800Y-71565163D01*
X117909800Y-71565163D02*
X117885990Y-71541353D01*
X117885990Y-71541353D02*
X117838371Y-71517544D01*
X117838371Y-71517544D02*
X117433609Y-71517544D01*
X117433609Y-71350876D02*
X117433609Y-71065162D01*
X117933609Y-71208019D02*
X117433609Y-71208019D01*
X117743133Y-70517544D02*
X117743133Y-70136592D01*
X117433609Y-69279449D02*
X117433609Y-69517544D01*
X117433609Y-69517544D02*
X117671704Y-69541353D01*
X117671704Y-69541353D02*
X117647895Y-69517544D01*
X117647895Y-69517544D02*
X117624085Y-69469925D01*
X117624085Y-69469925D02*
X117624085Y-69350877D01*
X117624085Y-69350877D02*
X117647895Y-69303258D01*
X117647895Y-69303258D02*
X117671704Y-69279449D01*
X117671704Y-69279449D02*
X117719323Y-69255639D01*
X117719323Y-69255639D02*
X117838371Y-69255639D01*
X117838371Y-69255639D02*
X117885990Y-69279449D01*
X117885990Y-69279449D02*
X117909800Y-69303258D01*
X117909800Y-69303258D02*
X117933609Y-69350877D01*
X117933609Y-69350877D02*
X117933609Y-69469925D01*
X117933609Y-69469925D02*
X117909800Y-69517544D01*
X117909800Y-69517544D02*
X117885990Y-69541353D01*
X117433609Y-69112782D02*
X117933609Y-68946116D01*
X117933609Y-68946116D02*
X117433609Y-68779449D01*
D11*
X101166666Y-50764819D02*
X101166666Y-51479104D01*
X101166666Y-51479104D02*
X101119047Y-51621961D01*
X101119047Y-51621961D02*
X101023809Y-51717200D01*
X101023809Y-51717200D02*
X100880952Y-51764819D01*
X100880952Y-51764819D02*
X100785714Y-51764819D01*
X101547619Y-50764819D02*
X102166666Y-50764819D01*
X102166666Y-50764819D02*
X101833333Y-51145771D01*
X101833333Y-51145771D02*
X101976190Y-51145771D01*
X101976190Y-51145771D02*
X102071428Y-51193390D01*
X102071428Y-51193390D02*
X102119047Y-51241009D01*
X102119047Y-51241009D02*
X102166666Y-51336247D01*
X102166666Y-51336247D02*
X102166666Y-51574342D01*
X102166666Y-51574342D02*
X102119047Y-51669580D01*
X102119047Y-51669580D02*
X102071428Y-51717200D01*
X102071428Y-51717200D02*
X101976190Y-51764819D01*
X101976190Y-51764819D02*
X101690476Y-51764819D01*
X101690476Y-51764819D02*
X101595238Y-51717200D01*
X101595238Y-51717200D02*
X101547619Y-51669580D01*
X105778866Y-64111666D02*
X106778866Y-64111666D01*
X106778866Y-64111666D02*
X106978866Y-64178333D01*
X106978866Y-64178333D02*
X107112200Y-64311666D01*
X107112200Y-64311666D02*
X107178866Y-64511666D01*
X107178866Y-64511666D02*
X107178866Y-64645000D01*
X105912200Y-63511666D02*
X105845533Y-63444999D01*
X105845533Y-63444999D02*
X105778866Y-63311666D01*
X105778866Y-63311666D02*
X105778866Y-62978333D01*
X105778866Y-62978333D02*
X105845533Y-62844999D01*
X105845533Y-62844999D02*
X105912200Y-62778333D01*
X105912200Y-62778333D02*
X106045533Y-62711666D01*
X106045533Y-62711666D02*
X106178866Y-62711666D01*
X106178866Y-62711666D02*
X106378866Y-62778333D01*
X106378866Y-62778333D02*
X107178866Y-63578333D01*
X107178866Y-63578333D02*
X107178866Y-62711666D01*
D12*
X103238095Y-56206379D02*
X103238095Y-57015902D01*
X103238095Y-57015902D02*
X103285714Y-57111140D01*
X103285714Y-57111140D02*
X103333333Y-57158760D01*
X103333333Y-57158760D02*
X103428571Y-57206379D01*
X103428571Y-57206379D02*
X103619047Y-57206379D01*
X103619047Y-57206379D02*
X103714285Y-57158760D01*
X103714285Y-57158760D02*
X103761904Y-57111140D01*
X103761904Y-57111140D02*
X103809523Y-57015902D01*
X103809523Y-57015902D02*
X103809523Y-56206379D01*
X104809523Y-57206379D02*
X104238095Y-57206379D01*
X104523809Y-57206379D02*
X104523809Y-56206379D01*
X104523809Y-56206379D02*
X104428571Y-56349236D01*
X104428571Y-56349236D02*
X104333333Y-56444474D01*
X104333333Y-56444474D02*
X104238095Y-56492093D01*
D11*
X99416666Y-62644819D02*
X99416666Y-63359104D01*
X99416666Y-63359104D02*
X99369047Y-63501961D01*
X99369047Y-63501961D02*
X99273809Y-63597200D01*
X99273809Y-63597200D02*
X99130952Y-63644819D01*
X99130952Y-63644819D02*
X99035714Y-63644819D01*
X100416666Y-63644819D02*
X99845238Y-63644819D01*
X100130952Y-63644819D02*
X100130952Y-62644819D01*
X100130952Y-62644819D02*
X100035714Y-62787676D01*
X100035714Y-62787676D02*
X99940476Y-62882914D01*
X99940476Y-62882914D02*
X99845238Y-62930533D01*
X98333333Y-53359580D02*
X98285714Y-53407200D01*
X98285714Y-53407200D02*
X98142857Y-53454819D01*
X98142857Y-53454819D02*
X98047619Y-53454819D01*
X98047619Y-53454819D02*
X97904762Y-53407200D01*
X97904762Y-53407200D02*
X97809524Y-53311961D01*
X97809524Y-53311961D02*
X97761905Y-53216723D01*
X97761905Y-53216723D02*
X97714286Y-53026247D01*
X97714286Y-53026247D02*
X97714286Y-52883390D01*
X97714286Y-52883390D02*
X97761905Y-52692914D01*
X97761905Y-52692914D02*
X97809524Y-52597676D01*
X97809524Y-52597676D02*
X97904762Y-52502438D01*
X97904762Y-52502438D02*
X98047619Y-52454819D01*
X98047619Y-52454819D02*
X98142857Y-52454819D01*
X98142857Y-52454819D02*
X98285714Y-52502438D01*
X98285714Y-52502438D02*
X98333333Y-52550057D01*
X98714286Y-52550057D02*
X98761905Y-52502438D01*
X98761905Y-52502438D02*
X98857143Y-52454819D01*
X98857143Y-52454819D02*
X99095238Y-52454819D01*
X99095238Y-52454819D02*
X99190476Y-52502438D01*
X99190476Y-52502438D02*
X99238095Y-52550057D01*
X99238095Y-52550057D02*
X99285714Y-52645295D01*
X99285714Y-52645295D02*
X99285714Y-52740533D01*
X99285714Y-52740533D02*
X99238095Y-52883390D01*
X99238095Y-52883390D02*
X98666667Y-53454819D01*
X98666667Y-53454819D02*
X99285714Y-53454819D01*
X104083333Y-53109580D02*
X104035714Y-53157200D01*
X104035714Y-53157200D02*
X103892857Y-53204819D01*
X103892857Y-53204819D02*
X103797619Y-53204819D01*
X103797619Y-53204819D02*
X103654762Y-53157200D01*
X103654762Y-53157200D02*
X103559524Y-53061961D01*
X103559524Y-53061961D02*
X103511905Y-52966723D01*
X103511905Y-52966723D02*
X103464286Y-52776247D01*
X103464286Y-52776247D02*
X103464286Y-52633390D01*
X103464286Y-52633390D02*
X103511905Y-52442914D01*
X103511905Y-52442914D02*
X103559524Y-52347676D01*
X103559524Y-52347676D02*
X103654762Y-52252438D01*
X103654762Y-52252438D02*
X103797619Y-52204819D01*
X103797619Y-52204819D02*
X103892857Y-52204819D01*
X103892857Y-52204819D02*
X104035714Y-52252438D01*
X104035714Y-52252438D02*
X104083333Y-52300057D01*
X104416667Y-52204819D02*
X105035714Y-52204819D01*
X105035714Y-52204819D02*
X104702381Y-52585771D01*
X104702381Y-52585771D02*
X104845238Y-52585771D01*
X104845238Y-52585771D02*
X104940476Y-52633390D01*
X104940476Y-52633390D02*
X104988095Y-52681009D01*
X104988095Y-52681009D02*
X105035714Y-52776247D01*
X105035714Y-52776247D02*
X105035714Y-53014342D01*
X105035714Y-53014342D02*
X104988095Y-53109580D01*
X104988095Y-53109580D02*
X104940476Y-53157200D01*
X104940476Y-53157200D02*
X104845238Y-53204819D01*
X104845238Y-53204819D02*
X104559524Y-53204819D01*
X104559524Y-53204819D02*
X104464286Y-53157200D01*
X104464286Y-53157200D02*
X104416667Y-53109580D01*
X104558333Y-60109580D02*
X104510714Y-60157200D01*
X104510714Y-60157200D02*
X104367857Y-60204819D01*
X104367857Y-60204819D02*
X104272619Y-60204819D01*
X104272619Y-60204819D02*
X104129762Y-60157200D01*
X104129762Y-60157200D02*
X104034524Y-60061961D01*
X104034524Y-60061961D02*
X103986905Y-59966723D01*
X103986905Y-59966723D02*
X103939286Y-59776247D01*
X103939286Y-59776247D02*
X103939286Y-59633390D01*
X103939286Y-59633390D02*
X103986905Y-59442914D01*
X103986905Y-59442914D02*
X104034524Y-59347676D01*
X104034524Y-59347676D02*
X104129762Y-59252438D01*
X104129762Y-59252438D02*
X104272619Y-59204819D01*
X104272619Y-59204819D02*
X104367857Y-59204819D01*
X104367857Y-59204819D02*
X104510714Y-59252438D01*
X104510714Y-59252438D02*
X104558333Y-59300057D01*
X105510714Y-60204819D02*
X104939286Y-60204819D01*
X105225000Y-60204819D02*
X105225000Y-59204819D01*
X105225000Y-59204819D02*
X105129762Y-59347676D01*
X105129762Y-59347676D02*
X105034524Y-59442914D01*
X105034524Y-59442914D02*
X104939286Y-59490533D01*
D12*
%TO.C,J3*%
X96440000Y-50310000D02*
X96440000Y-41190000D01*
X97346000Y-47638000D02*
X97741000Y-47242000D01*
X97612000Y-47904000D02*
X97992000Y-47524000D01*
X100007000Y-44976000D02*
X100387000Y-44596000D01*
X100258000Y-45258000D02*
X100653000Y-44862000D01*
X102346000Y-47638000D02*
X102453000Y-47531000D01*
X102612000Y-47904000D02*
X102719000Y-47797000D01*
X105282000Y-44703000D02*
X105388000Y-44596000D01*
X105548000Y-44969000D02*
X105654000Y-44862000D01*
X106560000Y-41190000D02*
X96440000Y-41190000D01*
X106560000Y-41650000D02*
X96440000Y-41650000D01*
X106560000Y-42750000D02*
X96440000Y-42750000D01*
X106560000Y-50310000D02*
X96440000Y-50310000D01*
X106560000Y-50310000D02*
X106560000Y-41190000D01*
X106800000Y-40950000D02*
X106400000Y-40950000D01*
X106800000Y-41590000D02*
X106800000Y-40950000D01*
X101180000Y-46250000D02*
G75*
G02*
X96820000Y-46250000I-2180000J0D01*
G01*
X96820000Y-46250000D02*
G75*
G02*
X101180000Y-46250000I2180000J0D01*
G01*
X106180000Y-46250000D02*
G75*
G02*
X101820000Y-46250000I-2180000J0D01*
G01*
X101820000Y-46250000D02*
G75*
G02*
X106180000Y-46250000I2180000J0D01*
G01*
D13*
%TO.C,J2*%
X107750000Y-59200000D02*
X107750000Y-73700000D01*
X107750000Y-73700000D02*
X116750000Y-73700000D01*
X111250000Y-68700000D02*
X111250000Y-72400000D01*
X113250000Y-68700000D02*
X111250000Y-68700000D01*
X113250000Y-68700000D02*
X113250000Y-72400000D01*
X116750000Y-59200000D02*
X107750000Y-59200000D01*
X116750000Y-73700000D02*
X116750000Y-59200000D01*
X113250000Y-72400000D02*
G75*
G02*
X111250000Y-72400000I-1000000J0D01*
G01*
D14*
%TO.C,U1*%
X99725000Y-55880000D02*
X99725000Y-57620000D01*
X99725000Y-57620000D02*
X102725000Y-57620000D01*
X102725000Y-55880000D02*
X99725000Y-55880000D01*
X102725000Y-57620000D02*
X102725000Y-55880000D01*
X99607000Y-57865000D02*
G75*
G02*
X99353000Y-57865000I-127000J0D01*
G01*
X99353000Y-57865000D02*
G75*
G02*
X99607000Y-57865000I127000J0D01*
G01*
D12*
%TO.C,J1*%
X94450000Y-72910000D02*
X94450000Y-73550000D01*
X94450000Y-73550000D02*
X94850000Y-73550000D01*
X94690000Y-64190000D02*
X94690000Y-73310000D01*
X94690000Y-64190000D02*
X104810000Y-64190000D01*
X94690000Y-71750000D02*
X104810000Y-71750000D01*
X94690000Y-72850000D02*
X104810000Y-72850000D01*
X94690000Y-73310000D02*
X104810000Y-73310000D01*
X95702000Y-69531000D02*
X95596000Y-69638000D01*
X95968000Y-69797000D02*
X95862000Y-69904000D01*
X98638000Y-66596000D02*
X98531000Y-66703000D01*
X98904000Y-66862000D02*
X98797000Y-66969000D01*
X100992000Y-69242000D02*
X100597000Y-69638000D01*
X101243000Y-69524000D02*
X100863000Y-69904000D01*
X103638000Y-66596000D02*
X103258000Y-66976000D01*
X103904000Y-66862000D02*
X103509000Y-67258000D01*
X104810000Y-64190000D02*
X104810000Y-73310000D01*
X99430000Y-68250000D02*
G75*
G02*
X95070000Y-68250000I-2180000J0D01*
G01*
X95070000Y-68250000D02*
G75*
G02*
X99430000Y-68250000I2180000J0D01*
G01*
X104430000Y-68250000D02*
G75*
G02*
X100070000Y-68250000I-2180000J0D01*
G01*
X100070000Y-68250000D02*
G75*
G02*
X104430000Y-68250000I2180000J0D01*
G01*
%TO.C,C3*%
X102642164Y-53640000D02*
X102857836Y-53640000D01*
X102642164Y-54360000D02*
X102857836Y-54360000D01*
%TO.C,C1*%
X101865580Y-59240000D02*
X101584420Y-59240000D01*
X101865580Y-60260000D02*
X101584420Y-60260000D01*
%TD*%
%LPC*%
D15*
%TO.C,J3*%
X104000000Y-46250000D03*
D16*
X99000000Y-46250000D03*
%TD*%
D17*
%TO.C,J2*%
X112250000Y-60000000D03*
X112250000Y-66000000D03*
X116950000Y-63000000D03*
%TD*%
D18*
%TO.C,U1*%
X100275000Y-58000000D03*
X101225000Y-58000000D03*
X102175000Y-58000000D03*
X102175000Y-55500000D03*
X100275000Y-55500000D03*
%TD*%
D15*
%TO.C,J1*%
X97250000Y-68250000D03*
D16*
X102250000Y-68250000D03*
%TD*%
D19*
%TO.C,C2*%
X100250000Y-54000000D03*
X99610000Y-54000000D03*
%TD*%
D20*
%TO.C,C3*%
X102270000Y-54000000D03*
X103230000Y-54000000D03*
%TD*%
D21*
%TO.C,C1*%
X102500000Y-59750000D03*
X100950000Y-59750000D03*
%TD*%
D22*
X98250000Y-54000000D03*
X99000000Y-59750000D03*
X104750000Y-54000000D03*
%LPD*%
M02*
