%TF.GenerationSoftware,KiCad,Pcbnew,8.0.4*%
%TF.CreationDate,2024-11-20T20:48:09-05:00*%
%TF.ProjectId,voltage_regulator_3V3_ap2210,766f6c74-6167-4655-9f72-6567756c6174,rev?*%
%TF.SameCoordinates,Original*%
%TF.FileFunction,Copper,L2,Bot*%
%TF.FilePolarity,Positive*%
%FSLAX46Y46*%
G04 Gerber Fmt 4.6, Leading zero omitted, Abs format (unit mm)*
G04 Created by KiCad (PCBNEW 8.0.4) date 2024-11-20 20:48:09*
%MOMM*%
%LPD*%
G01*
G04 APERTURE LIST*
%TA.AperFunction,ComponentPad*%
%ADD10R,2.600000X2.600000*%
%TD*%
%TA.AperFunction,ComponentPad*%
%ADD11C,2.600000*%
%TD*%
%TA.AperFunction,ComponentPad*%
%ADD12C,4.500000*%
%TD*%
%TA.AperFunction,ViaPad*%
%ADD13C,0.600000*%
%TD*%
G04 APERTURE END LIST*
D10*
%TO.P,J3,1,Pin_1*%
%TO.N,GND*%
X104000000Y-46250000D03*
D11*
%TO.P,J3,2,Pin_2*%
%TO.N,+3.3V*%
X99000000Y-46250000D03*
%TD*%
D12*
%TO.P,J2,1*%
%TO.N,+5V*%
X112250000Y-60000000D03*
%TO.P,J2,2*%
%TO.N,GND*%
X112250000Y-66000000D03*
%TO.P,J2,3*%
%TO.N,unconnected-(J2-Pad3)*%
X116950000Y-63000000D03*
%TD*%
D10*
%TO.P,J1,1,Pin_1*%
%TO.N,+5V*%
X97250000Y-68250000D03*
D11*
%TO.P,J1,2,Pin_2*%
%TO.N,GND*%
X102250000Y-68250000D03*
%TD*%
D13*
%TO.N,GND*%
X98250000Y-54000000D03*
X99000000Y-59750000D03*
X104750000Y-54000000D03*
%TD*%
%TA.AperFunction,Conductor*%
%TO.N,GND*%
G36*
X119942539Y-40270185D02*
G01*
X119988294Y-40322989D01*
X119999500Y-40374500D01*
X119999500Y-74125500D01*
X119979815Y-74192539D01*
X119927011Y-74238294D01*
X119875500Y-74249500D01*
X93874500Y-74249500D01*
X93807461Y-74229815D01*
X93761706Y-74177011D01*
X93750500Y-74125500D01*
X93750500Y-66902135D01*
X95449500Y-66902135D01*
X95449500Y-69597870D01*
X95449501Y-69597876D01*
X95455908Y-69657483D01*
X95506202Y-69792328D01*
X95506206Y-69792335D01*
X95592452Y-69907544D01*
X95592455Y-69907547D01*
X95707664Y-69993793D01*
X95707671Y-69993797D01*
X95842517Y-70044091D01*
X95842516Y-70044091D01*
X95849444Y-70044835D01*
X95902127Y-70050500D01*
X98597872Y-70050499D01*
X98657483Y-70044091D01*
X98792331Y-69993796D01*
X98907546Y-69907546D01*
X98993796Y-69792331D01*
X99044091Y-69657483D01*
X99050500Y-69597873D01*
X99050499Y-68249995D01*
X100444953Y-68249995D01*
X100444953Y-68250004D01*
X100465113Y-68519026D01*
X100465113Y-68519028D01*
X100525142Y-68782033D01*
X100525148Y-68782052D01*
X100623709Y-69033181D01*
X100623708Y-69033181D01*
X100758602Y-69266822D01*
X100812294Y-69334151D01*
X100812295Y-69334151D01*
X101648958Y-68497488D01*
X101673978Y-68557890D01*
X101745112Y-68664351D01*
X101835649Y-68754888D01*
X101942110Y-68826022D01*
X102002510Y-68851041D01*
X101164848Y-69688702D01*
X101347483Y-69813220D01*
X101347485Y-69813221D01*
X101590539Y-69930269D01*
X101590537Y-69930269D01*
X101848337Y-70009790D01*
X101848343Y-70009792D01*
X102115101Y-70049999D01*
X102115110Y-70050000D01*
X102384890Y-70050000D01*
X102384898Y-70049999D01*
X102651656Y-70009792D01*
X102651662Y-70009790D01*
X102909461Y-69930269D01*
X103152521Y-69813218D01*
X103335150Y-69688702D01*
X102497488Y-68851041D01*
X102557890Y-68826022D01*
X102664351Y-68754888D01*
X102754888Y-68664351D01*
X102826022Y-68557890D01*
X102851041Y-68497488D01*
X103687703Y-69334151D01*
X103687704Y-69334150D01*
X103741393Y-69266828D01*
X103741400Y-69266817D01*
X103876290Y-69033181D01*
X103974851Y-68782052D01*
X103974857Y-68782033D01*
X104034886Y-68519028D01*
X104034886Y-68519026D01*
X104055047Y-68250004D01*
X104055047Y-68249995D01*
X104034886Y-67980973D01*
X104034886Y-67980971D01*
X103974857Y-67717966D01*
X103974851Y-67717947D01*
X103876290Y-67466818D01*
X103876291Y-67466818D01*
X103741397Y-67233177D01*
X103687704Y-67165847D01*
X102851041Y-68002510D01*
X102826022Y-67942110D01*
X102754888Y-67835649D01*
X102664351Y-67745112D01*
X102557890Y-67673978D01*
X102497488Y-67648958D01*
X103335150Y-66811296D01*
X103152517Y-66686779D01*
X103152516Y-66686778D01*
X102909460Y-66569730D01*
X102909462Y-66569730D01*
X102651662Y-66490209D01*
X102651656Y-66490207D01*
X102384898Y-66450000D01*
X102115101Y-66450000D01*
X101848343Y-66490207D01*
X101848337Y-66490209D01*
X101590538Y-66569730D01*
X101347485Y-66686778D01*
X101347476Y-66686783D01*
X101164848Y-66811296D01*
X102002511Y-67648958D01*
X101942110Y-67673978D01*
X101835649Y-67745112D01*
X101745112Y-67835649D01*
X101673978Y-67942110D01*
X101648958Y-68002511D01*
X100812295Y-67165848D01*
X100758600Y-67233180D01*
X100623709Y-67466818D01*
X100525148Y-67717947D01*
X100525142Y-67717966D01*
X100465113Y-67980971D01*
X100465113Y-67980973D01*
X100444953Y-68249995D01*
X99050499Y-68249995D01*
X99050499Y-66902128D01*
X99044091Y-66842517D01*
X99032446Y-66811296D01*
X98993797Y-66707671D01*
X98993793Y-66707664D01*
X98907547Y-66592455D01*
X98907544Y-66592452D01*
X98792335Y-66506206D01*
X98792328Y-66506202D01*
X98657482Y-66455908D01*
X98657483Y-66455908D01*
X98597883Y-66449501D01*
X98597881Y-66449500D01*
X98597873Y-66449500D01*
X98597864Y-66449500D01*
X95902129Y-66449500D01*
X95902123Y-66449501D01*
X95842516Y-66455908D01*
X95707671Y-66506202D01*
X95707664Y-66506206D01*
X95592455Y-66592452D01*
X95592452Y-66592455D01*
X95506206Y-66707664D01*
X95506202Y-66707671D01*
X95455908Y-66842517D01*
X95449501Y-66902116D01*
X95449501Y-66902123D01*
X95449500Y-66902135D01*
X93750500Y-66902135D01*
X93750500Y-60000000D01*
X109494473Y-60000000D01*
X109514563Y-60332136D01*
X109514563Y-60332141D01*
X109514564Y-60332142D01*
X109574544Y-60659441D01*
X109574545Y-60659445D01*
X109574546Y-60659449D01*
X109673530Y-60977104D01*
X109673534Y-60977116D01*
X109673537Y-60977123D01*
X109810102Y-61280557D01*
X109903274Y-61434682D01*
X109982251Y-61565326D01*
X110187460Y-61827255D01*
X110422744Y-62062539D01*
X110684673Y-62267748D01*
X110684678Y-62267751D01*
X110684682Y-62267754D01*
X110969443Y-62439898D01*
X111272877Y-62576463D01*
X111272890Y-62576467D01*
X111272895Y-62576469D01*
X111484665Y-62642458D01*
X111590559Y-62675456D01*
X111917858Y-62735436D01*
X112250000Y-62755527D01*
X112582142Y-62735436D01*
X112909441Y-62675456D01*
X113227123Y-62576463D01*
X113530557Y-62439898D01*
X113815318Y-62267754D01*
X114077252Y-62062542D01*
X114133965Y-62005828D01*
X114195286Y-61972345D01*
X114264978Y-61977329D01*
X114320911Y-62019200D01*
X114345329Y-62084664D01*
X114340031Y-62130401D01*
X114274544Y-62340558D01*
X114214563Y-62667863D01*
X114194473Y-63000000D01*
X114214563Y-63332136D01*
X114214563Y-63332141D01*
X114214564Y-63332142D01*
X114274544Y-63659441D01*
X114274545Y-63659445D01*
X114274546Y-63659449D01*
X114373530Y-63977104D01*
X114373534Y-63977116D01*
X114373537Y-63977123D01*
X114416901Y-64073473D01*
X114426464Y-64142685D01*
X114397090Y-64206081D01*
X114391506Y-64212045D01*
X113544250Y-65059300D01*
X113470412Y-64957670D01*
X113292330Y-64779588D01*
X113190698Y-64705748D01*
X114010583Y-63885862D01*
X114010583Y-63885861D01*
X113815039Y-63732662D01*
X113815031Y-63732657D01*
X113530321Y-63560545D01*
X113530319Y-63560543D01*
X113226943Y-63424005D01*
X113226928Y-63423999D01*
X112909329Y-63325032D01*
X112582076Y-63265060D01*
X112250000Y-63244974D01*
X111917923Y-63265060D01*
X111590670Y-63325032D01*
X111273071Y-63423999D01*
X111273056Y-63424005D01*
X110969680Y-63560543D01*
X110969678Y-63560545D01*
X110684968Y-63732657D01*
X110489415Y-63885862D01*
X111309301Y-64705748D01*
X111207670Y-64779588D01*
X111029588Y-64957670D01*
X110955748Y-65059301D01*
X110135862Y-64239415D01*
X109982657Y-64434968D01*
X109810545Y-64719678D01*
X109810543Y-64719680D01*
X109674005Y-65023056D01*
X109673999Y-65023071D01*
X109575032Y-65340670D01*
X109515060Y-65667923D01*
X109494974Y-66000000D01*
X109515060Y-66332076D01*
X109575032Y-66659329D01*
X109673999Y-66976928D01*
X109674005Y-66976943D01*
X109810543Y-67280319D01*
X109810545Y-67280321D01*
X109982657Y-67565031D01*
X109982662Y-67565039D01*
X110135862Y-67760583D01*
X110955747Y-66940697D01*
X111029588Y-67042330D01*
X111207670Y-67220412D01*
X111309300Y-67294251D01*
X110489415Y-68114136D01*
X110489415Y-68114137D01*
X110684960Y-68267337D01*
X110684968Y-68267342D01*
X110969678Y-68439454D01*
X110969680Y-68439456D01*
X111273056Y-68575994D01*
X111273071Y-68576000D01*
X111590670Y-68674967D01*
X111917923Y-68734939D01*
X112250000Y-68755025D01*
X112582076Y-68734939D01*
X112909329Y-68674967D01*
X113226928Y-68576000D01*
X113226943Y-68575994D01*
X113530319Y-68439456D01*
X113530321Y-68439454D01*
X113815030Y-68267343D01*
X114010583Y-68114137D01*
X114010583Y-68114136D01*
X113190698Y-67294251D01*
X113292330Y-67220412D01*
X113470412Y-67042330D01*
X113544251Y-66940698D01*
X114364136Y-67760583D01*
X114364137Y-67760583D01*
X114517343Y-67565030D01*
X114689454Y-67280321D01*
X114689456Y-67280319D01*
X114825994Y-66976943D01*
X114826000Y-66976928D01*
X114924967Y-66659329D01*
X114984939Y-66332076D01*
X115005025Y-66000000D01*
X114984939Y-65667923D01*
X114924967Y-65340670D01*
X114859208Y-65129640D01*
X114858056Y-65059780D01*
X114894857Y-65000388D01*
X114957926Y-64970320D01*
X115027239Y-64979122D01*
X115065274Y-65005069D01*
X115122744Y-65062539D01*
X115384673Y-65267748D01*
X115384678Y-65267751D01*
X115384682Y-65267754D01*
X115669443Y-65439898D01*
X115972877Y-65576463D01*
X115972890Y-65576467D01*
X115972895Y-65576469D01*
X116129704Y-65625332D01*
X116290559Y-65675456D01*
X116617858Y-65735436D01*
X116950000Y-65755527D01*
X117282142Y-65735436D01*
X117609441Y-65675456D01*
X117927123Y-65576463D01*
X118230557Y-65439898D01*
X118515318Y-65267754D01*
X118777252Y-65062542D01*
X119012542Y-64827252D01*
X119217754Y-64565318D01*
X119389898Y-64280557D01*
X119526463Y-63977123D01*
X119625456Y-63659441D01*
X119685436Y-63332142D01*
X119705527Y-63000000D01*
X119685436Y-62667858D01*
X119625456Y-62340559D01*
X119559969Y-62130401D01*
X119526469Y-62022895D01*
X119526467Y-62022890D01*
X119526463Y-62022877D01*
X119389898Y-61719443D01*
X119217754Y-61434682D01*
X119217751Y-61434678D01*
X119217748Y-61434673D01*
X119012539Y-61172744D01*
X118777255Y-60937460D01*
X118515326Y-60732251D01*
X118515318Y-60732246D01*
X118230557Y-60560102D01*
X117927123Y-60423537D01*
X117927116Y-60423534D01*
X117927104Y-60423530D01*
X117609449Y-60324546D01*
X117609445Y-60324545D01*
X117609441Y-60324544D01*
X117282142Y-60264564D01*
X117282141Y-60264563D01*
X117282136Y-60264563D01*
X116950000Y-60244473D01*
X116617863Y-60264563D01*
X116617858Y-60264564D01*
X116290559Y-60324544D01*
X116290556Y-60324544D01*
X116290550Y-60324546D01*
X115972895Y-60423530D01*
X115972879Y-60423536D01*
X115972877Y-60423537D01*
X115779656Y-60510498D01*
X115669447Y-60560100D01*
X115669445Y-60560101D01*
X115384673Y-60732251D01*
X115122748Y-60937457D01*
X115066035Y-60994170D01*
X115004711Y-61027654D01*
X114935019Y-61022669D01*
X114879086Y-60980798D01*
X114854670Y-60915333D01*
X114859969Y-60869598D01*
X114870469Y-60835899D01*
X114925456Y-60659441D01*
X114985436Y-60332142D01*
X115005527Y-60000000D01*
X114985436Y-59667858D01*
X114925456Y-59340559D01*
X114826463Y-59022877D01*
X114689898Y-58719443D01*
X114517754Y-58434682D01*
X114517751Y-58434678D01*
X114517748Y-58434673D01*
X114312539Y-58172744D01*
X114077255Y-57937460D01*
X113815326Y-57732251D01*
X113815318Y-57732246D01*
X113530557Y-57560102D01*
X113227123Y-57423537D01*
X113227116Y-57423534D01*
X113227104Y-57423530D01*
X112909449Y-57324546D01*
X112909445Y-57324545D01*
X112909441Y-57324544D01*
X112582142Y-57264564D01*
X112582141Y-57264563D01*
X112582136Y-57264563D01*
X112250000Y-57244473D01*
X111917863Y-57264563D01*
X111917858Y-57264564D01*
X111590559Y-57324544D01*
X111590556Y-57324544D01*
X111590550Y-57324546D01*
X111272895Y-57423530D01*
X111272879Y-57423536D01*
X111272877Y-57423537D01*
X111079656Y-57510498D01*
X110969447Y-57560100D01*
X110969445Y-57560101D01*
X110684673Y-57732251D01*
X110422744Y-57937460D01*
X110187460Y-58172744D01*
X109982251Y-58434673D01*
X109810101Y-58719445D01*
X109810100Y-58719447D01*
X109673536Y-59022880D01*
X109673530Y-59022895D01*
X109574546Y-59340550D01*
X109514563Y-59667863D01*
X109494473Y-60000000D01*
X93750500Y-60000000D01*
X93750500Y-46249995D01*
X97194451Y-46249995D01*
X97194451Y-46250004D01*
X97214616Y-46519101D01*
X97274664Y-46782188D01*
X97274666Y-46782195D01*
X97320901Y-46900000D01*
X97373257Y-47033398D01*
X97508185Y-47267102D01*
X97644080Y-47437509D01*
X97676442Y-47478089D01*
X97863183Y-47651358D01*
X97874259Y-47661635D01*
X98097226Y-47813651D01*
X98340359Y-47930738D01*
X98598228Y-48010280D01*
X98598229Y-48010280D01*
X98598232Y-48010281D01*
X98865063Y-48050499D01*
X98865068Y-48050499D01*
X98865071Y-48050500D01*
X98865072Y-48050500D01*
X99134928Y-48050500D01*
X99134929Y-48050500D01*
X99134936Y-48050499D01*
X99401767Y-48010281D01*
X99401768Y-48010280D01*
X99401772Y-48010280D01*
X99659641Y-47930738D01*
X99902775Y-47813651D01*
X100125741Y-47661635D01*
X100323561Y-47478085D01*
X100491815Y-47267102D01*
X100626743Y-47033398D01*
X100725334Y-46782195D01*
X100785383Y-46519103D01*
X100805549Y-46250000D01*
X100785383Y-45980897D01*
X100725334Y-45717805D01*
X100626743Y-45466602D01*
X100491815Y-45232898D01*
X100323561Y-45021915D01*
X100323560Y-45021914D01*
X100323557Y-45021910D01*
X100194491Y-44902155D01*
X102200000Y-44902155D01*
X102200000Y-46000000D01*
X103399999Y-46000000D01*
X103374979Y-46060402D01*
X103350000Y-46185981D01*
X103350000Y-46314019D01*
X103374979Y-46439598D01*
X103399999Y-46500000D01*
X102200000Y-46500000D01*
X102200000Y-47597844D01*
X102206401Y-47657372D01*
X102206403Y-47657379D01*
X102256645Y-47792086D01*
X102256649Y-47792093D01*
X102342809Y-47907187D01*
X102342812Y-47907190D01*
X102457906Y-47993350D01*
X102457913Y-47993354D01*
X102592620Y-48043596D01*
X102592627Y-48043598D01*
X102652155Y-48049999D01*
X102652172Y-48050000D01*
X103750000Y-48050000D01*
X103750000Y-46850001D01*
X103810402Y-46875021D01*
X103935981Y-46900000D01*
X104064019Y-46900000D01*
X104189598Y-46875021D01*
X104250000Y-46850001D01*
X104250000Y-48050000D01*
X105347828Y-48050000D01*
X105347844Y-48049999D01*
X105407372Y-48043598D01*
X105407379Y-48043596D01*
X105542086Y-47993354D01*
X105542093Y-47993350D01*
X105657187Y-47907190D01*
X105657190Y-47907187D01*
X105743350Y-47792093D01*
X105743354Y-47792086D01*
X105793596Y-47657379D01*
X105793598Y-47657372D01*
X105799999Y-47597844D01*
X105800000Y-47597827D01*
X105800000Y-46500000D01*
X104600001Y-46500000D01*
X104625021Y-46439598D01*
X104650000Y-46314019D01*
X104650000Y-46185981D01*
X104625021Y-46060402D01*
X104600001Y-46000000D01*
X105800000Y-46000000D01*
X105800000Y-44902172D01*
X105799999Y-44902155D01*
X105793598Y-44842627D01*
X105793596Y-44842620D01*
X105743354Y-44707913D01*
X105743350Y-44707906D01*
X105657190Y-44592812D01*
X105657187Y-44592809D01*
X105542093Y-44506649D01*
X105542086Y-44506645D01*
X105407379Y-44456403D01*
X105407372Y-44456401D01*
X105347844Y-44450000D01*
X104250000Y-44450000D01*
X104250000Y-45649998D01*
X104189598Y-45624979D01*
X104064019Y-45600000D01*
X103935981Y-45600000D01*
X103810402Y-45624979D01*
X103750000Y-45649998D01*
X103750000Y-44450000D01*
X102652155Y-44450000D01*
X102592627Y-44456401D01*
X102592620Y-44456403D01*
X102457913Y-44506645D01*
X102457906Y-44506649D01*
X102342812Y-44592809D01*
X102342809Y-44592812D01*
X102256649Y-44707906D01*
X102256645Y-44707913D01*
X102206403Y-44842620D01*
X102206401Y-44842627D01*
X102200000Y-44902155D01*
X100194491Y-44902155D01*
X100125741Y-44838365D01*
X99902775Y-44686349D01*
X99902769Y-44686346D01*
X99902768Y-44686345D01*
X99902767Y-44686344D01*
X99659643Y-44569263D01*
X99659645Y-44569263D01*
X99401773Y-44489720D01*
X99401767Y-44489718D01*
X99134936Y-44449500D01*
X99134929Y-44449500D01*
X98865071Y-44449500D01*
X98865063Y-44449500D01*
X98598232Y-44489718D01*
X98598226Y-44489720D01*
X98340358Y-44569262D01*
X98097230Y-44686346D01*
X97874258Y-44838365D01*
X97676442Y-45021910D01*
X97508185Y-45232898D01*
X97373258Y-45466599D01*
X97373256Y-45466603D01*
X97274666Y-45717804D01*
X97274664Y-45717811D01*
X97214616Y-45980898D01*
X97194451Y-46249995D01*
X93750500Y-46249995D01*
X93750500Y-40374500D01*
X93770185Y-40307461D01*
X93822989Y-40261706D01*
X93874500Y-40250500D01*
X119875500Y-40250500D01*
X119942539Y-40270185D01*
G37*
%TD.AperFunction*%
%TD*%
M02*
