%TF.GenerationSoftware,KiCad,Pcbnew,8.0.4*%
%TF.CreationDate,2024-11-20T20:48:16-05:00*%
%TF.ProjectId,voltage_regulator_3V3_ap2210,766f6c74-6167-4655-9f72-6567756c6174,rev?*%
%TF.SameCoordinates,Original*%
%TF.FileFunction,Drillmap*%
%TF.FilePolarity,Positive*%
%FSLAX45Y45*%
G04 Gerber Fmt 4.5, Leading zero omitted, Abs format (unit mm)*
G04 Created by KiCad (PCBNEW 8.0.4) date 2024-11-20 20:48:16*
%MOMM*%
%LPD*%
G01*
G04 APERTURE LIST*
%ADD10C,0.050000*%
%ADD11C,0.200000*%
G04 APERTURE END LIST*
D10*
X9325000Y-3975000D02*
X12050000Y-3975000D01*
X12050000Y-7475000D01*
X9325000Y-7475000D01*
X9325000Y-3975000D01*
D11*
X9583277Y-7788984D02*
X9583277Y-7588984D01*
X9583277Y-7588984D02*
X9630896Y-7588984D01*
X9630896Y-7588984D02*
X9659467Y-7598508D01*
X9659467Y-7598508D02*
X9678515Y-7617555D01*
X9678515Y-7617555D02*
X9688039Y-7636603D01*
X9688039Y-7636603D02*
X9697563Y-7674698D01*
X9697563Y-7674698D02*
X9697563Y-7703269D01*
X9697563Y-7703269D02*
X9688039Y-7741365D01*
X9688039Y-7741365D02*
X9678515Y-7760412D01*
X9678515Y-7760412D02*
X9659467Y-7779460D01*
X9659467Y-7779460D02*
X9630896Y-7788984D01*
X9630896Y-7788984D02*
X9583277Y-7788984D01*
X9783277Y-7788984D02*
X9783277Y-7655650D01*
X9783277Y-7693746D02*
X9792801Y-7674698D01*
X9792801Y-7674698D02*
X9802324Y-7665174D01*
X9802324Y-7665174D02*
X9821372Y-7655650D01*
X9821372Y-7655650D02*
X9840420Y-7655650D01*
X9907086Y-7788984D02*
X9907086Y-7655650D01*
X9907086Y-7588984D02*
X9897563Y-7598508D01*
X9897563Y-7598508D02*
X9907086Y-7608031D01*
X9907086Y-7608031D02*
X9916610Y-7598508D01*
X9916610Y-7598508D02*
X9907086Y-7588984D01*
X9907086Y-7588984D02*
X9907086Y-7608031D01*
X10030896Y-7788984D02*
X10011848Y-7779460D01*
X10011848Y-7779460D02*
X10002324Y-7760412D01*
X10002324Y-7760412D02*
X10002324Y-7588984D01*
X10135658Y-7788984D02*
X10116610Y-7779460D01*
X10116610Y-7779460D02*
X10107086Y-7760412D01*
X10107086Y-7760412D02*
X10107086Y-7588984D01*
X10364229Y-7788984D02*
X10364229Y-7588984D01*
X10364229Y-7588984D02*
X10430896Y-7731841D01*
X10430896Y-7731841D02*
X10497563Y-7588984D01*
X10497563Y-7588984D02*
X10497563Y-7788984D01*
X10678515Y-7788984D02*
X10678515Y-7684222D01*
X10678515Y-7684222D02*
X10668991Y-7665174D01*
X10668991Y-7665174D02*
X10649944Y-7655650D01*
X10649944Y-7655650D02*
X10611848Y-7655650D01*
X10611848Y-7655650D02*
X10592801Y-7665174D01*
X10678515Y-7779460D02*
X10659467Y-7788984D01*
X10659467Y-7788984D02*
X10611848Y-7788984D01*
X10611848Y-7788984D02*
X10592801Y-7779460D01*
X10592801Y-7779460D02*
X10583277Y-7760412D01*
X10583277Y-7760412D02*
X10583277Y-7741365D01*
X10583277Y-7741365D02*
X10592801Y-7722317D01*
X10592801Y-7722317D02*
X10611848Y-7712793D01*
X10611848Y-7712793D02*
X10659467Y-7712793D01*
X10659467Y-7712793D02*
X10678515Y-7703269D01*
X10773753Y-7655650D02*
X10773753Y-7855650D01*
X10773753Y-7665174D02*
X10792801Y-7655650D01*
X10792801Y-7655650D02*
X10830896Y-7655650D01*
X10830896Y-7655650D02*
X10849944Y-7665174D01*
X10849944Y-7665174D02*
X10859467Y-7674698D01*
X10859467Y-7674698D02*
X10868991Y-7693746D01*
X10868991Y-7693746D02*
X10868991Y-7750888D01*
X10868991Y-7750888D02*
X10859467Y-7769936D01*
X10859467Y-7769936D02*
X10849944Y-7779460D01*
X10849944Y-7779460D02*
X10830896Y-7788984D01*
X10830896Y-7788984D02*
X10792801Y-7788984D01*
X10792801Y-7788984D02*
X10773753Y-7779460D01*
X10954705Y-7769936D02*
X10964229Y-7779460D01*
X10964229Y-7779460D02*
X10954705Y-7788984D01*
X10954705Y-7788984D02*
X10945182Y-7779460D01*
X10945182Y-7779460D02*
X10954705Y-7769936D01*
X10954705Y-7769936D02*
X10954705Y-7788984D01*
X10954705Y-7665174D02*
X10964229Y-7674698D01*
X10964229Y-7674698D02*
X10954705Y-7684222D01*
X10954705Y-7684222D02*
X10945182Y-7674698D01*
X10945182Y-7674698D02*
X10954705Y-7665174D01*
X10954705Y-7665174D02*
X10954705Y-7684222D01*
M02*
