%TF.GenerationSoftware,KiCad,Pcbnew,8.0.4*%
%TF.CreationDate,2024-11-20T20:48:09-05:00*%
%TF.ProjectId,voltage_regulator_3V3_ap2210,766f6c74-6167-4655-9f72-6567756c6174,rev?*%
%TF.SameCoordinates,Original*%
%TF.FileFunction,Copper,L1,Top*%
%TF.FilePolarity,Positive*%
%FSLAX46Y46*%
G04 Gerber Fmt 4.6, Leading zero omitted, Abs format (unit mm)*
G04 Created by KiCad (PCBNEW 8.0.4) date 2024-11-20 20:48:09*
%MOMM*%
%LPD*%
G01*
G04 APERTURE LIST*
G04 Aperture macros list*
%AMRoundRect*
0 Rectangle with rounded corners*
0 $1 Rounding radius*
0 $2 $3 $4 $5 $6 $7 $8 $9 X,Y pos of 4 corners*
0 Add a 4 corners polygon primitive as box body*
4,1,4,$2,$3,$4,$5,$6,$7,$8,$9,$2,$3,0*
0 Add four circle primitives for the rounded corners*
1,1,$1+$1,$2,$3*
1,1,$1+$1,$4,$5*
1,1,$1+$1,$6,$7*
1,1,$1+$1,$8,$9*
0 Add four rect primitives between the rounded corners*
20,1,$1+$1,$2,$3,$4,$5,0*
20,1,$1+$1,$4,$5,$6,$7,0*
20,1,$1+$1,$6,$7,$8,$9,0*
20,1,$1+$1,$8,$9,$2,$3,0*%
G04 Aperture macros list end*
%TA.AperFunction,ComponentPad*%
%ADD10R,2.600000X2.600000*%
%TD*%
%TA.AperFunction,ComponentPad*%
%ADD11C,2.600000*%
%TD*%
%TA.AperFunction,ComponentPad*%
%ADD12C,4.500000*%
%TD*%
%TA.AperFunction,SMDPad,CuDef*%
%ADD13R,0.550000X1.300000*%
%TD*%
%TA.AperFunction,SMDPad,CuDef*%
%ADD14RoundRect,0.100000X0.130000X0.100000X-0.130000X0.100000X-0.130000X-0.100000X0.130000X-0.100000X0*%
%TD*%
%TA.AperFunction,SMDPad,CuDef*%
%ADD15RoundRect,0.140000X-0.140000X-0.170000X0.140000X-0.170000X0.140000X0.170000X-0.140000X0.170000X0*%
%TD*%
%TA.AperFunction,SMDPad,CuDef*%
%ADD16RoundRect,0.225000X0.225000X0.250000X-0.225000X0.250000X-0.225000X-0.250000X0.225000X-0.250000X0*%
%TD*%
%TA.AperFunction,ViaPad*%
%ADD17C,0.600000*%
%TD*%
%TA.AperFunction,Conductor*%
%ADD18C,0.500000*%
%TD*%
%TA.AperFunction,Conductor*%
%ADD19C,0.300000*%
%TD*%
G04 APERTURE END LIST*
D10*
%TO.P,J3,1,Pin_1*%
%TO.N,GND*%
X104000000Y-46250000D03*
D11*
%TO.P,J3,2,Pin_2*%
%TO.N,+3.3V*%
X99000000Y-46250000D03*
%TD*%
D12*
%TO.P,J2,1*%
%TO.N,+5V*%
X112250000Y-60000000D03*
%TO.P,J2,2*%
%TO.N,GND*%
X112250000Y-66000000D03*
%TO.P,J2,3*%
%TO.N,unconnected-(J2-Pad3)*%
X116950000Y-63000000D03*
%TD*%
D13*
%TO.P,U1,1,VIN*%
%TO.N,+5V*%
X100275000Y-58000000D03*
%TO.P,U1,2,GND*%
%TO.N,GND*%
X101225000Y-58000000D03*
%TO.P,U1,3,EN*%
%TO.N,+5V*%
X102175000Y-58000000D03*
%TO.P,U1,4,BYP*%
%TO.N,Net-(U1-BYP)*%
X102175000Y-55500000D03*
%TO.P,U1,5,VOUT*%
%TO.N,+3.3V*%
X100275000Y-55500000D03*
%TD*%
D10*
%TO.P,J1,1,Pin_1*%
%TO.N,+5V*%
X97250000Y-68250000D03*
D11*
%TO.P,J1,2,Pin_2*%
%TO.N,GND*%
X102250000Y-68250000D03*
%TD*%
D14*
%TO.P,C2,1*%
%TO.N,+3.3V*%
X100250000Y-54000000D03*
%TO.P,C2,2*%
%TO.N,GND*%
X99610000Y-54000000D03*
%TD*%
D15*
%TO.P,C3,1*%
%TO.N,Net-(U1-BYP)*%
X102270000Y-54000000D03*
%TO.P,C3,2*%
%TO.N,GND*%
X103230000Y-54000000D03*
%TD*%
D16*
%TO.P,C1,1*%
%TO.N,+5V*%
X102500000Y-59750000D03*
%TO.P,C1,2*%
%TO.N,GND*%
X100950000Y-59750000D03*
%TD*%
D17*
%TO.N,GND*%
X98250000Y-54000000D03*
X99000000Y-59750000D03*
X104750000Y-54000000D03*
%TD*%
D18*
%TO.N,+5V*%
X101750000Y-56750000D02*
X102175000Y-57175000D01*
X102175000Y-57175000D02*
X102175000Y-58000000D01*
X100750000Y-56750000D02*
X101750000Y-56750000D01*
X100275000Y-57225000D02*
X100750000Y-56750000D01*
X100275000Y-58000000D02*
X100275000Y-57225000D01*
%TO.N,GND*%
X103230000Y-54000000D02*
X104750000Y-54000000D01*
D19*
X99610000Y-54000000D02*
X98250000Y-54000000D01*
D18*
X101225000Y-59475000D02*
X100950000Y-59750000D01*
X101225000Y-58000000D02*
X101225000Y-59475000D01*
X100950000Y-59750000D02*
X99000000Y-59750000D01*
%TO.N,+5V*%
X102500000Y-62000000D02*
X102500000Y-59750000D01*
D19*
X102500000Y-59750000D02*
X112000000Y-59750000D01*
X102175000Y-58000000D02*
X102175000Y-59425000D01*
D18*
X97250000Y-67250000D02*
X102500000Y-62000000D01*
X97250000Y-68250000D02*
X97250000Y-67250000D01*
D19*
X112000000Y-59750000D02*
X112250000Y-60000000D01*
X102175000Y-59425000D02*
X102500000Y-59750000D01*
%TO.N,+3.3V*%
X100275000Y-47525000D02*
X99000000Y-46250000D01*
X100275000Y-55500000D02*
X100275000Y-54025000D01*
X100275000Y-55500000D02*
X100275000Y-47525000D01*
X100275000Y-54025000D02*
X100250000Y-54000000D01*
%TO.N,Net-(U1-BYP)*%
X102175000Y-55500000D02*
X102175000Y-54095000D01*
X102175000Y-54095000D02*
X102270000Y-54000000D01*
%TD*%
M02*
