%TF.GenerationSoftware,KiCad,Pcbnew,8.0.4*%
%TF.CreationDate,2024-11-20T20:48:16-05:00*%
%TF.ProjectId,voltage_regulator_3V3_ap2210,766f6c74-6167-4655-9f72-6567756c6174,rev?*%
%TF.SameCoordinates,Original*%
%TF.FileFunction,Drillmap*%
%TF.FilePolarity,Positive*%
%FSLAX45Y45*%
G04 Gerber Fmt 4.5, Leading zero omitted, Abs format (unit mm)*
G04 Created by KiCad (PCBNEW 8.0.4) date 2024-11-20 20:48:16*
%MOMM*%
%LPD*%
G01*
G04 APERTURE LIST*
%ADD10C,0.050000*%
%ADD11C,0.200000*%
%ADD12C,0.100000*%
%ADD13C,0.130000*%
%ADD14C,0.320000*%
G04 APERTURE END LIST*
D10*
X9325000Y-3975000D02*
X12050000Y-3975000D01*
X12050000Y-7475000D01*
X9325000Y-7475000D01*
X9325000Y-3975000D01*
D11*
D12*
X9810000Y-5385000D02*
X9840000Y-5415000D01*
X9840000Y-5385000D02*
X9810000Y-5415000D01*
X9885000Y-5960000D02*
X9915000Y-5990000D01*
X9915000Y-5960000D02*
X9885000Y-5990000D01*
X10460000Y-5385000D02*
X10490000Y-5415000D01*
X10490000Y-5385000D02*
X10460000Y-5415000D01*
D13*
X9790000Y-6825000D02*
G75*
G02*
X9660000Y-6825000I-65000J0D01*
G01*
X9660000Y-6825000D02*
G75*
G02*
X9790000Y-6825000I65000J0D01*
G01*
X9965000Y-4625000D02*
G75*
G02*
X9835000Y-4625000I-65000J0D01*
G01*
X9835000Y-4625000D02*
G75*
G02*
X9965000Y-4625000I65000J0D01*
G01*
X10290000Y-6825000D02*
G75*
G02*
X10160000Y-6825000I-65000J0D01*
G01*
X10160000Y-6825000D02*
G75*
G02*
X10290000Y-6825000I65000J0D01*
G01*
X10465000Y-4625000D02*
G75*
G02*
X10335000Y-4625000I-65000J0D01*
G01*
X10335000Y-4625000D02*
G75*
G02*
X10465000Y-4625000I65000J0D01*
G01*
D14*
X11225000Y-5840000D02*
X11225000Y-6160000D01*
X11065000Y-6000000D02*
X11385000Y-6000000D01*
X11225000Y-6440000D02*
X11225000Y-6760000D01*
X11065000Y-6600000D02*
X11385000Y-6600000D01*
X11695000Y-6140000D02*
X11695000Y-6460000D01*
X11535000Y-6300000D02*
X11855000Y-6300000D01*
D11*
X9583277Y-7788984D02*
X9583277Y-7588984D01*
X9583277Y-7588984D02*
X9630896Y-7588984D01*
X9630896Y-7588984D02*
X9659467Y-7598508D01*
X9659467Y-7598508D02*
X9678515Y-7617555D01*
X9678515Y-7617555D02*
X9688039Y-7636603D01*
X9688039Y-7636603D02*
X9697563Y-7674698D01*
X9697563Y-7674698D02*
X9697563Y-7703269D01*
X9697563Y-7703269D02*
X9688039Y-7741365D01*
X9688039Y-7741365D02*
X9678515Y-7760412D01*
X9678515Y-7760412D02*
X9659467Y-7779460D01*
X9659467Y-7779460D02*
X9630896Y-7788984D01*
X9630896Y-7788984D02*
X9583277Y-7788984D01*
X9783277Y-7788984D02*
X9783277Y-7655650D01*
X9783277Y-7693746D02*
X9792801Y-7674698D01*
X9792801Y-7674698D02*
X9802324Y-7665174D01*
X9802324Y-7665174D02*
X9821372Y-7655650D01*
X9821372Y-7655650D02*
X9840420Y-7655650D01*
X9907086Y-7788984D02*
X9907086Y-7655650D01*
X9907086Y-7588984D02*
X9897563Y-7598508D01*
X9897563Y-7598508D02*
X9907086Y-7608031D01*
X9907086Y-7608031D02*
X9916610Y-7598508D01*
X9916610Y-7598508D02*
X9907086Y-7588984D01*
X9907086Y-7588984D02*
X9907086Y-7608031D01*
X10030896Y-7788984D02*
X10011848Y-7779460D01*
X10011848Y-7779460D02*
X10002324Y-7760412D01*
X10002324Y-7760412D02*
X10002324Y-7588984D01*
X10135658Y-7788984D02*
X10116610Y-7779460D01*
X10116610Y-7779460D02*
X10107086Y-7760412D01*
X10107086Y-7760412D02*
X10107086Y-7588984D01*
X10364229Y-7788984D02*
X10364229Y-7588984D01*
X10364229Y-7588984D02*
X10430896Y-7731841D01*
X10430896Y-7731841D02*
X10497563Y-7588984D01*
X10497563Y-7588984D02*
X10497563Y-7788984D01*
X10678515Y-7788984D02*
X10678515Y-7684222D01*
X10678515Y-7684222D02*
X10668991Y-7665174D01*
X10668991Y-7665174D02*
X10649944Y-7655650D01*
X10649944Y-7655650D02*
X10611848Y-7655650D01*
X10611848Y-7655650D02*
X10592801Y-7665174D01*
X10678515Y-7779460D02*
X10659467Y-7788984D01*
X10659467Y-7788984D02*
X10611848Y-7788984D01*
X10611848Y-7788984D02*
X10592801Y-7779460D01*
X10592801Y-7779460D02*
X10583277Y-7760412D01*
X10583277Y-7760412D02*
X10583277Y-7741365D01*
X10583277Y-7741365D02*
X10592801Y-7722317D01*
X10592801Y-7722317D02*
X10611848Y-7712793D01*
X10611848Y-7712793D02*
X10659467Y-7712793D01*
X10659467Y-7712793D02*
X10678515Y-7703269D01*
X10773753Y-7655650D02*
X10773753Y-7855650D01*
X10773753Y-7665174D02*
X10792801Y-7655650D01*
X10792801Y-7655650D02*
X10830896Y-7655650D01*
X10830896Y-7655650D02*
X10849944Y-7665174D01*
X10849944Y-7665174D02*
X10859467Y-7674698D01*
X10859467Y-7674698D02*
X10868991Y-7693746D01*
X10868991Y-7693746D02*
X10868991Y-7750888D01*
X10868991Y-7750888D02*
X10859467Y-7769936D01*
X10859467Y-7769936D02*
X10849944Y-7779460D01*
X10849944Y-7779460D02*
X10830896Y-7788984D01*
X10830896Y-7788984D02*
X10792801Y-7788984D01*
X10792801Y-7788984D02*
X10773753Y-7779460D01*
X10954705Y-7769936D02*
X10964229Y-7779460D01*
X10964229Y-7779460D02*
X10954705Y-7788984D01*
X10954705Y-7788984D02*
X10945182Y-7779460D01*
X10945182Y-7779460D02*
X10954705Y-7769936D01*
X10954705Y-7769936D02*
X10954705Y-7788984D01*
X10954705Y-7665174D02*
X10964229Y-7674698D01*
X10964229Y-7674698D02*
X10954705Y-7684222D01*
X10954705Y-7684222D02*
X10945182Y-7674698D01*
X10945182Y-7674698D02*
X10954705Y-7665174D01*
X10954705Y-7665174D02*
X10954705Y-7684222D01*
D12*
X9292500Y-8102500D02*
X9322500Y-8132500D01*
X9322500Y-8102500D02*
X9292500Y-8132500D01*
D11*
X9621372Y-8008984D02*
X9640420Y-8008984D01*
X9640420Y-8008984D02*
X9659467Y-8018508D01*
X9659467Y-8018508D02*
X9668991Y-8028031D01*
X9668991Y-8028031D02*
X9678515Y-8047079D01*
X9678515Y-8047079D02*
X9688039Y-8085174D01*
X9688039Y-8085174D02*
X9688039Y-8132793D01*
X9688039Y-8132793D02*
X9678515Y-8170888D01*
X9678515Y-8170888D02*
X9668991Y-8189936D01*
X9668991Y-8189936D02*
X9659467Y-8199460D01*
X9659467Y-8199460D02*
X9640420Y-8208984D01*
X9640420Y-8208984D02*
X9621372Y-8208984D01*
X9621372Y-8208984D02*
X9602324Y-8199460D01*
X9602324Y-8199460D02*
X9592801Y-8189936D01*
X9592801Y-8189936D02*
X9583277Y-8170888D01*
X9583277Y-8170888D02*
X9573753Y-8132793D01*
X9573753Y-8132793D02*
X9573753Y-8085174D01*
X9573753Y-8085174D02*
X9583277Y-8047079D01*
X9583277Y-8047079D02*
X9592801Y-8028031D01*
X9592801Y-8028031D02*
X9602324Y-8018508D01*
X9602324Y-8018508D02*
X9621372Y-8008984D01*
X9773753Y-8189936D02*
X9783277Y-8199460D01*
X9783277Y-8199460D02*
X9773753Y-8208984D01*
X9773753Y-8208984D02*
X9764229Y-8199460D01*
X9764229Y-8199460D02*
X9773753Y-8189936D01*
X9773753Y-8189936D02*
X9773753Y-8208984D01*
X9849944Y-8008984D02*
X9973753Y-8008984D01*
X9973753Y-8008984D02*
X9907086Y-8085174D01*
X9907086Y-8085174D02*
X9935658Y-8085174D01*
X9935658Y-8085174D02*
X9954705Y-8094698D01*
X9954705Y-8094698D02*
X9964229Y-8104222D01*
X9964229Y-8104222D02*
X9973753Y-8123269D01*
X9973753Y-8123269D02*
X9973753Y-8170888D01*
X9973753Y-8170888D02*
X9964229Y-8189936D01*
X9964229Y-8189936D02*
X9954705Y-8199460D01*
X9954705Y-8199460D02*
X9935658Y-8208984D01*
X9935658Y-8208984D02*
X9878515Y-8208984D01*
X9878515Y-8208984D02*
X9859467Y-8199460D01*
X9859467Y-8199460D02*
X9849944Y-8189936D01*
X10097563Y-8008984D02*
X10116610Y-8008984D01*
X10116610Y-8008984D02*
X10135658Y-8018508D01*
X10135658Y-8018508D02*
X10145182Y-8028031D01*
X10145182Y-8028031D02*
X10154705Y-8047079D01*
X10154705Y-8047079D02*
X10164229Y-8085174D01*
X10164229Y-8085174D02*
X10164229Y-8132793D01*
X10164229Y-8132793D02*
X10154705Y-8170888D01*
X10154705Y-8170888D02*
X10145182Y-8189936D01*
X10145182Y-8189936D02*
X10135658Y-8199460D01*
X10135658Y-8199460D02*
X10116610Y-8208984D01*
X10116610Y-8208984D02*
X10097563Y-8208984D01*
X10097563Y-8208984D02*
X10078515Y-8199460D01*
X10078515Y-8199460D02*
X10068991Y-8189936D01*
X10068991Y-8189936D02*
X10059467Y-8170888D01*
X10059467Y-8170888D02*
X10049944Y-8132793D01*
X10049944Y-8132793D02*
X10049944Y-8085174D01*
X10049944Y-8085174D02*
X10059467Y-8047079D01*
X10059467Y-8047079D02*
X10068991Y-8028031D01*
X10068991Y-8028031D02*
X10078515Y-8018508D01*
X10078515Y-8018508D02*
X10097563Y-8008984D01*
X10288039Y-8008984D02*
X10307086Y-8008984D01*
X10307086Y-8008984D02*
X10326134Y-8018508D01*
X10326134Y-8018508D02*
X10335658Y-8028031D01*
X10335658Y-8028031D02*
X10345182Y-8047079D01*
X10345182Y-8047079D02*
X10354705Y-8085174D01*
X10354705Y-8085174D02*
X10354705Y-8132793D01*
X10354705Y-8132793D02*
X10345182Y-8170888D01*
X10345182Y-8170888D02*
X10335658Y-8189936D01*
X10335658Y-8189936D02*
X10326134Y-8199460D01*
X10326134Y-8199460D02*
X10307086Y-8208984D01*
X10307086Y-8208984D02*
X10288039Y-8208984D01*
X10288039Y-8208984D02*
X10268991Y-8199460D01*
X10268991Y-8199460D02*
X10259467Y-8189936D01*
X10259467Y-8189936D02*
X10249944Y-8170888D01*
X10249944Y-8170888D02*
X10240420Y-8132793D01*
X10240420Y-8132793D02*
X10240420Y-8085174D01*
X10240420Y-8085174D02*
X10249944Y-8047079D01*
X10249944Y-8047079D02*
X10259467Y-8028031D01*
X10259467Y-8028031D02*
X10268991Y-8018508D01*
X10268991Y-8018508D02*
X10288039Y-8008984D01*
X10440420Y-8208984D02*
X10440420Y-8075650D01*
X10440420Y-8094698D02*
X10449944Y-8085174D01*
X10449944Y-8085174D02*
X10468991Y-8075650D01*
X10468991Y-8075650D02*
X10497563Y-8075650D01*
X10497563Y-8075650D02*
X10516610Y-8085174D01*
X10516610Y-8085174D02*
X10526134Y-8104222D01*
X10526134Y-8104222D02*
X10526134Y-8208984D01*
X10526134Y-8104222D02*
X10535658Y-8085174D01*
X10535658Y-8085174D02*
X10554705Y-8075650D01*
X10554705Y-8075650D02*
X10583277Y-8075650D01*
X10583277Y-8075650D02*
X10602325Y-8085174D01*
X10602325Y-8085174D02*
X10611848Y-8104222D01*
X10611848Y-8104222D02*
X10611848Y-8208984D01*
X10707086Y-8208984D02*
X10707086Y-8075650D01*
X10707086Y-8094698D02*
X10716610Y-8085174D01*
X10716610Y-8085174D02*
X10735658Y-8075650D01*
X10735658Y-8075650D02*
X10764229Y-8075650D01*
X10764229Y-8075650D02*
X10783277Y-8085174D01*
X10783277Y-8085174D02*
X10792801Y-8104222D01*
X10792801Y-8104222D02*
X10792801Y-8208984D01*
X10792801Y-8104222D02*
X10802325Y-8085174D01*
X10802325Y-8085174D02*
X10821372Y-8075650D01*
X10821372Y-8075650D02*
X10849944Y-8075650D01*
X10849944Y-8075650D02*
X10868991Y-8085174D01*
X10868991Y-8085174D02*
X10878515Y-8104222D01*
X10878515Y-8104222D02*
X10878515Y-8208984D01*
X11268991Y-7999460D02*
X11097563Y-8256603D01*
X11526134Y-8008984D02*
X11545182Y-8008984D01*
X11545182Y-8008984D02*
X11564229Y-8018508D01*
X11564229Y-8018508D02*
X11573753Y-8028031D01*
X11573753Y-8028031D02*
X11583277Y-8047079D01*
X11583277Y-8047079D02*
X11592801Y-8085174D01*
X11592801Y-8085174D02*
X11592801Y-8132793D01*
X11592801Y-8132793D02*
X11583277Y-8170888D01*
X11583277Y-8170888D02*
X11573753Y-8189936D01*
X11573753Y-8189936D02*
X11564229Y-8199460D01*
X11564229Y-8199460D02*
X11545182Y-8208984D01*
X11545182Y-8208984D02*
X11526134Y-8208984D01*
X11526134Y-8208984D02*
X11507086Y-8199460D01*
X11507086Y-8199460D02*
X11497563Y-8189936D01*
X11497563Y-8189936D02*
X11488039Y-8170888D01*
X11488039Y-8170888D02*
X11478515Y-8132793D01*
X11478515Y-8132793D02*
X11478515Y-8085174D01*
X11478515Y-8085174D02*
X11488039Y-8047079D01*
X11488039Y-8047079D02*
X11497563Y-8028031D01*
X11497563Y-8028031D02*
X11507086Y-8018508D01*
X11507086Y-8018508D02*
X11526134Y-8008984D01*
X11678515Y-8189936D02*
X11688039Y-8199460D01*
X11688039Y-8199460D02*
X11678515Y-8208984D01*
X11678515Y-8208984D02*
X11668991Y-8199460D01*
X11668991Y-8199460D02*
X11678515Y-8189936D01*
X11678515Y-8189936D02*
X11678515Y-8208984D01*
X11811848Y-8008984D02*
X11830896Y-8008984D01*
X11830896Y-8008984D02*
X11849944Y-8018508D01*
X11849944Y-8018508D02*
X11859467Y-8028031D01*
X11859467Y-8028031D02*
X11868991Y-8047079D01*
X11868991Y-8047079D02*
X11878515Y-8085174D01*
X11878515Y-8085174D02*
X11878515Y-8132793D01*
X11878515Y-8132793D02*
X11868991Y-8170888D01*
X11868991Y-8170888D02*
X11859467Y-8189936D01*
X11859467Y-8189936D02*
X11849944Y-8199460D01*
X11849944Y-8199460D02*
X11830896Y-8208984D01*
X11830896Y-8208984D02*
X11811848Y-8208984D01*
X11811848Y-8208984D02*
X11792801Y-8199460D01*
X11792801Y-8199460D02*
X11783277Y-8189936D01*
X11783277Y-8189936D02*
X11773753Y-8170888D01*
X11773753Y-8170888D02*
X11764229Y-8132793D01*
X11764229Y-8132793D02*
X11764229Y-8085174D01*
X11764229Y-8085174D02*
X11773753Y-8047079D01*
X11773753Y-8047079D02*
X11783277Y-8028031D01*
X11783277Y-8028031D02*
X11792801Y-8018508D01*
X11792801Y-8018508D02*
X11811848Y-8008984D01*
X12068991Y-8208984D02*
X11954706Y-8208984D01*
X12011848Y-8208984D02*
X12011848Y-8008984D01*
X12011848Y-8008984D02*
X11992801Y-8037555D01*
X11992801Y-8037555D02*
X11973753Y-8056603D01*
X11973753Y-8056603D02*
X11954706Y-8066127D01*
X12259467Y-8208984D02*
X12145182Y-8208984D01*
X12202325Y-8208984D02*
X12202325Y-8008984D01*
X12202325Y-8008984D02*
X12183277Y-8037555D01*
X12183277Y-8037555D02*
X12164229Y-8056603D01*
X12164229Y-8056603D02*
X12145182Y-8066127D01*
X12373753Y-8094698D02*
X12354706Y-8085174D01*
X12354706Y-8085174D02*
X12345182Y-8075650D01*
X12345182Y-8075650D02*
X12335658Y-8056603D01*
X12335658Y-8056603D02*
X12335658Y-8047079D01*
X12335658Y-8047079D02*
X12345182Y-8028031D01*
X12345182Y-8028031D02*
X12354706Y-8018508D01*
X12354706Y-8018508D02*
X12373753Y-8008984D01*
X12373753Y-8008984D02*
X12411848Y-8008984D01*
X12411848Y-8008984D02*
X12430896Y-8018508D01*
X12430896Y-8018508D02*
X12440420Y-8028031D01*
X12440420Y-8028031D02*
X12449944Y-8047079D01*
X12449944Y-8047079D02*
X12449944Y-8056603D01*
X12449944Y-8056603D02*
X12440420Y-8075650D01*
X12440420Y-8075650D02*
X12430896Y-8085174D01*
X12430896Y-8085174D02*
X12411848Y-8094698D01*
X12411848Y-8094698D02*
X12373753Y-8094698D01*
X12373753Y-8094698D02*
X12354706Y-8104222D01*
X12354706Y-8104222D02*
X12345182Y-8113746D01*
X12345182Y-8113746D02*
X12335658Y-8132793D01*
X12335658Y-8132793D02*
X12335658Y-8170888D01*
X12335658Y-8170888D02*
X12345182Y-8189936D01*
X12345182Y-8189936D02*
X12354706Y-8199460D01*
X12354706Y-8199460D02*
X12373753Y-8208984D01*
X12373753Y-8208984D02*
X12411848Y-8208984D01*
X12411848Y-8208984D02*
X12430896Y-8199460D01*
X12430896Y-8199460D02*
X12440420Y-8189936D01*
X12440420Y-8189936D02*
X12449944Y-8170888D01*
X12449944Y-8170888D02*
X12449944Y-8132793D01*
X12449944Y-8132793D02*
X12440420Y-8113746D01*
X12440420Y-8113746D02*
X12430896Y-8104222D01*
X12430896Y-8104222D02*
X12411848Y-8094698D01*
X12526134Y-8008984D02*
X12526134Y-8047079D01*
X12602325Y-8008984D02*
X12602325Y-8047079D01*
X12897563Y-8285174D02*
X12888039Y-8275650D01*
X12888039Y-8275650D02*
X12868991Y-8247079D01*
X12868991Y-8247079D02*
X12859468Y-8228031D01*
X12859468Y-8228031D02*
X12849944Y-8199460D01*
X12849944Y-8199460D02*
X12840420Y-8151841D01*
X12840420Y-8151841D02*
X12840420Y-8113746D01*
X12840420Y-8113746D02*
X12849944Y-8066127D01*
X12849944Y-8066127D02*
X12859468Y-8037555D01*
X12859468Y-8037555D02*
X12868991Y-8018508D01*
X12868991Y-8018508D02*
X12888039Y-7989936D01*
X12888039Y-7989936D02*
X12897563Y-7980412D01*
X12954706Y-8008984D02*
X13078515Y-8008984D01*
X13078515Y-8008984D02*
X13011848Y-8085174D01*
X13011848Y-8085174D02*
X13040420Y-8085174D01*
X13040420Y-8085174D02*
X13059468Y-8094698D01*
X13059468Y-8094698D02*
X13068991Y-8104222D01*
X13068991Y-8104222D02*
X13078515Y-8123269D01*
X13078515Y-8123269D02*
X13078515Y-8170888D01*
X13078515Y-8170888D02*
X13068991Y-8189936D01*
X13068991Y-8189936D02*
X13059468Y-8199460D01*
X13059468Y-8199460D02*
X13040420Y-8208984D01*
X13040420Y-8208984D02*
X12983277Y-8208984D01*
X12983277Y-8208984D02*
X12964229Y-8199460D01*
X12964229Y-8199460D02*
X12954706Y-8189936D01*
X13316610Y-8208984D02*
X13316610Y-8008984D01*
X13402325Y-8208984D02*
X13402325Y-8104222D01*
X13402325Y-8104222D02*
X13392801Y-8085174D01*
X13392801Y-8085174D02*
X13373753Y-8075650D01*
X13373753Y-8075650D02*
X13345182Y-8075650D01*
X13345182Y-8075650D02*
X13326134Y-8085174D01*
X13326134Y-8085174D02*
X13316610Y-8094698D01*
X13526134Y-8208984D02*
X13507087Y-8199460D01*
X13507087Y-8199460D02*
X13497563Y-8189936D01*
X13497563Y-8189936D02*
X13488039Y-8170888D01*
X13488039Y-8170888D02*
X13488039Y-8113746D01*
X13488039Y-8113746D02*
X13497563Y-8094698D01*
X13497563Y-8094698D02*
X13507087Y-8085174D01*
X13507087Y-8085174D02*
X13526134Y-8075650D01*
X13526134Y-8075650D02*
X13554706Y-8075650D01*
X13554706Y-8075650D02*
X13573753Y-8085174D01*
X13573753Y-8085174D02*
X13583277Y-8094698D01*
X13583277Y-8094698D02*
X13592801Y-8113746D01*
X13592801Y-8113746D02*
X13592801Y-8170888D01*
X13592801Y-8170888D02*
X13583277Y-8189936D01*
X13583277Y-8189936D02*
X13573753Y-8199460D01*
X13573753Y-8199460D02*
X13554706Y-8208984D01*
X13554706Y-8208984D02*
X13526134Y-8208984D01*
X13707087Y-8208984D02*
X13688039Y-8199460D01*
X13688039Y-8199460D02*
X13678515Y-8180412D01*
X13678515Y-8180412D02*
X13678515Y-8008984D01*
X13859468Y-8199460D02*
X13840420Y-8208984D01*
X13840420Y-8208984D02*
X13802325Y-8208984D01*
X13802325Y-8208984D02*
X13783277Y-8199460D01*
X13783277Y-8199460D02*
X13773753Y-8180412D01*
X13773753Y-8180412D02*
X13773753Y-8104222D01*
X13773753Y-8104222D02*
X13783277Y-8085174D01*
X13783277Y-8085174D02*
X13802325Y-8075650D01*
X13802325Y-8075650D02*
X13840420Y-8075650D01*
X13840420Y-8075650D02*
X13859468Y-8085174D01*
X13859468Y-8085174D02*
X13868991Y-8104222D01*
X13868991Y-8104222D02*
X13868991Y-8123269D01*
X13868991Y-8123269D02*
X13773753Y-8142317D01*
X13945182Y-8199460D02*
X13964230Y-8208984D01*
X13964230Y-8208984D02*
X14002325Y-8208984D01*
X14002325Y-8208984D02*
X14021372Y-8199460D01*
X14021372Y-8199460D02*
X14030896Y-8180412D01*
X14030896Y-8180412D02*
X14030896Y-8170888D01*
X14030896Y-8170888D02*
X14021372Y-8151841D01*
X14021372Y-8151841D02*
X14002325Y-8142317D01*
X14002325Y-8142317D02*
X13973753Y-8142317D01*
X13973753Y-8142317D02*
X13954706Y-8132793D01*
X13954706Y-8132793D02*
X13945182Y-8113746D01*
X13945182Y-8113746D02*
X13945182Y-8104222D01*
X13945182Y-8104222D02*
X13954706Y-8085174D01*
X13954706Y-8085174D02*
X13973753Y-8075650D01*
X13973753Y-8075650D02*
X14002325Y-8075650D01*
X14002325Y-8075650D02*
X14021372Y-8085174D01*
X14097563Y-8285174D02*
X14107087Y-8275650D01*
X14107087Y-8275650D02*
X14126134Y-8247079D01*
X14126134Y-8247079D02*
X14135658Y-8228031D01*
X14135658Y-8228031D02*
X14145182Y-8199460D01*
X14145182Y-8199460D02*
X14154706Y-8151841D01*
X14154706Y-8151841D02*
X14154706Y-8113746D01*
X14154706Y-8113746D02*
X14145182Y-8066127D01*
X14145182Y-8066127D02*
X14135658Y-8037555D01*
X14135658Y-8037555D02*
X14126134Y-8018508D01*
X14126134Y-8018508D02*
X14107087Y-7989936D01*
X14107087Y-7989936D02*
X14097563Y-7980412D01*
D13*
X9322500Y-8381500D02*
G75*
G02*
X9192500Y-8381500I-65000J0D01*
G01*
X9192500Y-8381500D02*
G75*
G02*
X9322500Y-8381500I65000J0D01*
G01*
D11*
X9688039Y-8472984D02*
X9573753Y-8472984D01*
X9630896Y-8472984D02*
X9630896Y-8272984D01*
X9630896Y-8272984D02*
X9611848Y-8301555D01*
X9611848Y-8301555D02*
X9592801Y-8320603D01*
X9592801Y-8320603D02*
X9573753Y-8330127D01*
X9773753Y-8453936D02*
X9783277Y-8463460D01*
X9783277Y-8463460D02*
X9773753Y-8472984D01*
X9773753Y-8472984D02*
X9764229Y-8463460D01*
X9764229Y-8463460D02*
X9773753Y-8453936D01*
X9773753Y-8453936D02*
X9773753Y-8472984D01*
X9849944Y-8272984D02*
X9973753Y-8272984D01*
X9973753Y-8272984D02*
X9907086Y-8349174D01*
X9907086Y-8349174D02*
X9935658Y-8349174D01*
X9935658Y-8349174D02*
X9954705Y-8358698D01*
X9954705Y-8358698D02*
X9964229Y-8368222D01*
X9964229Y-8368222D02*
X9973753Y-8387269D01*
X9973753Y-8387269D02*
X9973753Y-8434889D01*
X9973753Y-8434889D02*
X9964229Y-8453936D01*
X9964229Y-8453936D02*
X9954705Y-8463460D01*
X9954705Y-8463460D02*
X9935658Y-8472984D01*
X9935658Y-8472984D02*
X9878515Y-8472984D01*
X9878515Y-8472984D02*
X9859467Y-8463460D01*
X9859467Y-8463460D02*
X9849944Y-8453936D01*
X10097563Y-8272984D02*
X10116610Y-8272984D01*
X10116610Y-8272984D02*
X10135658Y-8282508D01*
X10135658Y-8282508D02*
X10145182Y-8292031D01*
X10145182Y-8292031D02*
X10154705Y-8311079D01*
X10154705Y-8311079D02*
X10164229Y-8349174D01*
X10164229Y-8349174D02*
X10164229Y-8396793D01*
X10164229Y-8396793D02*
X10154705Y-8434889D01*
X10154705Y-8434889D02*
X10145182Y-8453936D01*
X10145182Y-8453936D02*
X10135658Y-8463460D01*
X10135658Y-8463460D02*
X10116610Y-8472984D01*
X10116610Y-8472984D02*
X10097563Y-8472984D01*
X10097563Y-8472984D02*
X10078515Y-8463460D01*
X10078515Y-8463460D02*
X10068991Y-8453936D01*
X10068991Y-8453936D02*
X10059467Y-8434889D01*
X10059467Y-8434889D02*
X10049944Y-8396793D01*
X10049944Y-8396793D02*
X10049944Y-8349174D01*
X10049944Y-8349174D02*
X10059467Y-8311079D01*
X10059467Y-8311079D02*
X10068991Y-8292031D01*
X10068991Y-8292031D02*
X10078515Y-8282508D01*
X10078515Y-8282508D02*
X10097563Y-8272984D01*
X10288039Y-8272984D02*
X10307086Y-8272984D01*
X10307086Y-8272984D02*
X10326134Y-8282508D01*
X10326134Y-8282508D02*
X10335658Y-8292031D01*
X10335658Y-8292031D02*
X10345182Y-8311079D01*
X10345182Y-8311079D02*
X10354705Y-8349174D01*
X10354705Y-8349174D02*
X10354705Y-8396793D01*
X10354705Y-8396793D02*
X10345182Y-8434889D01*
X10345182Y-8434889D02*
X10335658Y-8453936D01*
X10335658Y-8453936D02*
X10326134Y-8463460D01*
X10326134Y-8463460D02*
X10307086Y-8472984D01*
X10307086Y-8472984D02*
X10288039Y-8472984D01*
X10288039Y-8472984D02*
X10268991Y-8463460D01*
X10268991Y-8463460D02*
X10259467Y-8453936D01*
X10259467Y-8453936D02*
X10249944Y-8434889D01*
X10249944Y-8434889D02*
X10240420Y-8396793D01*
X10240420Y-8396793D02*
X10240420Y-8349174D01*
X10240420Y-8349174D02*
X10249944Y-8311079D01*
X10249944Y-8311079D02*
X10259467Y-8292031D01*
X10259467Y-8292031D02*
X10268991Y-8282508D01*
X10268991Y-8282508D02*
X10288039Y-8272984D01*
X10440420Y-8472984D02*
X10440420Y-8339650D01*
X10440420Y-8358698D02*
X10449944Y-8349174D01*
X10449944Y-8349174D02*
X10468991Y-8339650D01*
X10468991Y-8339650D02*
X10497563Y-8339650D01*
X10497563Y-8339650D02*
X10516610Y-8349174D01*
X10516610Y-8349174D02*
X10526134Y-8368222D01*
X10526134Y-8368222D02*
X10526134Y-8472984D01*
X10526134Y-8368222D02*
X10535658Y-8349174D01*
X10535658Y-8349174D02*
X10554705Y-8339650D01*
X10554705Y-8339650D02*
X10583277Y-8339650D01*
X10583277Y-8339650D02*
X10602325Y-8349174D01*
X10602325Y-8349174D02*
X10611848Y-8368222D01*
X10611848Y-8368222D02*
X10611848Y-8472984D01*
X10707086Y-8472984D02*
X10707086Y-8339650D01*
X10707086Y-8358698D02*
X10716610Y-8349174D01*
X10716610Y-8349174D02*
X10735658Y-8339650D01*
X10735658Y-8339650D02*
X10764229Y-8339650D01*
X10764229Y-8339650D02*
X10783277Y-8349174D01*
X10783277Y-8349174D02*
X10792801Y-8368222D01*
X10792801Y-8368222D02*
X10792801Y-8472984D01*
X10792801Y-8368222D02*
X10802325Y-8349174D01*
X10802325Y-8349174D02*
X10821372Y-8339650D01*
X10821372Y-8339650D02*
X10849944Y-8339650D01*
X10849944Y-8339650D02*
X10868991Y-8349174D01*
X10868991Y-8349174D02*
X10878515Y-8368222D01*
X10878515Y-8368222D02*
X10878515Y-8472984D01*
X11268991Y-8263460D02*
X11097563Y-8520603D01*
X11526134Y-8272984D02*
X11545182Y-8272984D01*
X11545182Y-8272984D02*
X11564229Y-8282508D01*
X11564229Y-8282508D02*
X11573753Y-8292031D01*
X11573753Y-8292031D02*
X11583277Y-8311079D01*
X11583277Y-8311079D02*
X11592801Y-8349174D01*
X11592801Y-8349174D02*
X11592801Y-8396793D01*
X11592801Y-8396793D02*
X11583277Y-8434889D01*
X11583277Y-8434889D02*
X11573753Y-8453936D01*
X11573753Y-8453936D02*
X11564229Y-8463460D01*
X11564229Y-8463460D02*
X11545182Y-8472984D01*
X11545182Y-8472984D02*
X11526134Y-8472984D01*
X11526134Y-8472984D02*
X11507086Y-8463460D01*
X11507086Y-8463460D02*
X11497563Y-8453936D01*
X11497563Y-8453936D02*
X11488039Y-8434889D01*
X11488039Y-8434889D02*
X11478515Y-8396793D01*
X11478515Y-8396793D02*
X11478515Y-8349174D01*
X11478515Y-8349174D02*
X11488039Y-8311079D01*
X11488039Y-8311079D02*
X11497563Y-8292031D01*
X11497563Y-8292031D02*
X11507086Y-8282508D01*
X11507086Y-8282508D02*
X11526134Y-8272984D01*
X11678515Y-8453936D02*
X11688039Y-8463460D01*
X11688039Y-8463460D02*
X11678515Y-8472984D01*
X11678515Y-8472984D02*
X11668991Y-8463460D01*
X11668991Y-8463460D02*
X11678515Y-8453936D01*
X11678515Y-8453936D02*
X11678515Y-8472984D01*
X11811848Y-8272984D02*
X11830896Y-8272984D01*
X11830896Y-8272984D02*
X11849944Y-8282508D01*
X11849944Y-8282508D02*
X11859467Y-8292031D01*
X11859467Y-8292031D02*
X11868991Y-8311079D01*
X11868991Y-8311079D02*
X11878515Y-8349174D01*
X11878515Y-8349174D02*
X11878515Y-8396793D01*
X11878515Y-8396793D02*
X11868991Y-8434889D01*
X11868991Y-8434889D02*
X11859467Y-8453936D01*
X11859467Y-8453936D02*
X11849944Y-8463460D01*
X11849944Y-8463460D02*
X11830896Y-8472984D01*
X11830896Y-8472984D02*
X11811848Y-8472984D01*
X11811848Y-8472984D02*
X11792801Y-8463460D01*
X11792801Y-8463460D02*
X11783277Y-8453936D01*
X11783277Y-8453936D02*
X11773753Y-8434889D01*
X11773753Y-8434889D02*
X11764229Y-8396793D01*
X11764229Y-8396793D02*
X11764229Y-8349174D01*
X11764229Y-8349174D02*
X11773753Y-8311079D01*
X11773753Y-8311079D02*
X11783277Y-8292031D01*
X11783277Y-8292031D02*
X11792801Y-8282508D01*
X11792801Y-8282508D02*
X11811848Y-8272984D01*
X12059467Y-8272984D02*
X11964229Y-8272984D01*
X11964229Y-8272984D02*
X11954706Y-8368222D01*
X11954706Y-8368222D02*
X11964229Y-8358698D01*
X11964229Y-8358698D02*
X11983277Y-8349174D01*
X11983277Y-8349174D02*
X12030896Y-8349174D01*
X12030896Y-8349174D02*
X12049944Y-8358698D01*
X12049944Y-8358698D02*
X12059467Y-8368222D01*
X12059467Y-8368222D02*
X12068991Y-8387269D01*
X12068991Y-8387269D02*
X12068991Y-8434889D01*
X12068991Y-8434889D02*
X12059467Y-8453936D01*
X12059467Y-8453936D02*
X12049944Y-8463460D01*
X12049944Y-8463460D02*
X12030896Y-8472984D01*
X12030896Y-8472984D02*
X11983277Y-8472984D01*
X11983277Y-8472984D02*
X11964229Y-8463460D01*
X11964229Y-8463460D02*
X11954706Y-8453936D01*
X12259467Y-8472984D02*
X12145182Y-8472984D01*
X12202325Y-8472984D02*
X12202325Y-8272984D01*
X12202325Y-8272984D02*
X12183277Y-8301555D01*
X12183277Y-8301555D02*
X12164229Y-8320603D01*
X12164229Y-8320603D02*
X12145182Y-8330127D01*
X12335658Y-8292031D02*
X12345182Y-8282508D01*
X12345182Y-8282508D02*
X12364229Y-8272984D01*
X12364229Y-8272984D02*
X12411848Y-8272984D01*
X12411848Y-8272984D02*
X12430896Y-8282508D01*
X12430896Y-8282508D02*
X12440420Y-8292031D01*
X12440420Y-8292031D02*
X12449944Y-8311079D01*
X12449944Y-8311079D02*
X12449944Y-8330127D01*
X12449944Y-8330127D02*
X12440420Y-8358698D01*
X12440420Y-8358698D02*
X12326134Y-8472984D01*
X12326134Y-8472984D02*
X12449944Y-8472984D01*
X12526134Y-8272984D02*
X12526134Y-8311079D01*
X12602325Y-8272984D02*
X12602325Y-8311079D01*
X12897563Y-8549174D02*
X12888039Y-8539650D01*
X12888039Y-8539650D02*
X12868991Y-8511079D01*
X12868991Y-8511079D02*
X12859468Y-8492031D01*
X12859468Y-8492031D02*
X12849944Y-8463460D01*
X12849944Y-8463460D02*
X12840420Y-8415841D01*
X12840420Y-8415841D02*
X12840420Y-8377746D01*
X12840420Y-8377746D02*
X12849944Y-8330127D01*
X12849944Y-8330127D02*
X12859468Y-8301555D01*
X12859468Y-8301555D02*
X12868991Y-8282508D01*
X12868991Y-8282508D02*
X12888039Y-8253936D01*
X12888039Y-8253936D02*
X12897563Y-8244412D01*
X13059468Y-8339650D02*
X13059468Y-8472984D01*
X13011848Y-8263460D02*
X12964229Y-8406317D01*
X12964229Y-8406317D02*
X13088039Y-8406317D01*
X13316610Y-8472984D02*
X13316610Y-8272984D01*
X13402325Y-8472984D02*
X13402325Y-8368222D01*
X13402325Y-8368222D02*
X13392801Y-8349174D01*
X13392801Y-8349174D02*
X13373753Y-8339650D01*
X13373753Y-8339650D02*
X13345182Y-8339650D01*
X13345182Y-8339650D02*
X13326134Y-8349174D01*
X13326134Y-8349174D02*
X13316610Y-8358698D01*
X13526134Y-8472984D02*
X13507087Y-8463460D01*
X13507087Y-8463460D02*
X13497563Y-8453936D01*
X13497563Y-8453936D02*
X13488039Y-8434889D01*
X13488039Y-8434889D02*
X13488039Y-8377746D01*
X13488039Y-8377746D02*
X13497563Y-8358698D01*
X13497563Y-8358698D02*
X13507087Y-8349174D01*
X13507087Y-8349174D02*
X13526134Y-8339650D01*
X13526134Y-8339650D02*
X13554706Y-8339650D01*
X13554706Y-8339650D02*
X13573753Y-8349174D01*
X13573753Y-8349174D02*
X13583277Y-8358698D01*
X13583277Y-8358698D02*
X13592801Y-8377746D01*
X13592801Y-8377746D02*
X13592801Y-8434889D01*
X13592801Y-8434889D02*
X13583277Y-8453936D01*
X13583277Y-8453936D02*
X13573753Y-8463460D01*
X13573753Y-8463460D02*
X13554706Y-8472984D01*
X13554706Y-8472984D02*
X13526134Y-8472984D01*
X13707087Y-8472984D02*
X13688039Y-8463460D01*
X13688039Y-8463460D02*
X13678515Y-8444412D01*
X13678515Y-8444412D02*
X13678515Y-8272984D01*
X13859468Y-8463460D02*
X13840420Y-8472984D01*
X13840420Y-8472984D02*
X13802325Y-8472984D01*
X13802325Y-8472984D02*
X13783277Y-8463460D01*
X13783277Y-8463460D02*
X13773753Y-8444412D01*
X13773753Y-8444412D02*
X13773753Y-8368222D01*
X13773753Y-8368222D02*
X13783277Y-8349174D01*
X13783277Y-8349174D02*
X13802325Y-8339650D01*
X13802325Y-8339650D02*
X13840420Y-8339650D01*
X13840420Y-8339650D02*
X13859468Y-8349174D01*
X13859468Y-8349174D02*
X13868991Y-8368222D01*
X13868991Y-8368222D02*
X13868991Y-8387269D01*
X13868991Y-8387269D02*
X13773753Y-8406317D01*
X13945182Y-8463460D02*
X13964230Y-8472984D01*
X13964230Y-8472984D02*
X14002325Y-8472984D01*
X14002325Y-8472984D02*
X14021372Y-8463460D01*
X14021372Y-8463460D02*
X14030896Y-8444412D01*
X14030896Y-8444412D02*
X14030896Y-8434889D01*
X14030896Y-8434889D02*
X14021372Y-8415841D01*
X14021372Y-8415841D02*
X14002325Y-8406317D01*
X14002325Y-8406317D02*
X13973753Y-8406317D01*
X13973753Y-8406317D02*
X13954706Y-8396793D01*
X13954706Y-8396793D02*
X13945182Y-8377746D01*
X13945182Y-8377746D02*
X13945182Y-8368222D01*
X13945182Y-8368222D02*
X13954706Y-8349174D01*
X13954706Y-8349174D02*
X13973753Y-8339650D01*
X13973753Y-8339650D02*
X14002325Y-8339650D01*
X14002325Y-8339650D02*
X14021372Y-8349174D01*
X14097563Y-8549174D02*
X14107087Y-8539650D01*
X14107087Y-8539650D02*
X14126134Y-8511079D01*
X14126134Y-8511079D02*
X14135658Y-8492031D01*
X14135658Y-8492031D02*
X14145182Y-8463460D01*
X14145182Y-8463460D02*
X14154706Y-8415841D01*
X14154706Y-8415841D02*
X14154706Y-8377746D01*
X14154706Y-8377746D02*
X14145182Y-8330127D01*
X14145182Y-8330127D02*
X14135658Y-8301555D01*
X14135658Y-8301555D02*
X14126134Y-8282508D01*
X14126134Y-8282508D02*
X14107087Y-8253936D01*
X14107087Y-8253936D02*
X14097563Y-8244412D01*
X9222500Y-8545500D02*
X9222500Y-8745500D01*
X9122500Y-8645500D02*
X9322500Y-8645500D01*
X9564229Y-8536984D02*
X9688039Y-8536984D01*
X9688039Y-8536984D02*
X9621372Y-8613174D01*
X9621372Y-8613174D02*
X9649944Y-8613174D01*
X9649944Y-8613174D02*
X9668991Y-8622698D01*
X9668991Y-8622698D02*
X9678515Y-8632222D01*
X9678515Y-8632222D02*
X9688039Y-8651270D01*
X9688039Y-8651270D02*
X9688039Y-8698889D01*
X9688039Y-8698889D02*
X9678515Y-8717936D01*
X9678515Y-8717936D02*
X9668991Y-8727460D01*
X9668991Y-8727460D02*
X9649944Y-8736984D01*
X9649944Y-8736984D02*
X9592801Y-8736984D01*
X9592801Y-8736984D02*
X9573753Y-8727460D01*
X9573753Y-8727460D02*
X9564229Y-8717936D01*
X9773753Y-8717936D02*
X9783277Y-8727460D01*
X9783277Y-8727460D02*
X9773753Y-8736984D01*
X9773753Y-8736984D02*
X9764229Y-8727460D01*
X9764229Y-8727460D02*
X9773753Y-8717936D01*
X9773753Y-8717936D02*
X9773753Y-8736984D01*
X9859467Y-8556031D02*
X9868991Y-8546508D01*
X9868991Y-8546508D02*
X9888039Y-8536984D01*
X9888039Y-8536984D02*
X9935658Y-8536984D01*
X9935658Y-8536984D02*
X9954705Y-8546508D01*
X9954705Y-8546508D02*
X9964229Y-8556031D01*
X9964229Y-8556031D02*
X9973753Y-8575079D01*
X9973753Y-8575079D02*
X9973753Y-8594127D01*
X9973753Y-8594127D02*
X9964229Y-8622698D01*
X9964229Y-8622698D02*
X9849944Y-8736984D01*
X9849944Y-8736984D02*
X9973753Y-8736984D01*
X10097563Y-8536984D02*
X10116610Y-8536984D01*
X10116610Y-8536984D02*
X10135658Y-8546508D01*
X10135658Y-8546508D02*
X10145182Y-8556031D01*
X10145182Y-8556031D02*
X10154705Y-8575079D01*
X10154705Y-8575079D02*
X10164229Y-8613174D01*
X10164229Y-8613174D02*
X10164229Y-8660793D01*
X10164229Y-8660793D02*
X10154705Y-8698889D01*
X10154705Y-8698889D02*
X10145182Y-8717936D01*
X10145182Y-8717936D02*
X10135658Y-8727460D01*
X10135658Y-8727460D02*
X10116610Y-8736984D01*
X10116610Y-8736984D02*
X10097563Y-8736984D01*
X10097563Y-8736984D02*
X10078515Y-8727460D01*
X10078515Y-8727460D02*
X10068991Y-8717936D01*
X10068991Y-8717936D02*
X10059467Y-8698889D01*
X10059467Y-8698889D02*
X10049944Y-8660793D01*
X10049944Y-8660793D02*
X10049944Y-8613174D01*
X10049944Y-8613174D02*
X10059467Y-8575079D01*
X10059467Y-8575079D02*
X10068991Y-8556031D01*
X10068991Y-8556031D02*
X10078515Y-8546508D01*
X10078515Y-8546508D02*
X10097563Y-8536984D01*
X10288039Y-8536984D02*
X10307086Y-8536984D01*
X10307086Y-8536984D02*
X10326134Y-8546508D01*
X10326134Y-8546508D02*
X10335658Y-8556031D01*
X10335658Y-8556031D02*
X10345182Y-8575079D01*
X10345182Y-8575079D02*
X10354705Y-8613174D01*
X10354705Y-8613174D02*
X10354705Y-8660793D01*
X10354705Y-8660793D02*
X10345182Y-8698889D01*
X10345182Y-8698889D02*
X10335658Y-8717936D01*
X10335658Y-8717936D02*
X10326134Y-8727460D01*
X10326134Y-8727460D02*
X10307086Y-8736984D01*
X10307086Y-8736984D02*
X10288039Y-8736984D01*
X10288039Y-8736984D02*
X10268991Y-8727460D01*
X10268991Y-8727460D02*
X10259467Y-8717936D01*
X10259467Y-8717936D02*
X10249944Y-8698889D01*
X10249944Y-8698889D02*
X10240420Y-8660793D01*
X10240420Y-8660793D02*
X10240420Y-8613174D01*
X10240420Y-8613174D02*
X10249944Y-8575079D01*
X10249944Y-8575079D02*
X10259467Y-8556031D01*
X10259467Y-8556031D02*
X10268991Y-8546508D01*
X10268991Y-8546508D02*
X10288039Y-8536984D01*
X10440420Y-8736984D02*
X10440420Y-8603650D01*
X10440420Y-8622698D02*
X10449944Y-8613174D01*
X10449944Y-8613174D02*
X10468991Y-8603650D01*
X10468991Y-8603650D02*
X10497563Y-8603650D01*
X10497563Y-8603650D02*
X10516610Y-8613174D01*
X10516610Y-8613174D02*
X10526134Y-8632222D01*
X10526134Y-8632222D02*
X10526134Y-8736984D01*
X10526134Y-8632222D02*
X10535658Y-8613174D01*
X10535658Y-8613174D02*
X10554705Y-8603650D01*
X10554705Y-8603650D02*
X10583277Y-8603650D01*
X10583277Y-8603650D02*
X10602325Y-8613174D01*
X10602325Y-8613174D02*
X10611848Y-8632222D01*
X10611848Y-8632222D02*
X10611848Y-8736984D01*
X10707086Y-8736984D02*
X10707086Y-8603650D01*
X10707086Y-8622698D02*
X10716610Y-8613174D01*
X10716610Y-8613174D02*
X10735658Y-8603650D01*
X10735658Y-8603650D02*
X10764229Y-8603650D01*
X10764229Y-8603650D02*
X10783277Y-8613174D01*
X10783277Y-8613174D02*
X10792801Y-8632222D01*
X10792801Y-8632222D02*
X10792801Y-8736984D01*
X10792801Y-8632222D02*
X10802325Y-8613174D01*
X10802325Y-8613174D02*
X10821372Y-8603650D01*
X10821372Y-8603650D02*
X10849944Y-8603650D01*
X10849944Y-8603650D02*
X10868991Y-8613174D01*
X10868991Y-8613174D02*
X10878515Y-8632222D01*
X10878515Y-8632222D02*
X10878515Y-8736984D01*
X11268991Y-8527460D02*
X11097563Y-8784603D01*
X11526134Y-8536984D02*
X11545182Y-8536984D01*
X11545182Y-8536984D02*
X11564229Y-8546508D01*
X11564229Y-8546508D02*
X11573753Y-8556031D01*
X11573753Y-8556031D02*
X11583277Y-8575079D01*
X11583277Y-8575079D02*
X11592801Y-8613174D01*
X11592801Y-8613174D02*
X11592801Y-8660793D01*
X11592801Y-8660793D02*
X11583277Y-8698889D01*
X11583277Y-8698889D02*
X11573753Y-8717936D01*
X11573753Y-8717936D02*
X11564229Y-8727460D01*
X11564229Y-8727460D02*
X11545182Y-8736984D01*
X11545182Y-8736984D02*
X11526134Y-8736984D01*
X11526134Y-8736984D02*
X11507086Y-8727460D01*
X11507086Y-8727460D02*
X11497563Y-8717936D01*
X11497563Y-8717936D02*
X11488039Y-8698889D01*
X11488039Y-8698889D02*
X11478515Y-8660793D01*
X11478515Y-8660793D02*
X11478515Y-8613174D01*
X11478515Y-8613174D02*
X11488039Y-8575079D01*
X11488039Y-8575079D02*
X11497563Y-8556031D01*
X11497563Y-8556031D02*
X11507086Y-8546508D01*
X11507086Y-8546508D02*
X11526134Y-8536984D01*
X11678515Y-8717936D02*
X11688039Y-8727460D01*
X11688039Y-8727460D02*
X11678515Y-8736984D01*
X11678515Y-8736984D02*
X11668991Y-8727460D01*
X11668991Y-8727460D02*
X11678515Y-8717936D01*
X11678515Y-8717936D02*
X11678515Y-8736984D01*
X11878515Y-8736984D02*
X11764229Y-8736984D01*
X11821372Y-8736984D02*
X11821372Y-8536984D01*
X11821372Y-8536984D02*
X11802325Y-8565555D01*
X11802325Y-8565555D02*
X11783277Y-8584603D01*
X11783277Y-8584603D02*
X11764229Y-8594127D01*
X11954706Y-8556031D02*
X11964229Y-8546508D01*
X11964229Y-8546508D02*
X11983277Y-8536984D01*
X11983277Y-8536984D02*
X12030896Y-8536984D01*
X12030896Y-8536984D02*
X12049944Y-8546508D01*
X12049944Y-8546508D02*
X12059467Y-8556031D01*
X12059467Y-8556031D02*
X12068991Y-8575079D01*
X12068991Y-8575079D02*
X12068991Y-8594127D01*
X12068991Y-8594127D02*
X12059467Y-8622698D01*
X12059467Y-8622698D02*
X11945182Y-8736984D01*
X11945182Y-8736984D02*
X12068991Y-8736984D01*
X12240420Y-8536984D02*
X12202325Y-8536984D01*
X12202325Y-8536984D02*
X12183277Y-8546508D01*
X12183277Y-8546508D02*
X12173753Y-8556031D01*
X12173753Y-8556031D02*
X12154706Y-8584603D01*
X12154706Y-8584603D02*
X12145182Y-8622698D01*
X12145182Y-8622698D02*
X12145182Y-8698889D01*
X12145182Y-8698889D02*
X12154706Y-8717936D01*
X12154706Y-8717936D02*
X12164229Y-8727460D01*
X12164229Y-8727460D02*
X12183277Y-8736984D01*
X12183277Y-8736984D02*
X12221372Y-8736984D01*
X12221372Y-8736984D02*
X12240420Y-8727460D01*
X12240420Y-8727460D02*
X12249944Y-8717936D01*
X12249944Y-8717936D02*
X12259467Y-8698889D01*
X12259467Y-8698889D02*
X12259467Y-8651270D01*
X12259467Y-8651270D02*
X12249944Y-8632222D01*
X12249944Y-8632222D02*
X12240420Y-8622698D01*
X12240420Y-8622698D02*
X12221372Y-8613174D01*
X12221372Y-8613174D02*
X12183277Y-8613174D01*
X12183277Y-8613174D02*
X12164229Y-8622698D01*
X12164229Y-8622698D02*
X12154706Y-8632222D01*
X12154706Y-8632222D02*
X12145182Y-8651270D01*
X12383277Y-8536984D02*
X12402325Y-8536984D01*
X12402325Y-8536984D02*
X12421372Y-8546508D01*
X12421372Y-8546508D02*
X12430896Y-8556031D01*
X12430896Y-8556031D02*
X12440420Y-8575079D01*
X12440420Y-8575079D02*
X12449944Y-8613174D01*
X12449944Y-8613174D02*
X12449944Y-8660793D01*
X12449944Y-8660793D02*
X12440420Y-8698889D01*
X12440420Y-8698889D02*
X12430896Y-8717936D01*
X12430896Y-8717936D02*
X12421372Y-8727460D01*
X12421372Y-8727460D02*
X12402325Y-8736984D01*
X12402325Y-8736984D02*
X12383277Y-8736984D01*
X12383277Y-8736984D02*
X12364229Y-8727460D01*
X12364229Y-8727460D02*
X12354706Y-8717936D01*
X12354706Y-8717936D02*
X12345182Y-8698889D01*
X12345182Y-8698889D02*
X12335658Y-8660793D01*
X12335658Y-8660793D02*
X12335658Y-8613174D01*
X12335658Y-8613174D02*
X12345182Y-8575079D01*
X12345182Y-8575079D02*
X12354706Y-8556031D01*
X12354706Y-8556031D02*
X12364229Y-8546508D01*
X12364229Y-8546508D02*
X12383277Y-8536984D01*
X12526134Y-8536984D02*
X12526134Y-8575079D01*
X12602325Y-8536984D02*
X12602325Y-8575079D01*
X12897563Y-8813174D02*
X12888039Y-8803650D01*
X12888039Y-8803650D02*
X12868991Y-8775079D01*
X12868991Y-8775079D02*
X12859468Y-8756031D01*
X12859468Y-8756031D02*
X12849944Y-8727460D01*
X12849944Y-8727460D02*
X12840420Y-8679841D01*
X12840420Y-8679841D02*
X12840420Y-8641746D01*
X12840420Y-8641746D02*
X12849944Y-8594127D01*
X12849944Y-8594127D02*
X12859468Y-8565555D01*
X12859468Y-8565555D02*
X12868991Y-8546508D01*
X12868991Y-8546508D02*
X12888039Y-8517936D01*
X12888039Y-8517936D02*
X12897563Y-8508412D01*
X12954706Y-8536984D02*
X13078515Y-8536984D01*
X13078515Y-8536984D02*
X13011848Y-8613174D01*
X13011848Y-8613174D02*
X13040420Y-8613174D01*
X13040420Y-8613174D02*
X13059468Y-8622698D01*
X13059468Y-8622698D02*
X13068991Y-8632222D01*
X13068991Y-8632222D02*
X13078515Y-8651270D01*
X13078515Y-8651270D02*
X13078515Y-8698889D01*
X13078515Y-8698889D02*
X13068991Y-8717936D01*
X13068991Y-8717936D02*
X13059468Y-8727460D01*
X13059468Y-8727460D02*
X13040420Y-8736984D01*
X13040420Y-8736984D02*
X12983277Y-8736984D01*
X12983277Y-8736984D02*
X12964229Y-8727460D01*
X12964229Y-8727460D02*
X12954706Y-8717936D01*
X13316610Y-8736984D02*
X13316610Y-8536984D01*
X13402325Y-8736984D02*
X13402325Y-8632222D01*
X13402325Y-8632222D02*
X13392801Y-8613174D01*
X13392801Y-8613174D02*
X13373753Y-8603650D01*
X13373753Y-8603650D02*
X13345182Y-8603650D01*
X13345182Y-8603650D02*
X13326134Y-8613174D01*
X13326134Y-8613174D02*
X13316610Y-8622698D01*
X13526134Y-8736984D02*
X13507087Y-8727460D01*
X13507087Y-8727460D02*
X13497563Y-8717936D01*
X13497563Y-8717936D02*
X13488039Y-8698889D01*
X13488039Y-8698889D02*
X13488039Y-8641746D01*
X13488039Y-8641746D02*
X13497563Y-8622698D01*
X13497563Y-8622698D02*
X13507087Y-8613174D01*
X13507087Y-8613174D02*
X13526134Y-8603650D01*
X13526134Y-8603650D02*
X13554706Y-8603650D01*
X13554706Y-8603650D02*
X13573753Y-8613174D01*
X13573753Y-8613174D02*
X13583277Y-8622698D01*
X13583277Y-8622698D02*
X13592801Y-8641746D01*
X13592801Y-8641746D02*
X13592801Y-8698889D01*
X13592801Y-8698889D02*
X13583277Y-8717936D01*
X13583277Y-8717936D02*
X13573753Y-8727460D01*
X13573753Y-8727460D02*
X13554706Y-8736984D01*
X13554706Y-8736984D02*
X13526134Y-8736984D01*
X13707087Y-8736984D02*
X13688039Y-8727460D01*
X13688039Y-8727460D02*
X13678515Y-8708412D01*
X13678515Y-8708412D02*
X13678515Y-8536984D01*
X13859468Y-8727460D02*
X13840420Y-8736984D01*
X13840420Y-8736984D02*
X13802325Y-8736984D01*
X13802325Y-8736984D02*
X13783277Y-8727460D01*
X13783277Y-8727460D02*
X13773753Y-8708412D01*
X13773753Y-8708412D02*
X13773753Y-8632222D01*
X13773753Y-8632222D02*
X13783277Y-8613174D01*
X13783277Y-8613174D02*
X13802325Y-8603650D01*
X13802325Y-8603650D02*
X13840420Y-8603650D01*
X13840420Y-8603650D02*
X13859468Y-8613174D01*
X13859468Y-8613174D02*
X13868991Y-8632222D01*
X13868991Y-8632222D02*
X13868991Y-8651270D01*
X13868991Y-8651270D02*
X13773753Y-8670317D01*
X13945182Y-8727460D02*
X13964230Y-8736984D01*
X13964230Y-8736984D02*
X14002325Y-8736984D01*
X14002325Y-8736984D02*
X14021372Y-8727460D01*
X14021372Y-8727460D02*
X14030896Y-8708412D01*
X14030896Y-8708412D02*
X14030896Y-8698889D01*
X14030896Y-8698889D02*
X14021372Y-8679841D01*
X14021372Y-8679841D02*
X14002325Y-8670317D01*
X14002325Y-8670317D02*
X13973753Y-8670317D01*
X13973753Y-8670317D02*
X13954706Y-8660793D01*
X13954706Y-8660793D02*
X13945182Y-8641746D01*
X13945182Y-8641746D02*
X13945182Y-8632222D01*
X13945182Y-8632222D02*
X13954706Y-8613174D01*
X13954706Y-8613174D02*
X13973753Y-8603650D01*
X13973753Y-8603650D02*
X14002325Y-8603650D01*
X14002325Y-8603650D02*
X14021372Y-8613174D01*
X14097563Y-8813174D02*
X14107087Y-8803650D01*
X14107087Y-8803650D02*
X14126134Y-8775079D01*
X14126134Y-8775079D02*
X14135658Y-8756031D01*
X14135658Y-8756031D02*
X14145182Y-8727460D01*
X14145182Y-8727460D02*
X14154706Y-8679841D01*
X14154706Y-8679841D02*
X14154706Y-8641746D01*
X14154706Y-8641746D02*
X14145182Y-8594127D01*
X14145182Y-8594127D02*
X14135658Y-8565555D01*
X14135658Y-8565555D02*
X14126134Y-8546508D01*
X14126134Y-8546508D02*
X14107087Y-8517936D01*
X14107087Y-8517936D02*
X14097563Y-8508412D01*
M02*
