%TF.GenerationSoftware,KiCad,Pcbnew,8.0.4*%
%TF.CreationDate,2024-11-20T20:48:09-05:00*%
%TF.ProjectId,voltage_regulator_3V3_ap2210,766f6c74-6167-4655-9f72-6567756c6174,rev?*%
%TF.SameCoordinates,Original*%
%TF.FileFunction,Legend,Bot*%
%TF.FilePolarity,Positive*%
%FSLAX46Y46*%
G04 Gerber Fmt 4.6, Leading zero omitted, Abs format (unit mm)*
G04 Created by KiCad (PCBNEW 8.0.4) date 2024-11-20 20:48:09*
%MOMM*%
%LPD*%
G01*
G04 APERTURE LIST*
%ADD10C,0.100000*%
%ADD11R,2.600000X2.600000*%
%ADD12C,2.600000*%
%ADD13C,4.704000*%
%ADD14C,0.600000*%
G04 APERTURE END LIST*
D10*
X117268693Y-56827068D02*
X117268693Y-57065163D01*
X117268693Y-57065163D02*
X116768693Y-57065163D01*
X117268693Y-56660401D02*
X116768693Y-56660401D01*
X116768693Y-56660401D02*
X116768693Y-56541353D01*
X116768693Y-56541353D02*
X116792503Y-56469925D01*
X116792503Y-56469925D02*
X116840122Y-56422306D01*
X116840122Y-56422306D02*
X116887741Y-56398496D01*
X116887741Y-56398496D02*
X116982979Y-56374687D01*
X116982979Y-56374687D02*
X117054407Y-56374687D01*
X117054407Y-56374687D02*
X117149645Y-56398496D01*
X117149645Y-56398496D02*
X117197264Y-56422306D01*
X117197264Y-56422306D02*
X117244884Y-56469925D01*
X117244884Y-56469925D02*
X117268693Y-56541353D01*
X117268693Y-56541353D02*
X117268693Y-56660401D01*
X116768693Y-56065163D02*
X116768693Y-55969925D01*
X116768693Y-55969925D02*
X116792503Y-55922306D01*
X116792503Y-55922306D02*
X116840122Y-55874687D01*
X116840122Y-55874687D02*
X116935360Y-55850877D01*
X116935360Y-55850877D02*
X117102026Y-55850877D01*
X117102026Y-55850877D02*
X117197264Y-55874687D01*
X117197264Y-55874687D02*
X117244884Y-55922306D01*
X117244884Y-55922306D02*
X117268693Y-55969925D01*
X117268693Y-55969925D02*
X117268693Y-56065163D01*
X117268693Y-56065163D02*
X117244884Y-56112782D01*
X117244884Y-56112782D02*
X117197264Y-56160401D01*
X117197264Y-56160401D02*
X117102026Y-56184210D01*
X117102026Y-56184210D02*
X116935360Y-56184210D01*
X116935360Y-56184210D02*
X116840122Y-56160401D01*
X116840122Y-56160401D02*
X116792503Y-56112782D01*
X116792503Y-56112782D02*
X116768693Y-56065163D01*
X117078217Y-55255639D02*
X117078217Y-54874687D01*
X116768693Y-54303258D02*
X116768693Y-53993734D01*
X116768693Y-53993734D02*
X116959169Y-54160401D01*
X116959169Y-54160401D02*
X116959169Y-54088972D01*
X116959169Y-54088972D02*
X116982979Y-54041353D01*
X116982979Y-54041353D02*
X117006788Y-54017544D01*
X117006788Y-54017544D02*
X117054407Y-53993734D01*
X117054407Y-53993734D02*
X117173455Y-53993734D01*
X117173455Y-53993734D02*
X117221074Y-54017544D01*
X117221074Y-54017544D02*
X117244884Y-54041353D01*
X117244884Y-54041353D02*
X117268693Y-54088972D01*
X117268693Y-54088972D02*
X117268693Y-54231829D01*
X117268693Y-54231829D02*
X117244884Y-54279448D01*
X117244884Y-54279448D02*
X117221074Y-54303258D01*
X117221074Y-53779449D02*
X117244884Y-53755639D01*
X117244884Y-53755639D02*
X117268693Y-53779449D01*
X117268693Y-53779449D02*
X117244884Y-53803258D01*
X117244884Y-53803258D02*
X117221074Y-53779449D01*
X117221074Y-53779449D02*
X117268693Y-53779449D01*
X116768693Y-53588973D02*
X116768693Y-53279449D01*
X116768693Y-53279449D02*
X116959169Y-53446116D01*
X116959169Y-53446116D02*
X116959169Y-53374687D01*
X116959169Y-53374687D02*
X116982979Y-53327068D01*
X116982979Y-53327068D02*
X117006788Y-53303259D01*
X117006788Y-53303259D02*
X117054407Y-53279449D01*
X117054407Y-53279449D02*
X117173455Y-53279449D01*
X117173455Y-53279449D02*
X117221074Y-53303259D01*
X117221074Y-53303259D02*
X117244884Y-53327068D01*
X117244884Y-53327068D02*
X117268693Y-53374687D01*
X117268693Y-53374687D02*
X117268693Y-53517544D01*
X117268693Y-53517544D02*
X117244884Y-53565163D01*
X117244884Y-53565163D02*
X117221074Y-53588973D01*
X116768693Y-53136592D02*
X117268693Y-52969926D01*
X117268693Y-52969926D02*
X116768693Y-52803259D01*
X117244884Y-52612783D02*
X117268693Y-52612783D01*
X117268693Y-52612783D02*
X117316312Y-52636593D01*
X117316312Y-52636593D02*
X117340122Y-52660402D01*
X116768693Y-52065165D02*
X116768693Y-51755641D01*
X116768693Y-51755641D02*
X116959169Y-51922308D01*
X116959169Y-51922308D02*
X116959169Y-51850879D01*
X116959169Y-51850879D02*
X116982979Y-51803260D01*
X116982979Y-51803260D02*
X117006788Y-51779451D01*
X117006788Y-51779451D02*
X117054407Y-51755641D01*
X117054407Y-51755641D02*
X117173455Y-51755641D01*
X117173455Y-51755641D02*
X117221074Y-51779451D01*
X117221074Y-51779451D02*
X117244884Y-51803260D01*
X117244884Y-51803260D02*
X117268693Y-51850879D01*
X117268693Y-51850879D02*
X117268693Y-51993736D01*
X117268693Y-51993736D02*
X117244884Y-52041355D01*
X117244884Y-52041355D02*
X117221074Y-52065165D01*
X116768693Y-51446118D02*
X116768693Y-51398499D01*
X116768693Y-51398499D02*
X116792503Y-51350880D01*
X116792503Y-51350880D02*
X116816312Y-51327070D01*
X116816312Y-51327070D02*
X116863931Y-51303261D01*
X116863931Y-51303261D02*
X116959169Y-51279451D01*
X116959169Y-51279451D02*
X117078217Y-51279451D01*
X117078217Y-51279451D02*
X117173455Y-51303261D01*
X117173455Y-51303261D02*
X117221074Y-51327070D01*
X117221074Y-51327070D02*
X117244884Y-51350880D01*
X117244884Y-51350880D02*
X117268693Y-51398499D01*
X117268693Y-51398499D02*
X117268693Y-51446118D01*
X117268693Y-51446118D02*
X117244884Y-51493737D01*
X117244884Y-51493737D02*
X117221074Y-51517546D01*
X117221074Y-51517546D02*
X117173455Y-51541356D01*
X117173455Y-51541356D02*
X117078217Y-51565165D01*
X117078217Y-51565165D02*
X116959169Y-51565165D01*
X116959169Y-51565165D02*
X116863931Y-51541356D01*
X116863931Y-51541356D02*
X116816312Y-51517546D01*
X116816312Y-51517546D02*
X116792503Y-51493737D01*
X116792503Y-51493737D02*
X116768693Y-51446118D01*
X116768693Y-50969928D02*
X116768693Y-50922309D01*
X116768693Y-50922309D02*
X116792503Y-50874690D01*
X116792503Y-50874690D02*
X116816312Y-50850880D01*
X116816312Y-50850880D02*
X116863931Y-50827071D01*
X116863931Y-50827071D02*
X116959169Y-50803261D01*
X116959169Y-50803261D02*
X117078217Y-50803261D01*
X117078217Y-50803261D02*
X117173455Y-50827071D01*
X117173455Y-50827071D02*
X117221074Y-50850880D01*
X117221074Y-50850880D02*
X117244884Y-50874690D01*
X117244884Y-50874690D02*
X117268693Y-50922309D01*
X117268693Y-50922309D02*
X117268693Y-50969928D01*
X117268693Y-50969928D02*
X117244884Y-51017547D01*
X117244884Y-51017547D02*
X117221074Y-51041356D01*
X117221074Y-51041356D02*
X117173455Y-51065166D01*
X117173455Y-51065166D02*
X117078217Y-51088975D01*
X117078217Y-51088975D02*
X116959169Y-51088975D01*
X116959169Y-51088975D02*
X116863931Y-51065166D01*
X116863931Y-51065166D02*
X116816312Y-51041356D01*
X116816312Y-51041356D02*
X116792503Y-51017547D01*
X116792503Y-51017547D02*
X116768693Y-50969928D01*
X117268693Y-50588976D02*
X116935360Y-50588976D01*
X116982979Y-50588976D02*
X116959169Y-50565166D01*
X116959169Y-50565166D02*
X116935360Y-50517547D01*
X116935360Y-50517547D02*
X116935360Y-50446119D01*
X116935360Y-50446119D02*
X116959169Y-50398500D01*
X116959169Y-50398500D02*
X117006788Y-50374690D01*
X117006788Y-50374690D02*
X117268693Y-50374690D01*
X117006788Y-50374690D02*
X116959169Y-50350881D01*
X116959169Y-50350881D02*
X116935360Y-50303262D01*
X116935360Y-50303262D02*
X116935360Y-50231833D01*
X116935360Y-50231833D02*
X116959169Y-50184214D01*
X116959169Y-50184214D02*
X117006788Y-50160404D01*
X117006788Y-50160404D02*
X117268693Y-50160404D01*
X117125836Y-49946118D02*
X117125836Y-49708023D01*
X117268693Y-49993737D02*
X116768693Y-49827071D01*
X116768693Y-49827071D02*
X117268693Y-49660404D01*
X118073665Y-57065163D02*
X117573665Y-57065163D01*
X117573665Y-57065163D02*
X117930808Y-56898496D01*
X117930808Y-56898496D02*
X117573665Y-56731830D01*
X117573665Y-56731830D02*
X118073665Y-56731830D01*
X118073665Y-56422305D02*
X118049856Y-56469924D01*
X118049856Y-56469924D02*
X118026046Y-56493734D01*
X118026046Y-56493734D02*
X117978427Y-56517543D01*
X117978427Y-56517543D02*
X117835570Y-56517543D01*
X117835570Y-56517543D02*
X117787951Y-56493734D01*
X117787951Y-56493734D02*
X117764141Y-56469924D01*
X117764141Y-56469924D02*
X117740332Y-56422305D01*
X117740332Y-56422305D02*
X117740332Y-56350877D01*
X117740332Y-56350877D02*
X117764141Y-56303258D01*
X117764141Y-56303258D02*
X117787951Y-56279448D01*
X117787951Y-56279448D02*
X117835570Y-56255639D01*
X117835570Y-56255639D02*
X117978427Y-56255639D01*
X117978427Y-56255639D02*
X118026046Y-56279448D01*
X118026046Y-56279448D02*
X118049856Y-56303258D01*
X118049856Y-56303258D02*
X118073665Y-56350877D01*
X118073665Y-56350877D02*
X118073665Y-56422305D01*
X118073665Y-56041353D02*
X117740332Y-56041353D01*
X117573665Y-56041353D02*
X117597475Y-56065162D01*
X117597475Y-56065162D02*
X117621284Y-56041353D01*
X117621284Y-56041353D02*
X117597475Y-56017543D01*
X117597475Y-56017543D02*
X117573665Y-56041353D01*
X117573665Y-56041353D02*
X117621284Y-56041353D01*
X117740332Y-55803258D02*
X118073665Y-55803258D01*
X117787951Y-55803258D02*
X117764141Y-55779448D01*
X117764141Y-55779448D02*
X117740332Y-55731829D01*
X117740332Y-55731829D02*
X117740332Y-55660401D01*
X117740332Y-55660401D02*
X117764141Y-55612782D01*
X117764141Y-55612782D02*
X117811760Y-55588972D01*
X117811760Y-55588972D02*
X118073665Y-55588972D01*
X117930808Y-54993734D02*
X117930808Y-54755639D01*
X118073665Y-55041353D02*
X117573665Y-54874687D01*
X117573665Y-54874687D02*
X118073665Y-54708020D01*
X118073665Y-54541354D02*
X117573665Y-54541354D01*
X118073665Y-54327068D02*
X117811760Y-54327068D01*
X117811760Y-54327068D02*
X117764141Y-54350878D01*
X117764141Y-54350878D02*
X117740332Y-54398497D01*
X117740332Y-54398497D02*
X117740332Y-54469925D01*
X117740332Y-54469925D02*
X117764141Y-54517544D01*
X117764141Y-54517544D02*
X117787951Y-54541354D01*
X118073665Y-54088973D02*
X117740332Y-54088973D01*
X117787951Y-54088973D02*
X117764141Y-54065163D01*
X117764141Y-54065163D02*
X117740332Y-54017544D01*
X117740332Y-54017544D02*
X117740332Y-53946116D01*
X117740332Y-53946116D02*
X117764141Y-53898497D01*
X117764141Y-53898497D02*
X117811760Y-53874687D01*
X117811760Y-53874687D02*
X118073665Y-53874687D01*
X117811760Y-53874687D02*
X117764141Y-53850878D01*
X117764141Y-53850878D02*
X117740332Y-53803259D01*
X117740332Y-53803259D02*
X117740332Y-53731830D01*
X117740332Y-53731830D02*
X117764141Y-53684211D01*
X117764141Y-53684211D02*
X117811760Y-53660401D01*
X117811760Y-53660401D02*
X118073665Y-53660401D01*
X118049856Y-53231830D02*
X118073665Y-53279449D01*
X118073665Y-53279449D02*
X118073665Y-53374687D01*
X118073665Y-53374687D02*
X118049856Y-53422306D01*
X118049856Y-53422306D02*
X118002236Y-53446115D01*
X118002236Y-53446115D02*
X117811760Y-53446115D01*
X117811760Y-53446115D02*
X117764141Y-53422306D01*
X117764141Y-53422306D02*
X117740332Y-53374687D01*
X117740332Y-53374687D02*
X117740332Y-53279449D01*
X117740332Y-53279449D02*
X117764141Y-53231830D01*
X117764141Y-53231830D02*
X117811760Y-53208020D01*
X117811760Y-53208020D02*
X117859379Y-53208020D01*
X117859379Y-53208020D02*
X117906998Y-53446115D01*
X118073665Y-52779449D02*
X117573665Y-52779449D01*
X118049856Y-52779449D02*
X118073665Y-52827068D01*
X118073665Y-52827068D02*
X118073665Y-52922306D01*
X118073665Y-52922306D02*
X118049856Y-52969925D01*
X118049856Y-52969925D02*
X118026046Y-52993735D01*
X118026046Y-52993735D02*
X117978427Y-53017544D01*
X117978427Y-53017544D02*
X117835570Y-53017544D01*
X117835570Y-53017544D02*
X117787951Y-52993735D01*
X117787951Y-52993735D02*
X117764141Y-52969925D01*
X117764141Y-52969925D02*
X117740332Y-52922306D01*
X117740332Y-52922306D02*
X117740332Y-52827068D01*
X117740332Y-52827068D02*
X117764141Y-52779449D01*
X118878637Y-57065163D02*
X118378637Y-57065163D01*
X118378637Y-57065163D02*
X118878637Y-56779449D01*
X118878637Y-56779449D02*
X118378637Y-56779449D01*
X118878637Y-56469924D02*
X118854828Y-56517543D01*
X118854828Y-56517543D02*
X118831018Y-56541353D01*
X118831018Y-56541353D02*
X118783399Y-56565162D01*
X118783399Y-56565162D02*
X118640542Y-56565162D01*
X118640542Y-56565162D02*
X118592923Y-56541353D01*
X118592923Y-56541353D02*
X118569113Y-56517543D01*
X118569113Y-56517543D02*
X118545304Y-56469924D01*
X118545304Y-56469924D02*
X118545304Y-56398496D01*
X118545304Y-56398496D02*
X118569113Y-56350877D01*
X118569113Y-56350877D02*
X118592923Y-56327067D01*
X118592923Y-56327067D02*
X118640542Y-56303258D01*
X118640542Y-56303258D02*
X118783399Y-56303258D01*
X118783399Y-56303258D02*
X118831018Y-56327067D01*
X118831018Y-56327067D02*
X118854828Y-56350877D01*
X118854828Y-56350877D02*
X118878637Y-56398496D01*
X118878637Y-56398496D02*
X118878637Y-56469924D01*
X118545304Y-56136591D02*
X118878637Y-56017543D01*
X118878637Y-56017543D02*
X118545304Y-55898496D01*
X118854828Y-55517544D02*
X118878637Y-55565163D01*
X118878637Y-55565163D02*
X118878637Y-55660401D01*
X118878637Y-55660401D02*
X118854828Y-55708020D01*
X118854828Y-55708020D02*
X118807208Y-55731829D01*
X118807208Y-55731829D02*
X118616732Y-55731829D01*
X118616732Y-55731829D02*
X118569113Y-55708020D01*
X118569113Y-55708020D02*
X118545304Y-55660401D01*
X118545304Y-55660401D02*
X118545304Y-55565163D01*
X118545304Y-55565163D02*
X118569113Y-55517544D01*
X118569113Y-55517544D02*
X118616732Y-55493734D01*
X118616732Y-55493734D02*
X118664351Y-55493734D01*
X118664351Y-55493734D02*
X118711970Y-55731829D01*
X118878637Y-55279449D02*
X118545304Y-55279449D01*
X118592923Y-55279449D02*
X118569113Y-55255639D01*
X118569113Y-55255639D02*
X118545304Y-55208020D01*
X118545304Y-55208020D02*
X118545304Y-55136592D01*
X118545304Y-55136592D02*
X118569113Y-55088973D01*
X118569113Y-55088973D02*
X118616732Y-55065163D01*
X118616732Y-55065163D02*
X118878637Y-55065163D01*
X118616732Y-55065163D02*
X118569113Y-55041354D01*
X118569113Y-55041354D02*
X118545304Y-54993735D01*
X118545304Y-54993735D02*
X118545304Y-54922306D01*
X118545304Y-54922306D02*
X118569113Y-54874687D01*
X118569113Y-54874687D02*
X118616732Y-54850877D01*
X118616732Y-54850877D02*
X118878637Y-54850877D01*
X118878637Y-54612782D02*
X118378637Y-54612782D01*
X118569113Y-54612782D02*
X118545304Y-54565163D01*
X118545304Y-54565163D02*
X118545304Y-54469925D01*
X118545304Y-54469925D02*
X118569113Y-54422306D01*
X118569113Y-54422306D02*
X118592923Y-54398496D01*
X118592923Y-54398496D02*
X118640542Y-54374687D01*
X118640542Y-54374687D02*
X118783399Y-54374687D01*
X118783399Y-54374687D02*
X118831018Y-54398496D01*
X118831018Y-54398496D02*
X118854828Y-54422306D01*
X118854828Y-54422306D02*
X118878637Y-54469925D01*
X118878637Y-54469925D02*
X118878637Y-54565163D01*
X118878637Y-54565163D02*
X118854828Y-54612782D01*
X118854828Y-53969925D02*
X118878637Y-54017544D01*
X118878637Y-54017544D02*
X118878637Y-54112782D01*
X118878637Y-54112782D02*
X118854828Y-54160401D01*
X118854828Y-54160401D02*
X118807208Y-54184210D01*
X118807208Y-54184210D02*
X118616732Y-54184210D01*
X118616732Y-54184210D02*
X118569113Y-54160401D01*
X118569113Y-54160401D02*
X118545304Y-54112782D01*
X118545304Y-54112782D02*
X118545304Y-54017544D01*
X118545304Y-54017544D02*
X118569113Y-53969925D01*
X118569113Y-53969925D02*
X118616732Y-53946115D01*
X118616732Y-53946115D02*
X118664351Y-53946115D01*
X118664351Y-53946115D02*
X118711970Y-54184210D01*
X118878637Y-53731830D02*
X118545304Y-53731830D01*
X118640542Y-53731830D02*
X118592923Y-53708020D01*
X118592923Y-53708020D02*
X118569113Y-53684211D01*
X118569113Y-53684211D02*
X118545304Y-53636592D01*
X118545304Y-53636592D02*
X118545304Y-53588973D01*
X118426256Y-53065163D02*
X118402447Y-53041354D01*
X118402447Y-53041354D02*
X118378637Y-52993735D01*
X118378637Y-52993735D02*
X118378637Y-52874687D01*
X118378637Y-52874687D02*
X118402447Y-52827068D01*
X118402447Y-52827068D02*
X118426256Y-52803259D01*
X118426256Y-52803259D02*
X118473875Y-52779449D01*
X118473875Y-52779449D02*
X118521494Y-52779449D01*
X118521494Y-52779449D02*
X118592923Y-52803259D01*
X118592923Y-52803259D02*
X118878637Y-53088973D01*
X118878637Y-53088973D02*
X118878637Y-52779449D01*
X118378637Y-52469926D02*
X118378637Y-52422307D01*
X118378637Y-52422307D02*
X118402447Y-52374688D01*
X118402447Y-52374688D02*
X118426256Y-52350878D01*
X118426256Y-52350878D02*
X118473875Y-52327069D01*
X118473875Y-52327069D02*
X118569113Y-52303259D01*
X118569113Y-52303259D02*
X118688161Y-52303259D01*
X118688161Y-52303259D02*
X118783399Y-52327069D01*
X118783399Y-52327069D02*
X118831018Y-52350878D01*
X118831018Y-52350878D02*
X118854828Y-52374688D01*
X118854828Y-52374688D02*
X118878637Y-52422307D01*
X118878637Y-52422307D02*
X118878637Y-52469926D01*
X118878637Y-52469926D02*
X118854828Y-52517545D01*
X118854828Y-52517545D02*
X118831018Y-52541354D01*
X118831018Y-52541354D02*
X118783399Y-52565164D01*
X118783399Y-52565164D02*
X118688161Y-52588973D01*
X118688161Y-52588973D02*
X118569113Y-52588973D01*
X118569113Y-52588973D02*
X118473875Y-52565164D01*
X118473875Y-52565164D02*
X118426256Y-52541354D01*
X118426256Y-52541354D02*
X118402447Y-52517545D01*
X118402447Y-52517545D02*
X118378637Y-52469926D01*
X118854828Y-52065164D02*
X118878637Y-52065164D01*
X118878637Y-52065164D02*
X118926256Y-52088974D01*
X118926256Y-52088974D02*
X118950066Y-52112783D01*
X118426256Y-51493736D02*
X118402447Y-51469927D01*
X118402447Y-51469927D02*
X118378637Y-51422308D01*
X118378637Y-51422308D02*
X118378637Y-51303260D01*
X118378637Y-51303260D02*
X118402447Y-51255641D01*
X118402447Y-51255641D02*
X118426256Y-51231832D01*
X118426256Y-51231832D02*
X118473875Y-51208022D01*
X118473875Y-51208022D02*
X118521494Y-51208022D01*
X118521494Y-51208022D02*
X118592923Y-51231832D01*
X118592923Y-51231832D02*
X118878637Y-51517546D01*
X118878637Y-51517546D02*
X118878637Y-51208022D01*
X118378637Y-50898499D02*
X118378637Y-50850880D01*
X118378637Y-50850880D02*
X118402447Y-50803261D01*
X118402447Y-50803261D02*
X118426256Y-50779451D01*
X118426256Y-50779451D02*
X118473875Y-50755642D01*
X118473875Y-50755642D02*
X118569113Y-50731832D01*
X118569113Y-50731832D02*
X118688161Y-50731832D01*
X118688161Y-50731832D02*
X118783399Y-50755642D01*
X118783399Y-50755642D02*
X118831018Y-50779451D01*
X118831018Y-50779451D02*
X118854828Y-50803261D01*
X118854828Y-50803261D02*
X118878637Y-50850880D01*
X118878637Y-50850880D02*
X118878637Y-50898499D01*
X118878637Y-50898499D02*
X118854828Y-50946118D01*
X118854828Y-50946118D02*
X118831018Y-50969927D01*
X118831018Y-50969927D02*
X118783399Y-50993737D01*
X118783399Y-50993737D02*
X118688161Y-51017546D01*
X118688161Y-51017546D02*
X118569113Y-51017546D01*
X118569113Y-51017546D02*
X118473875Y-50993737D01*
X118473875Y-50993737D02*
X118426256Y-50969927D01*
X118426256Y-50969927D02*
X118402447Y-50946118D01*
X118402447Y-50946118D02*
X118378637Y-50898499D01*
X118426256Y-50541356D02*
X118402447Y-50517547D01*
X118402447Y-50517547D02*
X118378637Y-50469928D01*
X118378637Y-50469928D02*
X118378637Y-50350880D01*
X118378637Y-50350880D02*
X118402447Y-50303261D01*
X118402447Y-50303261D02*
X118426256Y-50279452D01*
X118426256Y-50279452D02*
X118473875Y-50255642D01*
X118473875Y-50255642D02*
X118521494Y-50255642D01*
X118521494Y-50255642D02*
X118592923Y-50279452D01*
X118592923Y-50279452D02*
X118878637Y-50565166D01*
X118878637Y-50565166D02*
X118878637Y-50255642D01*
X118545304Y-49827071D02*
X118878637Y-49827071D01*
X118354828Y-49946119D02*
X118711970Y-50065166D01*
X118711970Y-50065166D02*
X118711970Y-49755643D01*
%LPC*%
D11*
%TO.C,J3*%
X104000000Y-46250000D03*
D12*
X99000000Y-46250000D03*
%TD*%
D13*
%TO.C,J2*%
X112250000Y-60000000D03*
X112250000Y-66000000D03*
X116950000Y-63000000D03*
%TD*%
D11*
%TO.C,J1*%
X97250000Y-68250000D03*
D12*
X102250000Y-68250000D03*
%TD*%
D14*
X98250000Y-54000000D03*
X99000000Y-59750000D03*
X104750000Y-54000000D03*
%LPD*%
M02*
