G04 #@! TF.GenerationSoftware,KiCad,Pcbnew,8.0.4*
G04 #@! TF.CreationDate,2024-11-21T22:47:59-05:00*
G04 #@! TF.ProjectId,MCU_ATMEGA328p_minimum,4d43555f-4154-44d4-9547-41333238705f,rev?*
G04 #@! TF.SameCoordinates,Original*
G04 #@! TF.FileFunction,Legend,Bot*
G04 #@! TF.FilePolarity,Positive*
%FSLAX46Y46*%
G04 Gerber Fmt 4.6, Leading zero omitted, Abs format (unit mm)*
G04 Created by KiCad (PCBNEW 8.0.4) date 2024-11-21 22:47:59*
%MOMM*%
%LPD*%
G01*
G04 APERTURE LIST*
%ADD10C,0.125000*%
%ADD11R,1.700000X1.700000*%
%ADD12O,1.700000X1.700000*%
%ADD13C,4.704000*%
%ADD14C,1.600000*%
%ADD15R,2.600000X2.600000*%
%ADD16C,2.600000*%
%ADD17R,1.600000X1.600000*%
%ADD18O,1.600000X1.600000*%
%ADD19C,2.000000*%
%ADD20R,1.219200X1.219200*%
%ADD21C,1.219200*%
%ADD22C,0.600000*%
G04 APERTURE END LIST*
D10*
X121408886Y-37734616D02*
X121408886Y-38115569D01*
X121180314Y-37658426D02*
X121980314Y-37925093D01*
X121980314Y-37925093D02*
X121180314Y-38191759D01*
X121980314Y-38344140D02*
X121980314Y-38801283D01*
X121180314Y-38572711D02*
X121980314Y-38572711D01*
X121180314Y-39067950D02*
X121980314Y-39067950D01*
X121980314Y-39067950D02*
X121408886Y-39334616D01*
X121408886Y-39334616D02*
X121980314Y-39601283D01*
X121980314Y-39601283D02*
X121180314Y-39601283D01*
X121599362Y-39982236D02*
X121599362Y-40248902D01*
X121180314Y-40363188D02*
X121180314Y-39982236D01*
X121180314Y-39982236D02*
X121980314Y-39982236D01*
X121980314Y-39982236D02*
X121980314Y-40363188D01*
X121942219Y-41125093D02*
X121980314Y-41048903D01*
X121980314Y-41048903D02*
X121980314Y-40934617D01*
X121980314Y-40934617D02*
X121942219Y-40820331D01*
X121942219Y-40820331D02*
X121866029Y-40744141D01*
X121866029Y-40744141D02*
X121789838Y-40706046D01*
X121789838Y-40706046D02*
X121637457Y-40667950D01*
X121637457Y-40667950D02*
X121523171Y-40667950D01*
X121523171Y-40667950D02*
X121370790Y-40706046D01*
X121370790Y-40706046D02*
X121294600Y-40744141D01*
X121294600Y-40744141D02*
X121218410Y-40820331D01*
X121218410Y-40820331D02*
X121180314Y-40934617D01*
X121180314Y-40934617D02*
X121180314Y-41010808D01*
X121180314Y-41010808D02*
X121218410Y-41125093D01*
X121218410Y-41125093D02*
X121256505Y-41163189D01*
X121256505Y-41163189D02*
X121523171Y-41163189D01*
X121523171Y-41163189D02*
X121523171Y-41010808D01*
X121408886Y-41467950D02*
X121408886Y-41848903D01*
X121180314Y-41391760D02*
X121980314Y-41658427D01*
X121980314Y-41658427D02*
X121180314Y-41925093D01*
X121980314Y-42115569D02*
X121980314Y-42610807D01*
X121980314Y-42610807D02*
X121675552Y-42344141D01*
X121675552Y-42344141D02*
X121675552Y-42458426D01*
X121675552Y-42458426D02*
X121637457Y-42534617D01*
X121637457Y-42534617D02*
X121599362Y-42572712D01*
X121599362Y-42572712D02*
X121523171Y-42610807D01*
X121523171Y-42610807D02*
X121332695Y-42610807D01*
X121332695Y-42610807D02*
X121256505Y-42572712D01*
X121256505Y-42572712D02*
X121218410Y-42534617D01*
X121218410Y-42534617D02*
X121180314Y-42458426D01*
X121180314Y-42458426D02*
X121180314Y-42229855D01*
X121180314Y-42229855D02*
X121218410Y-42153664D01*
X121218410Y-42153664D02*
X121256505Y-42115569D01*
X121904124Y-42915569D02*
X121942219Y-42953665D01*
X121942219Y-42953665D02*
X121980314Y-43029855D01*
X121980314Y-43029855D02*
X121980314Y-43220331D01*
X121980314Y-43220331D02*
X121942219Y-43296522D01*
X121942219Y-43296522D02*
X121904124Y-43334617D01*
X121904124Y-43334617D02*
X121827933Y-43372712D01*
X121827933Y-43372712D02*
X121751743Y-43372712D01*
X121751743Y-43372712D02*
X121637457Y-43334617D01*
X121637457Y-43334617D02*
X121180314Y-42877474D01*
X121180314Y-42877474D02*
X121180314Y-43372712D01*
X121637457Y-43829855D02*
X121675552Y-43753665D01*
X121675552Y-43753665D02*
X121713648Y-43715570D01*
X121713648Y-43715570D02*
X121789838Y-43677474D01*
X121789838Y-43677474D02*
X121827933Y-43677474D01*
X121827933Y-43677474D02*
X121904124Y-43715570D01*
X121904124Y-43715570D02*
X121942219Y-43753665D01*
X121942219Y-43753665D02*
X121980314Y-43829855D01*
X121980314Y-43829855D02*
X121980314Y-43982236D01*
X121980314Y-43982236D02*
X121942219Y-44058427D01*
X121942219Y-44058427D02*
X121904124Y-44096522D01*
X121904124Y-44096522D02*
X121827933Y-44134617D01*
X121827933Y-44134617D02*
X121789838Y-44134617D01*
X121789838Y-44134617D02*
X121713648Y-44096522D01*
X121713648Y-44096522D02*
X121675552Y-44058427D01*
X121675552Y-44058427D02*
X121637457Y-43982236D01*
X121637457Y-43982236D02*
X121637457Y-43829855D01*
X121637457Y-43829855D02*
X121599362Y-43753665D01*
X121599362Y-43753665D02*
X121561267Y-43715570D01*
X121561267Y-43715570D02*
X121485076Y-43677474D01*
X121485076Y-43677474D02*
X121332695Y-43677474D01*
X121332695Y-43677474D02*
X121256505Y-43715570D01*
X121256505Y-43715570D02*
X121218410Y-43753665D01*
X121218410Y-43753665D02*
X121180314Y-43829855D01*
X121180314Y-43829855D02*
X121180314Y-43982236D01*
X121180314Y-43982236D02*
X121218410Y-44058427D01*
X121218410Y-44058427D02*
X121256505Y-44096522D01*
X121256505Y-44096522D02*
X121332695Y-44134617D01*
X121332695Y-44134617D02*
X121485076Y-44134617D01*
X121485076Y-44134617D02*
X121561267Y-44096522D01*
X121561267Y-44096522D02*
X121599362Y-44058427D01*
X121599362Y-44058427D02*
X121637457Y-43982236D01*
X121180314Y-44477475D02*
X121980314Y-44477475D01*
X121980314Y-44477475D02*
X121980314Y-44782237D01*
X121980314Y-44782237D02*
X121942219Y-44858427D01*
X121942219Y-44858427D02*
X121904124Y-44896522D01*
X121904124Y-44896522D02*
X121827933Y-44934618D01*
X121827933Y-44934618D02*
X121713648Y-44934618D01*
X121713648Y-44934618D02*
X121637457Y-44896522D01*
X121637457Y-44896522D02*
X121599362Y-44858427D01*
X121599362Y-44858427D02*
X121561267Y-44782237D01*
X121561267Y-44782237D02*
X121561267Y-44477475D01*
X121599362Y-46153665D02*
X121561267Y-46267951D01*
X121561267Y-46267951D02*
X121523171Y-46306046D01*
X121523171Y-46306046D02*
X121446981Y-46344142D01*
X121446981Y-46344142D02*
X121332695Y-46344142D01*
X121332695Y-46344142D02*
X121256505Y-46306046D01*
X121256505Y-46306046D02*
X121218410Y-46267951D01*
X121218410Y-46267951D02*
X121180314Y-46191761D01*
X121180314Y-46191761D02*
X121180314Y-45886999D01*
X121180314Y-45886999D02*
X121980314Y-45886999D01*
X121980314Y-45886999D02*
X121980314Y-46153665D01*
X121980314Y-46153665D02*
X121942219Y-46229856D01*
X121942219Y-46229856D02*
X121904124Y-46267951D01*
X121904124Y-46267951D02*
X121827933Y-46306046D01*
X121827933Y-46306046D02*
X121751743Y-46306046D01*
X121751743Y-46306046D02*
X121675552Y-46267951D01*
X121675552Y-46267951D02*
X121637457Y-46229856D01*
X121637457Y-46229856D02*
X121599362Y-46153665D01*
X121599362Y-46153665D02*
X121599362Y-45886999D01*
X121180314Y-46686999D02*
X121713648Y-46686999D01*
X121561267Y-46686999D02*
X121637457Y-46725094D01*
X121637457Y-46725094D02*
X121675552Y-46763189D01*
X121675552Y-46763189D02*
X121713648Y-46839380D01*
X121713648Y-46839380D02*
X121713648Y-46915570D01*
X121218410Y-47486999D02*
X121180314Y-47410808D01*
X121180314Y-47410808D02*
X121180314Y-47258427D01*
X121180314Y-47258427D02*
X121218410Y-47182237D01*
X121218410Y-47182237D02*
X121294600Y-47144141D01*
X121294600Y-47144141D02*
X121599362Y-47144141D01*
X121599362Y-47144141D02*
X121675552Y-47182237D01*
X121675552Y-47182237D02*
X121713648Y-47258427D01*
X121713648Y-47258427D02*
X121713648Y-47410808D01*
X121713648Y-47410808D02*
X121675552Y-47486999D01*
X121675552Y-47486999D02*
X121599362Y-47525094D01*
X121599362Y-47525094D02*
X121523171Y-47525094D01*
X121523171Y-47525094D02*
X121446981Y-47144141D01*
X121180314Y-48210808D02*
X121599362Y-48210808D01*
X121599362Y-48210808D02*
X121675552Y-48172713D01*
X121675552Y-48172713D02*
X121713648Y-48096522D01*
X121713648Y-48096522D02*
X121713648Y-47944141D01*
X121713648Y-47944141D02*
X121675552Y-47867951D01*
X121218410Y-48210808D02*
X121180314Y-48134617D01*
X121180314Y-48134617D02*
X121180314Y-47944141D01*
X121180314Y-47944141D02*
X121218410Y-47867951D01*
X121218410Y-47867951D02*
X121294600Y-47829855D01*
X121294600Y-47829855D02*
X121370790Y-47829855D01*
X121370790Y-47829855D02*
X121446981Y-47867951D01*
X121446981Y-47867951D02*
X121485076Y-47944141D01*
X121485076Y-47944141D02*
X121485076Y-48134617D01*
X121485076Y-48134617D02*
X121523171Y-48210808D01*
X121180314Y-48591761D02*
X121980314Y-48591761D01*
X121485076Y-48667951D02*
X121180314Y-48896523D01*
X121713648Y-48896523D02*
X121408886Y-48591761D01*
X121180314Y-49353665D02*
X121218410Y-49277475D01*
X121218410Y-49277475D02*
X121256505Y-49239380D01*
X121256505Y-49239380D02*
X121332695Y-49201284D01*
X121332695Y-49201284D02*
X121561267Y-49201284D01*
X121561267Y-49201284D02*
X121637457Y-49239380D01*
X121637457Y-49239380D02*
X121675552Y-49277475D01*
X121675552Y-49277475D02*
X121713648Y-49353665D01*
X121713648Y-49353665D02*
X121713648Y-49467951D01*
X121713648Y-49467951D02*
X121675552Y-49544142D01*
X121675552Y-49544142D02*
X121637457Y-49582237D01*
X121637457Y-49582237D02*
X121561267Y-49620332D01*
X121561267Y-49620332D02*
X121332695Y-49620332D01*
X121332695Y-49620332D02*
X121256505Y-49582237D01*
X121256505Y-49582237D02*
X121218410Y-49544142D01*
X121218410Y-49544142D02*
X121180314Y-49467951D01*
X121180314Y-49467951D02*
X121180314Y-49353665D01*
X121713648Y-50306047D02*
X121180314Y-50306047D01*
X121713648Y-49963190D02*
X121294600Y-49963190D01*
X121294600Y-49963190D02*
X121218410Y-50001285D01*
X121218410Y-50001285D02*
X121180314Y-50077475D01*
X121180314Y-50077475D02*
X121180314Y-50191761D01*
X121180314Y-50191761D02*
X121218410Y-50267952D01*
X121218410Y-50267952D02*
X121256505Y-50306047D01*
X121713648Y-50572714D02*
X121713648Y-50877476D01*
X121980314Y-50687000D02*
X121294600Y-50687000D01*
X121294600Y-50687000D02*
X121218410Y-50725095D01*
X121218410Y-50725095D02*
X121180314Y-50801285D01*
X121180314Y-50801285D02*
X121180314Y-50877476D01*
X119892359Y-37772712D02*
X120692359Y-37772712D01*
X120692359Y-37772712D02*
X120120931Y-38039378D01*
X120120931Y-38039378D02*
X120692359Y-38306045D01*
X120692359Y-38306045D02*
X119892359Y-38306045D01*
X119892359Y-38801283D02*
X119930455Y-38725093D01*
X119930455Y-38725093D02*
X119968550Y-38686998D01*
X119968550Y-38686998D02*
X120044740Y-38648902D01*
X120044740Y-38648902D02*
X120273312Y-38648902D01*
X120273312Y-38648902D02*
X120349502Y-38686998D01*
X120349502Y-38686998D02*
X120387597Y-38725093D01*
X120387597Y-38725093D02*
X120425693Y-38801283D01*
X120425693Y-38801283D02*
X120425693Y-38915569D01*
X120425693Y-38915569D02*
X120387597Y-38991760D01*
X120387597Y-38991760D02*
X120349502Y-39029855D01*
X120349502Y-39029855D02*
X120273312Y-39067950D01*
X120273312Y-39067950D02*
X120044740Y-39067950D01*
X120044740Y-39067950D02*
X119968550Y-39029855D01*
X119968550Y-39029855D02*
X119930455Y-38991760D01*
X119930455Y-38991760D02*
X119892359Y-38915569D01*
X119892359Y-38915569D02*
X119892359Y-38801283D01*
X119892359Y-39410808D02*
X120425693Y-39410808D01*
X120692359Y-39410808D02*
X120654264Y-39372712D01*
X120654264Y-39372712D02*
X120616169Y-39410808D01*
X120616169Y-39410808D02*
X120654264Y-39448903D01*
X120654264Y-39448903D02*
X120692359Y-39410808D01*
X120692359Y-39410808D02*
X120616169Y-39410808D01*
X120425693Y-39791760D02*
X119892359Y-39791760D01*
X120349502Y-39791760D02*
X120387597Y-39829855D01*
X120387597Y-39829855D02*
X120425693Y-39906045D01*
X120425693Y-39906045D02*
X120425693Y-40020331D01*
X120425693Y-40020331D02*
X120387597Y-40096522D01*
X120387597Y-40096522D02*
X120311407Y-40134617D01*
X120311407Y-40134617D02*
X119892359Y-40134617D01*
X120120931Y-41086998D02*
X120120931Y-41467951D01*
X119892359Y-41010808D02*
X120692359Y-41277475D01*
X120692359Y-41277475D02*
X119892359Y-41544141D01*
X119892359Y-41810808D02*
X120692359Y-41810808D01*
X119892359Y-42153665D02*
X120311407Y-42153665D01*
X120311407Y-42153665D02*
X120387597Y-42115570D01*
X120387597Y-42115570D02*
X120425693Y-42039379D01*
X120425693Y-42039379D02*
X120425693Y-41925093D01*
X120425693Y-41925093D02*
X120387597Y-41848903D01*
X120387597Y-41848903D02*
X120349502Y-41810808D01*
X119892359Y-42534618D02*
X120425693Y-42534618D01*
X120349502Y-42534618D02*
X120387597Y-42572713D01*
X120387597Y-42572713D02*
X120425693Y-42648903D01*
X120425693Y-42648903D02*
X120425693Y-42763189D01*
X120425693Y-42763189D02*
X120387597Y-42839380D01*
X120387597Y-42839380D02*
X120311407Y-42877475D01*
X120311407Y-42877475D02*
X119892359Y-42877475D01*
X120311407Y-42877475D02*
X120387597Y-42915570D01*
X120387597Y-42915570D02*
X120425693Y-42991761D01*
X120425693Y-42991761D02*
X120425693Y-43106046D01*
X120425693Y-43106046D02*
X120387597Y-43182237D01*
X120387597Y-43182237D02*
X120311407Y-43220332D01*
X120311407Y-43220332D02*
X119892359Y-43220332D01*
X119930455Y-43906047D02*
X119892359Y-43829856D01*
X119892359Y-43829856D02*
X119892359Y-43677475D01*
X119892359Y-43677475D02*
X119930455Y-43601285D01*
X119930455Y-43601285D02*
X120006645Y-43563189D01*
X120006645Y-43563189D02*
X120311407Y-43563189D01*
X120311407Y-43563189D02*
X120387597Y-43601285D01*
X120387597Y-43601285D02*
X120425693Y-43677475D01*
X120425693Y-43677475D02*
X120425693Y-43829856D01*
X120425693Y-43829856D02*
X120387597Y-43906047D01*
X120387597Y-43906047D02*
X120311407Y-43944142D01*
X120311407Y-43944142D02*
X120235216Y-43944142D01*
X120235216Y-43944142D02*
X120159026Y-43563189D01*
X119892359Y-44629856D02*
X120692359Y-44629856D01*
X119930455Y-44629856D02*
X119892359Y-44553665D01*
X119892359Y-44553665D02*
X119892359Y-44401284D01*
X119892359Y-44401284D02*
X119930455Y-44325094D01*
X119930455Y-44325094D02*
X119968550Y-44286999D01*
X119968550Y-44286999D02*
X120044740Y-44248903D01*
X120044740Y-44248903D02*
X120273312Y-44248903D01*
X120273312Y-44248903D02*
X120349502Y-44286999D01*
X120349502Y-44286999D02*
X120387597Y-44325094D01*
X120387597Y-44325094D02*
X120425693Y-44401284D01*
X120425693Y-44401284D02*
X120425693Y-44553665D01*
X120425693Y-44553665D02*
X120387597Y-44629856D01*
X119404404Y-37925093D02*
X119404404Y-38077474D01*
X119404404Y-38077474D02*
X119366309Y-38153664D01*
X119366309Y-38153664D02*
X119290119Y-38229855D01*
X119290119Y-38229855D02*
X119137738Y-38267950D01*
X119137738Y-38267950D02*
X118871071Y-38267950D01*
X118871071Y-38267950D02*
X118718690Y-38229855D01*
X118718690Y-38229855D02*
X118642500Y-38153664D01*
X118642500Y-38153664D02*
X118604404Y-38077474D01*
X118604404Y-38077474D02*
X118604404Y-37925093D01*
X118604404Y-37925093D02*
X118642500Y-37848902D01*
X118642500Y-37848902D02*
X118718690Y-37772712D01*
X118718690Y-37772712D02*
X118871071Y-37734616D01*
X118871071Y-37734616D02*
X119137738Y-37734616D01*
X119137738Y-37734616D02*
X119290119Y-37772712D01*
X119290119Y-37772712D02*
X119366309Y-37848902D01*
X119366309Y-37848902D02*
X119404404Y-37925093D01*
X118642500Y-38953664D02*
X118604404Y-38877473D01*
X118604404Y-38877473D02*
X118604404Y-38725092D01*
X118604404Y-38725092D02*
X118642500Y-38648902D01*
X118642500Y-38648902D02*
X118680595Y-38610807D01*
X118680595Y-38610807D02*
X118756785Y-38572711D01*
X118756785Y-38572711D02*
X118985357Y-38572711D01*
X118985357Y-38572711D02*
X119061547Y-38610807D01*
X119061547Y-38610807D02*
X119099642Y-38648902D01*
X119099642Y-38648902D02*
X119137738Y-38725092D01*
X119137738Y-38725092D02*
X119137738Y-38877473D01*
X119137738Y-38877473D02*
X119099642Y-38953664D01*
X119137738Y-39182235D02*
X119137738Y-39486997D01*
X119404404Y-39296521D02*
X118718690Y-39296521D01*
X118718690Y-39296521D02*
X118642500Y-39334616D01*
X118642500Y-39334616D02*
X118604404Y-39410806D01*
X118604404Y-39410806D02*
X118604404Y-39486997D01*
X118604404Y-39867949D02*
X118642500Y-39791759D01*
X118642500Y-39791759D02*
X118680595Y-39753664D01*
X118680595Y-39753664D02*
X118756785Y-39715568D01*
X118756785Y-39715568D02*
X118985357Y-39715568D01*
X118985357Y-39715568D02*
X119061547Y-39753664D01*
X119061547Y-39753664D02*
X119099642Y-39791759D01*
X119099642Y-39791759D02*
X119137738Y-39867949D01*
X119137738Y-39867949D02*
X119137738Y-39982235D01*
X119137738Y-39982235D02*
X119099642Y-40058426D01*
X119099642Y-40058426D02*
X119061547Y-40096521D01*
X119061547Y-40096521D02*
X118985357Y-40134616D01*
X118985357Y-40134616D02*
X118756785Y-40134616D01*
X118756785Y-40134616D02*
X118680595Y-40096521D01*
X118680595Y-40096521D02*
X118642500Y-40058426D01*
X118642500Y-40058426D02*
X118604404Y-39982235D01*
X118604404Y-39982235D02*
X118604404Y-39867949D01*
X118604404Y-40477474D02*
X119404404Y-40477474D01*
X119099642Y-40477474D02*
X119137738Y-40553664D01*
X119137738Y-40553664D02*
X119137738Y-40706045D01*
X119137738Y-40706045D02*
X119099642Y-40782236D01*
X119099642Y-40782236D02*
X119061547Y-40820331D01*
X119061547Y-40820331D02*
X118985357Y-40858426D01*
X118985357Y-40858426D02*
X118756785Y-40858426D01*
X118756785Y-40858426D02*
X118680595Y-40820331D01*
X118680595Y-40820331D02*
X118642500Y-40782236D01*
X118642500Y-40782236D02*
X118604404Y-40706045D01*
X118604404Y-40706045D02*
X118604404Y-40553664D01*
X118604404Y-40553664D02*
X118642500Y-40477474D01*
X118642500Y-41506046D02*
X118604404Y-41429855D01*
X118604404Y-41429855D02*
X118604404Y-41277474D01*
X118604404Y-41277474D02*
X118642500Y-41201284D01*
X118642500Y-41201284D02*
X118718690Y-41163188D01*
X118718690Y-41163188D02*
X119023452Y-41163188D01*
X119023452Y-41163188D02*
X119099642Y-41201284D01*
X119099642Y-41201284D02*
X119137738Y-41277474D01*
X119137738Y-41277474D02*
X119137738Y-41429855D01*
X119137738Y-41429855D02*
X119099642Y-41506046D01*
X119099642Y-41506046D02*
X119023452Y-41544141D01*
X119023452Y-41544141D02*
X118947261Y-41544141D01*
X118947261Y-41544141D02*
X118871071Y-41163188D01*
X118604404Y-41886998D02*
X119137738Y-41886998D01*
X118985357Y-41886998D02*
X119061547Y-41925093D01*
X119061547Y-41925093D02*
X119099642Y-41963188D01*
X119099642Y-41963188D02*
X119137738Y-42039379D01*
X119137738Y-42039379D02*
X119137738Y-42115569D01*
X119328214Y-42953664D02*
X119366309Y-42991760D01*
X119366309Y-42991760D02*
X119404404Y-43067950D01*
X119404404Y-43067950D02*
X119404404Y-43258426D01*
X119404404Y-43258426D02*
X119366309Y-43334617D01*
X119366309Y-43334617D02*
X119328214Y-43372712D01*
X119328214Y-43372712D02*
X119252023Y-43410807D01*
X119252023Y-43410807D02*
X119175833Y-43410807D01*
X119175833Y-43410807D02*
X119061547Y-43372712D01*
X119061547Y-43372712D02*
X118604404Y-42915569D01*
X118604404Y-42915569D02*
X118604404Y-43410807D01*
X119404404Y-43677474D02*
X119404404Y-44210808D01*
X119404404Y-44210808D02*
X118604404Y-43867950D01*
X118642500Y-44553665D02*
X118604404Y-44553665D01*
X118604404Y-44553665D02*
X118528214Y-44515570D01*
X118528214Y-44515570D02*
X118490119Y-44477474D01*
X119328214Y-45467950D02*
X119366309Y-45506046D01*
X119366309Y-45506046D02*
X119404404Y-45582236D01*
X119404404Y-45582236D02*
X119404404Y-45772712D01*
X119404404Y-45772712D02*
X119366309Y-45848903D01*
X119366309Y-45848903D02*
X119328214Y-45886998D01*
X119328214Y-45886998D02*
X119252023Y-45925093D01*
X119252023Y-45925093D02*
X119175833Y-45925093D01*
X119175833Y-45925093D02*
X119061547Y-45886998D01*
X119061547Y-45886998D02*
X118604404Y-45429855D01*
X118604404Y-45429855D02*
X118604404Y-45925093D01*
X119404404Y-46420332D02*
X119404404Y-46496522D01*
X119404404Y-46496522D02*
X119366309Y-46572713D01*
X119366309Y-46572713D02*
X119328214Y-46610808D01*
X119328214Y-46610808D02*
X119252023Y-46648903D01*
X119252023Y-46648903D02*
X119099642Y-46686998D01*
X119099642Y-46686998D02*
X118909166Y-46686998D01*
X118909166Y-46686998D02*
X118756785Y-46648903D01*
X118756785Y-46648903D02*
X118680595Y-46610808D01*
X118680595Y-46610808D02*
X118642500Y-46572713D01*
X118642500Y-46572713D02*
X118604404Y-46496522D01*
X118604404Y-46496522D02*
X118604404Y-46420332D01*
X118604404Y-46420332D02*
X118642500Y-46344141D01*
X118642500Y-46344141D02*
X118680595Y-46306046D01*
X118680595Y-46306046D02*
X118756785Y-46267951D01*
X118756785Y-46267951D02*
X118909166Y-46229855D01*
X118909166Y-46229855D02*
X119099642Y-46229855D01*
X119099642Y-46229855D02*
X119252023Y-46267951D01*
X119252023Y-46267951D02*
X119328214Y-46306046D01*
X119328214Y-46306046D02*
X119366309Y-46344141D01*
X119366309Y-46344141D02*
X119404404Y-46420332D01*
X119328214Y-46991760D02*
X119366309Y-47029856D01*
X119366309Y-47029856D02*
X119404404Y-47106046D01*
X119404404Y-47106046D02*
X119404404Y-47296522D01*
X119404404Y-47296522D02*
X119366309Y-47372713D01*
X119366309Y-47372713D02*
X119328214Y-47410808D01*
X119328214Y-47410808D02*
X119252023Y-47448903D01*
X119252023Y-47448903D02*
X119175833Y-47448903D01*
X119175833Y-47448903D02*
X119061547Y-47410808D01*
X119061547Y-47410808D02*
X118604404Y-46953665D01*
X118604404Y-46953665D02*
X118604404Y-47448903D01*
X119137738Y-48134618D02*
X118604404Y-48134618D01*
X119442500Y-47944142D02*
X118871071Y-47753665D01*
X118871071Y-47753665D02*
X118871071Y-48248904D01*
%LPC*%
D11*
X120825000Y-53000000D03*
D12*
X118285000Y-53000000D03*
X115745000Y-53000000D03*
X113205000Y-53000000D03*
X110665000Y-53000000D03*
D13*
X84500000Y-50950000D03*
X84500000Y-44950000D03*
X79800000Y-47950000D03*
D11*
X120825000Y-68250000D03*
D12*
X118285000Y-68250000D03*
X115745000Y-68250000D03*
X113205000Y-68250000D03*
X110665000Y-68250000D03*
D14*
X90750000Y-96500000D03*
X90750000Y-99000000D03*
D11*
X119250000Y-72460000D03*
D12*
X119250000Y-75000000D03*
X119250000Y-77540000D03*
X119250000Y-80080000D03*
X119250000Y-82620000D03*
X119250000Y-85160000D03*
D15*
X106500000Y-42500000D03*
D16*
X101500000Y-42500000D03*
D17*
X98880000Y-72480000D03*
D18*
X98880000Y-75020000D03*
X98880000Y-77560000D03*
X98880000Y-80100000D03*
X98880000Y-82640000D03*
X98880000Y-85180000D03*
X98880000Y-87720000D03*
X98880000Y-90260000D03*
X98880000Y-92800000D03*
X98880000Y-95340000D03*
X98880000Y-97880000D03*
X98880000Y-100420000D03*
X98880000Y-102960000D03*
X98880000Y-105500000D03*
X106500000Y-105500000D03*
X106500000Y-102960000D03*
X106500000Y-100420000D03*
X106500000Y-97880000D03*
X106500000Y-95340000D03*
X106500000Y-92800000D03*
X106500000Y-90260000D03*
X106500000Y-87720000D03*
X106500000Y-85180000D03*
X106500000Y-82640000D03*
X106500000Y-80100000D03*
X106500000Y-77560000D03*
X106500000Y-75020000D03*
X106500000Y-72480000D03*
D11*
X81250000Y-109830000D03*
D12*
X81250000Y-107290000D03*
X81250000Y-104750000D03*
X81250000Y-102210000D03*
D14*
X94750000Y-85750000D03*
X94750000Y-90750000D03*
X90750000Y-91750000D03*
X90750000Y-89250000D03*
D19*
X86000000Y-64000000D03*
X92500000Y-64000000D03*
X86000000Y-68500000D03*
X92500000Y-68500000D03*
D14*
X110500000Y-92750000D03*
X110500000Y-87750000D03*
X96080000Y-55500000D03*
D18*
X85920000Y-55500000D03*
D11*
X119250000Y-95340000D03*
D12*
X119250000Y-97880000D03*
X119250000Y-100420000D03*
X119250000Y-102960000D03*
X119250000Y-105500000D03*
D20*
X86250000Y-91696600D03*
D21*
X86250000Y-96573400D03*
D11*
X81250000Y-84080000D03*
D12*
X81250000Y-81540000D03*
X81250000Y-79000000D03*
X81250000Y-76460000D03*
X81250000Y-73920000D03*
D14*
X95250000Y-61000000D03*
X95250000Y-58500000D03*
D22*
X97000000Y-51000000D03*
X94500000Y-41000000D03*
X96500000Y-44000000D03*
X91750000Y-50000000D03*
X92500000Y-42750000D03*
X96500000Y-42750000D03*
X98750000Y-50000000D03*
%LPD*%
M02*
