G04 #@! TF.GenerationSoftware,KiCad,Pcbnew,8.0.4*
G04 #@! TF.CreationDate,2024-11-21T22:47:59-05:00*
G04 #@! TF.ProjectId,MCU_ATMEGA328p_minimum,4d43555f-4154-44d4-9547-41333238705f,rev?*
G04 #@! TF.SameCoordinates,Original*
G04 #@! TF.FileFunction,Copper,L1,Top*
G04 #@! TF.FilePolarity,Positive*
%FSLAX46Y46*%
G04 Gerber Fmt 4.6, Leading zero omitted, Abs format (unit mm)*
G04 Created by KiCad (PCBNEW 8.0.4) date 2024-11-21 22:47:59*
%MOMM*%
%LPD*%
G01*
G04 APERTURE LIST*
G04 Aperture macros list*
%AMRoundRect*
0 Rectangle with rounded corners*
0 $1 Rounding radius*
0 $2 $3 $4 $5 $6 $7 $8 $9 X,Y pos of 4 corners*
0 Add a 4 corners polygon primitive as box body*
4,1,4,$2,$3,$4,$5,$6,$7,$8,$9,$2,$3,0*
0 Add four circle primitives for the rounded corners*
1,1,$1+$1,$2,$3*
1,1,$1+$1,$4,$5*
1,1,$1+$1,$6,$7*
1,1,$1+$1,$8,$9*
0 Add four rect primitives between the rounded corners*
20,1,$1+$1,$2,$3,$4,$5,0*
20,1,$1+$1,$4,$5,$6,$7,0*
20,1,$1+$1,$6,$7,$8,$9,0*
20,1,$1+$1,$8,$9,$2,$3,0*%
G04 Aperture macros list end*
G04 #@! TA.AperFunction,SMDPad,CuDef*
%ADD10RoundRect,0.100000X-0.130000X-0.100000X0.130000X-0.100000X0.130000X0.100000X-0.130000X0.100000X0*%
G04 #@! TD*
G04 #@! TA.AperFunction,ComponentPad*
%ADD11R,1.700000X1.700000*%
G04 #@! TD*
G04 #@! TA.AperFunction,ComponentPad*
%ADD12O,1.700000X1.700000*%
G04 #@! TD*
G04 #@! TA.AperFunction,ComponentPad*
%ADD13C,4.500000*%
G04 #@! TD*
G04 #@! TA.AperFunction,ComponentPad*
%ADD14C,1.600000*%
G04 #@! TD*
G04 #@! TA.AperFunction,ComponentPad*
%ADD15R,2.600000X2.600000*%
G04 #@! TD*
G04 #@! TA.AperFunction,ComponentPad*
%ADD16C,2.600000*%
G04 #@! TD*
G04 #@! TA.AperFunction,ComponentPad*
%ADD17R,1.600000X1.600000*%
G04 #@! TD*
G04 #@! TA.AperFunction,ComponentPad*
%ADD18O,1.600000X1.600000*%
G04 #@! TD*
G04 #@! TA.AperFunction,SMDPad,CuDef*
%ADD19RoundRect,0.225000X0.250000X-0.225000X0.250000X0.225000X-0.250000X0.225000X-0.250000X-0.225000X0*%
G04 #@! TD*
G04 #@! TA.AperFunction,SMDPad,CuDef*
%ADD20R,0.550000X1.300000*%
G04 #@! TD*
G04 #@! TA.AperFunction,ComponentPad*
%ADD21C,2.000000*%
G04 #@! TD*
G04 #@! TA.AperFunction,SMDPad,CuDef*
%ADD22RoundRect,0.140000X0.140000X0.170000X-0.140000X0.170000X-0.140000X-0.170000X0.140000X-0.170000X0*%
G04 #@! TD*
G04 #@! TA.AperFunction,ComponentPad*
%ADD23R,1.219200X1.219200*%
G04 #@! TD*
G04 #@! TA.AperFunction,ComponentPad*
%ADD24C,1.219200*%
G04 #@! TD*
G04 #@! TA.AperFunction,ViaPad*
%ADD25C,0.600000*%
G04 #@! TD*
G04 #@! TA.AperFunction,Conductor*
%ADD26C,0.300000*%
G04 #@! TD*
G04 #@! TA.AperFunction,Conductor*
%ADD27C,0.500000*%
G04 #@! TD*
G04 #@! TA.AperFunction,Conductor*
%ADD28C,0.200000*%
G04 #@! TD*
G04 APERTURE END LIST*
D10*
X96430000Y-50025000D03*
X97070000Y-50025000D03*
D11*
X120825000Y-53000000D03*
D12*
X118285000Y-53000000D03*
X115745000Y-53000000D03*
X113205000Y-53000000D03*
X110665000Y-53000000D03*
D13*
X84500000Y-50950000D03*
X84500000Y-44950000D03*
X79800000Y-47950000D03*
D11*
X120825000Y-68250000D03*
D12*
X118285000Y-68250000D03*
X115745000Y-68250000D03*
X113205000Y-68250000D03*
X110665000Y-68250000D03*
D14*
X90750000Y-96500000D03*
X90750000Y-99000000D03*
D11*
X119250000Y-72460000D03*
D12*
X119250000Y-75000000D03*
X119250000Y-77540000D03*
X119250000Y-80080000D03*
X119250000Y-82620000D03*
X119250000Y-85160000D03*
D15*
X106500000Y-42500000D03*
D16*
X101500000Y-42500000D03*
D17*
X98880000Y-72480000D03*
D18*
X98880000Y-75020000D03*
X98880000Y-77560000D03*
X98880000Y-80100000D03*
X98880000Y-82640000D03*
X98880000Y-85180000D03*
X98880000Y-87720000D03*
X98880000Y-90260000D03*
X98880000Y-92800000D03*
X98880000Y-95340000D03*
X98880000Y-97880000D03*
X98880000Y-100420000D03*
X98880000Y-102960000D03*
X98880000Y-105500000D03*
X106500000Y-105500000D03*
X106500000Y-102960000D03*
X106500000Y-100420000D03*
X106500000Y-97880000D03*
X106500000Y-95340000D03*
X106500000Y-92800000D03*
X106500000Y-90260000D03*
X106500000Y-87720000D03*
X106500000Y-85180000D03*
X106500000Y-82640000D03*
X106500000Y-80100000D03*
X106500000Y-77560000D03*
X106500000Y-75020000D03*
X106500000Y-72480000D03*
D19*
X94500000Y-44300000D03*
X94500000Y-42750000D03*
D20*
X96450000Y-46025000D03*
X95500000Y-46025000D03*
X94550000Y-46025000D03*
X94550000Y-48525000D03*
X96450000Y-48525000D03*
D11*
X81250000Y-109830000D03*
D12*
X81250000Y-107290000D03*
X81250000Y-104750000D03*
X81250000Y-102210000D03*
D14*
X94750000Y-85750000D03*
X94750000Y-90750000D03*
X90750000Y-91750000D03*
X90750000Y-89250000D03*
D21*
X86000000Y-64000000D03*
X92500000Y-64000000D03*
X86000000Y-68500000D03*
X92500000Y-68500000D03*
D22*
X94480000Y-50025000D03*
X93520000Y-50025000D03*
D14*
X110500000Y-92750000D03*
X110500000Y-87750000D03*
X96080000Y-55500000D03*
D18*
X85920000Y-55500000D03*
D11*
X119250000Y-95340000D03*
D12*
X119250000Y-97880000D03*
X119250000Y-100420000D03*
X119250000Y-102960000D03*
X119250000Y-105500000D03*
D23*
X86250000Y-91696600D03*
D24*
X86250000Y-96573400D03*
D11*
X81250000Y-84080000D03*
D12*
X81250000Y-81540000D03*
X81250000Y-79000000D03*
X81250000Y-76460000D03*
X81250000Y-73920000D03*
D14*
X95250000Y-61000000D03*
X95250000Y-58500000D03*
D25*
X97000000Y-51000000D03*
X94500000Y-41000000D03*
X96500000Y-44000000D03*
X91750000Y-50000000D03*
X92500000Y-42750000D03*
X96500000Y-42750000D03*
X98750000Y-50000000D03*
D26*
X91910000Y-95340000D02*
X90750000Y-96500000D01*
X90676600Y-96573400D02*
X90750000Y-96500000D01*
X98880000Y-95340000D02*
X91910000Y-95340000D01*
X86250000Y-96573400D02*
X90676600Y-96573400D01*
X110250000Y-92750000D02*
X110200000Y-92800000D01*
X96430000Y-50025000D02*
X96430000Y-48545000D01*
D27*
X118285000Y-53000000D02*
X115785000Y-55500000D01*
X93250000Y-56500000D02*
X93250000Y-58500000D01*
X102250000Y-86250000D02*
X100780000Y-87720000D01*
X100780000Y-87720000D02*
X101420000Y-87720000D01*
X94750000Y-85750000D02*
X96910000Y-85750000D01*
X96080000Y-50335000D02*
X96390000Y-50025000D01*
X94500000Y-59750000D02*
X99960000Y-59750000D01*
D26*
X110500000Y-92750000D02*
X110250000Y-92750000D01*
D27*
X99960000Y-59750000D02*
X102250000Y-62040000D01*
X101420000Y-87720000D02*
X106500000Y-92800000D01*
X96080000Y-55500000D02*
X94250000Y-55500000D01*
X96910000Y-85750000D02*
X98880000Y-87720000D01*
D26*
X96430000Y-48545000D02*
X96450000Y-48525000D01*
D27*
X115785000Y-55500000D02*
X96080000Y-55500000D01*
D26*
X110200000Y-92800000D02*
X106500000Y-92800000D01*
D27*
X100780000Y-87720000D02*
X98880000Y-87720000D01*
X94250000Y-55500000D02*
X93250000Y-56500000D01*
X102250000Y-62040000D02*
X102250000Y-86250000D01*
X93250000Y-58500000D02*
X94500000Y-59750000D01*
X96080000Y-55500000D02*
X96080000Y-50335000D01*
D26*
X90696600Y-91696600D02*
X90750000Y-91750000D01*
X86250000Y-91696600D02*
X90696600Y-91696600D01*
X90750000Y-91750000D02*
X91800000Y-92800000D01*
X91800000Y-92800000D02*
X98880000Y-92800000D01*
D28*
X94750000Y-90750000D02*
X95240000Y-90260000D01*
D27*
X91775000Y-50025000D02*
X91750000Y-50000000D01*
D26*
X97070000Y-50930000D02*
X97000000Y-51000000D01*
D27*
X95500000Y-45000000D02*
X96500000Y-44000000D01*
X93520000Y-50025000D02*
X91775000Y-50025000D01*
X94500000Y-42750000D02*
X94500000Y-41000000D01*
D28*
X94750000Y-90750000D02*
X98390000Y-90750000D01*
D27*
X94500000Y-42750000D02*
X92500000Y-42750000D01*
X95500000Y-46025000D02*
X95500000Y-45000000D01*
D26*
X97070000Y-50025000D02*
X98725000Y-50025000D01*
X98725000Y-50025000D02*
X98750000Y-50000000D01*
D27*
X94500000Y-42750000D02*
X96500000Y-42750000D01*
D28*
X98390000Y-90750000D02*
X98880000Y-90260000D01*
D26*
X97070000Y-50025000D02*
X97070000Y-50930000D01*
D28*
X106500000Y-80100000D02*
X119230000Y-80100000D01*
X119230000Y-80100000D02*
X119250000Y-80080000D01*
X106500000Y-85180000D02*
X119230000Y-85180000D01*
X119230000Y-85180000D02*
X119250000Y-85160000D01*
X119230000Y-82640000D02*
X119250000Y-82620000D01*
X106500000Y-82640000D02*
X119230000Y-82640000D01*
X92750000Y-63750000D02*
X92750000Y-63500000D01*
X85500000Y-63500000D02*
X86000000Y-64000000D01*
X85920000Y-63920000D02*
X86000000Y-64000000D01*
X92500000Y-64000000D02*
X98880000Y-70380000D01*
X92500000Y-64000000D02*
X86000000Y-64000000D01*
X98880000Y-70380000D02*
X98880000Y-72480000D01*
D26*
X92500000Y-63750000D02*
X92500000Y-64000000D01*
D28*
X92500000Y-64000000D02*
X92750000Y-63750000D01*
X86000000Y-64000000D02*
X86000000Y-55580000D01*
X98880000Y-72480000D02*
X98980000Y-72480000D01*
X92750000Y-63500000D02*
X95250000Y-61000000D01*
X86000000Y-55580000D02*
X85920000Y-55500000D01*
X119230000Y-77560000D02*
X119250000Y-77540000D01*
X106500000Y-77560000D02*
X119230000Y-77560000D01*
X119230000Y-72480000D02*
X119250000Y-72460000D01*
X106500000Y-72480000D02*
X119230000Y-72480000D01*
X106500000Y-75020000D02*
X119230000Y-75020000D01*
X119230000Y-75020000D02*
X119250000Y-75000000D01*
X119250000Y-105500000D02*
X106500000Y-105500000D01*
X106500000Y-97880000D02*
X119250000Y-97880000D01*
X106500000Y-95340000D02*
X119250000Y-95340000D01*
X119250000Y-102960000D02*
X106500000Y-102960000D01*
X106500000Y-100420000D02*
X119250000Y-100420000D01*
D26*
X97780000Y-84080000D02*
X98880000Y-85180000D01*
X81250000Y-84080000D02*
X97780000Y-84080000D01*
X81250000Y-81540000D02*
X97780000Y-81540000D01*
X97780000Y-81540000D02*
X98880000Y-82640000D01*
X81250000Y-79000000D02*
X97780000Y-79000000D01*
X97780000Y-79000000D02*
X98880000Y-80100000D01*
X97780000Y-73920000D02*
X98880000Y-75020000D01*
X81250000Y-73920000D02*
X97780000Y-73920000D01*
X97780000Y-76460000D02*
X98880000Y-77560000D01*
X81250000Y-76460000D02*
X97780000Y-76460000D01*
X81250000Y-109830000D02*
X94550000Y-109830000D01*
X94550000Y-109830000D02*
X98880000Y-105500000D01*
X94550000Y-107290000D02*
X98880000Y-102960000D01*
X81250000Y-107290000D02*
X94550000Y-107290000D01*
X81250000Y-102210000D02*
X94550000Y-102210000D01*
X94550000Y-102210000D02*
X98880000Y-97880000D01*
X94550000Y-104750000D02*
X98880000Y-100420000D01*
X81250000Y-104750000D02*
X94550000Y-104750000D01*
D27*
X95250000Y-58500000D02*
X108535000Y-58500000D01*
X108535000Y-58500000D02*
X118285000Y-68250000D01*
X94480000Y-50025000D02*
X94480000Y-48595000D01*
X94480000Y-48595000D02*
X94550000Y-48525000D01*
X98000000Y-46250000D02*
X97775000Y-46025000D01*
X96450000Y-46800000D02*
X96000000Y-47250000D01*
X94500000Y-45975000D02*
X94550000Y-46025000D01*
X88200000Y-47250000D02*
X94500000Y-47250000D01*
X96000000Y-47250000D02*
X97000000Y-47250000D01*
X98000000Y-46250000D02*
X102750000Y-46250000D01*
X96450000Y-46025000D02*
X96450000Y-45800000D01*
X94550000Y-46025000D02*
X94550000Y-47200000D01*
X84500000Y-50950000D02*
X89425000Y-46025000D01*
X84500000Y-50950000D02*
X88200000Y-47250000D01*
X94500000Y-47250000D02*
X96000000Y-47250000D01*
X97775000Y-46025000D02*
X96450000Y-46025000D01*
X89425000Y-46025000D02*
X94550000Y-46025000D01*
X94500000Y-44300000D02*
X94500000Y-45975000D01*
X102750000Y-46250000D02*
X106500000Y-42500000D01*
X98000000Y-46250000D02*
X97000000Y-47250000D01*
X94550000Y-47200000D02*
X94500000Y-47250000D01*
X96450000Y-46025000D02*
X96450000Y-46800000D01*
M02*
