G04 #@! TF.GenerationSoftware,KiCad,Pcbnew,8.0.4*
G04 #@! TF.CreationDate,2024-11-21T22:47:59-05:00*
G04 #@! TF.ProjectId,MCU_ATMEGA328p_minimum,4d43555f-4154-44d4-9547-41333238705f,rev?*
G04 #@! TF.SameCoordinates,Original*
G04 #@! TF.FileFunction,Copper,L2,Bot*
G04 #@! TF.FilePolarity,Positive*
%FSLAX46Y46*%
G04 Gerber Fmt 4.6, Leading zero omitted, Abs format (unit mm)*
G04 Created by KiCad (PCBNEW 8.0.4) date 2024-11-21 22:47:59*
%MOMM*%
%LPD*%
G01*
G04 APERTURE LIST*
G04 #@! TA.AperFunction,ComponentPad*
%ADD10R,1.700000X1.700000*%
G04 #@! TD*
G04 #@! TA.AperFunction,ComponentPad*
%ADD11O,1.700000X1.700000*%
G04 #@! TD*
G04 #@! TA.AperFunction,ComponentPad*
%ADD12C,4.500000*%
G04 #@! TD*
G04 #@! TA.AperFunction,ComponentPad*
%ADD13C,1.600000*%
G04 #@! TD*
G04 #@! TA.AperFunction,ComponentPad*
%ADD14R,2.600000X2.600000*%
G04 #@! TD*
G04 #@! TA.AperFunction,ComponentPad*
%ADD15C,2.600000*%
G04 #@! TD*
G04 #@! TA.AperFunction,ComponentPad*
%ADD16R,1.600000X1.600000*%
G04 #@! TD*
G04 #@! TA.AperFunction,ComponentPad*
%ADD17O,1.600000X1.600000*%
G04 #@! TD*
G04 #@! TA.AperFunction,ComponentPad*
%ADD18C,2.000000*%
G04 #@! TD*
G04 #@! TA.AperFunction,ComponentPad*
%ADD19R,1.219200X1.219200*%
G04 #@! TD*
G04 #@! TA.AperFunction,ComponentPad*
%ADD20C,1.219200*%
G04 #@! TD*
G04 #@! TA.AperFunction,ViaPad*
%ADD21C,0.600000*%
G04 #@! TD*
G04 APERTURE END LIST*
D10*
X120825000Y-53000000D03*
D11*
X118285000Y-53000000D03*
X115745000Y-53000000D03*
X113205000Y-53000000D03*
X110665000Y-53000000D03*
D12*
X84500000Y-50950000D03*
X84500000Y-44950000D03*
X79800000Y-47950000D03*
D10*
X120825000Y-68250000D03*
D11*
X118285000Y-68250000D03*
X115745000Y-68250000D03*
X113205000Y-68250000D03*
X110665000Y-68250000D03*
D13*
X90750000Y-96500000D03*
X90750000Y-99000000D03*
D10*
X119250000Y-72460000D03*
D11*
X119250000Y-75000000D03*
X119250000Y-77540000D03*
X119250000Y-80080000D03*
X119250000Y-82620000D03*
X119250000Y-85160000D03*
D14*
X106500000Y-42500000D03*
D15*
X101500000Y-42500000D03*
D16*
X98880000Y-72480000D03*
D17*
X98880000Y-75020000D03*
X98880000Y-77560000D03*
X98880000Y-80100000D03*
X98880000Y-82640000D03*
X98880000Y-85180000D03*
X98880000Y-87720000D03*
X98880000Y-90260000D03*
X98880000Y-92800000D03*
X98880000Y-95340000D03*
X98880000Y-97880000D03*
X98880000Y-100420000D03*
X98880000Y-102960000D03*
X98880000Y-105500000D03*
X106500000Y-105500000D03*
X106500000Y-102960000D03*
X106500000Y-100420000D03*
X106500000Y-97880000D03*
X106500000Y-95340000D03*
X106500000Y-92800000D03*
X106500000Y-90260000D03*
X106500000Y-87720000D03*
X106500000Y-85180000D03*
X106500000Y-82640000D03*
X106500000Y-80100000D03*
X106500000Y-77560000D03*
X106500000Y-75020000D03*
X106500000Y-72480000D03*
D10*
X81250000Y-109830000D03*
D11*
X81250000Y-107290000D03*
X81250000Y-104750000D03*
X81250000Y-102210000D03*
D13*
X94750000Y-85750000D03*
X94750000Y-90750000D03*
X90750000Y-91750000D03*
X90750000Y-89250000D03*
D18*
X86000000Y-64000000D03*
X92500000Y-64000000D03*
X86000000Y-68500000D03*
X92500000Y-68500000D03*
D13*
X110500000Y-92750000D03*
X110500000Y-87750000D03*
X96080000Y-55500000D03*
D17*
X85920000Y-55500000D03*
D10*
X119250000Y-95340000D03*
D11*
X119250000Y-97880000D03*
X119250000Y-100420000D03*
X119250000Y-102960000D03*
X119250000Y-105500000D03*
D19*
X86250000Y-91696600D03*
D20*
X86250000Y-96573400D03*
D10*
X81250000Y-84080000D03*
D11*
X81250000Y-81540000D03*
X81250000Y-79000000D03*
X81250000Y-76460000D03*
X81250000Y-73920000D03*
D13*
X95250000Y-61000000D03*
X95250000Y-58500000D03*
D21*
X97000000Y-51000000D03*
X94500000Y-41000000D03*
X96500000Y-44000000D03*
X91750000Y-50000000D03*
X92500000Y-42750000D03*
X96500000Y-42750000D03*
X98750000Y-50000000D03*
G04 #@! TA.AperFunction,Conductor*
G36*
X124942539Y-37520185D02*
G01*
X124988294Y-37572989D01*
X124999500Y-37624500D01*
X124999500Y-113125500D01*
X124979815Y-113192539D01*
X124927011Y-113238294D01*
X124875500Y-113249500D01*
X77624500Y-113249500D01*
X77557461Y-113229815D01*
X77511706Y-113177011D01*
X77500500Y-113125500D01*
X77500500Y-102209999D01*
X79894341Y-102209999D01*
X79894341Y-102210000D01*
X79914936Y-102445403D01*
X79914938Y-102445413D01*
X79976094Y-102673655D01*
X79976096Y-102673659D01*
X79976097Y-102673663D01*
X80075965Y-102887830D01*
X80075967Y-102887834D01*
X80211501Y-103081395D01*
X80211506Y-103081402D01*
X80378597Y-103248493D01*
X80378603Y-103248498D01*
X80564158Y-103378425D01*
X80607783Y-103433002D01*
X80614977Y-103502500D01*
X80583454Y-103564855D01*
X80564158Y-103581575D01*
X80378597Y-103711505D01*
X80211505Y-103878597D01*
X80075965Y-104072169D01*
X80075964Y-104072171D01*
X79976098Y-104286335D01*
X79976094Y-104286344D01*
X79914938Y-104514586D01*
X79914936Y-104514596D01*
X79894341Y-104749999D01*
X79894341Y-104750000D01*
X79914936Y-104985403D01*
X79914938Y-104985413D01*
X79976094Y-105213655D01*
X79976096Y-105213659D01*
X79976097Y-105213663D01*
X80075965Y-105427830D01*
X80075967Y-105427834D01*
X80211501Y-105621395D01*
X80211506Y-105621402D01*
X80378597Y-105788493D01*
X80378603Y-105788498D01*
X80564158Y-105918425D01*
X80607783Y-105973002D01*
X80614977Y-106042500D01*
X80583454Y-106104855D01*
X80564158Y-106121575D01*
X80378597Y-106251505D01*
X80211505Y-106418597D01*
X80075965Y-106612169D01*
X80075964Y-106612171D01*
X79976098Y-106826335D01*
X79976094Y-106826344D01*
X79914938Y-107054586D01*
X79914936Y-107054596D01*
X79894341Y-107289999D01*
X79894341Y-107290000D01*
X79914936Y-107525403D01*
X79914938Y-107525413D01*
X79976094Y-107753655D01*
X79976096Y-107753659D01*
X79976097Y-107753663D01*
X80075965Y-107967830D01*
X80075967Y-107967834D01*
X80184281Y-108122521D01*
X80211501Y-108161396D01*
X80211506Y-108161402D01*
X80333430Y-108283326D01*
X80366915Y-108344649D01*
X80361931Y-108414341D01*
X80320059Y-108470274D01*
X80289083Y-108487189D01*
X80157669Y-108536203D01*
X80157664Y-108536206D01*
X80042455Y-108622452D01*
X80042452Y-108622455D01*
X79956206Y-108737664D01*
X79956202Y-108737671D01*
X79905908Y-108872517D01*
X79899501Y-108932116D01*
X79899501Y-108932123D01*
X79899500Y-108932135D01*
X79899500Y-110727870D01*
X79899501Y-110727876D01*
X79905908Y-110787483D01*
X79956202Y-110922328D01*
X79956206Y-110922335D01*
X80042452Y-111037544D01*
X80042455Y-111037547D01*
X80157664Y-111123793D01*
X80157671Y-111123797D01*
X80292517Y-111174091D01*
X80292516Y-111174091D01*
X80299444Y-111174835D01*
X80352127Y-111180500D01*
X82147872Y-111180499D01*
X82207483Y-111174091D01*
X82342331Y-111123796D01*
X82457546Y-111037546D01*
X82543796Y-110922331D01*
X82594091Y-110787483D01*
X82600500Y-110727873D01*
X82600499Y-108932128D01*
X82594091Y-108872517D01*
X82543796Y-108737669D01*
X82543795Y-108737668D01*
X82543793Y-108737664D01*
X82457547Y-108622455D01*
X82457544Y-108622452D01*
X82342335Y-108536206D01*
X82342328Y-108536202D01*
X82210917Y-108487189D01*
X82154983Y-108445318D01*
X82130566Y-108379853D01*
X82145418Y-108311580D01*
X82166563Y-108283332D01*
X82288495Y-108161401D01*
X82424035Y-107967830D01*
X82523903Y-107753663D01*
X82585063Y-107525408D01*
X82605659Y-107290000D01*
X82585063Y-107054592D01*
X82523903Y-106826337D01*
X82424035Y-106612171D01*
X82372446Y-106538493D01*
X82288494Y-106418597D01*
X82121402Y-106251506D01*
X82121396Y-106251501D01*
X81935842Y-106121575D01*
X81892217Y-106066998D01*
X81885023Y-105997500D01*
X81916546Y-105935145D01*
X81935842Y-105918425D01*
X81958026Y-105902891D01*
X82121401Y-105788495D01*
X82288495Y-105621401D01*
X82424035Y-105427830D01*
X82523903Y-105213663D01*
X82585063Y-104985408D01*
X82605659Y-104750000D01*
X82585063Y-104514592D01*
X82526992Y-104297865D01*
X82523905Y-104286344D01*
X82523904Y-104286343D01*
X82523903Y-104286337D01*
X82424035Y-104072171D01*
X82372446Y-103998493D01*
X82288494Y-103878597D01*
X82121402Y-103711506D01*
X82121396Y-103711501D01*
X81935842Y-103581575D01*
X81892217Y-103526998D01*
X81885023Y-103457500D01*
X81916546Y-103395145D01*
X81935842Y-103378425D01*
X81958026Y-103362891D01*
X82121401Y-103248495D01*
X82288495Y-103081401D01*
X82424035Y-102887830D01*
X82523903Y-102673663D01*
X82585063Y-102445408D01*
X82605659Y-102210000D01*
X82585063Y-101974592D01*
X82526992Y-101757865D01*
X82523905Y-101746344D01*
X82523904Y-101746343D01*
X82523903Y-101746337D01*
X82424035Y-101532171D01*
X82372446Y-101458493D01*
X82288494Y-101338597D01*
X82121402Y-101171506D01*
X82121395Y-101171501D01*
X81927834Y-101035967D01*
X81927830Y-101035965D01*
X81927828Y-101035964D01*
X81713663Y-100936097D01*
X81713659Y-100936096D01*
X81713655Y-100936094D01*
X81485413Y-100874938D01*
X81485403Y-100874936D01*
X81250001Y-100854341D01*
X81249999Y-100854341D01*
X81014596Y-100874936D01*
X81014586Y-100874938D01*
X80786344Y-100936094D01*
X80786335Y-100936098D01*
X80572171Y-101035964D01*
X80572169Y-101035965D01*
X80378597Y-101171505D01*
X80211505Y-101338597D01*
X80075965Y-101532169D01*
X80075964Y-101532171D01*
X79976098Y-101746335D01*
X79976094Y-101746344D01*
X79914938Y-101974586D01*
X79914936Y-101974596D01*
X79894341Y-102209999D01*
X77500500Y-102209999D01*
X77500500Y-96573400D01*
X85135144Y-96573400D01*
X85154126Y-96778249D01*
X85154126Y-96778251D01*
X85154127Y-96778254D01*
X85176936Y-96858418D01*
X85210427Y-96976130D01*
X85210431Y-96976140D01*
X85298364Y-97152732D01*
X85302130Y-97160296D01*
X85352703Y-97227266D01*
X85426112Y-97324476D01*
X85578146Y-97463072D01*
X85578151Y-97463076D01*
X85753062Y-97571376D01*
X85753063Y-97571376D01*
X85753066Y-97571378D01*
X85944905Y-97645697D01*
X86147134Y-97683500D01*
X86147136Y-97683500D01*
X86352864Y-97683500D01*
X86352866Y-97683500D01*
X86555095Y-97645697D01*
X86746934Y-97571378D01*
X86921851Y-97463074D01*
X87073889Y-97324474D01*
X87197870Y-97160296D01*
X87289572Y-96976132D01*
X87345873Y-96778254D01*
X87364856Y-96573400D01*
X87358054Y-96499998D01*
X89444532Y-96499998D01*
X89444532Y-96500001D01*
X89464364Y-96726686D01*
X89464366Y-96726697D01*
X89523258Y-96946488D01*
X89523261Y-96946497D01*
X89619431Y-97152732D01*
X89619432Y-97152734D01*
X89749954Y-97339141D01*
X89910858Y-97500045D01*
X89910861Y-97500047D01*
X90097266Y-97630568D01*
X90112975Y-97637893D01*
X90165414Y-97684064D01*
X90184567Y-97751257D01*
X90164352Y-97818138D01*
X90112979Y-97862656D01*
X90097514Y-97869867D01*
X90097512Y-97869868D01*
X90024526Y-97920973D01*
X90024526Y-97920974D01*
X90703553Y-98600000D01*
X90697339Y-98600000D01*
X90595606Y-98627259D01*
X90504394Y-98679920D01*
X90429920Y-98754394D01*
X90377259Y-98845606D01*
X90350000Y-98947339D01*
X90350000Y-98953552D01*
X89670974Y-98274526D01*
X89670973Y-98274526D01*
X89619868Y-98347512D01*
X89619866Y-98347516D01*
X89523734Y-98553673D01*
X89523730Y-98553682D01*
X89464860Y-98773389D01*
X89464858Y-98773400D01*
X89445034Y-98999997D01*
X89445034Y-99000002D01*
X89464858Y-99226599D01*
X89464860Y-99226610D01*
X89523730Y-99446317D01*
X89523735Y-99446331D01*
X89619863Y-99652478D01*
X89670974Y-99725472D01*
X90350000Y-99046446D01*
X90350000Y-99052661D01*
X90377259Y-99154394D01*
X90429920Y-99245606D01*
X90504394Y-99320080D01*
X90595606Y-99372741D01*
X90697339Y-99400000D01*
X90703553Y-99400000D01*
X90024526Y-100079025D01*
X90097513Y-100130132D01*
X90097521Y-100130136D01*
X90303668Y-100226264D01*
X90303682Y-100226269D01*
X90523389Y-100285139D01*
X90523400Y-100285141D01*
X90749998Y-100304966D01*
X90750002Y-100304966D01*
X90976599Y-100285141D01*
X90976610Y-100285139D01*
X91196317Y-100226269D01*
X91196331Y-100226264D01*
X91402478Y-100130136D01*
X91475471Y-100079024D01*
X90796447Y-99400000D01*
X90802661Y-99400000D01*
X90904394Y-99372741D01*
X90995606Y-99320080D01*
X91070080Y-99245606D01*
X91122741Y-99154394D01*
X91150000Y-99052661D01*
X91150000Y-99046447D01*
X91829024Y-99725471D01*
X91880136Y-99652478D01*
X91976264Y-99446331D01*
X91976269Y-99446317D01*
X92035139Y-99226610D01*
X92035141Y-99226599D01*
X92054966Y-99000002D01*
X92054966Y-98999997D01*
X92035141Y-98773400D01*
X92035139Y-98773389D01*
X91976269Y-98553682D01*
X91976264Y-98553668D01*
X91880136Y-98347521D01*
X91880132Y-98347513D01*
X91829025Y-98274526D01*
X91150000Y-98953551D01*
X91150000Y-98947339D01*
X91122741Y-98845606D01*
X91070080Y-98754394D01*
X90995606Y-98679920D01*
X90904394Y-98627259D01*
X90802661Y-98600000D01*
X90796448Y-98600000D01*
X91475472Y-97920974D01*
X91402480Y-97869864D01*
X91387024Y-97862657D01*
X91334585Y-97816484D01*
X91315433Y-97749290D01*
X91335649Y-97682409D01*
X91387023Y-97637893D01*
X91402734Y-97630568D01*
X91589139Y-97500047D01*
X91750047Y-97339139D01*
X91880568Y-97152734D01*
X91976739Y-96946496D01*
X92035635Y-96726692D01*
X92055468Y-96500000D01*
X92035635Y-96273308D01*
X91976739Y-96053504D01*
X91880568Y-95847266D01*
X91750047Y-95660861D01*
X91750045Y-95660858D01*
X91589141Y-95499954D01*
X91402734Y-95369432D01*
X91402732Y-95369431D01*
X91196497Y-95273261D01*
X91196488Y-95273258D01*
X90976697Y-95214366D01*
X90976693Y-95214365D01*
X90976692Y-95214365D01*
X90976691Y-95214364D01*
X90976686Y-95214364D01*
X90750002Y-95194532D01*
X90749998Y-95194532D01*
X90523313Y-95214364D01*
X90523302Y-95214366D01*
X90303511Y-95273258D01*
X90303502Y-95273261D01*
X90097267Y-95369431D01*
X90097265Y-95369432D01*
X89910858Y-95499954D01*
X89749954Y-95660858D01*
X89619432Y-95847265D01*
X89619431Y-95847267D01*
X89523261Y-96053502D01*
X89523258Y-96053511D01*
X89464366Y-96273302D01*
X89464364Y-96273313D01*
X89444532Y-96499998D01*
X87358054Y-96499998D01*
X87345873Y-96368546D01*
X87289572Y-96170668D01*
X87197870Y-95986504D01*
X87106136Y-95865029D01*
X87073887Y-95822323D01*
X86921853Y-95683727D01*
X86921848Y-95683723D01*
X86746937Y-95575423D01*
X86746931Y-95575421D01*
X86724399Y-95566692D01*
X86555095Y-95501103D01*
X86352866Y-95463300D01*
X86147134Y-95463300D01*
X85944905Y-95501103D01*
X85823588Y-95548101D01*
X85753068Y-95575421D01*
X85753062Y-95575423D01*
X85578151Y-95683723D01*
X85578146Y-95683727D01*
X85426112Y-95822323D01*
X85302129Y-95986505D01*
X85210431Y-96170659D01*
X85210427Y-96170669D01*
X85154126Y-96368550D01*
X85135144Y-96573400D01*
X77500500Y-96573400D01*
X77500500Y-91039135D01*
X85139900Y-91039135D01*
X85139900Y-92354070D01*
X85139901Y-92354076D01*
X85146308Y-92413683D01*
X85196602Y-92548528D01*
X85196606Y-92548535D01*
X85282852Y-92663744D01*
X85282855Y-92663747D01*
X85398064Y-92749993D01*
X85398071Y-92749997D01*
X85532917Y-92800291D01*
X85532916Y-92800291D01*
X85539844Y-92801035D01*
X85592527Y-92806700D01*
X86907472Y-92806699D01*
X86967083Y-92800291D01*
X87101931Y-92749996D01*
X87217146Y-92663746D01*
X87303396Y-92548531D01*
X87353691Y-92413683D01*
X87360100Y-92354073D01*
X87360100Y-91749998D01*
X89444532Y-91749998D01*
X89444532Y-91750001D01*
X89464364Y-91976686D01*
X89464366Y-91976697D01*
X89523258Y-92196488D01*
X89523261Y-92196497D01*
X89619431Y-92402732D01*
X89619432Y-92402734D01*
X89749954Y-92589141D01*
X89910858Y-92750045D01*
X89910861Y-92750047D01*
X90097266Y-92880568D01*
X90303504Y-92976739D01*
X90523308Y-93035635D01*
X90685230Y-93049801D01*
X90749998Y-93055468D01*
X90750000Y-93055468D01*
X90750002Y-93055468D01*
X90806673Y-93050509D01*
X90976692Y-93035635D01*
X91196496Y-92976739D01*
X91402734Y-92880568D01*
X91589139Y-92750047D01*
X91750047Y-92589139D01*
X91880568Y-92402734D01*
X91976739Y-92196496D01*
X92035635Y-91976692D01*
X92055468Y-91750000D01*
X92035635Y-91523308D01*
X91976739Y-91303504D01*
X91880568Y-91097266D01*
X91782839Y-90957693D01*
X91750045Y-90910858D01*
X91589184Y-90749997D01*
X93445034Y-90749997D01*
X93445034Y-90750002D01*
X93464858Y-90976599D01*
X93464860Y-90976610D01*
X93523730Y-91196317D01*
X93523735Y-91196331D01*
X93619863Y-91402478D01*
X93670974Y-91475472D01*
X94350000Y-90796446D01*
X94350000Y-90802661D01*
X94377259Y-90904394D01*
X94429920Y-90995606D01*
X94504394Y-91070080D01*
X94595606Y-91122741D01*
X94697339Y-91150000D01*
X94703553Y-91150000D01*
X94024526Y-91829025D01*
X94097513Y-91880132D01*
X94097521Y-91880136D01*
X94303668Y-91976264D01*
X94303682Y-91976269D01*
X94523389Y-92035139D01*
X94523400Y-92035141D01*
X94749998Y-92054966D01*
X94750002Y-92054966D01*
X94976599Y-92035141D01*
X94976610Y-92035139D01*
X95196317Y-91976269D01*
X95196331Y-91976264D01*
X95402478Y-91880136D01*
X95475471Y-91829024D01*
X94796447Y-91150000D01*
X94802661Y-91150000D01*
X94904394Y-91122741D01*
X94995606Y-91070080D01*
X95070080Y-90995606D01*
X95122741Y-90904394D01*
X95150000Y-90802661D01*
X95150000Y-90796447D01*
X95829024Y-91475471D01*
X95880136Y-91402478D01*
X95976264Y-91196331D01*
X95976269Y-91196317D01*
X96035139Y-90976610D01*
X96035141Y-90976599D01*
X96054966Y-90750002D01*
X96054966Y-90749997D01*
X96035141Y-90523400D01*
X96035139Y-90523389D01*
X95976269Y-90303682D01*
X95976264Y-90303668D01*
X95880136Y-90097521D01*
X95880132Y-90097513D01*
X95829025Y-90024526D01*
X95150000Y-90703551D01*
X95150000Y-90697339D01*
X95122741Y-90595606D01*
X95070080Y-90504394D01*
X94995606Y-90429920D01*
X94904394Y-90377259D01*
X94802661Y-90350000D01*
X94796448Y-90350000D01*
X95475472Y-89670974D01*
X95402478Y-89619863D01*
X95196331Y-89523735D01*
X95196317Y-89523730D01*
X94976610Y-89464860D01*
X94976599Y-89464858D01*
X94750002Y-89445034D01*
X94749998Y-89445034D01*
X94523400Y-89464858D01*
X94523389Y-89464860D01*
X94303682Y-89523730D01*
X94303673Y-89523734D01*
X94097516Y-89619866D01*
X94097512Y-89619868D01*
X94024526Y-89670973D01*
X94024526Y-89670974D01*
X94703553Y-90350000D01*
X94697339Y-90350000D01*
X94595606Y-90377259D01*
X94504394Y-90429920D01*
X94429920Y-90504394D01*
X94377259Y-90595606D01*
X94350000Y-90697339D01*
X94350000Y-90703552D01*
X93670974Y-90024526D01*
X93670973Y-90024526D01*
X93619868Y-90097512D01*
X93619866Y-90097516D01*
X93523734Y-90303673D01*
X93523730Y-90303682D01*
X93464860Y-90523389D01*
X93464858Y-90523400D01*
X93445034Y-90749997D01*
X91589184Y-90749997D01*
X91589141Y-90749954D01*
X91402734Y-90619432D01*
X91402730Y-90619430D01*
X91387022Y-90612105D01*
X91334583Y-90565931D01*
X91315433Y-90498737D01*
X91335650Y-90431857D01*
X91387028Y-90387340D01*
X91402481Y-90380134D01*
X91475471Y-90329024D01*
X90796447Y-89650000D01*
X90802661Y-89650000D01*
X90904394Y-89622741D01*
X90995606Y-89570080D01*
X91070080Y-89495606D01*
X91122741Y-89404394D01*
X91150000Y-89302661D01*
X91150000Y-89296447D01*
X91829024Y-89975471D01*
X91880136Y-89902478D01*
X91976264Y-89696331D01*
X91976269Y-89696317D01*
X92035139Y-89476610D01*
X92035141Y-89476599D01*
X92054966Y-89250002D01*
X92054966Y-89249997D01*
X92035141Y-89023400D01*
X92035139Y-89023389D01*
X91976269Y-88803682D01*
X91976264Y-88803668D01*
X91880136Y-88597521D01*
X91880132Y-88597513D01*
X91829025Y-88524526D01*
X91150000Y-89203551D01*
X91150000Y-89197339D01*
X91122741Y-89095606D01*
X91070080Y-89004394D01*
X90995606Y-88929920D01*
X90904394Y-88877259D01*
X90802661Y-88850000D01*
X90796448Y-88850000D01*
X91475472Y-88170974D01*
X91402478Y-88119863D01*
X91196331Y-88023735D01*
X91196317Y-88023730D01*
X90976610Y-87964860D01*
X90976599Y-87964858D01*
X90750002Y-87945034D01*
X90749998Y-87945034D01*
X90523400Y-87964858D01*
X90523389Y-87964860D01*
X90303682Y-88023730D01*
X90303673Y-88023734D01*
X90097516Y-88119866D01*
X90097512Y-88119868D01*
X90024526Y-88170973D01*
X90024526Y-88170974D01*
X90703553Y-88850000D01*
X90697339Y-88850000D01*
X90595606Y-88877259D01*
X90504394Y-88929920D01*
X90429920Y-89004394D01*
X90377259Y-89095606D01*
X90350000Y-89197339D01*
X90350000Y-89203552D01*
X89670974Y-88524526D01*
X89670973Y-88524526D01*
X89619868Y-88597512D01*
X89619866Y-88597516D01*
X89523734Y-88803673D01*
X89523730Y-88803682D01*
X89464860Y-89023389D01*
X89464858Y-89023400D01*
X89445034Y-89249997D01*
X89445034Y-89250002D01*
X89464858Y-89476599D01*
X89464860Y-89476610D01*
X89523730Y-89696317D01*
X89523735Y-89696331D01*
X89619863Y-89902478D01*
X89670974Y-89975472D01*
X90350000Y-89296446D01*
X90350000Y-89302661D01*
X90377259Y-89404394D01*
X90429920Y-89495606D01*
X90504394Y-89570080D01*
X90595606Y-89622741D01*
X90697339Y-89650000D01*
X90703553Y-89650000D01*
X90024526Y-90329025D01*
X90097513Y-90380132D01*
X90097515Y-90380133D01*
X90112973Y-90387341D01*
X90165413Y-90433513D01*
X90184566Y-90500706D01*
X90164351Y-90567587D01*
X90112979Y-90612104D01*
X90097270Y-90619429D01*
X90097265Y-90619432D01*
X89910858Y-90749954D01*
X89749954Y-90910858D01*
X89619432Y-91097265D01*
X89619431Y-91097267D01*
X89523261Y-91303502D01*
X89523258Y-91303511D01*
X89464366Y-91523302D01*
X89464364Y-91523313D01*
X89444532Y-91749998D01*
X87360100Y-91749998D01*
X87360099Y-91039128D01*
X87353691Y-90979517D01*
X87303396Y-90844669D01*
X87303395Y-90844668D01*
X87303393Y-90844664D01*
X87217147Y-90729455D01*
X87217144Y-90729452D01*
X87101935Y-90643206D01*
X87101928Y-90643202D01*
X86967082Y-90592908D01*
X86967083Y-90592908D01*
X86907483Y-90586501D01*
X86907481Y-90586500D01*
X86907473Y-90586500D01*
X86907464Y-90586500D01*
X85592529Y-90586500D01*
X85592523Y-90586501D01*
X85532916Y-90592908D01*
X85398071Y-90643202D01*
X85398064Y-90643206D01*
X85282855Y-90729452D01*
X85282852Y-90729455D01*
X85196606Y-90844664D01*
X85196602Y-90844671D01*
X85146308Y-90979517D01*
X85139901Y-91039116D01*
X85139901Y-91039123D01*
X85139900Y-91039135D01*
X77500500Y-91039135D01*
X77500500Y-85749998D01*
X93444532Y-85749998D01*
X93444532Y-85750001D01*
X93464364Y-85976686D01*
X93464366Y-85976697D01*
X93523258Y-86196488D01*
X93523261Y-86196497D01*
X93619431Y-86402732D01*
X93619432Y-86402734D01*
X93749954Y-86589141D01*
X93910858Y-86750045D01*
X93910861Y-86750047D01*
X94097266Y-86880568D01*
X94303504Y-86976739D01*
X94523308Y-87035635D01*
X94685230Y-87049801D01*
X94749998Y-87055468D01*
X94750000Y-87055468D01*
X94750002Y-87055468D01*
X94806673Y-87050509D01*
X94976692Y-87035635D01*
X95196496Y-86976739D01*
X95402734Y-86880568D01*
X95589139Y-86750047D01*
X95750047Y-86589139D01*
X95880568Y-86402734D01*
X95976739Y-86196496D01*
X96035635Y-85976692D01*
X96055468Y-85750000D01*
X96035635Y-85523308D01*
X95976739Y-85303504D01*
X95880568Y-85097266D01*
X95759664Y-84924596D01*
X95750045Y-84910858D01*
X95589141Y-84749954D01*
X95402734Y-84619432D01*
X95402732Y-84619431D01*
X95196497Y-84523261D01*
X95196488Y-84523258D01*
X94976697Y-84464366D01*
X94976693Y-84464365D01*
X94976692Y-84464365D01*
X94976691Y-84464364D01*
X94976686Y-84464364D01*
X94750002Y-84444532D01*
X94749998Y-84444532D01*
X94523313Y-84464364D01*
X94523302Y-84464366D01*
X94303511Y-84523258D01*
X94303502Y-84523261D01*
X94097267Y-84619431D01*
X94097265Y-84619432D01*
X93910858Y-84749954D01*
X93749954Y-84910858D01*
X93619432Y-85097265D01*
X93619431Y-85097267D01*
X93523261Y-85303502D01*
X93523258Y-85303511D01*
X93464366Y-85523302D01*
X93464364Y-85523313D01*
X93444532Y-85749998D01*
X77500500Y-85749998D01*
X77500500Y-73919999D01*
X79894341Y-73919999D01*
X79894341Y-73920000D01*
X79914936Y-74155403D01*
X79914938Y-74155413D01*
X79976094Y-74383655D01*
X79976096Y-74383659D01*
X79976097Y-74383663D01*
X80047289Y-74536335D01*
X80075965Y-74597830D01*
X80075967Y-74597834D01*
X80211501Y-74791395D01*
X80211506Y-74791402D01*
X80378597Y-74958493D01*
X80378603Y-74958498D01*
X80564158Y-75088425D01*
X80607783Y-75143002D01*
X80614977Y-75212500D01*
X80583454Y-75274855D01*
X80564158Y-75291575D01*
X80378597Y-75421505D01*
X80211505Y-75588597D01*
X80075965Y-75782169D01*
X80075964Y-75782171D01*
X79976098Y-75996335D01*
X79976094Y-75996344D01*
X79914938Y-76224586D01*
X79914936Y-76224596D01*
X79894341Y-76459999D01*
X79894341Y-76460000D01*
X79914936Y-76695403D01*
X79914938Y-76695413D01*
X79976094Y-76923655D01*
X79976096Y-76923659D01*
X79976097Y-76923663D01*
X80047289Y-77076335D01*
X80075965Y-77137830D01*
X80075967Y-77137834D01*
X80211501Y-77331395D01*
X80211506Y-77331402D01*
X80378597Y-77498493D01*
X80378603Y-77498498D01*
X80564158Y-77628425D01*
X80607783Y-77683002D01*
X80614977Y-77752500D01*
X80583454Y-77814855D01*
X80564158Y-77831575D01*
X80378597Y-77961505D01*
X80211505Y-78128597D01*
X80075965Y-78322169D01*
X80075964Y-78322171D01*
X79976098Y-78536335D01*
X79976094Y-78536344D01*
X79914938Y-78764586D01*
X79914936Y-78764596D01*
X79894341Y-78999999D01*
X79894341Y-79000000D01*
X79914936Y-79235403D01*
X79914938Y-79235413D01*
X79976094Y-79463655D01*
X79976096Y-79463659D01*
X79976097Y-79463663D01*
X80047289Y-79616335D01*
X80075965Y-79677830D01*
X80075967Y-79677834D01*
X80211501Y-79871395D01*
X80211506Y-79871402D01*
X80378597Y-80038493D01*
X80378603Y-80038498D01*
X80564158Y-80168425D01*
X80607783Y-80223002D01*
X80614977Y-80292500D01*
X80583454Y-80354855D01*
X80564158Y-80371575D01*
X80378597Y-80501505D01*
X80211505Y-80668597D01*
X80075965Y-80862169D01*
X80075964Y-80862171D01*
X79976098Y-81076335D01*
X79976094Y-81076344D01*
X79914938Y-81304586D01*
X79914936Y-81304596D01*
X79894341Y-81539999D01*
X79894341Y-81540000D01*
X79914936Y-81775403D01*
X79914938Y-81775413D01*
X79976094Y-82003655D01*
X79976096Y-82003659D01*
X79976097Y-82003663D01*
X80047289Y-82156335D01*
X80075965Y-82217830D01*
X80075967Y-82217834D01*
X80184281Y-82372521D01*
X80211501Y-82411396D01*
X80211506Y-82411402D01*
X80333430Y-82533326D01*
X80366915Y-82594649D01*
X80361931Y-82664341D01*
X80320059Y-82720274D01*
X80289083Y-82737189D01*
X80157669Y-82786203D01*
X80157664Y-82786206D01*
X80042455Y-82872452D01*
X80042452Y-82872455D01*
X79956206Y-82987664D01*
X79956202Y-82987671D01*
X79905908Y-83122517D01*
X79899501Y-83182116D01*
X79899501Y-83182123D01*
X79899500Y-83182135D01*
X79899500Y-84977870D01*
X79899501Y-84977876D01*
X79905908Y-85037483D01*
X79956202Y-85172328D01*
X79956206Y-85172335D01*
X80042452Y-85287544D01*
X80042455Y-85287547D01*
X80157664Y-85373793D01*
X80157671Y-85373797D01*
X80292517Y-85424091D01*
X80292516Y-85424091D01*
X80299444Y-85424835D01*
X80352127Y-85430500D01*
X82147872Y-85430499D01*
X82207483Y-85424091D01*
X82342331Y-85373796D01*
X82457546Y-85287546D01*
X82543796Y-85172331D01*
X82594091Y-85037483D01*
X82600500Y-84977873D01*
X82600499Y-83182128D01*
X82594091Y-83122517D01*
X82580656Y-83086497D01*
X82543797Y-82987671D01*
X82543793Y-82987664D01*
X82457547Y-82872455D01*
X82457544Y-82872452D01*
X82342335Y-82786206D01*
X82342328Y-82786202D01*
X82210917Y-82737189D01*
X82154983Y-82695318D01*
X82130566Y-82629853D01*
X82145418Y-82561580D01*
X82166563Y-82533332D01*
X82288495Y-82411401D01*
X82424035Y-82217830D01*
X82523903Y-82003663D01*
X82585063Y-81775408D01*
X82605659Y-81540000D01*
X82602984Y-81509431D01*
X82596460Y-81434855D01*
X82585063Y-81304592D01*
X82530256Y-81100047D01*
X82523905Y-81076344D01*
X82523904Y-81076343D01*
X82523903Y-81076337D01*
X82424035Y-80862171D01*
X82347406Y-80752732D01*
X82288494Y-80668597D01*
X82121402Y-80501506D01*
X82121396Y-80501501D01*
X81935842Y-80371575D01*
X81892217Y-80316998D01*
X81885023Y-80247500D01*
X81916546Y-80185145D01*
X81935842Y-80168425D01*
X82033563Y-80100000D01*
X82121401Y-80038495D01*
X82288495Y-79871401D01*
X82424035Y-79677830D01*
X82523903Y-79463663D01*
X82585063Y-79235408D01*
X82605659Y-79000000D01*
X82602984Y-78969431D01*
X82596460Y-78894855D01*
X82585063Y-78764592D01*
X82530256Y-78560047D01*
X82523905Y-78536344D01*
X82523904Y-78536343D01*
X82523903Y-78536337D01*
X82424035Y-78322171D01*
X82347406Y-78212732D01*
X82288494Y-78128597D01*
X82121402Y-77961506D01*
X82121396Y-77961501D01*
X81935842Y-77831575D01*
X81892217Y-77776998D01*
X81885023Y-77707500D01*
X81916546Y-77645145D01*
X81935842Y-77628425D01*
X82033563Y-77560000D01*
X82121401Y-77498495D01*
X82288495Y-77331401D01*
X82424035Y-77137830D01*
X82523903Y-76923663D01*
X82585063Y-76695408D01*
X82605659Y-76460000D01*
X82602984Y-76429431D01*
X82596460Y-76354855D01*
X82585063Y-76224592D01*
X82530256Y-76020047D01*
X82523905Y-75996344D01*
X82523904Y-75996343D01*
X82523903Y-75996337D01*
X82424035Y-75782171D01*
X82347406Y-75672732D01*
X82288494Y-75588597D01*
X82121402Y-75421506D01*
X82121396Y-75421501D01*
X81935842Y-75291575D01*
X81892217Y-75236998D01*
X81885023Y-75167500D01*
X81916546Y-75105145D01*
X81935842Y-75088425D01*
X82033563Y-75020000D01*
X82033566Y-75019998D01*
X97574532Y-75019998D01*
X97574532Y-75020001D01*
X97594364Y-75246686D01*
X97594366Y-75246697D01*
X97653258Y-75466488D01*
X97653261Y-75466497D01*
X97749431Y-75672732D01*
X97749432Y-75672734D01*
X97879954Y-75859141D01*
X98040858Y-76020045D01*
X98040861Y-76020047D01*
X98227266Y-76150568D01*
X98277591Y-76174035D01*
X98285275Y-76177618D01*
X98337714Y-76223791D01*
X98356866Y-76290984D01*
X98336650Y-76357865D01*
X98285275Y-76402382D01*
X98227267Y-76429431D01*
X98227265Y-76429432D01*
X98040858Y-76559954D01*
X97879954Y-76720858D01*
X97749432Y-76907265D01*
X97749431Y-76907267D01*
X97653261Y-77113502D01*
X97653258Y-77113511D01*
X97594366Y-77333302D01*
X97594364Y-77333313D01*
X97574532Y-77559998D01*
X97574532Y-77560001D01*
X97594364Y-77786686D01*
X97594366Y-77786697D01*
X97653258Y-78006488D01*
X97653261Y-78006497D01*
X97749431Y-78212732D01*
X97749432Y-78212734D01*
X97879954Y-78399141D01*
X98040858Y-78560045D01*
X98040861Y-78560047D01*
X98227266Y-78690568D01*
X98277591Y-78714035D01*
X98285275Y-78717618D01*
X98337714Y-78763791D01*
X98356866Y-78830984D01*
X98336650Y-78897865D01*
X98285275Y-78942382D01*
X98227267Y-78969431D01*
X98227265Y-78969432D01*
X98040858Y-79099954D01*
X97879954Y-79260858D01*
X97749432Y-79447265D01*
X97749431Y-79447267D01*
X97653261Y-79653502D01*
X97653258Y-79653511D01*
X97594366Y-79873302D01*
X97594364Y-79873313D01*
X97574532Y-80099998D01*
X97574532Y-80100001D01*
X97594364Y-80326686D01*
X97594366Y-80326697D01*
X97653258Y-80546488D01*
X97653261Y-80546497D01*
X97749431Y-80752732D01*
X97749432Y-80752734D01*
X97879954Y-80939141D01*
X98040858Y-81100045D01*
X98040861Y-81100047D01*
X98227266Y-81230568D01*
X98277591Y-81254035D01*
X98285275Y-81257618D01*
X98337714Y-81303791D01*
X98356866Y-81370984D01*
X98336650Y-81437865D01*
X98285275Y-81482382D01*
X98227267Y-81509431D01*
X98227265Y-81509432D01*
X98040858Y-81639954D01*
X97879954Y-81800858D01*
X97749432Y-81987265D01*
X97749431Y-81987267D01*
X97653261Y-82193502D01*
X97653258Y-82193511D01*
X97594366Y-82413302D01*
X97594364Y-82413313D01*
X97574532Y-82639998D01*
X97574532Y-82640001D01*
X97594364Y-82866686D01*
X97594366Y-82866697D01*
X97653258Y-83086488D01*
X97653261Y-83086497D01*
X97749431Y-83292732D01*
X97749432Y-83292734D01*
X97879954Y-83479141D01*
X98040858Y-83640045D01*
X98040861Y-83640047D01*
X98227266Y-83770568D01*
X98277591Y-83794035D01*
X98285275Y-83797618D01*
X98337714Y-83843791D01*
X98356866Y-83910984D01*
X98336650Y-83977865D01*
X98285275Y-84022382D01*
X98227267Y-84049431D01*
X98227265Y-84049432D01*
X98040858Y-84179954D01*
X97879954Y-84340858D01*
X97749432Y-84527265D01*
X97749431Y-84527267D01*
X97653261Y-84733502D01*
X97653258Y-84733511D01*
X97594366Y-84953302D01*
X97594364Y-84953313D01*
X97574532Y-85179998D01*
X97574532Y-85180001D01*
X97594364Y-85406686D01*
X97594366Y-85406697D01*
X97653258Y-85626488D01*
X97653261Y-85626497D01*
X97749431Y-85832732D01*
X97749432Y-85832734D01*
X97879954Y-86019141D01*
X98040858Y-86180045D01*
X98040861Y-86180047D01*
X98227266Y-86310568D01*
X98277589Y-86334034D01*
X98285275Y-86337618D01*
X98337714Y-86383791D01*
X98356866Y-86450984D01*
X98336650Y-86517865D01*
X98285275Y-86562382D01*
X98227267Y-86589431D01*
X98227265Y-86589432D01*
X98040858Y-86719954D01*
X97879954Y-86880858D01*
X97749432Y-87067265D01*
X97749431Y-87067267D01*
X97653261Y-87273502D01*
X97653258Y-87273511D01*
X97594366Y-87493302D01*
X97594364Y-87493313D01*
X97574532Y-87719998D01*
X97574532Y-87720001D01*
X97594364Y-87946686D01*
X97594366Y-87946697D01*
X97653258Y-88166488D01*
X97653261Y-88166497D01*
X97749431Y-88372732D01*
X97749432Y-88372734D01*
X97879954Y-88559141D01*
X98040858Y-88720045D01*
X98040861Y-88720047D01*
X98227266Y-88850568D01*
X98285865Y-88877893D01*
X98338305Y-88924065D01*
X98357457Y-88991258D01*
X98337242Y-89058139D01*
X98285867Y-89102657D01*
X98227515Y-89129867D01*
X98041179Y-89260342D01*
X97880342Y-89421179D01*
X97749865Y-89607517D01*
X97653734Y-89813673D01*
X97653730Y-89813682D01*
X97601127Y-90009999D01*
X97601128Y-90010000D01*
X98564314Y-90010000D01*
X98559920Y-90014394D01*
X98507259Y-90105606D01*
X98480000Y-90207339D01*
X98480000Y-90312661D01*
X98507259Y-90414394D01*
X98559920Y-90505606D01*
X98564314Y-90510000D01*
X97601128Y-90510000D01*
X97653730Y-90706317D01*
X97653734Y-90706326D01*
X97749865Y-90912482D01*
X97880342Y-91098820D01*
X98041179Y-91259657D01*
X98227518Y-91390134D01*
X98227520Y-91390135D01*
X98285865Y-91417342D01*
X98338305Y-91463514D01*
X98357457Y-91530707D01*
X98337242Y-91597589D01*
X98285867Y-91642105D01*
X98227268Y-91669431D01*
X98227264Y-91669433D01*
X98040858Y-91799954D01*
X97879954Y-91960858D01*
X97749432Y-92147265D01*
X97749431Y-92147267D01*
X97653261Y-92353502D01*
X97653258Y-92353511D01*
X97594366Y-92573302D01*
X97594364Y-92573313D01*
X97574532Y-92799998D01*
X97574532Y-92800001D01*
X97594364Y-93026686D01*
X97594366Y-93026697D01*
X97653258Y-93246488D01*
X97653261Y-93246497D01*
X97749431Y-93452732D01*
X97749432Y-93452734D01*
X97879954Y-93639141D01*
X98040858Y-93800045D01*
X98040861Y-93800047D01*
X98227266Y-93930568D01*
X98285275Y-93957618D01*
X98337714Y-94003791D01*
X98356866Y-94070984D01*
X98336650Y-94137865D01*
X98285275Y-94182382D01*
X98227267Y-94209431D01*
X98227265Y-94209432D01*
X98040858Y-94339954D01*
X97879954Y-94500858D01*
X97749432Y-94687265D01*
X97749431Y-94687267D01*
X97653261Y-94893502D01*
X97653258Y-94893511D01*
X97594366Y-95113302D01*
X97594364Y-95113313D01*
X97574532Y-95339998D01*
X97574532Y-95340001D01*
X97594364Y-95566686D01*
X97594366Y-95566697D01*
X97653258Y-95786488D01*
X97653261Y-95786497D01*
X97749431Y-95992732D01*
X97749432Y-95992734D01*
X97879954Y-96179141D01*
X98040858Y-96340045D01*
X98040861Y-96340047D01*
X98227266Y-96470568D01*
X98285275Y-96497618D01*
X98337714Y-96543791D01*
X98356866Y-96610984D01*
X98336650Y-96677865D01*
X98285275Y-96722381D01*
X98276045Y-96726686D01*
X98227267Y-96749431D01*
X98227265Y-96749432D01*
X98040858Y-96879954D01*
X97879954Y-97040858D01*
X97749432Y-97227265D01*
X97749431Y-97227267D01*
X97653261Y-97433502D01*
X97653258Y-97433511D01*
X97594366Y-97653302D01*
X97594364Y-97653313D01*
X97574532Y-97879998D01*
X97574532Y-97880001D01*
X97594364Y-98106686D01*
X97594366Y-98106697D01*
X97653258Y-98326488D01*
X97653261Y-98326497D01*
X97749431Y-98532732D01*
X97749432Y-98532734D01*
X97879954Y-98719141D01*
X98040858Y-98880045D01*
X98040861Y-98880047D01*
X98227266Y-99010568D01*
X98285275Y-99037618D01*
X98337714Y-99083791D01*
X98356866Y-99150984D01*
X98336650Y-99217865D01*
X98285275Y-99262382D01*
X98227267Y-99289431D01*
X98227265Y-99289432D01*
X98040858Y-99419954D01*
X97879954Y-99580858D01*
X97749432Y-99767265D01*
X97749431Y-99767267D01*
X97653261Y-99973502D01*
X97653258Y-99973511D01*
X97594366Y-100193302D01*
X97594364Y-100193313D01*
X97574532Y-100419998D01*
X97574532Y-100420001D01*
X97594364Y-100646686D01*
X97594366Y-100646697D01*
X97653258Y-100866488D01*
X97653261Y-100866497D01*
X97749431Y-101072732D01*
X97749432Y-101072734D01*
X97879954Y-101259141D01*
X98040858Y-101420045D01*
X98040861Y-101420047D01*
X98227266Y-101550568D01*
X98285275Y-101577618D01*
X98337714Y-101623791D01*
X98356866Y-101690984D01*
X98336650Y-101757865D01*
X98285275Y-101802382D01*
X98227267Y-101829431D01*
X98227265Y-101829432D01*
X98040858Y-101959954D01*
X97879954Y-102120858D01*
X97749432Y-102307265D01*
X97749431Y-102307267D01*
X97653261Y-102513502D01*
X97653258Y-102513511D01*
X97594366Y-102733302D01*
X97594364Y-102733313D01*
X97574532Y-102959998D01*
X97574532Y-102960001D01*
X97594364Y-103186686D01*
X97594366Y-103186697D01*
X97653258Y-103406488D01*
X97653261Y-103406497D01*
X97749431Y-103612732D01*
X97749432Y-103612734D01*
X97879954Y-103799141D01*
X98040858Y-103960045D01*
X98040861Y-103960047D01*
X98227266Y-104090568D01*
X98285275Y-104117618D01*
X98337714Y-104163791D01*
X98356866Y-104230984D01*
X98336650Y-104297865D01*
X98285275Y-104342382D01*
X98227267Y-104369431D01*
X98227265Y-104369432D01*
X98040858Y-104499954D01*
X97879954Y-104660858D01*
X97749432Y-104847265D01*
X97749431Y-104847267D01*
X97653261Y-105053502D01*
X97653258Y-105053511D01*
X97594366Y-105273302D01*
X97594364Y-105273313D01*
X97574532Y-105499998D01*
X97574532Y-105500001D01*
X97594364Y-105726686D01*
X97594366Y-105726697D01*
X97653258Y-105946488D01*
X97653261Y-105946497D01*
X97749431Y-106152732D01*
X97749432Y-106152734D01*
X97879954Y-106339141D01*
X98040858Y-106500045D01*
X98040861Y-106500047D01*
X98227266Y-106630568D01*
X98433504Y-106726739D01*
X98653308Y-106785635D01*
X98815230Y-106799801D01*
X98879998Y-106805468D01*
X98880000Y-106805468D01*
X98880002Y-106805468D01*
X98936673Y-106800509D01*
X99106692Y-106785635D01*
X99326496Y-106726739D01*
X99532734Y-106630568D01*
X99719139Y-106500047D01*
X99880047Y-106339139D01*
X100010568Y-106152734D01*
X100106739Y-105946496D01*
X100165635Y-105726692D01*
X100185468Y-105500000D01*
X100165635Y-105273308D01*
X100106739Y-105053504D01*
X100010568Y-104847266D01*
X99880047Y-104660861D01*
X99880045Y-104660858D01*
X99719141Y-104499954D01*
X99532734Y-104369432D01*
X99532728Y-104369429D01*
X99474725Y-104342382D01*
X99422285Y-104296210D01*
X99403133Y-104229017D01*
X99423348Y-104162135D01*
X99474725Y-104117618D01*
X99532734Y-104090568D01*
X99719139Y-103960047D01*
X99880047Y-103799139D01*
X100010568Y-103612734D01*
X100106739Y-103406496D01*
X100165635Y-103186692D01*
X100185468Y-102960000D01*
X100165635Y-102733308D01*
X100106739Y-102513504D01*
X100010568Y-102307266D01*
X99880047Y-102120861D01*
X99880045Y-102120858D01*
X99719141Y-101959954D01*
X99532734Y-101829432D01*
X99532728Y-101829429D01*
X99474725Y-101802382D01*
X99422285Y-101756210D01*
X99403133Y-101689017D01*
X99423348Y-101622135D01*
X99474725Y-101577618D01*
X99532734Y-101550568D01*
X99719139Y-101420047D01*
X99880047Y-101259139D01*
X100010568Y-101072734D01*
X100106739Y-100866496D01*
X100165635Y-100646692D01*
X100185468Y-100420000D01*
X100165635Y-100193308D01*
X100106739Y-99973504D01*
X100010568Y-99767266D01*
X99880047Y-99580861D01*
X99880045Y-99580858D01*
X99719141Y-99419954D01*
X99532734Y-99289432D01*
X99532728Y-99289429D01*
X99474725Y-99262382D01*
X99422285Y-99216210D01*
X99403133Y-99149017D01*
X99423348Y-99082135D01*
X99474725Y-99037618D01*
X99532734Y-99010568D01*
X99719139Y-98880047D01*
X99880047Y-98719139D01*
X100010568Y-98532734D01*
X100106739Y-98326496D01*
X100165635Y-98106692D01*
X100185468Y-97880000D01*
X100184581Y-97869867D01*
X100172059Y-97726739D01*
X100165635Y-97653308D01*
X100106739Y-97433504D01*
X100010568Y-97227266D01*
X99880047Y-97040861D01*
X99880045Y-97040858D01*
X99719141Y-96879954D01*
X99532734Y-96749432D01*
X99532728Y-96749429D01*
X99483955Y-96726686D01*
X99474724Y-96722381D01*
X99422285Y-96676210D01*
X99403133Y-96609017D01*
X99423348Y-96542135D01*
X99474725Y-96497618D01*
X99532734Y-96470568D01*
X99719139Y-96340047D01*
X99880047Y-96179139D01*
X100010568Y-95992734D01*
X100106739Y-95786496D01*
X100165635Y-95566692D01*
X100185468Y-95340000D01*
X100165635Y-95113308D01*
X100106739Y-94893504D01*
X100010568Y-94687266D01*
X99880047Y-94500861D01*
X99880045Y-94500858D01*
X99719141Y-94339954D01*
X99532734Y-94209432D01*
X99532728Y-94209429D01*
X99474725Y-94182382D01*
X99422285Y-94136210D01*
X99403133Y-94069017D01*
X99423348Y-94002135D01*
X99474725Y-93957618D01*
X99532734Y-93930568D01*
X99719139Y-93800047D01*
X99880047Y-93639139D01*
X100010568Y-93452734D01*
X100106739Y-93246496D01*
X100165635Y-93026692D01*
X100185468Y-92800000D01*
X100181097Y-92750045D01*
X100165635Y-92573313D01*
X100165635Y-92573308D01*
X100106892Y-92354076D01*
X100106741Y-92353511D01*
X100106738Y-92353502D01*
X100083423Y-92303504D01*
X100010568Y-92147266D01*
X99880047Y-91960861D01*
X99880045Y-91960858D01*
X99719141Y-91799954D01*
X99532734Y-91669432D01*
X99532732Y-91669431D01*
X99474725Y-91642382D01*
X99474132Y-91642105D01*
X99421694Y-91595934D01*
X99402542Y-91528740D01*
X99422758Y-91461859D01*
X99474134Y-91417341D01*
X99532484Y-91390132D01*
X99718820Y-91259657D01*
X99879657Y-91098820D01*
X100010134Y-90912482D01*
X100106265Y-90706326D01*
X100106269Y-90706317D01*
X100158872Y-90510000D01*
X99195686Y-90510000D01*
X99200080Y-90505606D01*
X99252741Y-90414394D01*
X99280000Y-90312661D01*
X99280000Y-90207339D01*
X99252741Y-90105606D01*
X99200080Y-90014394D01*
X99195686Y-90010000D01*
X100158872Y-90010000D01*
X100158872Y-90009999D01*
X100106269Y-89813682D01*
X100106265Y-89813673D01*
X100010134Y-89607517D01*
X99879657Y-89421179D01*
X99718820Y-89260342D01*
X99532482Y-89129865D01*
X99474133Y-89102657D01*
X99421694Y-89056484D01*
X99402542Y-88989291D01*
X99422758Y-88922410D01*
X99474129Y-88877895D01*
X99532734Y-88850568D01*
X99719139Y-88720047D01*
X99880047Y-88559139D01*
X100010568Y-88372734D01*
X100106739Y-88166496D01*
X100165635Y-87946692D01*
X100185468Y-87720000D01*
X100183485Y-87697339D01*
X100171960Y-87565606D01*
X100165635Y-87493308D01*
X100106739Y-87273504D01*
X100010568Y-87067266D01*
X99880047Y-86880861D01*
X99880045Y-86880858D01*
X99719141Y-86719954D01*
X99532734Y-86589432D01*
X99532728Y-86589429D01*
X99474725Y-86562382D01*
X99422285Y-86516210D01*
X99403133Y-86449017D01*
X99423348Y-86382135D01*
X99474725Y-86337618D01*
X99482411Y-86334034D01*
X99532734Y-86310568D01*
X99719139Y-86180047D01*
X99880047Y-86019139D01*
X100010568Y-85832734D01*
X100106739Y-85626496D01*
X100165635Y-85406692D01*
X100185468Y-85180000D01*
X100184797Y-85172335D01*
X100165635Y-84953313D01*
X100165635Y-84953308D01*
X100111147Y-84749954D01*
X100106741Y-84733511D01*
X100106738Y-84733502D01*
X100089411Y-84696344D01*
X100010568Y-84527266D01*
X99880047Y-84340861D01*
X99880045Y-84340858D01*
X99719141Y-84179954D01*
X99532734Y-84049432D01*
X99532728Y-84049429D01*
X99474725Y-84022382D01*
X99422285Y-83976210D01*
X99403133Y-83909017D01*
X99423348Y-83842135D01*
X99474725Y-83797618D01*
X99482409Y-83794035D01*
X99532734Y-83770568D01*
X99719139Y-83640047D01*
X99880047Y-83479139D01*
X100010568Y-83292734D01*
X100106739Y-83086496D01*
X100165635Y-82866692D01*
X100185468Y-82640000D01*
X100165635Y-82413308D01*
X100106739Y-82193504D01*
X100010568Y-81987266D01*
X99880047Y-81800861D01*
X99880045Y-81800858D01*
X99719141Y-81639954D01*
X99532734Y-81509432D01*
X99532728Y-81509429D01*
X99474725Y-81482382D01*
X99422285Y-81436210D01*
X99403133Y-81369017D01*
X99423348Y-81302135D01*
X99474725Y-81257618D01*
X99482409Y-81254035D01*
X99532734Y-81230568D01*
X99719139Y-81100047D01*
X99880047Y-80939139D01*
X100010568Y-80752734D01*
X100106739Y-80546496D01*
X100165635Y-80326692D01*
X100185468Y-80100000D01*
X100165635Y-79873308D01*
X100106739Y-79653504D01*
X100010568Y-79447266D01*
X99880047Y-79260861D01*
X99880045Y-79260858D01*
X99719141Y-79099954D01*
X99532734Y-78969432D01*
X99532728Y-78969429D01*
X99474725Y-78942382D01*
X99422285Y-78896210D01*
X99403133Y-78829017D01*
X99423348Y-78762135D01*
X99474725Y-78717618D01*
X99482409Y-78714035D01*
X99532734Y-78690568D01*
X99719139Y-78560047D01*
X99880047Y-78399139D01*
X100010568Y-78212734D01*
X100106739Y-78006496D01*
X100165635Y-77786692D01*
X100185468Y-77560000D01*
X100165635Y-77333308D01*
X100106739Y-77113504D01*
X100010568Y-76907266D01*
X99880047Y-76720861D01*
X99880045Y-76720858D01*
X99719141Y-76559954D01*
X99532734Y-76429432D01*
X99532728Y-76429429D01*
X99474725Y-76402382D01*
X99422285Y-76356210D01*
X99403133Y-76289017D01*
X99423348Y-76222135D01*
X99474725Y-76177618D01*
X99482409Y-76174035D01*
X99532734Y-76150568D01*
X99719139Y-76020047D01*
X99880047Y-75859139D01*
X100010568Y-75672734D01*
X100106739Y-75466496D01*
X100165635Y-75246692D01*
X100185468Y-75020000D01*
X100165635Y-74793308D01*
X100106739Y-74573504D01*
X100010568Y-74367266D01*
X99880047Y-74180861D01*
X99880045Y-74180858D01*
X99719143Y-74019956D01*
X99694536Y-74002726D01*
X99650912Y-73948149D01*
X99643719Y-73878650D01*
X99675241Y-73816296D01*
X99735471Y-73780882D01*
X99752404Y-73777861D01*
X99787483Y-73774091D01*
X99922331Y-73723796D01*
X100037546Y-73637546D01*
X100123796Y-73522331D01*
X100174091Y-73387483D01*
X100180500Y-73327873D01*
X100180499Y-72479998D01*
X105194532Y-72479998D01*
X105194532Y-72480001D01*
X105214364Y-72706686D01*
X105214366Y-72706697D01*
X105273258Y-72926488D01*
X105273261Y-72926497D01*
X105369431Y-73132732D01*
X105369432Y-73132734D01*
X105499954Y-73319141D01*
X105660858Y-73480045D01*
X105660861Y-73480047D01*
X105847266Y-73610568D01*
X105905275Y-73637618D01*
X105957714Y-73683791D01*
X105976866Y-73750984D01*
X105956650Y-73817865D01*
X105905275Y-73862382D01*
X105847267Y-73889431D01*
X105847265Y-73889432D01*
X105660858Y-74019954D01*
X105499954Y-74180858D01*
X105369432Y-74367265D01*
X105369431Y-74367267D01*
X105273261Y-74573502D01*
X105273258Y-74573511D01*
X105214366Y-74793302D01*
X105214364Y-74793313D01*
X105194532Y-75019998D01*
X105194532Y-75020001D01*
X105214364Y-75246686D01*
X105214366Y-75246697D01*
X105273258Y-75466488D01*
X105273261Y-75466497D01*
X105369431Y-75672732D01*
X105369432Y-75672734D01*
X105499954Y-75859141D01*
X105660858Y-76020045D01*
X105660861Y-76020047D01*
X105847266Y-76150568D01*
X105897591Y-76174035D01*
X105905275Y-76177618D01*
X105957714Y-76223791D01*
X105976866Y-76290984D01*
X105956650Y-76357865D01*
X105905275Y-76402382D01*
X105847267Y-76429431D01*
X105847265Y-76429432D01*
X105660858Y-76559954D01*
X105499954Y-76720858D01*
X105369432Y-76907265D01*
X105369431Y-76907267D01*
X105273261Y-77113502D01*
X105273258Y-77113511D01*
X105214366Y-77333302D01*
X105214364Y-77333313D01*
X105194532Y-77559998D01*
X105194532Y-77560001D01*
X105214364Y-77786686D01*
X105214366Y-77786697D01*
X105273258Y-78006488D01*
X105273261Y-78006497D01*
X105369431Y-78212732D01*
X105369432Y-78212734D01*
X105499954Y-78399141D01*
X105660858Y-78560045D01*
X105660861Y-78560047D01*
X105847266Y-78690568D01*
X105897591Y-78714035D01*
X105905275Y-78717618D01*
X105957714Y-78763791D01*
X105976866Y-78830984D01*
X105956650Y-78897865D01*
X105905275Y-78942382D01*
X105847267Y-78969431D01*
X105847265Y-78969432D01*
X105660858Y-79099954D01*
X105499954Y-79260858D01*
X105369432Y-79447265D01*
X105369431Y-79447267D01*
X105273261Y-79653502D01*
X105273258Y-79653511D01*
X105214366Y-79873302D01*
X105214364Y-79873313D01*
X105194532Y-80099998D01*
X105194532Y-80100001D01*
X105214364Y-80326686D01*
X105214366Y-80326697D01*
X105273258Y-80546488D01*
X105273261Y-80546497D01*
X105369431Y-80752732D01*
X105369432Y-80752734D01*
X105499954Y-80939141D01*
X105660858Y-81100045D01*
X105660861Y-81100047D01*
X105847266Y-81230568D01*
X105897591Y-81254035D01*
X105905275Y-81257618D01*
X105957714Y-81303791D01*
X105976866Y-81370984D01*
X105956650Y-81437865D01*
X105905275Y-81482382D01*
X105847267Y-81509431D01*
X105847265Y-81509432D01*
X105660858Y-81639954D01*
X105499954Y-81800858D01*
X105369432Y-81987265D01*
X105369431Y-81987267D01*
X105273261Y-82193502D01*
X105273258Y-82193511D01*
X105214366Y-82413302D01*
X105214364Y-82413313D01*
X105194532Y-82639998D01*
X105194532Y-82640001D01*
X105214364Y-82866686D01*
X105214366Y-82866697D01*
X105273258Y-83086488D01*
X105273261Y-83086497D01*
X105369431Y-83292732D01*
X105369432Y-83292734D01*
X105499954Y-83479141D01*
X105660858Y-83640045D01*
X105660861Y-83640047D01*
X105847266Y-83770568D01*
X105897591Y-83794035D01*
X105905275Y-83797618D01*
X105957714Y-83843791D01*
X105976866Y-83910984D01*
X105956650Y-83977865D01*
X105905275Y-84022382D01*
X105847267Y-84049431D01*
X105847265Y-84049432D01*
X105660858Y-84179954D01*
X105499954Y-84340858D01*
X105369432Y-84527265D01*
X105369431Y-84527267D01*
X105273261Y-84733502D01*
X105273258Y-84733511D01*
X105214366Y-84953302D01*
X105214364Y-84953313D01*
X105194532Y-85179998D01*
X105194532Y-85180001D01*
X105214364Y-85406686D01*
X105214366Y-85406697D01*
X105273258Y-85626488D01*
X105273261Y-85626497D01*
X105369431Y-85832732D01*
X105369432Y-85832734D01*
X105499954Y-86019141D01*
X105660858Y-86180045D01*
X105660861Y-86180047D01*
X105847266Y-86310568D01*
X105905865Y-86337893D01*
X105958305Y-86384065D01*
X105977457Y-86451258D01*
X105957242Y-86518139D01*
X105905867Y-86562657D01*
X105847515Y-86589867D01*
X105661179Y-86720342D01*
X105500342Y-86881179D01*
X105369865Y-87067517D01*
X105273734Y-87273673D01*
X105273730Y-87273682D01*
X105221127Y-87469999D01*
X105221128Y-87470000D01*
X106184314Y-87470000D01*
X106179920Y-87474394D01*
X106127259Y-87565606D01*
X106100000Y-87667339D01*
X106100000Y-87772661D01*
X106127259Y-87874394D01*
X106179920Y-87965606D01*
X106184314Y-87970000D01*
X105221128Y-87970000D01*
X105273730Y-88166317D01*
X105273734Y-88166326D01*
X105369865Y-88372482D01*
X105500342Y-88558820D01*
X105661179Y-88719657D01*
X105847518Y-88850134D01*
X105847520Y-88850135D01*
X105905865Y-88877342D01*
X105958305Y-88923514D01*
X105977457Y-88990707D01*
X105957242Y-89057589D01*
X105905867Y-89102105D01*
X105904685Y-89102657D01*
X105847264Y-89129433D01*
X105660858Y-89259954D01*
X105499954Y-89420858D01*
X105369432Y-89607265D01*
X105369431Y-89607267D01*
X105273261Y-89813502D01*
X105273258Y-89813511D01*
X105214366Y-90033302D01*
X105214364Y-90033313D01*
X105194532Y-90259998D01*
X105194532Y-90260001D01*
X105214364Y-90486686D01*
X105214366Y-90486697D01*
X105273258Y-90706488D01*
X105273261Y-90706497D01*
X105369431Y-90912732D01*
X105369432Y-90912734D01*
X105499954Y-91099141D01*
X105660858Y-91260045D01*
X105660861Y-91260047D01*
X105847266Y-91390568D01*
X105904681Y-91417341D01*
X105905275Y-91417618D01*
X105957714Y-91463791D01*
X105976866Y-91530984D01*
X105956650Y-91597865D01*
X105905275Y-91642382D01*
X105847267Y-91669431D01*
X105847265Y-91669432D01*
X105660858Y-91799954D01*
X105499954Y-91960858D01*
X105369432Y-92147265D01*
X105369431Y-92147267D01*
X105273261Y-92353502D01*
X105273258Y-92353511D01*
X105214366Y-92573302D01*
X105214364Y-92573313D01*
X105194532Y-92799998D01*
X105194532Y-92800001D01*
X105214364Y-93026686D01*
X105214366Y-93026697D01*
X105273258Y-93246488D01*
X105273261Y-93246497D01*
X105369431Y-93452732D01*
X105369432Y-93452734D01*
X105499954Y-93639141D01*
X105660858Y-93800045D01*
X105660861Y-93800047D01*
X105847266Y-93930568D01*
X105905275Y-93957618D01*
X105957714Y-94003791D01*
X105976866Y-94070984D01*
X105956650Y-94137865D01*
X105905275Y-94182382D01*
X105847267Y-94209431D01*
X105847265Y-94209432D01*
X105660858Y-94339954D01*
X105499954Y-94500858D01*
X105369432Y-94687265D01*
X105369431Y-94687267D01*
X105273261Y-94893502D01*
X105273258Y-94893511D01*
X105214366Y-95113302D01*
X105214364Y-95113313D01*
X105194532Y-95339998D01*
X105194532Y-95340001D01*
X105214364Y-95566686D01*
X105214366Y-95566697D01*
X105273258Y-95786488D01*
X105273261Y-95786497D01*
X105369431Y-95992732D01*
X105369432Y-95992734D01*
X105499954Y-96179141D01*
X105660858Y-96340045D01*
X105660861Y-96340047D01*
X105847266Y-96470568D01*
X105905275Y-96497618D01*
X105957714Y-96543791D01*
X105976866Y-96610984D01*
X105956650Y-96677865D01*
X105905275Y-96722381D01*
X105896045Y-96726686D01*
X105847267Y-96749431D01*
X105847265Y-96749432D01*
X105660858Y-96879954D01*
X105499954Y-97040858D01*
X105369432Y-97227265D01*
X105369431Y-97227267D01*
X105273261Y-97433502D01*
X105273258Y-97433511D01*
X105214366Y-97653302D01*
X105214364Y-97653313D01*
X105194532Y-97879998D01*
X105194532Y-97880001D01*
X105214364Y-98106686D01*
X105214366Y-98106697D01*
X105273258Y-98326488D01*
X105273261Y-98326497D01*
X105369431Y-98532732D01*
X105369432Y-98532734D01*
X105499954Y-98719141D01*
X105660858Y-98880045D01*
X105660861Y-98880047D01*
X105847266Y-99010568D01*
X105905275Y-99037618D01*
X105957714Y-99083791D01*
X105976866Y-99150984D01*
X105956650Y-99217865D01*
X105905275Y-99262382D01*
X105847267Y-99289431D01*
X105847265Y-99289432D01*
X105660858Y-99419954D01*
X105499954Y-99580858D01*
X105369432Y-99767265D01*
X105369431Y-99767267D01*
X105273261Y-99973502D01*
X105273258Y-99973511D01*
X105214366Y-100193302D01*
X105214364Y-100193313D01*
X105194532Y-100419998D01*
X105194532Y-100420001D01*
X105214364Y-100646686D01*
X105214366Y-100646697D01*
X105273258Y-100866488D01*
X105273261Y-100866497D01*
X105369431Y-101072732D01*
X105369432Y-101072734D01*
X105499954Y-101259141D01*
X105660858Y-101420045D01*
X105660861Y-101420047D01*
X105847266Y-101550568D01*
X105905275Y-101577618D01*
X105957714Y-101623791D01*
X105976866Y-101690984D01*
X105956650Y-101757865D01*
X105905275Y-101802382D01*
X105847267Y-101829431D01*
X105847265Y-101829432D01*
X105660858Y-101959954D01*
X105499954Y-102120858D01*
X105369432Y-102307265D01*
X105369431Y-102307267D01*
X105273261Y-102513502D01*
X105273258Y-102513511D01*
X105214366Y-102733302D01*
X105214364Y-102733313D01*
X105194532Y-102959998D01*
X105194532Y-102960001D01*
X105214364Y-103186686D01*
X105214366Y-103186697D01*
X105273258Y-103406488D01*
X105273261Y-103406497D01*
X105369431Y-103612732D01*
X105369432Y-103612734D01*
X105499954Y-103799141D01*
X105660858Y-103960045D01*
X105660861Y-103960047D01*
X105847266Y-104090568D01*
X105905275Y-104117618D01*
X105957714Y-104163791D01*
X105976866Y-104230984D01*
X105956650Y-104297865D01*
X105905275Y-104342382D01*
X105847267Y-104369431D01*
X105847265Y-104369432D01*
X105660858Y-104499954D01*
X105499954Y-104660858D01*
X105369432Y-104847265D01*
X105369431Y-104847267D01*
X105273261Y-105053502D01*
X105273258Y-105053511D01*
X105214366Y-105273302D01*
X105214364Y-105273313D01*
X105194532Y-105499998D01*
X105194532Y-105500001D01*
X105214364Y-105726686D01*
X105214366Y-105726697D01*
X105273258Y-105946488D01*
X105273261Y-105946497D01*
X105369431Y-106152732D01*
X105369432Y-106152734D01*
X105499954Y-106339141D01*
X105660858Y-106500045D01*
X105660861Y-106500047D01*
X105847266Y-106630568D01*
X106053504Y-106726739D01*
X106273308Y-106785635D01*
X106435230Y-106799801D01*
X106499998Y-106805468D01*
X106500000Y-106805468D01*
X106500002Y-106805468D01*
X106556673Y-106800509D01*
X106726692Y-106785635D01*
X106946496Y-106726739D01*
X107152734Y-106630568D01*
X107339139Y-106500047D01*
X107500047Y-106339139D01*
X107630568Y-106152734D01*
X107726739Y-105946496D01*
X107785635Y-105726692D01*
X107805468Y-105500000D01*
X107785635Y-105273308D01*
X107726739Y-105053504D01*
X107630568Y-104847266D01*
X107500047Y-104660861D01*
X107500045Y-104660858D01*
X107339141Y-104499954D01*
X107152734Y-104369432D01*
X107152728Y-104369429D01*
X107094725Y-104342382D01*
X107042285Y-104296210D01*
X107023133Y-104229017D01*
X107043348Y-104162135D01*
X107094725Y-104117618D01*
X107152734Y-104090568D01*
X107339139Y-103960047D01*
X107500047Y-103799139D01*
X107630568Y-103612734D01*
X107726739Y-103406496D01*
X107785635Y-103186692D01*
X107805468Y-102960000D01*
X107785635Y-102733308D01*
X107726739Y-102513504D01*
X107630568Y-102307266D01*
X107500047Y-102120861D01*
X107500045Y-102120858D01*
X107339141Y-101959954D01*
X107152734Y-101829432D01*
X107152728Y-101829429D01*
X107094725Y-101802382D01*
X107042285Y-101756210D01*
X107023133Y-101689017D01*
X107043348Y-101622135D01*
X107094725Y-101577618D01*
X107152734Y-101550568D01*
X107339139Y-101420047D01*
X107500047Y-101259139D01*
X107630568Y-101072734D01*
X107726739Y-100866496D01*
X107785635Y-100646692D01*
X107805468Y-100420000D01*
X107785635Y-100193308D01*
X107726739Y-99973504D01*
X107630568Y-99767266D01*
X107500047Y-99580861D01*
X107500045Y-99580858D01*
X107339141Y-99419954D01*
X107152734Y-99289432D01*
X107152728Y-99289429D01*
X107094725Y-99262382D01*
X107042285Y-99216210D01*
X107023133Y-99149017D01*
X107043348Y-99082135D01*
X107094725Y-99037618D01*
X107152734Y-99010568D01*
X107339139Y-98880047D01*
X107500047Y-98719139D01*
X107630568Y-98532734D01*
X107726739Y-98326496D01*
X107785635Y-98106692D01*
X107805468Y-97880000D01*
X107805468Y-97879999D01*
X117894341Y-97879999D01*
X117894341Y-97880000D01*
X117914936Y-98115403D01*
X117914938Y-98115413D01*
X117976094Y-98343655D01*
X117976096Y-98343659D01*
X117976097Y-98343663D01*
X118064262Y-98532732D01*
X118075965Y-98557830D01*
X118075967Y-98557834D01*
X118211501Y-98751395D01*
X118211506Y-98751402D01*
X118378597Y-98918493D01*
X118378603Y-98918498D01*
X118564158Y-99048425D01*
X118607783Y-99103002D01*
X118614977Y-99172500D01*
X118583454Y-99234855D01*
X118564158Y-99251575D01*
X118378597Y-99381505D01*
X118211505Y-99548597D01*
X118075965Y-99742169D01*
X118075964Y-99742171D01*
X117976098Y-99956335D01*
X117976094Y-99956344D01*
X117914938Y-100184586D01*
X117914936Y-100184596D01*
X117894341Y-100419999D01*
X117894341Y-100420000D01*
X117914936Y-100655403D01*
X117914938Y-100655413D01*
X117976094Y-100883655D01*
X117976096Y-100883659D01*
X117976097Y-100883663D01*
X118000548Y-100936098D01*
X118075965Y-101097830D01*
X118075967Y-101097834D01*
X118211501Y-101291395D01*
X118211506Y-101291402D01*
X118378597Y-101458493D01*
X118378603Y-101458498D01*
X118564158Y-101588425D01*
X118607783Y-101643002D01*
X118614977Y-101712500D01*
X118583454Y-101774855D01*
X118564158Y-101791575D01*
X118378597Y-101921505D01*
X118211505Y-102088597D01*
X118075965Y-102282169D01*
X118075964Y-102282171D01*
X117976098Y-102496335D01*
X117976094Y-102496344D01*
X117914938Y-102724586D01*
X117914936Y-102724596D01*
X117894341Y-102959999D01*
X117894341Y-102960000D01*
X117914936Y-103195403D01*
X117914938Y-103195413D01*
X117976094Y-103423655D01*
X117976096Y-103423659D01*
X117976097Y-103423663D01*
X118024283Y-103526998D01*
X118075965Y-103637830D01*
X118075967Y-103637834D01*
X118211501Y-103831395D01*
X118211506Y-103831402D01*
X118378597Y-103998493D01*
X118378603Y-103998498D01*
X118564158Y-104128425D01*
X118607783Y-104183002D01*
X118614977Y-104252500D01*
X118583454Y-104314855D01*
X118564158Y-104331575D01*
X118378597Y-104461505D01*
X118211505Y-104628597D01*
X118075965Y-104822169D01*
X118075964Y-104822171D01*
X117976098Y-105036335D01*
X117976094Y-105036344D01*
X117914938Y-105264586D01*
X117914936Y-105264596D01*
X117894341Y-105499999D01*
X117894341Y-105500000D01*
X117914936Y-105735403D01*
X117914938Y-105735413D01*
X117976094Y-105963655D01*
X117976096Y-105963659D01*
X117976097Y-105963663D01*
X118024283Y-106066998D01*
X118075965Y-106177830D01*
X118075967Y-106177834D01*
X118184281Y-106332521D01*
X118211505Y-106371401D01*
X118378599Y-106538495D01*
X118475384Y-106606265D01*
X118572165Y-106674032D01*
X118572167Y-106674033D01*
X118572170Y-106674035D01*
X118786337Y-106773903D01*
X119014592Y-106835063D01*
X119202918Y-106851539D01*
X119249999Y-106855659D01*
X119250000Y-106855659D01*
X119250001Y-106855659D01*
X119289234Y-106852226D01*
X119485408Y-106835063D01*
X119713663Y-106773903D01*
X119927830Y-106674035D01*
X120121401Y-106538495D01*
X120288495Y-106371401D01*
X120424035Y-106177830D01*
X120523903Y-105963663D01*
X120585063Y-105735408D01*
X120605659Y-105500000D01*
X120585063Y-105264592D01*
X120523903Y-105036337D01*
X120424035Y-104822171D01*
X120288495Y-104628599D01*
X120288494Y-104628597D01*
X120121402Y-104461506D01*
X120121396Y-104461501D01*
X119935842Y-104331575D01*
X119892217Y-104276998D01*
X119885023Y-104207500D01*
X119916546Y-104145145D01*
X119935842Y-104128425D01*
X120016181Y-104072171D01*
X120121401Y-103998495D01*
X120288495Y-103831401D01*
X120424035Y-103637830D01*
X120523903Y-103423663D01*
X120585063Y-103195408D01*
X120605659Y-102960000D01*
X120585063Y-102724592D01*
X120523903Y-102496337D01*
X120424035Y-102282171D01*
X120288495Y-102088599D01*
X120288494Y-102088597D01*
X120121402Y-101921506D01*
X120121396Y-101921501D01*
X119935842Y-101791575D01*
X119892217Y-101736998D01*
X119885023Y-101667500D01*
X119916546Y-101605145D01*
X119935842Y-101588425D01*
X120016181Y-101532171D01*
X120121401Y-101458495D01*
X120288495Y-101291401D01*
X120424035Y-101097830D01*
X120523903Y-100883663D01*
X120585063Y-100655408D01*
X120605659Y-100420000D01*
X120585063Y-100184592D01*
X120523903Y-99956337D01*
X120424035Y-99742171D01*
X120412343Y-99725472D01*
X120288494Y-99548597D01*
X120121402Y-99381506D01*
X120121396Y-99381501D01*
X119935842Y-99251575D01*
X119892217Y-99196998D01*
X119885023Y-99127500D01*
X119916546Y-99065145D01*
X119935842Y-99048425D01*
X120005004Y-98999997D01*
X120121401Y-98918495D01*
X120288495Y-98751401D01*
X120424035Y-98557830D01*
X120523903Y-98343663D01*
X120585063Y-98115408D01*
X120605659Y-97880000D01*
X120604772Y-97869867D01*
X120588467Y-97683500D01*
X120585063Y-97644592D01*
X120523903Y-97416337D01*
X120424035Y-97202171D01*
X120288495Y-97008599D01*
X120166567Y-96886671D01*
X120133084Y-96825351D01*
X120138068Y-96755659D01*
X120179939Y-96699725D01*
X120210915Y-96682810D01*
X120342331Y-96633796D01*
X120457546Y-96547546D01*
X120543796Y-96432331D01*
X120594091Y-96297483D01*
X120600500Y-96237873D01*
X120600499Y-94442128D01*
X120594091Y-94382517D01*
X120543796Y-94247669D01*
X120543795Y-94247668D01*
X120543793Y-94247664D01*
X120457547Y-94132455D01*
X120457544Y-94132452D01*
X120342335Y-94046206D01*
X120342328Y-94046202D01*
X120207482Y-93995908D01*
X120207483Y-93995908D01*
X120147883Y-93989501D01*
X120147881Y-93989500D01*
X120147873Y-93989500D01*
X120147864Y-93989500D01*
X118352129Y-93989500D01*
X118352123Y-93989501D01*
X118292516Y-93995908D01*
X118157671Y-94046202D01*
X118157664Y-94046206D01*
X118042455Y-94132452D01*
X118042452Y-94132455D01*
X117956206Y-94247664D01*
X117956202Y-94247671D01*
X117905908Y-94382517D01*
X117899501Y-94442116D01*
X117899501Y-94442123D01*
X117899500Y-94442135D01*
X117899500Y-96237870D01*
X117899501Y-96237876D01*
X117905908Y-96297483D01*
X117956202Y-96432328D01*
X117956206Y-96432335D01*
X118042452Y-96547544D01*
X118042455Y-96547547D01*
X118157664Y-96633793D01*
X118157671Y-96633797D01*
X118289081Y-96682810D01*
X118345015Y-96724681D01*
X118369432Y-96790145D01*
X118354580Y-96858418D01*
X118333430Y-96886673D01*
X118211503Y-97008600D01*
X118075965Y-97202169D01*
X118075964Y-97202171D01*
X117976098Y-97416335D01*
X117976094Y-97416344D01*
X117914938Y-97644586D01*
X117914936Y-97644596D01*
X117894341Y-97879999D01*
X107805468Y-97879999D01*
X107804581Y-97869867D01*
X107792059Y-97726739D01*
X107785635Y-97653308D01*
X107726739Y-97433504D01*
X107630568Y-97227266D01*
X107500047Y-97040861D01*
X107500045Y-97040858D01*
X107339141Y-96879954D01*
X107152734Y-96749432D01*
X107152728Y-96749429D01*
X107103955Y-96726686D01*
X107094724Y-96722381D01*
X107042285Y-96676210D01*
X107023133Y-96609017D01*
X107043348Y-96542135D01*
X107094725Y-96497618D01*
X107152734Y-96470568D01*
X107339139Y-96340047D01*
X107500047Y-96179139D01*
X107630568Y-95992734D01*
X107726739Y-95786496D01*
X107785635Y-95566692D01*
X107805468Y-95340000D01*
X107785635Y-95113308D01*
X107726739Y-94893504D01*
X107630568Y-94687266D01*
X107500047Y-94500861D01*
X107500045Y-94500858D01*
X107339141Y-94339954D01*
X107152734Y-94209432D01*
X107152728Y-94209429D01*
X107094725Y-94182382D01*
X107042285Y-94136210D01*
X107023133Y-94069017D01*
X107043348Y-94002135D01*
X107094725Y-93957618D01*
X107152734Y-93930568D01*
X107339139Y-93800047D01*
X107500047Y-93639139D01*
X107630568Y-93452734D01*
X107726739Y-93246496D01*
X107785635Y-93026692D01*
X107805468Y-92800000D01*
X107801097Y-92750045D01*
X107801093Y-92749998D01*
X109194532Y-92749998D01*
X109194532Y-92750001D01*
X109214364Y-92976686D01*
X109214366Y-92976697D01*
X109273258Y-93196488D01*
X109273261Y-93196497D01*
X109369431Y-93402732D01*
X109369432Y-93402734D01*
X109499954Y-93589141D01*
X109660858Y-93750045D01*
X109660861Y-93750047D01*
X109847266Y-93880568D01*
X110053504Y-93976739D01*
X110273308Y-94035635D01*
X110435230Y-94049801D01*
X110499998Y-94055468D01*
X110500000Y-94055468D01*
X110500002Y-94055468D01*
X110556673Y-94050509D01*
X110726692Y-94035635D01*
X110946496Y-93976739D01*
X111152734Y-93880568D01*
X111339139Y-93750047D01*
X111500047Y-93589139D01*
X111630568Y-93402734D01*
X111726739Y-93196496D01*
X111785635Y-92976692D01*
X111805468Y-92750000D01*
X111805467Y-92749993D01*
X111797922Y-92663744D01*
X111785635Y-92523308D01*
X111726739Y-92303504D01*
X111630568Y-92097266D01*
X111500047Y-91910861D01*
X111500045Y-91910858D01*
X111339141Y-91749954D01*
X111152734Y-91619432D01*
X111152732Y-91619431D01*
X110946497Y-91523261D01*
X110946488Y-91523258D01*
X110726697Y-91464366D01*
X110726693Y-91464365D01*
X110726692Y-91464365D01*
X110726691Y-91464364D01*
X110726686Y-91464364D01*
X110500002Y-91444532D01*
X110499998Y-91444532D01*
X110273313Y-91464364D01*
X110273302Y-91464366D01*
X110053511Y-91523258D01*
X110053502Y-91523261D01*
X109847267Y-91619431D01*
X109847265Y-91619432D01*
X109660858Y-91749954D01*
X109499954Y-91910858D01*
X109369432Y-92097265D01*
X109369431Y-92097267D01*
X109273261Y-92303502D01*
X109273258Y-92303511D01*
X109214366Y-92523302D01*
X109214364Y-92523313D01*
X109194532Y-92749998D01*
X107801093Y-92749998D01*
X107785635Y-92573313D01*
X107785635Y-92573308D01*
X107726892Y-92354076D01*
X107726741Y-92353511D01*
X107726738Y-92353502D01*
X107703423Y-92303504D01*
X107630568Y-92147266D01*
X107500047Y-91960861D01*
X107500045Y-91960858D01*
X107339141Y-91799954D01*
X107152734Y-91669432D01*
X107152728Y-91669429D01*
X107094725Y-91642382D01*
X107042285Y-91596210D01*
X107023133Y-91529017D01*
X107043348Y-91462135D01*
X107094725Y-91417618D01*
X107095319Y-91417341D01*
X107152734Y-91390568D01*
X107339139Y-91260047D01*
X107500047Y-91099139D01*
X107630568Y-90912734D01*
X107726739Y-90706496D01*
X107785635Y-90486692D01*
X107805468Y-90260000D01*
X107785635Y-90033308D01*
X107726739Y-89813504D01*
X107630568Y-89607266D01*
X107500047Y-89420861D01*
X107500045Y-89420858D01*
X107339141Y-89259954D01*
X107152734Y-89129432D01*
X107152732Y-89129431D01*
X107095315Y-89102657D01*
X107094132Y-89102105D01*
X107041694Y-89055934D01*
X107022542Y-88988740D01*
X107042758Y-88921859D01*
X107094134Y-88877341D01*
X107152484Y-88850132D01*
X107338820Y-88719657D01*
X107499657Y-88558820D01*
X107630134Y-88372482D01*
X107726265Y-88166326D01*
X107726269Y-88166317D01*
X107778872Y-87970000D01*
X106815686Y-87970000D01*
X106820080Y-87965606D01*
X106872741Y-87874394D01*
X106900000Y-87772661D01*
X106900000Y-87749997D01*
X109195034Y-87749997D01*
X109195034Y-87750002D01*
X109214858Y-87976599D01*
X109214860Y-87976610D01*
X109273730Y-88196317D01*
X109273735Y-88196331D01*
X109369863Y-88402478D01*
X109420974Y-88475472D01*
X110100000Y-87796446D01*
X110100000Y-87802661D01*
X110127259Y-87904394D01*
X110179920Y-87995606D01*
X110254394Y-88070080D01*
X110345606Y-88122741D01*
X110447339Y-88150000D01*
X110453553Y-88150000D01*
X109774526Y-88829025D01*
X109847513Y-88880132D01*
X109847521Y-88880136D01*
X110053668Y-88976264D01*
X110053682Y-88976269D01*
X110273389Y-89035139D01*
X110273400Y-89035141D01*
X110499998Y-89054966D01*
X110500002Y-89054966D01*
X110726599Y-89035141D01*
X110726610Y-89035139D01*
X110946317Y-88976269D01*
X110946331Y-88976264D01*
X111152478Y-88880136D01*
X111225471Y-88829024D01*
X110546447Y-88150000D01*
X110552661Y-88150000D01*
X110654394Y-88122741D01*
X110745606Y-88070080D01*
X110820080Y-87995606D01*
X110872741Y-87904394D01*
X110900000Y-87802661D01*
X110900000Y-87796447D01*
X111579024Y-88475471D01*
X111630136Y-88402478D01*
X111726264Y-88196331D01*
X111726269Y-88196317D01*
X111785139Y-87976610D01*
X111785141Y-87976599D01*
X111804966Y-87750002D01*
X111804966Y-87749997D01*
X111785141Y-87523400D01*
X111785139Y-87523389D01*
X111726269Y-87303682D01*
X111726264Y-87303668D01*
X111630136Y-87097521D01*
X111630132Y-87097513D01*
X111579025Y-87024526D01*
X110900000Y-87703551D01*
X110900000Y-87697339D01*
X110872741Y-87595606D01*
X110820080Y-87504394D01*
X110745606Y-87429920D01*
X110654394Y-87377259D01*
X110552661Y-87350000D01*
X110546448Y-87350000D01*
X111225472Y-86670974D01*
X111152478Y-86619863D01*
X110946331Y-86523735D01*
X110946317Y-86523730D01*
X110726610Y-86464860D01*
X110726599Y-86464858D01*
X110500002Y-86445034D01*
X110499998Y-86445034D01*
X110273400Y-86464858D01*
X110273389Y-86464860D01*
X110053682Y-86523730D01*
X110053673Y-86523734D01*
X109847516Y-86619866D01*
X109847512Y-86619868D01*
X109774526Y-86670973D01*
X109774526Y-86670974D01*
X110453553Y-87350000D01*
X110447339Y-87350000D01*
X110345606Y-87377259D01*
X110254394Y-87429920D01*
X110179920Y-87504394D01*
X110127259Y-87595606D01*
X110100000Y-87697339D01*
X110100000Y-87703552D01*
X109420974Y-87024526D01*
X109420973Y-87024526D01*
X109369868Y-87097512D01*
X109369866Y-87097516D01*
X109273734Y-87303673D01*
X109273730Y-87303682D01*
X109214860Y-87523389D01*
X109214858Y-87523400D01*
X109195034Y-87749997D01*
X106900000Y-87749997D01*
X106900000Y-87667339D01*
X106872741Y-87565606D01*
X106820080Y-87474394D01*
X106815686Y-87470000D01*
X107778872Y-87470000D01*
X107778872Y-87469999D01*
X107726269Y-87273682D01*
X107726265Y-87273673D01*
X107630134Y-87067517D01*
X107499657Y-86881179D01*
X107338820Y-86720342D01*
X107152482Y-86589865D01*
X107094133Y-86562657D01*
X107041694Y-86516484D01*
X107022542Y-86449291D01*
X107042758Y-86382410D01*
X107094129Y-86337895D01*
X107152734Y-86310568D01*
X107339139Y-86180047D01*
X107500047Y-86019139D01*
X107630568Y-85832734D01*
X107726739Y-85626496D01*
X107785635Y-85406692D01*
X107805468Y-85180000D01*
X107804797Y-85172335D01*
X107785635Y-84953313D01*
X107785635Y-84953308D01*
X107731147Y-84749954D01*
X107726741Y-84733511D01*
X107726738Y-84733502D01*
X107709411Y-84696344D01*
X107630568Y-84527266D01*
X107500047Y-84340861D01*
X107500045Y-84340858D01*
X107339141Y-84179954D01*
X107152734Y-84049432D01*
X107152728Y-84049429D01*
X107094725Y-84022382D01*
X107042285Y-83976210D01*
X107023133Y-83909017D01*
X107043348Y-83842135D01*
X107094725Y-83797618D01*
X107102409Y-83794035D01*
X107152734Y-83770568D01*
X107339139Y-83640047D01*
X107500047Y-83479139D01*
X107630568Y-83292734D01*
X107726739Y-83086496D01*
X107785635Y-82866692D01*
X107805468Y-82640000D01*
X107785635Y-82413308D01*
X107726739Y-82193504D01*
X107630568Y-81987266D01*
X107500047Y-81800861D01*
X107500045Y-81800858D01*
X107339141Y-81639954D01*
X107152734Y-81509432D01*
X107152728Y-81509429D01*
X107094725Y-81482382D01*
X107042285Y-81436210D01*
X107023133Y-81369017D01*
X107043348Y-81302135D01*
X107094725Y-81257618D01*
X107102409Y-81254035D01*
X107152734Y-81230568D01*
X107339139Y-81100047D01*
X107500047Y-80939139D01*
X107630568Y-80752734D01*
X107726739Y-80546496D01*
X107785635Y-80326692D01*
X107805468Y-80100000D01*
X107785635Y-79873308D01*
X107726739Y-79653504D01*
X107630568Y-79447266D01*
X107500047Y-79260861D01*
X107500045Y-79260858D01*
X107339141Y-79099954D01*
X107152734Y-78969432D01*
X107152728Y-78969429D01*
X107094725Y-78942382D01*
X107042285Y-78896210D01*
X107023133Y-78829017D01*
X107043348Y-78762135D01*
X107094725Y-78717618D01*
X107102409Y-78714035D01*
X107152734Y-78690568D01*
X107339139Y-78560047D01*
X107500047Y-78399139D01*
X107630568Y-78212734D01*
X107726739Y-78006496D01*
X107785635Y-77786692D01*
X107805468Y-77560000D01*
X107785635Y-77333308D01*
X107726739Y-77113504D01*
X107630568Y-76907266D01*
X107500047Y-76720861D01*
X107500045Y-76720858D01*
X107339141Y-76559954D01*
X107152734Y-76429432D01*
X107152728Y-76429429D01*
X107094725Y-76402382D01*
X107042285Y-76356210D01*
X107023133Y-76289017D01*
X107043348Y-76222135D01*
X107094725Y-76177618D01*
X107102409Y-76174035D01*
X107152734Y-76150568D01*
X107339139Y-76020047D01*
X107500047Y-75859139D01*
X107630568Y-75672734D01*
X107726739Y-75466496D01*
X107785635Y-75246692D01*
X107805468Y-75020000D01*
X107803718Y-74999999D01*
X117894341Y-74999999D01*
X117894341Y-75000000D01*
X117914936Y-75235403D01*
X117914938Y-75235413D01*
X117976094Y-75463655D01*
X117976096Y-75463659D01*
X117976097Y-75463663D01*
X117977419Y-75466497D01*
X118075965Y-75677830D01*
X118075967Y-75677834D01*
X118149024Y-75782169D01*
X118202920Y-75859141D01*
X118211501Y-75871395D01*
X118211506Y-75871402D01*
X118378597Y-76038493D01*
X118378603Y-76038498D01*
X118564158Y-76168425D01*
X118607783Y-76223002D01*
X118614977Y-76292500D01*
X118583454Y-76354855D01*
X118564158Y-76371575D01*
X118378597Y-76501505D01*
X118211505Y-76668597D01*
X118075965Y-76862169D01*
X118075964Y-76862171D01*
X117976098Y-77076335D01*
X117976094Y-77076344D01*
X117914938Y-77304586D01*
X117914936Y-77304596D01*
X117894341Y-77539999D01*
X117894341Y-77540000D01*
X117914936Y-77775403D01*
X117914938Y-77775413D01*
X117976094Y-78003655D01*
X117976096Y-78003659D01*
X117976097Y-78003663D01*
X117977419Y-78006497D01*
X118075965Y-78217830D01*
X118075967Y-78217834D01*
X118149024Y-78322169D01*
X118202920Y-78399141D01*
X118211501Y-78411395D01*
X118211506Y-78411402D01*
X118378597Y-78578493D01*
X118378603Y-78578498D01*
X118564158Y-78708425D01*
X118607783Y-78763002D01*
X118614977Y-78832500D01*
X118583454Y-78894855D01*
X118564158Y-78911575D01*
X118378597Y-79041505D01*
X118211505Y-79208597D01*
X118075965Y-79402169D01*
X118075964Y-79402171D01*
X117976098Y-79616335D01*
X117976094Y-79616344D01*
X117914938Y-79844586D01*
X117914936Y-79844596D01*
X117894341Y-80079999D01*
X117894341Y-80080000D01*
X117914936Y-80315403D01*
X117914938Y-80315413D01*
X117976094Y-80543655D01*
X117976096Y-80543659D01*
X117976097Y-80543663D01*
X117977419Y-80546497D01*
X118075965Y-80757830D01*
X118075967Y-80757834D01*
X118149024Y-80862169D01*
X118202920Y-80939141D01*
X118211501Y-80951395D01*
X118211506Y-80951402D01*
X118378597Y-81118493D01*
X118378603Y-81118498D01*
X118564158Y-81248425D01*
X118607783Y-81303002D01*
X118614977Y-81372500D01*
X118583454Y-81434855D01*
X118564158Y-81451575D01*
X118378597Y-81581505D01*
X118211505Y-81748597D01*
X118075965Y-81942169D01*
X118075964Y-81942171D01*
X117976098Y-82156335D01*
X117976094Y-82156344D01*
X117914938Y-82384586D01*
X117914936Y-82384596D01*
X117894341Y-82619999D01*
X117894341Y-82620000D01*
X117914936Y-82855403D01*
X117914938Y-82855413D01*
X117976094Y-83083655D01*
X117976096Y-83083659D01*
X117976097Y-83083663D01*
X118073588Y-83292732D01*
X118075965Y-83297830D01*
X118075967Y-83297834D01*
X118184281Y-83452521D01*
X118202920Y-83479141D01*
X118211501Y-83491395D01*
X118211506Y-83491402D01*
X118378597Y-83658493D01*
X118378603Y-83658498D01*
X118564158Y-83788425D01*
X118607783Y-83843002D01*
X118614977Y-83912500D01*
X118583454Y-83974855D01*
X118564158Y-83991575D01*
X118378597Y-84121505D01*
X118211505Y-84288597D01*
X118075965Y-84482169D01*
X118075964Y-84482171D01*
X117976098Y-84696335D01*
X117976094Y-84696344D01*
X117914938Y-84924586D01*
X117914936Y-84924596D01*
X117894341Y-85159999D01*
X117894341Y-85160000D01*
X117914936Y-85395403D01*
X117914938Y-85395413D01*
X117976094Y-85623655D01*
X117976096Y-85623659D01*
X117976097Y-85623663D01*
X117977419Y-85626497D01*
X118075965Y-85837830D01*
X118075967Y-85837834D01*
X118173193Y-85976686D01*
X118211505Y-86031401D01*
X118378599Y-86198495D01*
X118475384Y-86266265D01*
X118572165Y-86334032D01*
X118572167Y-86334033D01*
X118572170Y-86334035D01*
X118786337Y-86433903D01*
X119014592Y-86495063D01*
X119202918Y-86511539D01*
X119249999Y-86515659D01*
X119250000Y-86515659D01*
X119250001Y-86515659D01*
X119289234Y-86512226D01*
X119485408Y-86495063D01*
X119713663Y-86433903D01*
X119927830Y-86334035D01*
X120121401Y-86198495D01*
X120288495Y-86031401D01*
X120424035Y-85837830D01*
X120523903Y-85623663D01*
X120585063Y-85395408D01*
X120605659Y-85160000D01*
X120585063Y-84924592D01*
X120523903Y-84696337D01*
X120424035Y-84482171D01*
X120411568Y-84464365D01*
X120288494Y-84288597D01*
X120121402Y-84121506D01*
X120121396Y-84121501D01*
X119935842Y-83991575D01*
X119892217Y-83936998D01*
X119885023Y-83867500D01*
X119916546Y-83805145D01*
X119935842Y-83788425D01*
X119961346Y-83770567D01*
X120121401Y-83658495D01*
X120288495Y-83491401D01*
X120424035Y-83297830D01*
X120523903Y-83083663D01*
X120585063Y-82855408D01*
X120605659Y-82620000D01*
X120585063Y-82384592D01*
X120523903Y-82156337D01*
X120424035Y-81942171D01*
X120307271Y-81775413D01*
X120288494Y-81748597D01*
X120121402Y-81581506D01*
X120121396Y-81581501D01*
X119935842Y-81451575D01*
X119892217Y-81396998D01*
X119885023Y-81327500D01*
X119916546Y-81265145D01*
X119935842Y-81248425D01*
X119961346Y-81230567D01*
X120121401Y-81118495D01*
X120288495Y-80951401D01*
X120424035Y-80757830D01*
X120523903Y-80543663D01*
X120585063Y-80315408D01*
X120605659Y-80080000D01*
X120585063Y-79844592D01*
X120523903Y-79616337D01*
X120424035Y-79402171D01*
X120307271Y-79235413D01*
X120288494Y-79208597D01*
X120121402Y-79041506D01*
X120121396Y-79041501D01*
X119935842Y-78911575D01*
X119892217Y-78856998D01*
X119885023Y-78787500D01*
X119916546Y-78725145D01*
X119935842Y-78708425D01*
X119961346Y-78690567D01*
X120121401Y-78578495D01*
X120288495Y-78411401D01*
X120424035Y-78217830D01*
X120523903Y-78003663D01*
X120585063Y-77775408D01*
X120605659Y-77540000D01*
X120585063Y-77304592D01*
X120523903Y-77076337D01*
X120424035Y-76862171D01*
X120307271Y-76695413D01*
X120288494Y-76668597D01*
X120121402Y-76501506D01*
X120121396Y-76501501D01*
X119935842Y-76371575D01*
X119892217Y-76316998D01*
X119885023Y-76247500D01*
X119916546Y-76185145D01*
X119935842Y-76168425D01*
X119961346Y-76150567D01*
X120121401Y-76038495D01*
X120288495Y-75871401D01*
X120424035Y-75677830D01*
X120523903Y-75463663D01*
X120585063Y-75235408D01*
X120605659Y-75000000D01*
X120585063Y-74764592D01*
X120523903Y-74536337D01*
X120424035Y-74322171D01*
X120307270Y-74155413D01*
X120288496Y-74128600D01*
X120288495Y-74128599D01*
X120166567Y-74006671D01*
X120133084Y-73945351D01*
X120138068Y-73875659D01*
X120179939Y-73819725D01*
X120210915Y-73802810D01*
X120342331Y-73753796D01*
X120457546Y-73667546D01*
X120543796Y-73552331D01*
X120594091Y-73417483D01*
X120600500Y-73357873D01*
X120600499Y-71562128D01*
X120594091Y-71502517D01*
X120585675Y-71479953D01*
X120543797Y-71367671D01*
X120543793Y-71367664D01*
X120457547Y-71252455D01*
X120457544Y-71252452D01*
X120342335Y-71166206D01*
X120342328Y-71166202D01*
X120207482Y-71115908D01*
X120207483Y-71115908D01*
X120147883Y-71109501D01*
X120147881Y-71109500D01*
X120147873Y-71109500D01*
X120147864Y-71109500D01*
X118352129Y-71109500D01*
X118352123Y-71109501D01*
X118292516Y-71115908D01*
X118157671Y-71166202D01*
X118157664Y-71166206D01*
X118042455Y-71252452D01*
X118042452Y-71252455D01*
X117956206Y-71367664D01*
X117956202Y-71367671D01*
X117905908Y-71502517D01*
X117899501Y-71562116D01*
X117899501Y-71562123D01*
X117899500Y-71562135D01*
X117899500Y-73357870D01*
X117899501Y-73357876D01*
X117905908Y-73417483D01*
X117956202Y-73552328D01*
X117956206Y-73552335D01*
X118042452Y-73667544D01*
X118042455Y-73667547D01*
X118157664Y-73753793D01*
X118157671Y-73753797D01*
X118289081Y-73802810D01*
X118345015Y-73844681D01*
X118369432Y-73910145D01*
X118354580Y-73978418D01*
X118333430Y-74006673D01*
X118211503Y-74128600D01*
X118075965Y-74322169D01*
X118075964Y-74322171D01*
X117976098Y-74536335D01*
X117976094Y-74536344D01*
X117914938Y-74764586D01*
X117914936Y-74764596D01*
X117894341Y-74999999D01*
X107803718Y-74999999D01*
X107785635Y-74793308D01*
X107726739Y-74573504D01*
X107630568Y-74367266D01*
X107500047Y-74180861D01*
X107500045Y-74180858D01*
X107339141Y-74019954D01*
X107152734Y-73889432D01*
X107152728Y-73889429D01*
X107094725Y-73862382D01*
X107042285Y-73816210D01*
X107023133Y-73749017D01*
X107043348Y-73682135D01*
X107094725Y-73637618D01*
X107152734Y-73610568D01*
X107339139Y-73480047D01*
X107500047Y-73319139D01*
X107630568Y-73132734D01*
X107726739Y-72926496D01*
X107785635Y-72706692D01*
X107805468Y-72480000D01*
X107785635Y-72253308D01*
X107726739Y-72033504D01*
X107630568Y-71827266D01*
X107500047Y-71640861D01*
X107500045Y-71640858D01*
X107339141Y-71479954D01*
X107152734Y-71349432D01*
X107152732Y-71349431D01*
X106946497Y-71253261D01*
X106946488Y-71253258D01*
X106726697Y-71194366D01*
X106726693Y-71194365D01*
X106726692Y-71194365D01*
X106726691Y-71194364D01*
X106726686Y-71194364D01*
X106500002Y-71174532D01*
X106499998Y-71174532D01*
X106273313Y-71194364D01*
X106273302Y-71194366D01*
X106053511Y-71253258D01*
X106053502Y-71253261D01*
X105847267Y-71349431D01*
X105847265Y-71349432D01*
X105660858Y-71479954D01*
X105499954Y-71640858D01*
X105369432Y-71827265D01*
X105369431Y-71827267D01*
X105273261Y-72033502D01*
X105273258Y-72033511D01*
X105214366Y-72253302D01*
X105214364Y-72253313D01*
X105194532Y-72479998D01*
X100180499Y-72479998D01*
X100180499Y-71632128D01*
X100174091Y-71572517D01*
X100170216Y-71562128D01*
X100123797Y-71437671D01*
X100123793Y-71437664D01*
X100037547Y-71322455D01*
X100037544Y-71322452D01*
X99922335Y-71236206D01*
X99922328Y-71236202D01*
X99787482Y-71185908D01*
X99787483Y-71185908D01*
X99727883Y-71179501D01*
X99727881Y-71179500D01*
X99727873Y-71179500D01*
X99727864Y-71179500D01*
X98032129Y-71179500D01*
X98032123Y-71179501D01*
X97972516Y-71185908D01*
X97837671Y-71236202D01*
X97837664Y-71236206D01*
X97722455Y-71322452D01*
X97722452Y-71322455D01*
X97636206Y-71437664D01*
X97636202Y-71437671D01*
X97585908Y-71572517D01*
X97579501Y-71632116D01*
X97579501Y-71632123D01*
X97579500Y-71632135D01*
X97579500Y-73327870D01*
X97579501Y-73327876D01*
X97585908Y-73387483D01*
X97636202Y-73522328D01*
X97636206Y-73522335D01*
X97722452Y-73637544D01*
X97722455Y-73637547D01*
X97837664Y-73723793D01*
X97837671Y-73723797D01*
X97882618Y-73740561D01*
X97972517Y-73774091D01*
X98007596Y-73777862D01*
X98072144Y-73804599D01*
X98111993Y-73861991D01*
X98114488Y-73931816D01*
X98078836Y-73991905D01*
X98065464Y-74002725D01*
X98040858Y-74019954D01*
X97879954Y-74180858D01*
X97749432Y-74367265D01*
X97749431Y-74367267D01*
X97653261Y-74573502D01*
X97653258Y-74573511D01*
X97594366Y-74793302D01*
X97594364Y-74793313D01*
X97574532Y-75019998D01*
X82033566Y-75019998D01*
X82121401Y-74958495D01*
X82288495Y-74791401D01*
X82424035Y-74597830D01*
X82523903Y-74383663D01*
X82585063Y-74155408D01*
X82605659Y-73920000D01*
X82602984Y-73889431D01*
X82595406Y-73802810D01*
X82585063Y-73684592D01*
X82530256Y-73480047D01*
X82523905Y-73456344D01*
X82523904Y-73456343D01*
X82523903Y-73456337D01*
X82424035Y-73242171D01*
X82347406Y-73132732D01*
X82288494Y-73048597D01*
X82121402Y-72881506D01*
X82121395Y-72881501D01*
X81927834Y-72745967D01*
X81927830Y-72745965D01*
X81927828Y-72745964D01*
X81713663Y-72646097D01*
X81713659Y-72646096D01*
X81713655Y-72646094D01*
X81485413Y-72584938D01*
X81485403Y-72584936D01*
X81250001Y-72564341D01*
X81249999Y-72564341D01*
X81014596Y-72584936D01*
X81014586Y-72584938D01*
X80786344Y-72646094D01*
X80786335Y-72646098D01*
X80572171Y-72745964D01*
X80572169Y-72745965D01*
X80378597Y-72881505D01*
X80211505Y-73048597D01*
X80075965Y-73242169D01*
X80075964Y-73242171D01*
X79976098Y-73456335D01*
X79976094Y-73456344D01*
X79914938Y-73684586D01*
X79914936Y-73684596D01*
X79894341Y-73919999D01*
X77500500Y-73919999D01*
X77500500Y-68499994D01*
X84494859Y-68499994D01*
X84494859Y-68500005D01*
X84515385Y-68747729D01*
X84515387Y-68747738D01*
X84576412Y-68988717D01*
X84676266Y-69216364D01*
X84776564Y-69369882D01*
X85476212Y-68670234D01*
X85487482Y-68712292D01*
X85559890Y-68837708D01*
X85662292Y-68940110D01*
X85787708Y-69012518D01*
X85829765Y-69023787D01*
X85129942Y-69723609D01*
X85176768Y-69760055D01*
X85176770Y-69760056D01*
X85395385Y-69878364D01*
X85395396Y-69878369D01*
X85630506Y-69959083D01*
X85875707Y-70000000D01*
X86124293Y-70000000D01*
X86369493Y-69959083D01*
X86604603Y-69878369D01*
X86604614Y-69878364D01*
X86823228Y-69760057D01*
X86823231Y-69760055D01*
X86870056Y-69723609D01*
X86170234Y-69023787D01*
X86212292Y-69012518D01*
X86337708Y-68940110D01*
X86440110Y-68837708D01*
X86512518Y-68712292D01*
X86523787Y-68670235D01*
X87223434Y-69369882D01*
X87323731Y-69216369D01*
X87423587Y-68988717D01*
X87484612Y-68747738D01*
X87484614Y-68747729D01*
X87505141Y-68500005D01*
X87505141Y-68499994D01*
X90994859Y-68499994D01*
X90994859Y-68500005D01*
X91015385Y-68747729D01*
X91015387Y-68747738D01*
X91076412Y-68988717D01*
X91176266Y-69216364D01*
X91276564Y-69369882D01*
X91976212Y-68670234D01*
X91987482Y-68712292D01*
X92059890Y-68837708D01*
X92162292Y-68940110D01*
X92287708Y-69012518D01*
X92329765Y-69023787D01*
X91629942Y-69723609D01*
X91676768Y-69760055D01*
X91676770Y-69760056D01*
X91895385Y-69878364D01*
X91895396Y-69878369D01*
X92130506Y-69959083D01*
X92375707Y-70000000D01*
X92624293Y-70000000D01*
X92869493Y-69959083D01*
X93104603Y-69878369D01*
X93104614Y-69878364D01*
X93323228Y-69760057D01*
X93323231Y-69760055D01*
X93370056Y-69723609D01*
X92670234Y-69023787D01*
X92712292Y-69012518D01*
X92837708Y-68940110D01*
X92940110Y-68837708D01*
X93012518Y-68712292D01*
X93023787Y-68670235D01*
X93723434Y-69369882D01*
X93823731Y-69216369D01*
X93923587Y-68988717D01*
X93984612Y-68747738D01*
X93984614Y-68747729D01*
X94005141Y-68500005D01*
X94005141Y-68499994D01*
X93984614Y-68252270D01*
X93984612Y-68252261D01*
X93984039Y-68249999D01*
X109309341Y-68249999D01*
X109309341Y-68250000D01*
X109329936Y-68485403D01*
X109329938Y-68485413D01*
X109391094Y-68713655D01*
X109391096Y-68713659D01*
X109391097Y-68713663D01*
X109456329Y-68853553D01*
X109490965Y-68927830D01*
X109490967Y-68927834D01*
X109550264Y-69012518D01*
X109626505Y-69121401D01*
X109793599Y-69288495D01*
X109890384Y-69356265D01*
X109987165Y-69424032D01*
X109987167Y-69424033D01*
X109987170Y-69424035D01*
X110201337Y-69523903D01*
X110429592Y-69585063D01*
X110606034Y-69600500D01*
X110664999Y-69605659D01*
X110665000Y-69605659D01*
X110665001Y-69605659D01*
X110723966Y-69600500D01*
X110900408Y-69585063D01*
X111128663Y-69523903D01*
X111342830Y-69424035D01*
X111536401Y-69288495D01*
X111703495Y-69121401D01*
X111833425Y-68935842D01*
X111888002Y-68892217D01*
X111957500Y-68885023D01*
X112019855Y-68916546D01*
X112036575Y-68935842D01*
X112166500Y-69121395D01*
X112166505Y-69121401D01*
X112333599Y-69288495D01*
X112430384Y-69356265D01*
X112527165Y-69424032D01*
X112527167Y-69424033D01*
X112527170Y-69424035D01*
X112741337Y-69523903D01*
X112969592Y-69585063D01*
X113146034Y-69600500D01*
X113204999Y-69605659D01*
X113205000Y-69605659D01*
X113205001Y-69605659D01*
X113263966Y-69600500D01*
X113440408Y-69585063D01*
X113668663Y-69523903D01*
X113882830Y-69424035D01*
X114076401Y-69288495D01*
X114243495Y-69121401D01*
X114373425Y-68935842D01*
X114428002Y-68892217D01*
X114497500Y-68885023D01*
X114559855Y-68916546D01*
X114576575Y-68935842D01*
X114706500Y-69121395D01*
X114706505Y-69121401D01*
X114873599Y-69288495D01*
X114970384Y-69356265D01*
X115067165Y-69424032D01*
X115067167Y-69424033D01*
X115067170Y-69424035D01*
X115281337Y-69523903D01*
X115509592Y-69585063D01*
X115686034Y-69600500D01*
X115744999Y-69605659D01*
X115745000Y-69605659D01*
X115745001Y-69605659D01*
X115803966Y-69600500D01*
X115980408Y-69585063D01*
X116208663Y-69523903D01*
X116422830Y-69424035D01*
X116616401Y-69288495D01*
X116783495Y-69121401D01*
X116913425Y-68935842D01*
X116968002Y-68892217D01*
X117037500Y-68885023D01*
X117099855Y-68916546D01*
X117116575Y-68935842D01*
X117246500Y-69121395D01*
X117246505Y-69121401D01*
X117413599Y-69288495D01*
X117510384Y-69356265D01*
X117607165Y-69424032D01*
X117607167Y-69424033D01*
X117607170Y-69424035D01*
X117821337Y-69523903D01*
X118049592Y-69585063D01*
X118226034Y-69600500D01*
X118284999Y-69605659D01*
X118285000Y-69605659D01*
X118285001Y-69605659D01*
X118343966Y-69600500D01*
X118520408Y-69585063D01*
X118748663Y-69523903D01*
X118962830Y-69424035D01*
X119156401Y-69288495D01*
X119278329Y-69166566D01*
X119339648Y-69133084D01*
X119409340Y-69138068D01*
X119465274Y-69179939D01*
X119482189Y-69210917D01*
X119531202Y-69342328D01*
X119531206Y-69342335D01*
X119617452Y-69457544D01*
X119617455Y-69457547D01*
X119732664Y-69543793D01*
X119732671Y-69543797D01*
X119867517Y-69594091D01*
X119867516Y-69594091D01*
X119874444Y-69594835D01*
X119927127Y-69600500D01*
X121722872Y-69600499D01*
X121782483Y-69594091D01*
X121917331Y-69543796D01*
X122032546Y-69457546D01*
X122118796Y-69342331D01*
X122169091Y-69207483D01*
X122175500Y-69147873D01*
X122175499Y-67352128D01*
X122169091Y-67292517D01*
X122167810Y-67289083D01*
X122118797Y-67157671D01*
X122118793Y-67157664D01*
X122032547Y-67042455D01*
X122032544Y-67042452D01*
X121917335Y-66956206D01*
X121917328Y-66956202D01*
X121782482Y-66905908D01*
X121782483Y-66905908D01*
X121722883Y-66899501D01*
X121722881Y-66899500D01*
X121722873Y-66899500D01*
X121722864Y-66899500D01*
X119927129Y-66899500D01*
X119927123Y-66899501D01*
X119867516Y-66905908D01*
X119732671Y-66956202D01*
X119732664Y-66956206D01*
X119617455Y-67042452D01*
X119617452Y-67042455D01*
X119531206Y-67157664D01*
X119531203Y-67157669D01*
X119482189Y-67289083D01*
X119440317Y-67345016D01*
X119374853Y-67369433D01*
X119306580Y-67354581D01*
X119278326Y-67333430D01*
X119156402Y-67211506D01*
X119156395Y-67211501D01*
X118962834Y-67075967D01*
X118962830Y-67075965D01*
X118962828Y-67075964D01*
X118748663Y-66976097D01*
X118748659Y-66976096D01*
X118748655Y-66976094D01*
X118520413Y-66914938D01*
X118520403Y-66914936D01*
X118285001Y-66894341D01*
X118284999Y-66894341D01*
X118049596Y-66914936D01*
X118049586Y-66914938D01*
X117821344Y-66976094D01*
X117821335Y-66976098D01*
X117607171Y-67075964D01*
X117607169Y-67075965D01*
X117413597Y-67211505D01*
X117246505Y-67378597D01*
X117116575Y-67564158D01*
X117061998Y-67607783D01*
X116992500Y-67614977D01*
X116930145Y-67583454D01*
X116913425Y-67564158D01*
X116783494Y-67378597D01*
X116616402Y-67211506D01*
X116616395Y-67211501D01*
X116422834Y-67075967D01*
X116422830Y-67075965D01*
X116422828Y-67075964D01*
X116208663Y-66976097D01*
X116208659Y-66976096D01*
X116208655Y-66976094D01*
X115980413Y-66914938D01*
X115980403Y-66914936D01*
X115745001Y-66894341D01*
X115744999Y-66894341D01*
X115509596Y-66914936D01*
X115509586Y-66914938D01*
X115281344Y-66976094D01*
X115281335Y-66976098D01*
X115067171Y-67075964D01*
X115067169Y-67075965D01*
X114873597Y-67211505D01*
X114706505Y-67378597D01*
X114576575Y-67564158D01*
X114521998Y-67607783D01*
X114452500Y-67614977D01*
X114390145Y-67583454D01*
X114373425Y-67564158D01*
X114243494Y-67378597D01*
X114076402Y-67211506D01*
X114076395Y-67211501D01*
X113882834Y-67075967D01*
X113882830Y-67075965D01*
X113882828Y-67075964D01*
X113668663Y-66976097D01*
X113668659Y-66976096D01*
X113668655Y-66976094D01*
X113440413Y-66914938D01*
X113440403Y-66914936D01*
X113205001Y-66894341D01*
X113204999Y-66894341D01*
X112969596Y-66914936D01*
X112969586Y-66914938D01*
X112741344Y-66976094D01*
X112741335Y-66976098D01*
X112527171Y-67075964D01*
X112527169Y-67075965D01*
X112333597Y-67211505D01*
X112166505Y-67378597D01*
X112036575Y-67564158D01*
X111981998Y-67607783D01*
X111912500Y-67614977D01*
X111850145Y-67583454D01*
X111833425Y-67564158D01*
X111703494Y-67378597D01*
X111536402Y-67211506D01*
X111536395Y-67211501D01*
X111342834Y-67075967D01*
X111342830Y-67075965D01*
X111342828Y-67075964D01*
X111128663Y-66976097D01*
X111128659Y-66976096D01*
X111128655Y-66976094D01*
X110900413Y-66914938D01*
X110900403Y-66914936D01*
X110665001Y-66894341D01*
X110664999Y-66894341D01*
X110429596Y-66914936D01*
X110429586Y-66914938D01*
X110201344Y-66976094D01*
X110201335Y-66976098D01*
X109987171Y-67075964D01*
X109987169Y-67075965D01*
X109793597Y-67211505D01*
X109626505Y-67378597D01*
X109490965Y-67572169D01*
X109490964Y-67572171D01*
X109391098Y-67786335D01*
X109391094Y-67786344D01*
X109329938Y-68014586D01*
X109329936Y-68014596D01*
X109309341Y-68249999D01*
X93984039Y-68249999D01*
X93923587Y-68011282D01*
X93823731Y-67783630D01*
X93723434Y-67630116D01*
X93023787Y-68329764D01*
X93012518Y-68287708D01*
X92940110Y-68162292D01*
X92837708Y-68059890D01*
X92712292Y-67987482D01*
X92670235Y-67976212D01*
X93370057Y-67276390D01*
X93370056Y-67276389D01*
X93323229Y-67239943D01*
X93104614Y-67121635D01*
X93104603Y-67121630D01*
X92869493Y-67040916D01*
X92624293Y-67000000D01*
X92375707Y-67000000D01*
X92130506Y-67040916D01*
X91895396Y-67121630D01*
X91895390Y-67121632D01*
X91676761Y-67239949D01*
X91629942Y-67276388D01*
X91629942Y-67276390D01*
X92329765Y-67976212D01*
X92287708Y-67987482D01*
X92162292Y-68059890D01*
X92059890Y-68162292D01*
X91987482Y-68287708D01*
X91976212Y-68329764D01*
X91276564Y-67630116D01*
X91176267Y-67783632D01*
X91076412Y-68011282D01*
X91015387Y-68252261D01*
X91015385Y-68252270D01*
X90994859Y-68499994D01*
X87505141Y-68499994D01*
X87484614Y-68252270D01*
X87484612Y-68252261D01*
X87423587Y-68011282D01*
X87323731Y-67783630D01*
X87223434Y-67630116D01*
X86523787Y-68329764D01*
X86512518Y-68287708D01*
X86440110Y-68162292D01*
X86337708Y-68059890D01*
X86212292Y-67987482D01*
X86170235Y-67976212D01*
X86870057Y-67276390D01*
X86870056Y-67276389D01*
X86823229Y-67239943D01*
X86604614Y-67121635D01*
X86604603Y-67121630D01*
X86369493Y-67040916D01*
X86124293Y-67000000D01*
X85875707Y-67000000D01*
X85630506Y-67040916D01*
X85395396Y-67121630D01*
X85395390Y-67121632D01*
X85176761Y-67239949D01*
X85129942Y-67276388D01*
X85129942Y-67276390D01*
X85829765Y-67976212D01*
X85787708Y-67987482D01*
X85662292Y-68059890D01*
X85559890Y-68162292D01*
X85487482Y-68287708D01*
X85476212Y-68329764D01*
X84776564Y-67630116D01*
X84676267Y-67783632D01*
X84576412Y-68011282D01*
X84515387Y-68252261D01*
X84515385Y-68252270D01*
X84494859Y-68499994D01*
X77500500Y-68499994D01*
X77500500Y-63999994D01*
X84494357Y-63999994D01*
X84494357Y-64000005D01*
X84514890Y-64247812D01*
X84514892Y-64247824D01*
X84575936Y-64488881D01*
X84675826Y-64716606D01*
X84811833Y-64924782D01*
X84811836Y-64924785D01*
X84980256Y-65107738D01*
X85176491Y-65260474D01*
X85395190Y-65378828D01*
X85630386Y-65459571D01*
X85875665Y-65500500D01*
X86124335Y-65500500D01*
X86369614Y-65459571D01*
X86604810Y-65378828D01*
X86823509Y-65260474D01*
X87019744Y-65107738D01*
X87188164Y-64924785D01*
X87324173Y-64716607D01*
X87424063Y-64488881D01*
X87485108Y-64247821D01*
X87505643Y-64000000D01*
X87505643Y-63999994D01*
X90994357Y-63999994D01*
X90994357Y-64000005D01*
X91014890Y-64247812D01*
X91014892Y-64247824D01*
X91075936Y-64488881D01*
X91175826Y-64716606D01*
X91311833Y-64924782D01*
X91311836Y-64924785D01*
X91480256Y-65107738D01*
X91676491Y-65260474D01*
X91895190Y-65378828D01*
X92130386Y-65459571D01*
X92375665Y-65500500D01*
X92624335Y-65500500D01*
X92869614Y-65459571D01*
X93104810Y-65378828D01*
X93323509Y-65260474D01*
X93519744Y-65107738D01*
X93688164Y-64924785D01*
X93824173Y-64716607D01*
X93924063Y-64488881D01*
X93985108Y-64247821D01*
X94005643Y-64000000D01*
X93985108Y-63752179D01*
X93924063Y-63511119D01*
X93824173Y-63283393D01*
X93688166Y-63075217D01*
X93666557Y-63051744D01*
X93519744Y-62892262D01*
X93323509Y-62739526D01*
X93323507Y-62739525D01*
X93323506Y-62739524D01*
X93104811Y-62621172D01*
X93104802Y-62621169D01*
X92869616Y-62540429D01*
X92624335Y-62499500D01*
X92375665Y-62499500D01*
X92130383Y-62540429D01*
X91895197Y-62621169D01*
X91895188Y-62621172D01*
X91676493Y-62739524D01*
X91480257Y-62892261D01*
X91311833Y-63075217D01*
X91175826Y-63283393D01*
X91075936Y-63511118D01*
X91014892Y-63752175D01*
X91014890Y-63752187D01*
X90994357Y-63999994D01*
X87505643Y-63999994D01*
X87485108Y-63752179D01*
X87424063Y-63511119D01*
X87324173Y-63283393D01*
X87188166Y-63075217D01*
X87166557Y-63051744D01*
X87019744Y-62892262D01*
X86823509Y-62739526D01*
X86823507Y-62739525D01*
X86823506Y-62739524D01*
X86604811Y-62621172D01*
X86604802Y-62621169D01*
X86369616Y-62540429D01*
X86124335Y-62499500D01*
X85875665Y-62499500D01*
X85630383Y-62540429D01*
X85395197Y-62621169D01*
X85395188Y-62621172D01*
X85176493Y-62739524D01*
X84980257Y-62892261D01*
X84811833Y-63075217D01*
X84675826Y-63283393D01*
X84575936Y-63511118D01*
X84514892Y-63752175D01*
X84514890Y-63752187D01*
X84494357Y-63999994D01*
X77500500Y-63999994D01*
X77500500Y-58499998D01*
X93944532Y-58499998D01*
X93944532Y-58500001D01*
X93964364Y-58726686D01*
X93964366Y-58726697D01*
X94023258Y-58946488D01*
X94023261Y-58946497D01*
X94119431Y-59152732D01*
X94119432Y-59152734D01*
X94249954Y-59339141D01*
X94410858Y-59500045D01*
X94410861Y-59500047D01*
X94597266Y-59630568D01*
X94612387Y-59637619D01*
X94664825Y-59683791D01*
X94683976Y-59750985D01*
X94663760Y-59817866D01*
X94612387Y-59862380D01*
X94597266Y-59869432D01*
X94597264Y-59869433D01*
X94410858Y-59999954D01*
X94249954Y-60160858D01*
X94119432Y-60347265D01*
X94119431Y-60347267D01*
X94023261Y-60553502D01*
X94023258Y-60553511D01*
X93964366Y-60773302D01*
X93964364Y-60773313D01*
X93944532Y-60999998D01*
X93944532Y-61000001D01*
X93964364Y-61226686D01*
X93964366Y-61226697D01*
X94023258Y-61446488D01*
X94023261Y-61446497D01*
X94119431Y-61652732D01*
X94119432Y-61652734D01*
X94249954Y-61839141D01*
X94410858Y-62000045D01*
X94410861Y-62000047D01*
X94597266Y-62130568D01*
X94803504Y-62226739D01*
X95023308Y-62285635D01*
X95185230Y-62299801D01*
X95249998Y-62305468D01*
X95250000Y-62305468D01*
X95250002Y-62305468D01*
X95306673Y-62300509D01*
X95476692Y-62285635D01*
X95696496Y-62226739D01*
X95902734Y-62130568D01*
X96089139Y-62000047D01*
X96250047Y-61839139D01*
X96380568Y-61652734D01*
X96476739Y-61446496D01*
X96535635Y-61226692D01*
X96555468Y-61000000D01*
X96535635Y-60773308D01*
X96476739Y-60553504D01*
X96380568Y-60347266D01*
X96250047Y-60160861D01*
X96250045Y-60160858D01*
X96089141Y-59999954D01*
X95902734Y-59869432D01*
X95887614Y-59862381D01*
X95835176Y-59816211D01*
X95816023Y-59749018D01*
X95836238Y-59682136D01*
X95887614Y-59637618D01*
X95902734Y-59630568D01*
X96089139Y-59500047D01*
X96250047Y-59339139D01*
X96380568Y-59152734D01*
X96476739Y-58946496D01*
X96535635Y-58726692D01*
X96555468Y-58500000D01*
X96535635Y-58273308D01*
X96476739Y-58053504D01*
X96380568Y-57847266D01*
X96250047Y-57660861D01*
X96250045Y-57660858D01*
X96089141Y-57499954D01*
X95902734Y-57369432D01*
X95902732Y-57369431D01*
X95696497Y-57273261D01*
X95696488Y-57273258D01*
X95476697Y-57214366D01*
X95476693Y-57214365D01*
X95476692Y-57214365D01*
X95476691Y-57214364D01*
X95476686Y-57214364D01*
X95250002Y-57194532D01*
X95249998Y-57194532D01*
X95023313Y-57214364D01*
X95023302Y-57214366D01*
X94803511Y-57273258D01*
X94803502Y-57273261D01*
X94597267Y-57369431D01*
X94597265Y-57369432D01*
X94410858Y-57499954D01*
X94249954Y-57660858D01*
X94119432Y-57847265D01*
X94119431Y-57847267D01*
X94023261Y-58053502D01*
X94023258Y-58053511D01*
X93964366Y-58273302D01*
X93964364Y-58273313D01*
X93944532Y-58499998D01*
X77500500Y-58499998D01*
X77500500Y-55499998D01*
X84614532Y-55499998D01*
X84614532Y-55500001D01*
X84634364Y-55726686D01*
X84634366Y-55726697D01*
X84693258Y-55946488D01*
X84693261Y-55946497D01*
X84789431Y-56152732D01*
X84789432Y-56152734D01*
X84919954Y-56339141D01*
X85080858Y-56500045D01*
X85080861Y-56500047D01*
X85267266Y-56630568D01*
X85473504Y-56726739D01*
X85693308Y-56785635D01*
X85855230Y-56799801D01*
X85919998Y-56805468D01*
X85920000Y-56805468D01*
X85920002Y-56805468D01*
X85976673Y-56800509D01*
X86146692Y-56785635D01*
X86366496Y-56726739D01*
X86572734Y-56630568D01*
X86759139Y-56500047D01*
X86920047Y-56339139D01*
X87050568Y-56152734D01*
X87146739Y-55946496D01*
X87205635Y-55726692D01*
X87225468Y-55500000D01*
X87225468Y-55499998D01*
X94774532Y-55499998D01*
X94774532Y-55500001D01*
X94794364Y-55726686D01*
X94794366Y-55726697D01*
X94853258Y-55946488D01*
X94853261Y-55946497D01*
X94949431Y-56152732D01*
X94949432Y-56152734D01*
X95079954Y-56339141D01*
X95240858Y-56500045D01*
X95240861Y-56500047D01*
X95427266Y-56630568D01*
X95633504Y-56726739D01*
X95853308Y-56785635D01*
X96015230Y-56799801D01*
X96079998Y-56805468D01*
X96080000Y-56805468D01*
X96080002Y-56805468D01*
X96136673Y-56800509D01*
X96306692Y-56785635D01*
X96526496Y-56726739D01*
X96732734Y-56630568D01*
X96919139Y-56500047D01*
X97080047Y-56339139D01*
X97210568Y-56152734D01*
X97306739Y-55946496D01*
X97365635Y-55726692D01*
X97385468Y-55500000D01*
X97365635Y-55273308D01*
X97306739Y-55053504D01*
X97210568Y-54847266D01*
X97080047Y-54660861D01*
X97080045Y-54660858D01*
X96919141Y-54499954D01*
X96732734Y-54369432D01*
X96732732Y-54369431D01*
X96526497Y-54273261D01*
X96526488Y-54273258D01*
X96306697Y-54214366D01*
X96306693Y-54214365D01*
X96306692Y-54214365D01*
X96306691Y-54214364D01*
X96306686Y-54214364D01*
X96080002Y-54194532D01*
X96079998Y-54194532D01*
X95853313Y-54214364D01*
X95853302Y-54214366D01*
X95633511Y-54273258D01*
X95633502Y-54273261D01*
X95427267Y-54369431D01*
X95427265Y-54369432D01*
X95240858Y-54499954D01*
X95079954Y-54660858D01*
X94949432Y-54847265D01*
X94949431Y-54847267D01*
X94853261Y-55053502D01*
X94853258Y-55053511D01*
X94794366Y-55273302D01*
X94794364Y-55273313D01*
X94774532Y-55499998D01*
X87225468Y-55499998D01*
X87205635Y-55273308D01*
X87146739Y-55053504D01*
X87050568Y-54847266D01*
X86920047Y-54660861D01*
X86920045Y-54660858D01*
X86759141Y-54499954D01*
X86572734Y-54369432D01*
X86572732Y-54369431D01*
X86366497Y-54273261D01*
X86366488Y-54273258D01*
X86146697Y-54214366D01*
X86146693Y-54214365D01*
X86146692Y-54214365D01*
X86146691Y-54214364D01*
X86146686Y-54214364D01*
X85920002Y-54194532D01*
X85919998Y-54194532D01*
X85693313Y-54214364D01*
X85693302Y-54214366D01*
X85473511Y-54273258D01*
X85473502Y-54273261D01*
X85267267Y-54369431D01*
X85267265Y-54369432D01*
X85080858Y-54499954D01*
X84919954Y-54660858D01*
X84789432Y-54847265D01*
X84789431Y-54847267D01*
X84693261Y-55053502D01*
X84693258Y-55053511D01*
X84634366Y-55273302D01*
X84634364Y-55273313D01*
X84614532Y-55499998D01*
X77500500Y-55499998D01*
X77500500Y-49834136D01*
X77520185Y-49767097D01*
X77572989Y-49721342D01*
X77642147Y-49711398D01*
X77705703Y-49740423D01*
X77722111Y-49757663D01*
X77737460Y-49777255D01*
X77972744Y-50012539D01*
X78234673Y-50217748D01*
X78234678Y-50217751D01*
X78234682Y-50217754D01*
X78519443Y-50389898D01*
X78822877Y-50526463D01*
X78822890Y-50526467D01*
X78822895Y-50526469D01*
X79034665Y-50592458D01*
X79140559Y-50625456D01*
X79467858Y-50685436D01*
X79800000Y-50705527D01*
X80132142Y-50685436D01*
X80459441Y-50625456D01*
X80777123Y-50526463D01*
X81080557Y-50389898D01*
X81365318Y-50217754D01*
X81627252Y-50012542D01*
X81683965Y-49955828D01*
X81745286Y-49922345D01*
X81814978Y-49927329D01*
X81870911Y-49969200D01*
X81895329Y-50034664D01*
X81890031Y-50080401D01*
X81824544Y-50290558D01*
X81764563Y-50617863D01*
X81744473Y-50950000D01*
X81764563Y-51282136D01*
X81764563Y-51282141D01*
X81764564Y-51282142D01*
X81824544Y-51609441D01*
X81824545Y-51609445D01*
X81824546Y-51609449D01*
X81923530Y-51927104D01*
X81923534Y-51927116D01*
X81923537Y-51927123D01*
X82060102Y-52230557D01*
X82141362Y-52364977D01*
X82232251Y-52515326D01*
X82437460Y-52777255D01*
X82672744Y-53012539D01*
X82934673Y-53217748D01*
X82934678Y-53217751D01*
X82934682Y-53217754D01*
X83219443Y-53389898D01*
X83522877Y-53526463D01*
X83522890Y-53526467D01*
X83522895Y-53526469D01*
X83734665Y-53592458D01*
X83840559Y-53625456D01*
X84167858Y-53685436D01*
X84500000Y-53705527D01*
X84832142Y-53685436D01*
X85159441Y-53625456D01*
X85477123Y-53526463D01*
X85780557Y-53389898D01*
X86065318Y-53217754D01*
X86327252Y-53012542D01*
X86562542Y-52777252D01*
X86583893Y-52749999D01*
X109334364Y-52749999D01*
X109334364Y-52750000D01*
X110231988Y-52750000D01*
X110199075Y-52807007D01*
X110165000Y-52934174D01*
X110165000Y-53065826D01*
X110199075Y-53192993D01*
X110231988Y-53250000D01*
X109334364Y-53250000D01*
X109391567Y-53463486D01*
X109391570Y-53463492D01*
X109491399Y-53677578D01*
X109626894Y-53871082D01*
X109793917Y-54038105D01*
X109987421Y-54173600D01*
X110201507Y-54273429D01*
X110201516Y-54273433D01*
X110415000Y-54330634D01*
X110415000Y-53433012D01*
X110472007Y-53465925D01*
X110599174Y-53500000D01*
X110730826Y-53500000D01*
X110857993Y-53465925D01*
X110915000Y-53433012D01*
X110915000Y-54330633D01*
X111128483Y-54273433D01*
X111128492Y-54273429D01*
X111342578Y-54173600D01*
X111536082Y-54038105D01*
X111703105Y-53871082D01*
X111833119Y-53685405D01*
X111887696Y-53641781D01*
X111957195Y-53634588D01*
X112019549Y-53666110D01*
X112036269Y-53685405D01*
X112166505Y-53871401D01*
X112333599Y-54038495D01*
X112430384Y-54106265D01*
X112527165Y-54174032D01*
X112527167Y-54174033D01*
X112527170Y-54174035D01*
X112741337Y-54273903D01*
X112969592Y-54335063D01*
X113146034Y-54350500D01*
X113204999Y-54355659D01*
X113205000Y-54355659D01*
X113205001Y-54355659D01*
X113263966Y-54350500D01*
X113440408Y-54335063D01*
X113668663Y-54273903D01*
X113882830Y-54174035D01*
X114076401Y-54038495D01*
X114243495Y-53871401D01*
X114373425Y-53685842D01*
X114428002Y-53642217D01*
X114497500Y-53635023D01*
X114559855Y-53666546D01*
X114576575Y-53685842D01*
X114706281Y-53871082D01*
X114706505Y-53871401D01*
X114873599Y-54038495D01*
X114970384Y-54106265D01*
X115067165Y-54174032D01*
X115067167Y-54174033D01*
X115067170Y-54174035D01*
X115281337Y-54273903D01*
X115509592Y-54335063D01*
X115686034Y-54350500D01*
X115744999Y-54355659D01*
X115745000Y-54355659D01*
X115745001Y-54355659D01*
X115803966Y-54350500D01*
X115980408Y-54335063D01*
X116208663Y-54273903D01*
X116422830Y-54174035D01*
X116616401Y-54038495D01*
X116783495Y-53871401D01*
X116913425Y-53685842D01*
X116968002Y-53642217D01*
X117037500Y-53635023D01*
X117099855Y-53666546D01*
X117116575Y-53685842D01*
X117246281Y-53871082D01*
X117246505Y-53871401D01*
X117413599Y-54038495D01*
X117510384Y-54106265D01*
X117607165Y-54174032D01*
X117607167Y-54174033D01*
X117607170Y-54174035D01*
X117821337Y-54273903D01*
X118049592Y-54335063D01*
X118226034Y-54350500D01*
X118284999Y-54355659D01*
X118285000Y-54355659D01*
X118285001Y-54355659D01*
X118343966Y-54350500D01*
X118520408Y-54335063D01*
X118748663Y-54273903D01*
X118962830Y-54174035D01*
X119156401Y-54038495D01*
X119278329Y-53916566D01*
X119339648Y-53883084D01*
X119409340Y-53888068D01*
X119465274Y-53929939D01*
X119482189Y-53960917D01*
X119531202Y-54092328D01*
X119531206Y-54092335D01*
X119617452Y-54207544D01*
X119617455Y-54207547D01*
X119732664Y-54293793D01*
X119732671Y-54293797D01*
X119867517Y-54344091D01*
X119867516Y-54344091D01*
X119874444Y-54344835D01*
X119927127Y-54350500D01*
X121722872Y-54350499D01*
X121782483Y-54344091D01*
X121917331Y-54293796D01*
X122032546Y-54207546D01*
X122118796Y-54092331D01*
X122169091Y-53957483D01*
X122175500Y-53897873D01*
X122175499Y-52102128D01*
X122169091Y-52042517D01*
X122167810Y-52039083D01*
X122118797Y-51907671D01*
X122118793Y-51907664D01*
X122032547Y-51792455D01*
X122032544Y-51792452D01*
X121917335Y-51706206D01*
X121917328Y-51706202D01*
X121782482Y-51655908D01*
X121782483Y-51655908D01*
X121722883Y-51649501D01*
X121722881Y-51649500D01*
X121722873Y-51649500D01*
X121722864Y-51649500D01*
X119927129Y-51649500D01*
X119927123Y-51649501D01*
X119867516Y-51655908D01*
X119732671Y-51706202D01*
X119732664Y-51706206D01*
X119617455Y-51792452D01*
X119617452Y-51792455D01*
X119531206Y-51907664D01*
X119531203Y-51907669D01*
X119482189Y-52039083D01*
X119440317Y-52095016D01*
X119374853Y-52119433D01*
X119306580Y-52104581D01*
X119278326Y-52083430D01*
X119156402Y-51961506D01*
X119156395Y-51961501D01*
X118962834Y-51825967D01*
X118962830Y-51825965D01*
X118962828Y-51825964D01*
X118748663Y-51726097D01*
X118748659Y-51726096D01*
X118748655Y-51726094D01*
X118520413Y-51664938D01*
X118520403Y-51664936D01*
X118285001Y-51644341D01*
X118284999Y-51644341D01*
X118049596Y-51664936D01*
X118049586Y-51664938D01*
X117821344Y-51726094D01*
X117821335Y-51726098D01*
X117607171Y-51825964D01*
X117607169Y-51825965D01*
X117413597Y-51961505D01*
X117246505Y-52128597D01*
X117116575Y-52314158D01*
X117061998Y-52357783D01*
X116992500Y-52364977D01*
X116930145Y-52333454D01*
X116913425Y-52314158D01*
X116783494Y-52128597D01*
X116616402Y-51961506D01*
X116616395Y-51961501D01*
X116422834Y-51825967D01*
X116422830Y-51825965D01*
X116422828Y-51825964D01*
X116208663Y-51726097D01*
X116208659Y-51726096D01*
X116208655Y-51726094D01*
X115980413Y-51664938D01*
X115980403Y-51664936D01*
X115745001Y-51644341D01*
X115744999Y-51644341D01*
X115509596Y-51664936D01*
X115509586Y-51664938D01*
X115281344Y-51726094D01*
X115281335Y-51726098D01*
X115067171Y-51825964D01*
X115067169Y-51825965D01*
X114873597Y-51961505D01*
X114706505Y-52128597D01*
X114576575Y-52314158D01*
X114521998Y-52357783D01*
X114452500Y-52364977D01*
X114390145Y-52333454D01*
X114373425Y-52314158D01*
X114243494Y-52128597D01*
X114076402Y-51961506D01*
X114076395Y-51961501D01*
X113882834Y-51825967D01*
X113882830Y-51825965D01*
X113882828Y-51825964D01*
X113668663Y-51726097D01*
X113668659Y-51726096D01*
X113668655Y-51726094D01*
X113440413Y-51664938D01*
X113440403Y-51664936D01*
X113205001Y-51644341D01*
X113204999Y-51644341D01*
X112969596Y-51664936D01*
X112969586Y-51664938D01*
X112741344Y-51726094D01*
X112741335Y-51726098D01*
X112527171Y-51825964D01*
X112527169Y-51825965D01*
X112333597Y-51961505D01*
X112166508Y-52128594D01*
X112036269Y-52314595D01*
X111981692Y-52358219D01*
X111912193Y-52365412D01*
X111849839Y-52333890D01*
X111833119Y-52314594D01*
X111703113Y-52128926D01*
X111703108Y-52128920D01*
X111536082Y-51961894D01*
X111342578Y-51826399D01*
X111128492Y-51726570D01*
X111128486Y-51726567D01*
X110915000Y-51669364D01*
X110915000Y-52566988D01*
X110857993Y-52534075D01*
X110730826Y-52500000D01*
X110599174Y-52500000D01*
X110472007Y-52534075D01*
X110415000Y-52566988D01*
X110415000Y-51669364D01*
X110414999Y-51669364D01*
X110201513Y-51726567D01*
X110201507Y-51726570D01*
X109987422Y-51826399D01*
X109987420Y-51826400D01*
X109793926Y-51961886D01*
X109793920Y-51961891D01*
X109626891Y-52128920D01*
X109626886Y-52128926D01*
X109491400Y-52322420D01*
X109491399Y-52322422D01*
X109391570Y-52536507D01*
X109391567Y-52536513D01*
X109334364Y-52749999D01*
X86583893Y-52749999D01*
X86751149Y-52536513D01*
X86767748Y-52515326D01*
X86767748Y-52515324D01*
X86767754Y-52515318D01*
X86939898Y-52230557D01*
X87076463Y-51927123D01*
X87175456Y-51609441D01*
X87235436Y-51282142D01*
X87255527Y-50950000D01*
X87235436Y-50617858D01*
X87175456Y-50290559D01*
X87109969Y-50080401D01*
X87076469Y-49972895D01*
X87076467Y-49972890D01*
X87076463Y-49972877D01*
X86939898Y-49669443D01*
X86767754Y-49384682D01*
X86767751Y-49384678D01*
X86767748Y-49384673D01*
X86562539Y-49122744D01*
X86327255Y-48887460D01*
X86065326Y-48682251D01*
X86065318Y-48682246D01*
X85780557Y-48510102D01*
X85477123Y-48373537D01*
X85477116Y-48373534D01*
X85477104Y-48373530D01*
X85159449Y-48274546D01*
X85159445Y-48274545D01*
X85159441Y-48274544D01*
X84832142Y-48214564D01*
X84832141Y-48214563D01*
X84832136Y-48214563D01*
X84500000Y-48194473D01*
X84167863Y-48214563D01*
X84167858Y-48214564D01*
X83840559Y-48274544D01*
X83840556Y-48274544D01*
X83840550Y-48274546D01*
X83522895Y-48373530D01*
X83522879Y-48373536D01*
X83522877Y-48373537D01*
X83329656Y-48460498D01*
X83219447Y-48510100D01*
X83219445Y-48510101D01*
X82934673Y-48682251D01*
X82672748Y-48887457D01*
X82616035Y-48944170D01*
X82554711Y-48977654D01*
X82485019Y-48972669D01*
X82429086Y-48930798D01*
X82404670Y-48865333D01*
X82409969Y-48819598D01*
X82420469Y-48785899D01*
X82475456Y-48609441D01*
X82535436Y-48282142D01*
X82555527Y-47950000D01*
X82535436Y-47617858D01*
X82475456Y-47290559D01*
X82376463Y-46972877D01*
X82333097Y-46876523D01*
X82323534Y-46807314D01*
X82352907Y-46743918D01*
X82358492Y-46737953D01*
X83205747Y-45890697D01*
X83279588Y-45992330D01*
X83457670Y-46170412D01*
X83559300Y-46244251D01*
X82739415Y-47064136D01*
X82739415Y-47064137D01*
X82934960Y-47217337D01*
X82934968Y-47217342D01*
X83219678Y-47389454D01*
X83219680Y-47389456D01*
X83523056Y-47525994D01*
X83523071Y-47526000D01*
X83840670Y-47624967D01*
X84167923Y-47684939D01*
X84500000Y-47705025D01*
X84832076Y-47684939D01*
X85159329Y-47624967D01*
X85476928Y-47526000D01*
X85476943Y-47525994D01*
X85780319Y-47389456D01*
X85780321Y-47389454D01*
X86065030Y-47217343D01*
X86260583Y-47064137D01*
X86260583Y-47064136D01*
X85440698Y-46244251D01*
X85542330Y-46170412D01*
X85720412Y-45992330D01*
X85794251Y-45890698D01*
X86614136Y-46710583D01*
X86614137Y-46710583D01*
X86767343Y-46515030D01*
X86939454Y-46230321D01*
X86939456Y-46230319D01*
X87075994Y-45926943D01*
X87076000Y-45926928D01*
X87174967Y-45609329D01*
X87234939Y-45282076D01*
X87255025Y-44950000D01*
X87234939Y-44617923D01*
X87174967Y-44290670D01*
X87076000Y-43973071D01*
X87075994Y-43973056D01*
X86939456Y-43669680D01*
X86939454Y-43669678D01*
X86767342Y-43384968D01*
X86767337Y-43384960D01*
X86614136Y-43189415D01*
X85794250Y-44009300D01*
X85720412Y-43907670D01*
X85542330Y-43729588D01*
X85440698Y-43655748D01*
X86260583Y-42835862D01*
X86260583Y-42835861D01*
X86065039Y-42682662D01*
X86065031Y-42682657D01*
X85780321Y-42510545D01*
X85780319Y-42510543D01*
X85756882Y-42499995D01*
X99694953Y-42499995D01*
X99694953Y-42500004D01*
X99715113Y-42769026D01*
X99715113Y-42769028D01*
X99775142Y-43032033D01*
X99775148Y-43032052D01*
X99873709Y-43283181D01*
X99873708Y-43283181D01*
X100008602Y-43516822D01*
X100062294Y-43584151D01*
X100062295Y-43584151D01*
X100898958Y-42747488D01*
X100923978Y-42807890D01*
X100995112Y-42914351D01*
X101085649Y-43004888D01*
X101192110Y-43076022D01*
X101252510Y-43101041D01*
X100414848Y-43938702D01*
X100597483Y-44063220D01*
X100597485Y-44063221D01*
X100840539Y-44180269D01*
X100840537Y-44180269D01*
X101098337Y-44259790D01*
X101098343Y-44259792D01*
X101365101Y-44299999D01*
X101365110Y-44300000D01*
X101634890Y-44300000D01*
X101634898Y-44299999D01*
X101901656Y-44259792D01*
X101901662Y-44259790D01*
X102159461Y-44180269D01*
X102402521Y-44063218D01*
X102585150Y-43938702D01*
X101747488Y-43101041D01*
X101807890Y-43076022D01*
X101914351Y-43004888D01*
X102004888Y-42914351D01*
X102076022Y-42807890D01*
X102101041Y-42747488D01*
X102937703Y-43584151D01*
X102937704Y-43584150D01*
X102991393Y-43516828D01*
X102991400Y-43516817D01*
X103126290Y-43283181D01*
X103224851Y-43032052D01*
X103224857Y-43032033D01*
X103284886Y-42769028D01*
X103284886Y-42769026D01*
X103305047Y-42500004D01*
X103305047Y-42499995D01*
X103284886Y-42230973D01*
X103284886Y-42230971D01*
X103224857Y-41967966D01*
X103224851Y-41967947D01*
X103126290Y-41716818D01*
X103126291Y-41716818D01*
X102991397Y-41483177D01*
X102937704Y-41415847D01*
X102101041Y-42252510D01*
X102076022Y-42192110D01*
X102004888Y-42085649D01*
X101914351Y-41995112D01*
X101807890Y-41923978D01*
X101747488Y-41898958D01*
X102494311Y-41152135D01*
X104699500Y-41152135D01*
X104699500Y-43847870D01*
X104699501Y-43847876D01*
X104705908Y-43907483D01*
X104756202Y-44042328D01*
X104756206Y-44042335D01*
X104842452Y-44157544D01*
X104842455Y-44157547D01*
X104957664Y-44243793D01*
X104957671Y-44243797D01*
X105092517Y-44294091D01*
X105092516Y-44294091D01*
X105099444Y-44294835D01*
X105152127Y-44300500D01*
X107847872Y-44300499D01*
X107907483Y-44294091D01*
X108042331Y-44243796D01*
X108157546Y-44157546D01*
X108243796Y-44042331D01*
X108294091Y-43907483D01*
X108300500Y-43847873D01*
X108300499Y-41152128D01*
X108294091Y-41092517D01*
X108282446Y-41061296D01*
X108243797Y-40957671D01*
X108243793Y-40957664D01*
X108157547Y-40842455D01*
X108157544Y-40842452D01*
X108042335Y-40756206D01*
X108042328Y-40756202D01*
X107907482Y-40705908D01*
X107907483Y-40705908D01*
X107847883Y-40699501D01*
X107847881Y-40699500D01*
X107847873Y-40699500D01*
X107847864Y-40699500D01*
X105152129Y-40699500D01*
X105152123Y-40699501D01*
X105092516Y-40705908D01*
X104957671Y-40756202D01*
X104957664Y-40756206D01*
X104842455Y-40842452D01*
X104842452Y-40842455D01*
X104756206Y-40957664D01*
X104756202Y-40957671D01*
X104705908Y-41092517D01*
X104699501Y-41152116D01*
X104699501Y-41152123D01*
X104699500Y-41152135D01*
X102494311Y-41152135D01*
X102585150Y-41061296D01*
X102402517Y-40936779D01*
X102402516Y-40936778D01*
X102159460Y-40819730D01*
X102159462Y-40819730D01*
X101901662Y-40740209D01*
X101901656Y-40740207D01*
X101634898Y-40700000D01*
X101365101Y-40700000D01*
X101098343Y-40740207D01*
X101098337Y-40740209D01*
X100840538Y-40819730D01*
X100597485Y-40936778D01*
X100597476Y-40936783D01*
X100414848Y-41061296D01*
X101252511Y-41898958D01*
X101192110Y-41923978D01*
X101085649Y-41995112D01*
X100995112Y-42085649D01*
X100923978Y-42192110D01*
X100898958Y-42252511D01*
X100062295Y-41415848D01*
X100008600Y-41483180D01*
X99873709Y-41716818D01*
X99775148Y-41967947D01*
X99775142Y-41967966D01*
X99715113Y-42230971D01*
X99715113Y-42230973D01*
X99694953Y-42499995D01*
X85756882Y-42499995D01*
X85476943Y-42374005D01*
X85476928Y-42373999D01*
X85159329Y-42275032D01*
X84832076Y-42215060D01*
X84500000Y-42194974D01*
X84167923Y-42215060D01*
X83840670Y-42275032D01*
X83523071Y-42373999D01*
X83523056Y-42374005D01*
X83219680Y-42510543D01*
X83219678Y-42510545D01*
X82934968Y-42682657D01*
X82739415Y-42835862D01*
X83559301Y-43655748D01*
X83457670Y-43729588D01*
X83279588Y-43907670D01*
X83205748Y-44009301D01*
X82385862Y-43189415D01*
X82232657Y-43384968D01*
X82060545Y-43669678D01*
X82060543Y-43669680D01*
X81924005Y-43973056D01*
X81923999Y-43973071D01*
X81825032Y-44290670D01*
X81765060Y-44617923D01*
X81744974Y-44950000D01*
X81765060Y-45282076D01*
X81825030Y-45609321D01*
X81890792Y-45820359D01*
X81891942Y-45890219D01*
X81855141Y-45949612D01*
X81792073Y-45979680D01*
X81722760Y-45970877D01*
X81684725Y-45944930D01*
X81627255Y-45887460D01*
X81365326Y-45682251D01*
X81365318Y-45682246D01*
X81080557Y-45510102D01*
X80777123Y-45373537D01*
X80777116Y-45373534D01*
X80777104Y-45373530D01*
X80459449Y-45274546D01*
X80459445Y-45274545D01*
X80459441Y-45274544D01*
X80132142Y-45214564D01*
X80132141Y-45214563D01*
X80132136Y-45214563D01*
X79800000Y-45194473D01*
X79467863Y-45214563D01*
X79467858Y-45214564D01*
X79140559Y-45274544D01*
X79140556Y-45274544D01*
X79140550Y-45274546D01*
X78822895Y-45373530D01*
X78822879Y-45373536D01*
X78822877Y-45373537D01*
X78629656Y-45460498D01*
X78519447Y-45510100D01*
X78519445Y-45510101D01*
X78234673Y-45682251D01*
X77972744Y-45887460D01*
X77737458Y-46122746D01*
X77722109Y-46142338D01*
X77665269Y-46182969D01*
X77595485Y-46186420D01*
X77534912Y-46151595D01*
X77502784Y-46089551D01*
X77500500Y-46065863D01*
X77500500Y-37624500D01*
X77520185Y-37557461D01*
X77572989Y-37511706D01*
X77624500Y-37500500D01*
X124875500Y-37500500D01*
X124942539Y-37520185D01*
G37*
G04 #@! TD.AperFunction*
M02*
