M48
; DRILL file {KiCad 8.0.4} date 2024-11-21T22:48:04-0500
; FORMAT={-:-/ absolute / metric / decimal}
; #@! TF.CreationDate,2024-11-21T22:48:04-05:00
; #@! TF.GenerationSoftware,Kicad,Pcbnew,8.0.4
; #@! TF.FileFunction,Plated,1,2,PTH
FMAT,2
METRIC
; #@! TA.AperFunction,Plated,PTH,ViaDrill
T1C0.300
; #@! TA.AperFunction,Plated,PTH,ComponentDrill
T2C0.711
; #@! TA.AperFunction,Plated,PTH,ComponentDrill
T3C0.800
; #@! TA.AperFunction,Plated,PTH,ComponentDrill
T4C1.000
; #@! TA.AperFunction,Plated,PTH,ComponentDrill
T5C1.100
; #@! TA.AperFunction,Plated,PTH,ComponentDrill
T6C1.300
; #@! TA.AperFunction,Plated,PTH,ComponentDrill
T7C3.200
%
G90
G05
T1
X91.75Y-50.0
X92.5Y-42.75
X94.5Y-41.0
X96.5Y-42.75
X96.5Y-44.0
X97.0Y-51.0
X98.75Y-50.0
T2
X86.25Y-91.697
X86.25Y-96.573
T3
X85.92Y-55.5
X90.75Y-89.25
X90.75Y-91.75
X90.75Y-96.5
X90.75Y-99.0
X94.75Y-85.75
X94.75Y-90.75
X95.25Y-58.5
X95.25Y-61.0
X96.08Y-55.5
X98.88Y-72.48
X98.88Y-75.02
X98.88Y-77.56
X98.88Y-80.1
X98.88Y-82.64
X98.88Y-85.18
X98.88Y-87.72
X98.88Y-90.26
X98.88Y-92.8
X98.88Y-95.34
X98.88Y-97.88
X98.88Y-100.42
X98.88Y-102.96
X98.88Y-105.5
X106.5Y-72.48
X106.5Y-75.02
X106.5Y-77.56
X106.5Y-80.1
X106.5Y-82.64
X106.5Y-85.18
X106.5Y-87.72
X106.5Y-90.26
X106.5Y-92.8
X106.5Y-95.34
X106.5Y-97.88
X106.5Y-100.42
X106.5Y-102.96
X106.5Y-105.5
X110.5Y-87.75
X110.5Y-92.75
T4
X81.25Y-73.92
X81.25Y-76.46
X81.25Y-79.0
X81.25Y-81.54
X81.25Y-84.08
X81.25Y-102.21
X81.25Y-104.75
X81.25Y-107.29
X81.25Y-109.83
X110.665Y-53.0
X110.665Y-68.25
X113.205Y-53.0
X113.205Y-68.25
X115.745Y-53.0
X115.745Y-68.25
X118.285Y-53.0
X118.285Y-68.25
X119.25Y-72.46
X119.25Y-75.0
X119.25Y-77.54
X119.25Y-80.08
X119.25Y-82.62
X119.25Y-85.16
X119.25Y-95.34
X119.25Y-97.88
X119.25Y-100.42
X119.25Y-102.96
X119.25Y-105.5
X120.825Y-53.0
X120.825Y-68.25
T5
X86.0Y-64.0
X86.0Y-68.5
X92.5Y-64.0
X92.5Y-68.5
T6
X101.5Y-42.5
X106.5Y-42.5
T7
X79.8Y-47.95
X84.5Y-44.95
X84.5Y-50.95
M30
